{
    "header": {
        "format": 1,
        "numTracks": 2,
        "ticksPerBeat": 300
    },
    "tracks": [
        [
            {
                "meta": true,
                "type": "timeSignature",
                "deltaTime": 0,
                "numerator": 3,
                "denominator": 4,
                "metronome": 24,
                "thirtyseconds": 8
            },
            {
                "deltaTime": 0,
                "meta": true,
                "type": "setTempo",
                "microsecondsPerBeat": 500000
            },
            {
                "deltaTime": 0,
                "meta": true,
                "type": "endOfTrack"
            }
        ],
        [
            {
                "meta": true,
                "text": "piano",
                "type": "trackName",
                "deltaTime": 0
            },
            {
                "deltaTime": 1800,
                "channel": 0,
                "type": "noteOn",
                "noteNumber": 69,
                "velocity": 85
            },
            {
                "deltaTime": 0,
                "channel": 0,
                "type": "noteOn",
                "noteNumber": 52,
                "velocity": 85
            },
            {
                "deltaTime": 300,
                "channel": 0,
                "type": "noteOn",
                "noteNumber": 60,
                "velocity": 50
            },
            {
                "deltaTime": 0,
                "channel": 0,
                "type": "noteOn",
                "noteNumber": 57,
                "velocity": 50
            },
            {
                "deltaTime": 150,
                "channel": 0,
                "type": "noteOff",
                "noteNumber": 60,
                "velocity": 50
            },
            {
                "deltaTime": 0,
                "channel": 0,
                "type": "noteOff",
                "noteNumber": 57,
                "velocity": 50
            },
            {
                "deltaTime": 150,
                "channel": 0,
                "type": "noteOff",
                "noteNumber": 52,
                "velocity": 85
            },
            {
                "deltaTime": 0,
                "channel": 0,
                "type": "noteOn",
                "noteNumber": 60,
                "velocity": 50
            },
            {
                "deltaTime": 0,
                "channel": 0,
                "type": "noteOn",
                "noteNumber": 57,
                "velocity": 50
            },
            {
                "deltaTime": 300,
                "channel": 0,
                "type": "noteOff",
                "noteNumber": 69,
                "velocity": 85
            },
            {
                "deltaTime": 0,
                "channel": 0,
                "type": "noteOff",
                "noteNumber": 60,
                "velocity": 50
            },
            {
                "deltaTime": 0,
                "channel": 0,
                "type": "noteOff",
                "noteNumber": 57,
                "velocity": 50
            },
            {
                "deltaTime": 0,
                "channel": 0,
                "type": "noteOn",
                "noteNumber": 52,
                "velocity": 85
            },
            {
                "deltaTime": 0,
                "channel": 0,
                "type": "noteOn",
                "noteNumber": 72,
                "velocity": 85
            },
            {
                "deltaTime": 300,
                "channel": 0,
                "type": "noteOn",
                "noteNumber": 60,
                "velocity": 50
            },
            {
                "deltaTime": 0,
                "channel": 0,
                "type": "noteOn",
                "noteNumber": 57,
                "velocity": 50
            },
            {
                "deltaTime": 150,
                "channel": 0,
                "type": "noteOff",
                "noteNumber": 60,
                "velocity": 50
            },
            {
                "deltaTime": 0,
                "channel": 0,
                "type": "noteOff",
                "noteNumber": 57,
                "velocity": 50
            },
            {
                "deltaTime": 150,
                "channel": 0,
                "type": "noteOff",
                "noteNumber": 52,
                "velocity": 85
            },
            {
                "deltaTime": 0,
                "channel": 0,
                "type": "noteOn",
                "noteNumber": 60,
                "velocity": 50
            },
            {
                "deltaTime": 0,
                "channel": 0,
                "type": "noteOn",
                "noteNumber": 57,
                "velocity": 50
            },
            {
                "deltaTime": 300,
                "channel": 0,
                "type": "noteOff",
                "noteNumber": 72,
                "velocity": 85
            },
            {
                "deltaTime": 0,
                "channel": 0,
                "type": "noteOff",
                "noteNumber": 60,
                "velocity": 50
            },
            {
                "deltaTime": 0,
                "channel": 0,
                "type": "noteOff",
                "noteNumber": 57,
                "velocity": 50
            },
            {
                "deltaTime": 0,
                "channel": 0,
                "type": "noteOn",
                "noteNumber": 52,
                "velocity": 85
            },
            {
                "deltaTime": 0,
                "channel": 0,
                "type": "noteOn",
                "noteNumber": 76,
                "velocity": 85
            },
            {
                "deltaTime": 300,
                "channel": 0,
                "type": "noteOn",
                "noteNumber": 60,
                "velocity": 50
            },
            {
                "deltaTime": 0,
                "channel": 0,
                "type": "noteOn",
                "noteNumber": 57,
                "velocity": 50
            },
            {
                "deltaTime": 150,
                "channel": 0,
                "type": "noteOff",
                "noteNumber": 60,
                "velocity": 50
            },
            {
                "deltaTime": 0,
                "channel": 0,
                "type": "noteOff",
                "noteNumber": 57,
                "velocity": 50
            },
            {
                "deltaTime": 150,
                "channel": 0,
                "type": "noteOff",
                "noteNumber": 52,
                "velocity": 85
            },
            {
                "deltaTime": 0,
                "channel": 0,
                "type": "noteOff",
                "noteNumber": 76,
                "velocity": 85
            },
            {
                "deltaTime": 0,
                "channel": 0,
                "type": "noteOn",
                "noteNumber": 60,
                "velocity": 50
            },
            {
                "deltaTime": 0,
                "channel": 0,
                "type": "noteOn",
                "noteNumber": 57,
                "velocity": 50
            },
            {
                "deltaTime": 300,
                "channel": 0,
                "type": "noteOff",
                "noteNumber": 60,
                "velocity": 50
            },
            {
                "deltaTime": 0,
                "channel": 0,
                "type": "noteOff",
                "noteNumber": 57,
                "velocity": 50
            },
            {
                "deltaTime": 0,
                "channel": 0,
                "type": "noteOn",
                "noteNumber": 52,
                "velocity": 85
            },
            {
                "deltaTime": 0,
                "channel": 0,
                "type": "noteOn",
                "noteNumber": 72,
                "velocity": 85
            },
            {
                "deltaTime": 100,
                "channel": 0,
                "type": "noteOff",
                "noteNumber": 72,
                "velocity": 85
            },
            {
                "deltaTime": 0,
                "channel": 0,
                "type": "noteOn",
                "noteNumber": 74,
                "velocity": 85
            },
            {
                "deltaTime": 100,
                "channel": 0,
                "type": "noteOff",
                "noteNumber": 74,
                "velocity": 85
            },
            {
                "deltaTime": 0,
                "channel": 0,
                "type": "noteOn",
                "noteNumber": 72,
                "velocity": 85
            },
            {
                "deltaTime": 100,
                "channel": 0,
                "type": "noteOff",
                "noteNumber": 72,
                "velocity": 85
            },
            {
                "deltaTime": 0,
                "channel": 0,
                "type": "noteOn",
                "noteNumber": 71,
                "velocity": 85
            },
            {
                "deltaTime": 0,
                "channel": 0,
                "type": "noteOn",
                "noteNumber": 60,
                "velocity": 50
            },
            {
                "deltaTime": 0,
                "channel": 0,
                "type": "noteOn",
                "noteNumber": 57,
                "velocity": 50
            },
            {
                "deltaTime": 100,
                "channel": 0,
                "type": "noteOff",
                "noteNumber": 71,
                "velocity": 85
            },
            {
                "deltaTime": 0,
                "channel": 0,
                "type": "noteOn",
                "noteNumber": 74,
                "velocity": 85
            },
            {
                "deltaTime": 12.5,
                "channel": 0,
                "type": "noteOff",
                "noteNumber": 60,
                "velocity": 50
            },
            {
                "deltaTime": 0,
                "channel": 0,
                "type": "noteOff",
                "noteNumber": 57,
                "velocity": 50
            },
            {
                "deltaTime": 87.5,
                "channel": 0,
                "type": "noteOff",
                "noteNumber": 74,
                "velocity": 85
            },
            {
                "deltaTime": 0,
                "channel": 0,
                "type": "noteOn",
                "noteNumber": 71,
                "velocity": 85
            },
            {
                "deltaTime": 100,
                "channel": 0,
                "type": "noteOff",
                "noteNumber": 52,
                "velocity": 85
            },
            {
                "deltaTime": 0,
                "channel": 0,
                "type": "noteOff",
                "noteNumber": 71,
                "velocity": 85
            },
            {
                "deltaTime": 0,
                "channel": 0,
                "type": "noteOn",
                "noteNumber": 69,
                "velocity": 85
            },
            {
                "deltaTime": 0,
                "channel": 0,
                "type": "noteOn",
                "noteNumber": 60,
                "velocity": 50
            },
            {
                "deltaTime": 0,
                "channel": 0,
                "type": "noteOn",
                "noteNumber": 57,
                "velocity": 50
            },
            {
                "deltaTime": 100,
                "channel": 0,
                "type": "noteOff",
                "noteNumber": 69,
                "velocity": 85
            },
            {
                "deltaTime": 0,
                "channel": 0,
                "type": "noteOn",
                "noteNumber": 71,
                "velocity": 85
            },
            {
                "deltaTime": 100,
                "channel": 0,
                "type": "noteOff",
                "noteNumber": 71,
                "velocity": 85
            },
            {
                "deltaTime": 0,
                "channel": 0,
                "type": "noteOn",
                "noteNumber": 69,
                "velocity": 85
            },
            {
                "deltaTime": 100,
                "channel": 0,
                "type": "noteOff",
                "noteNumber": 69,
                "velocity": 85
            },
            {
                "deltaTime": 0,
                "channel": 0,
                "type": "noteOff",
                "noteNumber": 60,
                "velocity": 50
            },
            {
                "deltaTime": 0,
                "channel": 0,
                "type": "noteOff",
                "noteNumber": 57,
                "velocity": 50
            },
            {
                "deltaTime": 0,
                "channel": 0,
                "type": "noteOn",
                "noteNumber": 52,
                "velocity": 85
            },
            {
                "deltaTime": 0,
                "channel": 0,
                "type": "noteOn",
                "noteNumber": 67,
                "velocity": 85
            },
            {
                "deltaTime": 300,
                "channel": 0,
                "type": "noteOff",
                "noteNumber": 67,
                "velocity": 85
            },
            {
                "deltaTime": 0,
                "channel": 0,
                "type": "noteOn",
                "noteNumber": 59,
                "velocity": 50
            },
            {
                "deltaTime": 0,
                "channel": 0,
                "type": "noteOn",
                "noteNumber": 55,
                "velocity": 50
            },
            {
                "deltaTime": 112.5,
                "channel": 0,
                "type": "noteOff",
                "noteNumber": 59,
                "velocity": 50
            },
            {
                "deltaTime": 0,
                "channel": 0,
                "type": "noteOff",
                "noteNumber": 55,
                "velocity": 50
            },
            {
                "deltaTime": 187.5,
                "channel": 0,
                "type": "noteOff",
                "noteNumber": 52,
                "velocity": 85
            },
            {
                "deltaTime": 0,
                "channel": 0,
                "type": "noteOn",
                "noteNumber": 59,
                "velocity": 50
            },
            {
                "deltaTime": 0,
                "channel": 0,
                "type": "noteOn",
                "noteNumber": 55,
                "velocity": 50
            },
            {
                "deltaTime": 300,
                "channel": 0,
                "type": "noteOff",
                "noteNumber": 59,
                "velocity": 50
            },
            {
                "deltaTime": 0,
                "channel": 0,
                "type": "noteOff",
                "noteNumber": 55,
                "velocity": 50
            },
            {
                "deltaTime": 0,
                "channel": 0,
                "type": "noteOn",
                "noteNumber": 52,
                "velocity": 85
            },
            {
                "deltaTime": 0,
                "channel": 0,
                "type": "noteOn",
                "noteNumber": 71,
                "velocity": 85
            },
            {
                "deltaTime": 300,
                "channel": 0,
                "type": "noteOff",
                "noteNumber": 71,
                "velocity": 85
            },
            {
                "deltaTime": 0,
                "channel": 0,
                "type": "noteOn",
                "noteNumber": 59,
                "velocity": 50
            },
            {
                "deltaTime": 0,
                "channel": 0,
                "type": "noteOn",
                "noteNumber": 55,
                "velocity": 50
            },
            {
                "deltaTime": 112.5,
                "channel": 0,
                "type": "noteOff",
                "noteNumber": 59,
                "velocity": 50
            },
            {
                "deltaTime": 0,
                "channel": 0,
                "type": "noteOff",
                "noteNumber": 55,
                "velocity": 50
            },
            {
                "deltaTime": 187.5,
                "channel": 0,
                "type": "noteOff",
                "noteNumber": 52,
                "velocity": 85
            },
            {
                "deltaTime": 0,
                "channel": 0,
                "type": "noteOn",
                "noteNumber": 59,
                "velocity": 50
            },
            {
                "deltaTime": 0,
                "channel": 0,
                "type": "noteOn",
                "noteNumber": 55,
                "velocity": 50
            },
            {
                "deltaTime": 300,
                "channel": 0,
                "type": "noteOff",
                "noteNumber": 59,
                "velocity": 50
            },
            {
                "deltaTime": 0,
                "channel": 0,
                "type": "noteOff",
                "noteNumber": 55,
                "velocity": 50
            },
            {
                "deltaTime": 0,
                "channel": 0,
                "type": "noteOn",
                "noteNumber": 52,
                "velocity": 85
            },
            {
                "deltaTime": 0,
                "channel": 0,
                "type": "noteOn",
                "noteNumber": 76,
                "velocity": 85
            },
            {
                "deltaTime": 300,
                "channel": 0,
                "type": "noteOff",
                "noteNumber": 76,
                "velocity": 85
            },
            {
                "deltaTime": 0,
                "channel": 0,
                "type": "noteOn",
                "noteNumber": 59,
                "velocity": 50
            },
            {
                "deltaTime": 0,
                "channel": 0,
                "type": "noteOn",
                "noteNumber": 55,
                "velocity": 50
            },
            {
                "deltaTime": 112.5,
                "channel": 0,
                "type": "noteOff",
                "noteNumber": 59,
                "velocity": 50
            },
            {
                "deltaTime": 0,
                "channel": 0,
                "type": "noteOff",
                "noteNumber": 55,
                "velocity": 50
            },
            {
                "deltaTime": 187.5,
                "channel": 0,
                "type": "noteOff",
                "noteNumber": 52,
                "velocity": 85
            },
            {
                "deltaTime": 0,
                "channel": 0,
                "type": "noteOn",
                "noteNumber": 59,
                "velocity": 50
            },
            {
                "deltaTime": 0,
                "channel": 0,
                "type": "noteOn",
                "noteNumber": 55,
                "velocity": 50
            },
            {
                "deltaTime": 300,
                "channel": 0,
                "type": "noteOff",
                "noteNumber": 59,
                "velocity": 50
            },
            {
                "deltaTime": 0,
                "channel": 0,
                "type": "noteOff",
                "noteNumber": 55,
                "velocity": 50
            },
            {
                "deltaTime": 0,
                "channel": 0,
                "type": "noteOn",
                "noteNumber": 52,
                "velocity": 85
            },
            {
                "deltaTime": 0,
                "channel": 0,
                "type": "noteOn",
                "noteNumber": 71,
                "velocity": 85
            },
            {
                "deltaTime": 100,
                "channel": 0,
                "type": "noteOff",
                "noteNumber": 71,
                "velocity": 85
            },
            {
                "deltaTime": 0,
                "channel": 0,
                "type": "noteOn",
                "noteNumber": 72,
                "velocity": 85
            },
            {
                "deltaTime": 100,
                "channel": 0,
                "type": "noteOff",
                "noteNumber": 72,
                "velocity": 85
            },
            {
                "deltaTime": 0,
                "channel": 0,
                "type": "noteOn",
                "noteNumber": 71,
                "velocity": 85
            },
            {
                "deltaTime": 100,
                "channel": 0,
                "type": "noteOff",
                "noteNumber": 71,
                "velocity": 85
            },
            {
                "deltaTime": 0,
                "channel": 0,
                "type": "noteOn",
                "noteNumber": 69,
                "velocity": 85
            },
            {
                "deltaTime": 0,
                "channel": 0,
                "type": "noteOn",
                "noteNumber": 59,
                "velocity": 50
            },
            {
                "deltaTime": 0,
                "channel": 0,
                "type": "noteOn",
                "noteNumber": 55,
                "velocity": 50
            },
            {
                "deltaTime": 100,
                "channel": 0,
                "type": "noteOff",
                "noteNumber": 69,
                "velocity": 85
            },
            {
                "deltaTime": 0,
                "channel": 0,
                "type": "noteOn",
                "noteNumber": 71,
                "velocity": 85
            },
            {
                "deltaTime": 12.5,
                "channel": 0,
                "type": "noteOff",
                "noteNumber": 59,
                "velocity": 50
            },
            {
                "deltaTime": 0,
                "channel": 0,
                "type": "noteOff",
                "noteNumber": 55,
                "velocity": 50
            },
            {
                "deltaTime": 87.5,
                "channel": 0,
                "type": "noteOff",
                "noteNumber": 71,
                "velocity": 85
            },
            {
                "deltaTime": 0,
                "channel": 0,
                "type": "noteOn",
                "noteNumber": 69,
                "velocity": 85
            },
            {
                "deltaTime": 100,
                "channel": 0,
                "type": "noteOff",
                "noteNumber": 52,
                "velocity": 85
            },
            {
                "deltaTime": 0,
                "channel": 0,
                "type": "noteOff",
                "noteNumber": 69,
                "velocity": 85
            },
            {
                "deltaTime": 0,
                "channel": 0,
                "type": "noteOn",
                "noteNumber": 67,
                "velocity": 85
            },
            {
                "deltaTime": 0,
                "channel": 0,
                "type": "noteOn",
                "noteNumber": 59,
                "velocity": 50
            },
            {
                "deltaTime": 0,
                "channel": 0,
                "type": "noteOn",
                "noteNumber": 55,
                "velocity": 50
            },
            {
                "deltaTime": 100,
                "channel": 0,
                "type": "noteOff",
                "noteNumber": 67,
                "velocity": 85
            },
            {
                "deltaTime": 0,
                "channel": 0,
                "type": "noteOn",
                "noteNumber": 69,
                "velocity": 85
            },
            {
                "deltaTime": 12.5,
                "channel": 0,
                "type": "noteOff",
                "noteNumber": 55,
                "velocity": 50
            },
            {
                "deltaTime": 87.5,
                "channel": 0,
                "type": "noteOff",
                "noteNumber": 69,
                "velocity": 85
            },
            {
                "deltaTime": 0,
                "channel": 0,
                "type": "noteOn",
                "noteNumber": 67,
                "velocity": 85
            },
            {
                "deltaTime": 100,
                "channel": 0,
                "type": "noteOff",
                "noteNumber": 67,
                "velocity": 85
            },
            {
                "deltaTime": 0,
                "channel": 0,
                "type": "noteOff",
                "noteNumber": 59,
                "velocity": 50
            },
            {
                "deltaTime": 0,
                "channel": 0,
                "type": "noteOn",
                "noteNumber": 47,
                "velocity": 85
            },
            {
                "deltaTime": 0,
                "channel": 0,
                "type": "noteOn",
                "noteNumber": 66,
                "velocity": 85
            },
            {
                "deltaTime": 300,
                "channel": 0,
                "type": "noteOn",
                "noteNumber": 57,
                "velocity": 50
            },
            {
                "deltaTime": 0,
                "channel": 0,
                "type": "noteOn",
                "noteNumber": 54,
                "velocity": 50
            },
            {
                "deltaTime": 37.5,
                "channel": 0,
                "type": "noteOff",
                "noteNumber": 54,
                "velocity": 50
            },
            {
                "deltaTime": 75,
                "channel": 0,
                "type": "noteOff",
                "noteNumber": 57,
                "velocity": 50
            },
            {
                "deltaTime": 187.5,
                "channel": 0,
                "type": "noteOff",
                "noteNumber": 47,
                "velocity": 85
            },
            {
                "deltaTime": 0,
                "channel": 0,
                "type": "noteOn",
                "noteNumber": 57,
                "velocity": 50
            },
            {
                "deltaTime": 0,
                "channel": 0,
                "type": "noteOn",
                "noteNumber": 54,
                "velocity": 50
            },
            {
                "deltaTime": 300,
                "channel": 0,
                "type": "noteOff",
                "noteNumber": 66,
                "velocity": 85
            },
            {
                "deltaTime": 0,
                "channel": 0,
                "type": "noteOff",
                "noteNumber": 57,
                "velocity": 50
            },
            {
                "deltaTime": 0,
                "channel": 0,
                "type": "noteOff",
                "noteNumber": 54,
                "velocity": 50
            },
            {
                "deltaTime": 0,
                "channel": 0,
                "type": "noteOn",
                "noteNumber": 47,
                "velocity": 85
            },
            {
                "deltaTime": 0,
                "channel": 0,
                "type": "noteOn",
                "noteNumber": 69,
                "velocity": 85
            },
            {
                "deltaTime": 300,
                "channel": 0,
                "type": "noteOn",
                "noteNumber": 57,
                "velocity": 50
            },
            {
                "deltaTime": 0,
                "channel": 0,
                "type": "noteOn",
                "noteNumber": 51,
                "velocity": 50
            },
            {
                "deltaTime": 112.5,
                "channel": 0,
                "type": "noteOff",
                "noteNumber": 57,
                "velocity": 50
            },
            {
                "deltaTime": 0,
                "channel": 0,
                "type": "noteOff",
                "noteNumber": 51,
                "velocity": 50
            },
            {
                "deltaTime": 187.5,
                "channel": 0,
                "type": "noteOff",
                "noteNumber": 47,
                "velocity": 85
            },
            {
                "deltaTime": 0,
                "channel": 0,
                "type": "noteOn",
                "noteNumber": 57,
                "velocity": 50
            },
            {
                "deltaTime": 0,
                "channel": 0,
                "type": "noteOn",
                "noteNumber": 51,
                "velocity": 50
            },
            {
                "deltaTime": 150,
                "channel": 0,
                "type": "noteOff",
                "noteNumber": 51,
                "velocity": 50
            },
            {
                "deltaTime": 150,
                "channel": 0,
                "type": "noteOff",
                "noteNumber": 69,
                "velocity": 85
            },
            {
                "deltaTime": 0,
                "channel": 0,
                "type": "noteOff",
                "noteNumber": 57,
                "velocity": 50
            },
            {
                "deltaTime": 0,
                "channel": 0,
                "type": "noteOn",
                "noteNumber": 40,
                "velocity": 85
            },
            {
                "deltaTime": 0,
                "channel": 0,
                "type": "noteOn",
                "noteNumber": 71,
                "velocity": 85
            },
            {
                "deltaTime": 300,
                "channel": 0,
                "type": "noteOn",
                "noteNumber": 59,
                "velocity": 50
            },
            {
                "deltaTime": 0,
                "channel": 0,
                "type": "noteOn",
                "noteNumber": 55,
                "velocity": 50
            },
            {
                "deltaTime": 112.5,
                "channel": 0,
                "type": "noteOff",
                "noteNumber": 59,
                "velocity": 50
            },
            {
                "deltaTime": 0,
                "channel": 0,
                "type": "noteOff",
                "noteNumber": 55,
                "velocity": 50
            },
            {
                "deltaTime": 187.5,
                "channel": 0,
                "type": "noteOff",
                "noteNumber": 40,
                "velocity": 85
            },
            {
                "deltaTime": 0,
                "channel": 0,
                "type": "noteOff",
                "noteNumber": 71,
                "velocity": 85
            },
            {
                "deltaTime": 0,
                "channel": 0,
                "type": "noteOn",
                "noteNumber": 69,
                "velocity": 85
            },
            {
                "deltaTime": 0,
                "channel": 0,
                "type": "noteOn",
                "noteNumber": 59,
                "velocity": 50
            },
            {
                "deltaTime": 0,
                "channel": 0,
                "type": "noteOn",
                "noteNumber": 55,
                "velocity": 50
            },
            {
                "deltaTime": 112.5,
                "channel": 0,
                "type": "noteOff",
                "noteNumber": 59,
                "velocity": 50
            },
            {
                "deltaTime": 0,
                "channel": 0,
                "type": "noteOff",
                "noteNumber": 55,
                "velocity": 50
            },
            {
                "deltaTime": 187.5,
                "channel": 0,
                "type": "noteOff",
                "noteNumber": 69,
                "velocity": 85
            },
            {
                "deltaTime": 0,
                "channel": 0,
                "type": "noteOn",
                "noteNumber": 48,
                "velocity": 85
            },
            {
                "deltaTime": 0,
                "channel": 0,
                "type": "noteOn",
                "noteNumber": 67,
                "velocity": 85
            },
            {
                "deltaTime": 300,
                "channel": 0,
                "type": "noteOn",
                "noteNumber": 52,
                "velocity": 50
            },
            {
                "deltaTime": 0,
                "channel": 0,
                "type": "noteOn",
                "noteNumber": 55,
                "velocity": 50
            },
            {
                "deltaTime": 112.5,
                "channel": 0,
                "type": "noteOff",
                "noteNumber": 52,
                "velocity": 50
            },
            {
                "deltaTime": 0,
                "channel": 0,
                "type": "noteOff",
                "noteNumber": 55,
                "velocity": 50
            },
            {
                "deltaTime": 187.5,
                "channel": 0,
                "type": "noteOff",
                "noteNumber": 48,
                "velocity": 85
            },
            {
                "deltaTime": 0,
                "channel": 0,
                "type": "noteOff",
                "noteNumber": 67,
                "velocity": 85
            },
            {
                "deltaTime": 0,
                "channel": 0,
                "type": "noteOn",
                "noteNumber": 66,
                "velocity": 50
            },
            {
                "deltaTime": 0,
                "channel": 0,
                "type": "noteOn",
                "noteNumber": 52,
                "velocity": 50
            },
            {
                "deltaTime": 0,
                "channel": 0,
                "type": "noteOn",
                "noteNumber": 55,
                "velocity": 50
            },
            {
                "deltaTime": 112.5,
                "channel": 0,
                "type": "noteOff",
                "noteNumber": 52,
                "velocity": 50
            },
            {
                "deltaTime": 0,
                "channel": 0,
                "type": "noteOff",
                "noteNumber": 55,
                "velocity": 50
            },
            {
                "deltaTime": 187.5,
                "channel": 0,
                "type": "noteOff",
                "noteNumber": 66,
                "velocity": 50
            },
            {
                "deltaTime": 0,
                "channel": 0,
                "type": "noteOn",
                "noteNumber": 52,
                "velocity": 85
            },
            {
                "deltaTime": 0,
                "channel": 0,
                "type": "noteOn",
                "noteNumber": 67,
                "velocity": 85
            },
            {
                "deltaTime": 300,
                "channel": 0,
                "type": "noteOn",
                "noteNumber": 59,
                "velocity": 50
            },
            {
                "deltaTime": 0,
                "channel": 0,
                "type": "noteOn",
                "noteNumber": 55,
                "velocity": 50
            },
            {
                "deltaTime": 112.5,
                "channel": 0,
                "type": "noteOff",
                "noteNumber": 59,
                "velocity": 50
            },
            {
                "deltaTime": 0,
                "channel": 0,
                "type": "noteOff",
                "noteNumber": 55,
                "velocity": 50
            },
            {
                "deltaTime": 187.5,
                "channel": 0,
                "type": "noteOff",
                "noteNumber": 52,
                "velocity": 85
            },
            {
                "deltaTime": 0,
                "channel": 0,
                "type": "noteOn",
                "noteNumber": 59,
                "velocity": 50
            },
            {
                "deltaTime": 0,
                "channel": 0,
                "type": "noteOn",
                "noteNumber": 55,
                "velocity": 50
            },
            {
                "deltaTime": 187.5,
                "channel": 0,
                "type": "noteOff",
                "noteNumber": 55,
                "velocity": 50
            },
            {
                "deltaTime": 112.5,
                "channel": 0,
                "type": "noteOff",
                "noteNumber": 67,
                "velocity": 85
            },
            {
                "deltaTime": 0,
                "channel": 0,
                "type": "noteOff",
                "noteNumber": 59,
                "velocity": 50
            },
            {
                "deltaTime": 0,
                "channel": 0,
                "type": "noteOn",
                "noteNumber": 52,
                "velocity": 85
            },
            {
                "deltaTime": 0,
                "channel": 0,
                "type": "noteOn",
                "noteNumber": 68,
                "velocity": 85
            },
            {
                "deltaTime": 300,
                "channel": 0,
                "type": "noteOn",
                "noteNumber": 59,
                "velocity": 50
            },
            {
                "deltaTime": 0,
                "channel": 0,
                "type": "noteOn",
                "noteNumber": 56,
                "velocity": 50
            },
            {
                "deltaTime": 75,
                "channel": 0,
                "type": "noteOff",
                "noteNumber": 56,
                "velocity": 50
            },
            {
                "deltaTime": 37.5,
                "channel": 0,
                "type": "noteOff",
                "noteNumber": 59,
                "velocity": 50
            },
            {
                "deltaTime": 187.5,
                "channel": 0,
                "type": "noteOff",
                "noteNumber": 52,
                "velocity": 85
            },
            {
                "deltaTime": 0,
                "channel": 0,
                "type": "noteOff",
                "noteNumber": 68,
                "velocity": 85
            },
            {
                "deltaTime": 0,
                "channel": 0,
                "type": "noteOn",
                "noteNumber": 59,
                "velocity": 50
            },
            {
                "deltaTime": 0,
                "channel": 0,
                "type": "noteOn",
                "noteNumber": 56,
                "velocity": 50
            },
            {
                "deltaTime": 112.5,
                "channel": 0,
                "type": "noteOff",
                "noteNumber": 59,
                "velocity": 50
            },
            {
                "deltaTime": 0,
                "channel": 0,
                "type": "noteOff",
                "noteNumber": 56,
                "velocity": 50
            },
            {
                "deltaTime": 37.5,
                "channel": 0,
                "type": "noteOn",
                "noteNumber": 72,
                "velocity": 85
            },
            {
                "deltaTime": 75,
                "channel": 0,
                "type": "noteOff",
                "noteNumber": 72,
                "velocity": 85
            },
            {
                "deltaTime": 0,
                "channel": 0,
                "type": "noteOn",
                "noteNumber": 71,
                "velocity": 85
            },
            {
                "deltaTime": 75,
                "channel": 0,
                "type": "noteOff",
                "noteNumber": 71,
                "velocity": 85
            },
            {
                "deltaTime": 0,
                "channel": 0,
                "type": "noteOn",
                "noteNumber": 45,
                "velocity": 85
            },
            {
                "deltaTime": 0,
                "channel": 0,
                "type": "noteOn",
                "noteNumber": 69,
                "velocity": 85
            },
            {
                "deltaTime": 300,
                "channel": 0,
                "type": "noteOn",
                "noteNumber": 52,
                "velocity": 50
            },
            {
                "deltaTime": 0,
                "channel": 0,
                "type": "noteOn",
                "noteNumber": 57,
                "velocity": 50
            },
            {
                "deltaTime": 112.5,
                "channel": 0,
                "type": "noteOff",
                "noteNumber": 52,
                "velocity": 50
            },
            {
                "deltaTime": 0,
                "channel": 0,
                "type": "noteOff",
                "noteNumber": 57,
                "velocity": 50
            },
            {
                "deltaTime": 187.5,
                "channel": 0,
                "type": "noteOff",
                "noteNumber": 45,
                "velocity": 85
            },
            {
                "deltaTime": 0,
                "channel": 0,
                "type": "noteOn",
                "noteNumber": 52,
                "velocity": 50
            },
            {
                "deltaTime": 0,
                "channel": 0,
                "type": "noteOn",
                "noteNumber": 57,
                "velocity": 50
            },
            {
                "deltaTime": 300,
                "channel": 0,
                "type": "noteOff",
                "noteNumber": 69,
                "velocity": 85
            },
            {
                "deltaTime": 0,
                "channel": 0,
                "type": "noteOff",
                "noteNumber": 52,
                "velocity": 50
            },
            {
                "deltaTime": 0,
                "channel": 0,
                "type": "noteOff",
                "noteNumber": 57,
                "velocity": 50
            },
            {
                "deltaTime": 0,
                "channel": 0,
                "type": "noteOn",
                "noteNumber": 45,
                "velocity": 85
            },
            {
                "deltaTime": 0,
                "channel": 0,
                "type": "noteOn",
                "noteNumber": 72,
                "velocity": 85
            },
            {
                "deltaTime": 300,
                "channel": 0,
                "type": "noteOn",
                "noteNumber": 52,
                "velocity": 50
            },
            {
                "deltaTime": 0,
                "channel": 0,
                "type": "noteOn",
                "noteNumber": 57,
                "velocity": 50
            },
            {
                "deltaTime": 112.5,
                "channel": 0,
                "type": "noteOff",
                "noteNumber": 52,
                "velocity": 50
            },
            {
                "deltaTime": 0,
                "channel": 0,
                "type": "noteOff",
                "noteNumber": 57,
                "velocity": 50
            },
            {
                "deltaTime": 187.5,
                "channel": 0,
                "type": "noteOff",
                "noteNumber": 45,
                "velocity": 85
            },
            {
                "deltaTime": 0,
                "channel": 0,
                "type": "noteOff",
                "noteNumber": 72,
                "velocity": 85
            },
            {
                "deltaTime": 0,
                "channel": 0,
                "type": "noteOn",
                "noteNumber": 52,
                "velocity": 50
            },
            {
                "deltaTime": 0,
                "channel": 0,
                "type": "noteOn",
                "noteNumber": 57,
                "velocity": 50
            },
            {
                "deltaTime": 150,
                "channel": 0,
                "type": "noteOn",
                "noteNumber": 79,
                "velocity": 85
            },
            {
                "deltaTime": 75,
                "channel": 0,
                "type": "noteOff",
                "noteNumber": 79,
                "velocity": 85
            },
            {
                "deltaTime": 0,
                "channel": 0,
                "type": "noteOn",
                "noteNumber": 78,
                "velocity": 85
            },
            {
                "deltaTime": 75,
                "channel": 0,
                "type": "noteOff",
                "noteNumber": 52,
                "velocity": 50
            },
            {
                "deltaTime": 0,
                "channel": 0,
                "type": "noteOff",
                "noteNumber": 57,
                "velocity": 50
            },
            {
                "deltaTime": 0,
                "channel": 0,
                "type": "noteOff",
                "noteNumber": 78,
                "velocity": 85
            },
            {
                "deltaTime": 0,
                "channel": 0,
                "type": "noteOn",
                "noteNumber": 45,
                "velocity": 85
            },
            {
                "deltaTime": 0,
                "channel": 0,
                "type": "noteOn",
                "noteNumber": 76,
                "velocity": 85
            },
            {
                "deltaTime": 300,
                "channel": 0,
                "type": "noteOff",
                "noteNumber": 76,
                "velocity": 85
            },
            {
                "deltaTime": 0,
                "channel": 0,
                "type": "noteOn",
                "noteNumber": 78,
                "velocity": 85
            },
            {
                "deltaTime": 0,
                "channel": 0,
                "type": "noteOn",
                "noteNumber": 52,
                "velocity": 50
            },
            {
                "deltaTime": 0,
                "channel": 0,
                "type": "noteOn",
                "noteNumber": 57,
                "velocity": 50
            },
            {
                "deltaTime": 75,
                "channel": 0,
                "type": "noteOff",
                "noteNumber": 78,
                "velocity": 85
            },
            {
                "deltaTime": 0,
                "channel": 0,
                "type": "noteOn",
                "noteNumber": 79,
                "velocity": 85
            },
            {
                "deltaTime": 37.5,
                "channel": 0,
                "type": "noteOff",
                "noteNumber": 52,
                "velocity": 50
            },
            {
                "deltaTime": 0,
                "channel": 0,
                "type": "noteOff",
                "noteNumber": 57,
                "velocity": 50
            },
            {
                "deltaTime": 37.5,
                "channel": 0,
                "type": "noteOff",
                "noteNumber": 79,
                "velocity": 85
            },
            {
                "deltaTime": 0,
                "channel": 0,
                "type": "noteOn",
                "noteNumber": 78,
                "velocity": 85
            },
            {
                "deltaTime": 75,
                "channel": 0,
                "type": "noteOff",
                "noteNumber": 78,
                "velocity": 85
            },
            {
                "deltaTime": 0,
                "channel": 0,
                "type": "noteOn",
                "noteNumber": 79,
                "velocity": 85
            },
            {
                "deltaTime": 75,
                "channel": 0,
                "type": "noteOff",
                "noteNumber": 45,
                "velocity": 85
            },
            {
                "deltaTime": 0,
                "channel": 0,
                "type": "noteOff",
                "noteNumber": 79,
                "velocity": 85
            },
            {
                "deltaTime": 0,
                "channel": 0,
                "type": "noteOn",
                "noteNumber": 76,
                "velocity": 85
            },
            {
                "deltaTime": 0,
                "channel": 0,
                "type": "noteOn",
                "noteNumber": 52,
                "velocity": 50
            },
            {
                "deltaTime": 0,
                "channel": 0,
                "type": "noteOn",
                "noteNumber": 57,
                "velocity": 50
            },
            {
                "deltaTime": 300,
                "channel": 0,
                "type": "noteOff",
                "noteNumber": 76,
                "velocity": 85
            },
            {
                "deltaTime": 0,
                "channel": 0,
                "type": "noteOff",
                "noteNumber": 52,
                "velocity": 50
            },
            {
                "deltaTime": 0,
                "channel": 0,
                "type": "noteOff",
                "noteNumber": 57,
                "velocity": 50
            },
            {
                "deltaTime": 0,
                "channel": 0,
                "type": "noteOn",
                "noteNumber": 45,
                "velocity": 85
            },
            {
                "deltaTime": 0,
                "channel": 0,
                "type": "noteOn",
                "noteNumber": 72,
                "velocity": 85
            },
            {
                "deltaTime": 100,
                "channel": 0,
                "type": "noteOff",
                "noteNumber": 72,
                "velocity": 85
            },
            {
                "deltaTime": 0,
                "channel": 0,
                "type": "noteOn",
                "noteNumber": 74,
                "velocity": 85
            },
            {
                "deltaTime": 100,
                "channel": 0,
                "type": "noteOff",
                "noteNumber": 74,
                "velocity": 85
            },
            {
                "deltaTime": 0,
                "channel": 0,
                "type": "noteOn",
                "noteNumber": 72,
                "velocity": 85
            },
            {
                "deltaTime": 100,
                "channel": 0,
                "type": "noteOff",
                "noteNumber": 72,
                "velocity": 85
            },
            {
                "deltaTime": 0,
                "channel": 0,
                "type": "noteOn",
                "noteNumber": 71,
                "velocity": 85
            },
            {
                "deltaTime": 0,
                "channel": 0,
                "type": "noteOn",
                "noteNumber": 52,
                "velocity": 50
            },
            {
                "deltaTime": 0,
                "channel": 0,
                "type": "noteOn",
                "noteNumber": 57,
                "velocity": 50
            },
            {
                "deltaTime": 100,
                "channel": 0,
                "type": "noteOff",
                "noteNumber": 71,
                "velocity": 85
            },
            {
                "deltaTime": 0,
                "channel": 0,
                "type": "noteOn",
                "noteNumber": 72,
                "velocity": 85
            },
            {
                "deltaTime": 12.5,
                "channel": 0,
                "type": "noteOff",
                "noteNumber": 52,
                "velocity": 50
            },
            {
                "deltaTime": 0,
                "channel": 0,
                "type": "noteOff",
                "noteNumber": 57,
                "velocity": 50
            },
            {
                "deltaTime": 87.5,
                "channel": 0,
                "type": "noteOff",
                "noteNumber": 72,
                "velocity": 85
            },
            {
                "deltaTime": 0,
                "channel": 0,
                "type": "noteOn",
                "noteNumber": 71,
                "velocity": 85
            },
            {
                "deltaTime": 100,
                "channel": 0,
                "type": "noteOff",
                "noteNumber": 45,
                "velocity": 85
            },
            {
                "deltaTime": 0,
                "channel": 0,
                "type": "noteOff",
                "noteNumber": 71,
                "velocity": 85
            },
            {
                "deltaTime": 0,
                "channel": 0,
                "type": "noteOn",
                "noteNumber": 69,
                "velocity": 85
            },
            {
                "deltaTime": 0,
                "channel": 0,
                "type": "noteOn",
                "noteNumber": 52,
                "velocity": 50
            },
            {
                "deltaTime": 0,
                "channel": 0,
                "type": "noteOn",
                "noteNumber": 57,
                "velocity": 50
            },
            {
                "deltaTime": 100,
                "channel": 0,
                "type": "noteOff",
                "noteNumber": 69,
                "velocity": 85
            },
            {
                "deltaTime": 0,
                "channel": 0,
                "type": "noteOn",
                "noteNumber": 71,
                "velocity": 85
            },
            {
                "deltaTime": 12.5,
                "channel": 0,
                "type": "noteOff",
                "noteNumber": 52,
                "velocity": 50
            },
            {
                "deltaTime": 0,
                "channel": 0,
                "type": "noteOff",
                "noteNumber": 57,
                "velocity": 50
            },
            {
                "deltaTime": 87.5,
                "channel": 0,
                "type": "noteOff",
                "noteNumber": 71,
                "velocity": 85
            },
            {
                "deltaTime": 0,
                "channel": 0,
                "type": "noteOn",
                "noteNumber": 69,
                "velocity": 85
            },
            {
                "deltaTime": 100,
                "channel": 0,
                "type": "noteOff",
                "noteNumber": 69,
                "velocity": 85
            },
            {
                "deltaTime": 0,
                "channel": 0,
                "type": "noteOn",
                "noteNumber": 52,
                "velocity": 85
            },
            {
                "deltaTime": 0,
                "channel": 0,
                "type": "noteOn",
                "noteNumber": 67,
                "velocity": 85
            },
            {
                "deltaTime": 300,
                "channel": 0,
                "type": "noteOn",
                "noteNumber": 59,
                "velocity": 50
            },
            {
                "deltaTime": 0,
                "channel": 0,
                "type": "noteOn",
                "noteNumber": 64,
                "velocity": 50
            },
            {
                "deltaTime": 112.5,
                "channel": 0,
                "type": "noteOff",
                "noteNumber": 59,
                "velocity": 50
            },
            {
                "deltaTime": 0,
                "channel": 0,
                "type": "noteOff",
                "noteNumber": 64,
                "velocity": 50
            },
            {
                "deltaTime": 187.5,
                "channel": 0,
                "type": "noteOff",
                "noteNumber": 52,
                "velocity": 85
            },
            {
                "deltaTime": 0,
                "channel": 0,
                "type": "noteOn",
                "noteNumber": 59,
                "velocity": 50
            },
            {
                "deltaTime": 0,
                "channel": 0,
                "type": "noteOn",
                "noteNumber": 64,
                "velocity": 50
            },
            {
                "deltaTime": 112.5,
                "channel": 0,
                "type": "noteOff",
                "noteNumber": 59,
                "velocity": 50
            },
            {
                "deltaTime": 0,
                "channel": 0,
                "type": "noteOff",
                "noteNumber": 64,
                "velocity": 50
            },
            {
                "deltaTime": 187.5,
                "channel": 0,
                "type": "noteOff",
                "noteNumber": 67,
                "velocity": 85
            },
            {
                "deltaTime": 0,
                "channel": 0,
                "type": "noteOn",
                "noteNumber": 52,
                "velocity": 85
            },
            {
                "deltaTime": 0,
                "channel": 0,
                "type": "noteOn",
                "noteNumber": 71,
                "velocity": 85
            },
            {
                "deltaTime": 300,
                "channel": 0,
                "type": "noteOn",
                "noteNumber": 59,
                "velocity": 50
            },
            {
                "deltaTime": 0,
                "channel": 0,
                "type": "noteOn",
                "noteNumber": 64,
                "velocity": 50
            },
            {
                "deltaTime": 112.5,
                "channel": 0,
                "type": "noteOff",
                "noteNumber": 59,
                "velocity": 50
            },
            {
                "deltaTime": 0,
                "channel": 0,
                "type": "noteOff",
                "noteNumber": 64,
                "velocity": 50
            },
            {
                "deltaTime": 187.5,
                "channel": 0,
                "type": "noteOff",
                "noteNumber": 52,
                "velocity": 85
            },
            {
                "deltaTime": 0,
                "channel": 0,
                "type": "noteOn",
                "noteNumber": 59,
                "velocity": 50
            },
            {
                "deltaTime": 0,
                "channel": 0,
                "type": "noteOn",
                "noteNumber": 64,
                "velocity": 50
            },
            {
                "deltaTime": 150,
                "channel": 0,
                "type": "noteOn",
                "noteNumber": 79,
                "velocity": 85
            },
            {
                "deltaTime": 75,
                "channel": 0,
                "type": "noteOff",
                "noteNumber": 79,
                "velocity": 85
            },
            {
                "deltaTime": 0,
                "channel": 0,
                "type": "noteOn",
                "noteNumber": 78,
                "velocity": 85
            },
            {
                "deltaTime": 75,
                "channel": 0,
                "type": "noteOff",
                "noteNumber": 71,
                "velocity": 85
            },
            {
                "deltaTime": 0,
                "channel": 0,
                "type": "noteOff",
                "noteNumber": 59,
                "velocity": 50
            },
            {
                "deltaTime": 0,
                "channel": 0,
                "type": "noteOff",
                "noteNumber": 64,
                "velocity": 50
            },
            {
                "deltaTime": 0,
                "channel": 0,
                "type": "noteOff",
                "noteNumber": 78,
                "velocity": 85
            },
            {
                "deltaTime": 0,
                "channel": 0,
                "type": "noteOn",
                "noteNumber": 52,
                "velocity": 85
            },
            {
                "deltaTime": 0,
                "channel": 0,
                "type": "noteOn",
                "noteNumber": 76,
                "velocity": 85
            },
            {
                "deltaTime": 300,
                "channel": 0,
                "type": "noteOff",
                "noteNumber": 76,
                "velocity": 85
            },
            {
                "deltaTime": 0,
                "channel": 0,
                "type": "noteOn",
                "noteNumber": 59,
                "velocity": 50
            },
            {
                "deltaTime": 0,
                "channel": 0,
                "type": "noteOn",
                "noteNumber": 64,
                "velocity": 50
            },
            {
                "deltaTime": 0,
                "channel": 0,
                "type": "noteOn",
                "noteNumber": 78,
                "velocity": 85
            },
            {
                "deltaTime": 75,
                "channel": 0,
                "type": "noteOff",
                "noteNumber": 78,
                "velocity": 85
            },
            {
                "deltaTime": 0,
                "channel": 0,
                "type": "noteOn",
                "noteNumber": 79,
                "velocity": 85
            },
            {
                "deltaTime": 37.5,
                "channel": 0,
                "type": "noteOff",
                "noteNumber": 59,
                "velocity": 50
            },
            {
                "deltaTime": 0,
                "channel": 0,
                "type": "noteOff",
                "noteNumber": 64,
                "velocity": 50
            },
            {
                "deltaTime": 37.5,
                "channel": 0,
                "type": "noteOff",
                "noteNumber": 79,
                "velocity": 85
            },
            {
                "deltaTime": 0,
                "channel": 0,
                "type": "noteOn",
                "noteNumber": 78,
                "velocity": 85
            },
            {
                "deltaTime": 75,
                "channel": 0,
                "type": "noteOff",
                "noteNumber": 78,
                "velocity": 85
            },
            {
                "deltaTime": 0,
                "channel": 0,
                "type": "noteOn",
                "noteNumber": 79,
                "velocity": 85
            },
            {
                "deltaTime": 75,
                "channel": 0,
                "type": "noteOff",
                "noteNumber": 52,
                "velocity": 85
            },
            {
                "deltaTime": 0,
                "channel": 0,
                "type": "noteOff",
                "noteNumber": 79,
                "velocity": 85
            },
            {
                "deltaTime": 0,
                "channel": 0,
                "type": "noteOn",
                "noteNumber": 59,
                "velocity": 50
            },
            {
                "deltaTime": 0,
                "channel": 0,
                "type": "noteOn",
                "noteNumber": 64,
                "velocity": 50
            },
            {
                "deltaTime": 0,
                "channel": 0,
                "type": "noteOn",
                "noteNumber": 76,
                "velocity": 85
            },
            {
                "deltaTime": 300,
                "channel": 0,
                "type": "noteOff",
                "noteNumber": 59,
                "velocity": 50
            },
            {
                "deltaTime": 0,
                "channel": 0,
                "type": "noteOff",
                "noteNumber": 64,
                "velocity": 50
            },
            {
                "deltaTime": 0,
                "channel": 0,
                "type": "noteOff",
                "noteNumber": 76,
                "velocity": 85
            },
            {
                "deltaTime": 0,
                "channel": 0,
                "type": "noteOn",
                "noteNumber": 52,
                "velocity": 85
            },
            {
                "deltaTime": 0,
                "channel": 0,
                "type": "noteOn",
                "noteNumber": 71,
                "velocity": 85
            },
            {
                "deltaTime": 100,
                "channel": 0,
                "type": "noteOff",
                "noteNumber": 71,
                "velocity": 85
            },
            {
                "deltaTime": 0,
                "channel": 0,
                "type": "noteOn",
                "noteNumber": 72,
                "velocity": 85
            },
            {
                "deltaTime": 100,
                "channel": 0,
                "type": "noteOff",
                "noteNumber": 72,
                "velocity": 85
            },
            {
                "deltaTime": 0,
                "channel": 0,
                "type": "noteOn",
                "noteNumber": 71,
                "velocity": 85
            },
            {
                "deltaTime": 100,
                "channel": 0,
                "type": "noteOff",
                "noteNumber": 71,
                "velocity": 85
            },
            {
                "deltaTime": 0,
                "channel": 0,
                "type": "noteOn",
                "noteNumber": 69,
                "velocity": 85
            },
            {
                "deltaTime": 0,
                "channel": 0,
                "type": "noteOn",
                "noteNumber": 59,
                "velocity": 50
            },
            {
                "deltaTime": 0,
                "channel": 0,
                "type": "noteOn",
                "noteNumber": 64,
                "velocity": 50
            },
            {
                "deltaTime": 100,
                "channel": 0,
                "type": "noteOff",
                "noteNumber": 69,
                "velocity": 85
            },
            {
                "deltaTime": 0,
                "channel": 0,
                "type": "noteOn",
                "noteNumber": 71,
                "velocity": 85
            },
            {
                "deltaTime": 12.5,
                "channel": 0,
                "type": "noteOff",
                "noteNumber": 59,
                "velocity": 50
            },
            {
                "deltaTime": 0,
                "channel": 0,
                "type": "noteOff",
                "noteNumber": 64,
                "velocity": 50
            },
            {
                "deltaTime": 87.5,
                "channel": 0,
                "type": "noteOff",
                "noteNumber": 71,
                "velocity": 85
            },
            {
                "deltaTime": 0,
                "channel": 0,
                "type": "noteOn",
                "noteNumber": 69,
                "velocity": 85
            },
            {
                "deltaTime": 100,
                "channel": 0,
                "type": "noteOff",
                "noteNumber": 52,
                "velocity": 85
            },
            {
                "deltaTime": 0,
                "channel": 0,
                "type": "noteOff",
                "noteNumber": 69,
                "velocity": 85
            },
            {
                "deltaTime": 0,
                "channel": 0,
                "type": "noteOn",
                "noteNumber": 67,
                "velocity": 85
            },
            {
                "deltaTime": 0,
                "channel": 0,
                "type": "noteOn",
                "noteNumber": 59,
                "velocity": 50
            },
            {
                "deltaTime": 0,
                "channel": 0,
                "type": "noteOn",
                "noteNumber": 64,
                "velocity": 50
            },
            {
                "deltaTime": 100,
                "channel": 0,
                "type": "noteOff",
                "noteNumber": 67,
                "velocity": 85
            },
            {
                "deltaTime": 0,
                "channel": 0,
                "type": "noteOn",
                "noteNumber": 69,
                "velocity": 85
            },
            {
                "deltaTime": 12.5,
                "channel": 0,
                "type": "noteOff",
                "noteNumber": 59,
                "velocity": 50
            },
            {
                "deltaTime": 0,
                "channel": 0,
                "type": "noteOff",
                "noteNumber": 64,
                "velocity": 50
            },
            {
                "deltaTime": 87.5,
                "channel": 0,
                "type": "noteOff",
                "noteNumber": 69,
                "velocity": 85
            },
            {
                "deltaTime": 0,
                "channel": 0,
                "type": "noteOn",
                "noteNumber": 67,
                "velocity": 85
            },
            {
                "deltaTime": 100,
                "channel": 0,
                "type": "noteOff",
                "noteNumber": 67,
                "velocity": 85
            },
            {
                "deltaTime": 0,
                "channel": 0,
                "type": "noteOn",
                "noteNumber": 47,
                "velocity": 85
            },
            {
                "deltaTime": 0,
                "channel": 0,
                "type": "noteOn",
                "noteNumber": 66,
                "velocity": 85
            },
            {
                "deltaTime": 300,
                "channel": 0,
                "type": "noteOn",
                "noteNumber": 54,
                "velocity": 50
            },
            {
                "deltaTime": 0,
                "channel": 0,
                "type": "noteOn",
                "noteNumber": 57,
                "velocity": 50
            },
            {
                "deltaTime": 37.5,
                "channel": 0,
                "type": "noteOff",
                "noteNumber": 54,
                "velocity": 50
            },
            {
                "deltaTime": 75,
                "channel": 0,
                "type": "noteOff",
                "noteNumber": 57,
                "velocity": 50
            },
            {
                "deltaTime": 187.5,
                "channel": 0,
                "type": "noteOff",
                "noteNumber": 47,
                "velocity": 85
            },
            {
                "deltaTime": 0,
                "channel": 0,
                "type": "noteOn",
                "noteNumber": 54,
                "velocity": 50
            },
            {
                "deltaTime": 0,
                "channel": 0,
                "type": "noteOn",
                "noteNumber": 57,
                "velocity": 50
            },
            {
                "deltaTime": 300,
                "channel": 0,
                "type": "noteOff",
                "noteNumber": 66,
                "velocity": 85
            },
            {
                "deltaTime": 0,
                "channel": 0,
                "type": "noteOff",
                "noteNumber": 54,
                "velocity": 50
            },
            {
                "deltaTime": 0,
                "channel": 0,
                "type": "noteOff",
                "noteNumber": 57,
                "velocity": 50
            },
            {
                "deltaTime": 0,
                "channel": 0,
                "type": "noteOn",
                "noteNumber": 47,
                "velocity": 85
            },
            {
                "deltaTime": 0,
                "channel": 0,
                "type": "noteOn",
                "noteNumber": 69,
                "velocity": 85
            },
            {
                "deltaTime": 300,
                "channel": 0,
                "type": "noteOn",
                "noteNumber": 51,
                "velocity": 50
            },
            {
                "deltaTime": 0,
                "channel": 0,
                "type": "noteOn",
                "noteNumber": 57,
                "velocity": 50
            },
            {
                "deltaTime": 37.5,
                "channel": 0,
                "type": "noteOff",
                "noteNumber": 51,
                "velocity": 50
            },
            {
                "deltaTime": 75,
                "channel": 0,
                "type": "noteOff",
                "noteNumber": 57,
                "velocity": 50
            },
            {
                "deltaTime": 187.5,
                "channel": 0,
                "type": "noteOff",
                "noteNumber": 47,
                "velocity": 85
            },
            {
                "deltaTime": 0,
                "channel": 0,
                "type": "noteOff",
                "noteNumber": 69,
                "velocity": 85
            },
            {
                "deltaTime": 0,
                "channel": 0,
                "type": "noteOn",
                "noteNumber": 51,
                "velocity": 50
            },
            {
                "deltaTime": 0,
                "channel": 0,
                "type": "noteOn",
                "noteNumber": 57,
                "velocity": 50
            },
            {
                "deltaTime": 37.5,
                "channel": 0,
                "type": "noteOff",
                "noteNumber": 51,
                "velocity": 50
            },
            {
                "deltaTime": 112.5,
                "channel": 0,
                "type": "noteOn",
                "noteNumber": 69,
                "velocity": 85
            },
            {
                "deltaTime": 75,
                "channel": 0,
                "type": "noteOff",
                "noteNumber": 69,
                "velocity": 85
            },
            {
                "deltaTime": 25,
                "channel": 0,
                "type": "noteOn",
                "noteNumber": 70,
                "velocity": 85
            },
            {
                "deltaTime": 50,
                "channel": 0,
                "type": "noteOff",
                "noteNumber": 57,
                "velocity": 50
            },
            {
                "deltaTime": 0,
                "channel": 0,
                "type": "noteOff",
                "noteNumber": 70,
                "velocity": 85
            },
            {
                "deltaTime": 0,
                "channel": 0,
                "type": "noteOn",
                "noteNumber": 52,
                "velocity": 85
            },
            {
                "deltaTime": 0,
                "channel": 0,
                "type": "noteOn",
                "noteNumber": 71,
                "velocity": 85
            },
            {
                "deltaTime": 300,
                "channel": 0,
                "type": "noteOn",
                "noteNumber": 55,
                "velocity": 50
            },
            {
                "deltaTime": 0,
                "channel": 0,
                "type": "noteOn",
                "noteNumber": 59,
                "velocity": 50
            },
            {
                "deltaTime": 112.5,
                "channel": 0,
                "type": "noteOff",
                "noteNumber": 55,
                "velocity": 50
            },
            {
                "deltaTime": 0,
                "channel": 0,
                "type": "noteOff",
                "noteNumber": 59,
                "velocity": 50
            },
            {
                "deltaTime": 187.5,
                "channel": 0,
                "type": "noteOff",
                "noteNumber": 52,
                "velocity": 85
            },
            {
                "deltaTime": 0,
                "channel": 0,
                "type": "noteOff",
                "noteNumber": 71,
                "velocity": 85
            },
            {
                "deltaTime": 0,
                "channel": 0,
                "type": "noteOn",
                "noteNumber": 55,
                "velocity": 50
            },
            {
                "deltaTime": 0,
                "channel": 0,
                "type": "noteOn",
                "noteNumber": 59,
                "velocity": 50
            },
            {
                "deltaTime": 0,
                "channel": 0,
                "type": "noteOn",
                "noteNumber": 69,
                "velocity": 85
            },
            {
                "deltaTime": 112.5,
                "channel": 0,
                "type": "noteOff",
                "noteNumber": 55,
                "velocity": 50
            },
            {
                "deltaTime": 0,
                "channel": 0,
                "type": "noteOff",
                "noteNumber": 59,
                "velocity": 50
            },
            {
                "deltaTime": 187.5,
                "channel": 0,
                "type": "noteOff",
                "noteNumber": 69,
                "velocity": 85
            },
            {
                "deltaTime": 0,
                "channel": 0,
                "type": "noteOn",
                "noteNumber": 48,
                "velocity": 85
            },
            {
                "deltaTime": 0,
                "channel": 0,
                "type": "noteOn",
                "noteNumber": 67,
                "velocity": 85
            },
            {
                "deltaTime": 300,
                "channel": 0,
                "type": "noteOn",
                "noteNumber": 52,
                "velocity": 50
            },
            {
                "deltaTime": 0,
                "channel": 0,
                "type": "noteOn",
                "noteNumber": 55,
                "velocity": 50
            },
            {
                "deltaTime": 112.5,
                "channel": 0,
                "type": "noteOff",
                "noteNumber": 52,
                "velocity": 50
            },
            {
                "deltaTime": 0,
                "channel": 0,
                "type": "noteOff",
                "noteNumber": 55,
                "velocity": 50
            },
            {
                "deltaTime": 187.5,
                "channel": 0,
                "type": "noteOff",
                "noteNumber": 48,
                "velocity": 85
            },
            {
                "deltaTime": 0,
                "channel": 0,
                "type": "noteOff",
                "noteNumber": 67,
                "velocity": 85
            },
            {
                "deltaTime": 0,
                "channel": 0,
                "type": "noteOn",
                "noteNumber": 52,
                "velocity": 50
            },
            {
                "deltaTime": 0,
                "channel": 0,
                "type": "noteOn",
                "noteNumber": 55,
                "velocity": 50
            },
            {
                "deltaTime": 0,
                "channel": 0,
                "type": "noteOn",
                "noteNumber": 66,
                "velocity": 85
            },
            {
                "deltaTime": 112.5,
                "channel": 0,
                "type": "noteOff",
                "noteNumber": 52,
                "velocity": 50
            },
            {
                "deltaTime": 0,
                "channel": 0,
                "type": "noteOff",
                "noteNumber": 55,
                "velocity": 50
            },
            {
                "deltaTime": 187.5,
                "channel": 0,
                "type": "noteOff",
                "noteNumber": 66,
                "velocity": 85
            },
            {
                "deltaTime": 0,
                "channel": 0,
                "type": "noteOn",
                "noteNumber": 52,
                "velocity": 85
            },
            {
                "deltaTime": 0,
                "channel": 0,
                "type": "noteOn",
                "noteNumber": 55,
                "velocity": 85
            },
            {
                "deltaTime": 0,
                "channel": 0,
                "type": "noteOn",
                "noteNumber": 59,
                "velocity": 85
            },
            {
                "deltaTime": 0,
                "channel": 0,
                "type": "noteOn",
                "noteNumber": 64,
                "velocity": 85
            },
            {
                "deltaTime": 900,
                "channel": 0,
                "type": "noteOff",
                "noteNumber": 52,
                "velocity": 85
            },
            {
                "deltaTime": 0,
                "channel": 0,
                "type": "noteOff",
                "noteNumber": 55,
                "velocity": 85
            },
            {
                "deltaTime": 0,
                "channel": 0,
                "type": "noteOff",
                "noteNumber": 59,
                "velocity": 85
            },
            {
                "deltaTime": 0,
                "channel": 0,
                "type": "noteOff",
                "noteNumber": 64,
                "velocity": 85
            },
            {
                "deltaTime": 0,
                "type": "endOfTrack",
                "meta": true
            }
        ]
    ]
}
