{
  "header": {
    "format": 1,
    "numTracks": 7,
    "ticksPerBeat": 120
  },
  "tracks": [
    [
      {
        "deltaTime": 0,
        "meta": true,
        "type": "sequencerSpecific",
        "data": {
          "type": "Buffer",
          "data": [
            0,
            0,
            91,
            35,
            2,
            0,
            3,
            0,
            51,
            0
          ]
        }
      },
      {
        "deltaTime": 0,
        "meta": true,
        "type": "trackName",
        "text": "WinJammer Demo"
      },
      {
        "deltaTime": 0,
        "meta": true,
        "type": "portPrefix",
        "port": 0
      },
      {
        "deltaTime": 0,
        "meta": true,
        "type": "timeSignature",
        "numerator": 3,
        "denominator": 4,
        "metronome": 24,
        "thirtyseconds": 8
      },
      {
        "deltaTime": 0,
        "meta": true,
        "type": "setTempo",
        "microsecondsPerBeat": 382165
      },
      {
        "deltaTime": 0,
        "meta": true,
        "type": "endOfTrack"
      }
    ],
    [
      {
        "deltaTime": 0,
        "meta": true,
        "type": "trackName",
        "text": "WinJammer Demo"
      },
      {
        "deltaTime": 0,
        "meta": true,
        "type": "portPrefix",
        "port": 0
      },
      {
        "deltaTime": 0,
        "channel": 0,
        "type": "controller",
        "controllerType": 91,
        "value": 100
      },
      {
        "deltaTime": 0,
        "running": true,
        "channel": 0,
        "type": "controller",
        "controllerType": 0,
        "value": 80
      },
      {
        "deltaTime": 0,
        "running": true,
        "channel": 0,
        "type": "controller",
        "controllerType": 32,
        "value": 0
      },
      {
        "deltaTime": 0,
        "channel": 0,
        "type": "programChange",
        "programNumber": 65
      },
      {
        "deltaTime": 0,
        "channel": 0,
        "type": "noteOn",
        "noteNumber": 62,
        "velocity": 127
      },
      {
        "deltaTime": 113,
        "running": true,
        "channel": 0,
        "type": "noteOn",
        "noteNumber": 64,
        "velocity": 127
      },
      {
        "deltaTime": 2,
        "running": true,
        "channel": 0,
        "type": "noteOff",
        "noteNumber": 62,
        "velocity": 0,
        "byte9": true
      },
      {
        "deltaTime": 122,
        "running": true,
        "channel": 0,
        "type": "noteOn",
        "noteNumber": 65,
        "velocity": 127
      },
      {
        "deltaTime": 7,
        "running": true,
        "channel": 0,
        "type": "noteOff",
        "noteNumber": 64,
        "velocity": 0,
        "byte9": true
      },
      {
        "deltaTime": 102,
        "running": true,
        "channel": 0,
        "type": "noteOff",
        "noteNumber": 65,
        "velocity": 0,
        "byte9": true
      },
      {
        "deltaTime": 3,
        "running": true,
        "channel": 0,
        "type": "noteOn",
        "noteNumber": 69,
        "velocity": 126
      },
      {
        "deltaTime": 247,
        "running": true,
        "channel": 0,
        "type": "noteOn",
        "noteNumber": 70,
        "velocity": 117
      },
      {
        "deltaTime": 1,
        "running": true,
        "channel": 0,
        "type": "noteOff",
        "noteNumber": 69,
        "velocity": 0,
        "byte9": true
      },
      {
        "deltaTime": 14,
        "running": true,
        "channel": 0,
        "type": "noteOff",
        "noteNumber": 70,
        "velocity": 0,
        "byte9": true
      },
      {
        "deltaTime": 0,
        "running": true,
        "channel": 0,
        "type": "noteOn",
        "noteNumber": 72,
        "velocity": 79
      },
      {
        "deltaTime": 27,
        "running": true,
        "channel": 0,
        "type": "noteOff",
        "noteNumber": 72,
        "velocity": 0,
        "byte9": true
      },
      {
        "deltaTime": 0,
        "running": true,
        "channel": 0,
        "type": "noteOn",
        "noteNumber": 70,
        "velocity": 106
      },
      {
        "deltaTime": 65,
        "running": true,
        "channel": 0,
        "type": "noteOff",
        "noteNumber": 70,
        "velocity": 0,
        "byte9": true
      },
      {
        "deltaTime": 4,
        "running": true,
        "channel": 0,
        "type": "noteOn",
        "noteNumber": 69,
        "velocity": 107
      },
      {
        "deltaTime": 248,
        "running": true,
        "channel": 0,
        "type": "noteOn",
        "noteNumber": 70,
        "velocity": 123
      },
      {
        "deltaTime": 9,
        "running": true,
        "channel": 0,
        "type": "noteOff",
        "noteNumber": 69,
        "velocity": 0,
        "byte9": true
      },
      {
        "deltaTime": 9,
        "running": true,
        "channel": 0,
        "type": "noteOn",
        "noteNumber": 72,
        "velocity": 96
      },
      {
        "deltaTime": 7,
        "running": true,
        "channel": 0,
        "type": "noteOff",
        "noteNumber": 70,
        "velocity": 0,
        "byte9": true
      },
      {
        "deltaTime": 28,
        "running": true,
        "channel": 0,
        "type": "noteOn",
        "noteNumber": 70,
        "velocity": 84
      },
      {
        "deltaTime": 8,
        "running": true,
        "channel": 0,
        "type": "noteOff",
        "noteNumber": 72,
        "velocity": 0,
        "byte9": true
      },
      {
        "deltaTime": 58,
        "running": true,
        "channel": 0,
        "type": "noteOff",
        "noteNumber": 70,
        "velocity": 0,
        "byte9": true
      },
      {
        "deltaTime": 0,
        "running": true,
        "channel": 0,
        "type": "noteOn",
        "noteNumber": 69,
        "velocity": 96
      },
      {
        "deltaTime": 244,
        "running": true,
        "channel": 0,
        "type": "noteOn",
        "noteNumber": 70,
        "velocity": 117
      },
      {
        "deltaTime": 13,
        "running": true,
        "channel": 0,
        "type": "noteOff",
        "noteNumber": 69,
        "velocity": 0,
        "byte9": true
      },
      {
        "deltaTime": 5,
        "running": true,
        "channel": 0,
        "type": "noteOn",
        "noteNumber": 72,
        "velocity": 75
      },
      {
        "deltaTime": 6,
        "running": true,
        "channel": 0,
        "type": "noteOff",
        "noteNumber": 70,
        "velocity": 0,
        "byte9": true
      },
      {
        "deltaTime": 24,
        "running": true,
        "channel": 0,
        "type": "noteOn",
        "noteNumber": 70,
        "velocity": 76
      },
      {
        "deltaTime": 8,
        "running": true,
        "channel": 0,
        "type": "noteOff",
        "noteNumber": 72,
        "velocity": 0,
        "byte9": true
      },
      {
        "deltaTime": 52,
        "running": true,
        "channel": 0,
        "type": "noteOff",
        "noteNumber": 70,
        "velocity": 0,
        "byte9": true
      },
      {
        "deltaTime": 3,
        "running": true,
        "channel": 0,
        "type": "noteOn",
        "noteNumber": 69,
        "velocity": 93
      },
      {
        "deltaTime": 134,
        "running": true,
        "channel": 0,
        "type": "noteOn",
        "noteNumber": 70,
        "velocity": 57
      },
      {
        "deltaTime": 2,
        "running": true,
        "channel": 0,
        "type": "noteOff",
        "noteNumber": 69,
        "velocity": 0,
        "byte9": true
      },
      {
        "deltaTime": 11,
        "running": true,
        "channel": 0,
        "type": "noteOff",
        "noteNumber": 70,
        "velocity": 0,
        "byte9": true
      },
      {
        "deltaTime": 0,
        "running": true,
        "channel": 0,
        "type": "noteOn",
        "noteNumber": 72,
        "velocity": 93
      },
      {
        "deltaTime": 30,
        "running": true,
        "channel": 0,
        "type": "noteOff",
        "noteNumber": 72,
        "velocity": 0,
        "byte9": true
      },
      {
        "deltaTime": 0,
        "running": true,
        "channel": 0,
        "type": "noteOn",
        "noteNumber": 70,
        "velocity": 85
      },
      {
        "deltaTime": 72,
        "running": true,
        "channel": 0,
        "type": "noteOff",
        "noteNumber": 70,
        "velocity": 0,
        "byte9": true
      },
      {
        "deltaTime": 0,
        "running": true,
        "channel": 0,
        "type": "noteOn",
        "noteNumber": 69,
        "velocity": 92
      },
      {
        "deltaTime": 110,
        "running": true,
        "channel": 0,
        "type": "noteOn",
        "noteNumber": 67,
        "velocity": 105
      },
      {
        "deltaTime": 9,
        "running": true,
        "channel": 0,
        "type": "noteOff",
        "noteNumber": 69,
        "velocity": 0,
        "byte9": true
      },
      {
        "deltaTime": 247,
        "running": true,
        "channel": 0,
        "type": "noteOn",
        "noteNumber": 69,
        "velocity": 105
      },
      {
        "deltaTime": 7,
        "running": true,
        "channel": 0,
        "type": "noteOff",
        "noteNumber": 67,
        "velocity": 0,
        "byte9": true
      },
      {
        "deltaTime": 10,
        "running": true,
        "channel": 0,
        "type": "noteOn",
        "noteNumber": 70,
        "velocity": 94
      },
      {
        "deltaTime": 7,
        "running": true,
        "channel": 0,
        "type": "noteOff",
        "noteNumber": 69,
        "velocity": 0,
        "byte9": true
      },
      {
        "deltaTime": 22,
        "running": true,
        "channel": 0,
        "type": "noteOn",
        "noteNumber": 69,
        "velocity": 71
      },
      {
        "deltaTime": 3,
        "running": true,
        "channel": 0,
        "type": "noteOff",
        "noteNumber": 70,
        "velocity": 0,
        "byte9": true
      },
      {
        "deltaTime": 60,
        "running": true,
        "channel": 0,
        "type": "noteOff",
        "noteNumber": 69,
        "velocity": 0,
        "byte9": true
      },
      {
        "deltaTime": 0,
        "running": true,
        "channel": 0,
        "type": "noteOn",
        "noteNumber": 67,
        "velocity": 96
      },
      {
        "deltaTime": 239,
        "running": true,
        "channel": 0,
        "type": "noteOn",
        "noteNumber": 69,
        "velocity": 90
      },
      {
        "deltaTime": 8,
        "running": true,
        "channel": 0,
        "type": "noteOff",
        "noteNumber": 67,
        "velocity": 0,
        "byte9": true
      },
      {
        "deltaTime": 12,
        "running": true,
        "channel": 0,
        "type": "noteOn",
        "noteNumber": 70,
        "velocity": 82
      },
      {
        "deltaTime": 5,
        "running": true,
        "channel": 0,
        "type": "noteOff",
        "noteNumber": 69,
        "velocity": 0,
        "byte9": true
      },
      {
        "deltaTime": 25,
        "running": true,
        "channel": 0,
        "type": "noteOff",
        "noteNumber": 70,
        "velocity": 0,
        "byte9": true
      },
      {
        "deltaTime": 0,
        "running": true,
        "channel": 0,
        "type": "noteOn",
        "noteNumber": 69,
        "velocity": 68
      },
      {
        "deltaTime": 61,
        "running": true,
        "channel": 0,
        "type": "noteOff",
        "noteNumber": 69,
        "velocity": 0,
        "byte9": true
      },
      {
        "deltaTime": 4,
        "running": true,
        "channel": 0,
        "type": "noteOn",
        "noteNumber": 67,
        "velocity": 66
      },
      {
        "deltaTime": 246,
        "running": true,
        "channel": 0,
        "type": "noteOn",
        "noteNumber": 69,
        "velocity": 95
      },
      {
        "deltaTime": 11,
        "running": true,
        "channel": 0,
        "type": "noteOff",
        "noteNumber": 67,
        "velocity": 0,
        "byte9": true
      },
      {
        "deltaTime": 9,
        "running": true,
        "channel": 0,
        "type": "noteOn",
        "noteNumber": 70,
        "velocity": 82
      },
      {
        "deltaTime": 11,
        "running": true,
        "channel": 0,
        "type": "noteOff",
        "noteNumber": 69,
        "velocity": 0,
        "byte9": true
      },
      {
        "deltaTime": 14,
        "running": true,
        "channel": 0,
        "type": "noteOn",
        "noteNumber": 69,
        "velocity": 44
      },
      {
        "deltaTime": 9,
        "running": true,
        "channel": 0,
        "type": "noteOff",
        "noteNumber": 70,
        "velocity": 0,
        "byte9": true
      },
      {
        "deltaTime": 60,
        "running": true,
        "channel": 0,
        "type": "noteOff",
        "noteNumber": 69,
        "velocity": 0,
        "byte9": true
      },
      {
        "deltaTime": 0,
        "running": true,
        "channel": 0,
        "type": "noteOn",
        "noteNumber": 67,
        "velocity": 90
      },
      {
        "deltaTime": 130,
        "running": true,
        "channel": 0,
        "type": "noteOn",
        "noteNumber": 69,
        "velocity": 82
      },
      {
        "deltaTime": 9,
        "running": true,
        "channel": 0,
        "type": "noteOff",
        "noteNumber": 67,
        "velocity": 0,
        "byte9": true
      },
      {
        "deltaTime": 11,
        "running": true,
        "channel": 0,
        "type": "noteOn",
        "noteNumber": 70,
        "velocity": 98
      },
      {
        "deltaTime": 3,
        "running": true,
        "channel": 0,
        "type": "noteOff",
        "noteNumber": 69,
        "velocity": 0,
        "byte9": true
      },
      {
        "deltaTime": 24,
        "running": true,
        "channel": 0,
        "type": "noteOn",
        "noteNumber": 69,
        "velocity": 72
      },
      {
        "deltaTime": 4,
        "running": true,
        "channel": 0,
        "type": "noteOff",
        "noteNumber": 70,
        "velocity": 0,
        "byte9": true
      },
      {
        "deltaTime": 57,
        "running": true,
        "channel": 0,
        "type": "noteOn",
        "noteNumber": 67,
        "velocity": 95
      },
      {
        "deltaTime": 1,
        "running": true,
        "channel": 0,
        "type": "noteOff",
        "noteNumber": 69,
        "velocity": 0,
        "byte9": true
      },
      {
        "deltaTime": 128,
        "running": true,
        "channel": 0,
        "type": "noteOn",
        "noteNumber": 65,
        "velocity": 103
      },
      {
        "deltaTime": 13,
        "running": true,
        "channel": 0,
        "type": "noteOff",
        "noteNumber": 67,
        "velocity": 0,
        "byte9": true
      },
      {
        "deltaTime": 236,
        "running": true,
        "channel": 0,
        "type": "noteOn",
        "noteNumber": 67,
        "velocity": 107
      },
      {
        "deltaTime": 7,
        "running": true,
        "channel": 0,
        "type": "noteOff",
        "noteNumber": 65,
        "velocity": 0,
        "byte9": true
      },
      {
        "deltaTime": 13,
        "running": true,
        "channel": 0,
        "type": "noteOn",
        "noteNumber": 69,
        "velocity": 66
      },
      {
        "deltaTime": 7,
        "running": true,
        "channel": 0,
        "type": "noteOff",
        "noteNumber": 67,
        "velocity": 0,
        "byte9": true
      },
      {
        "deltaTime": 17,
        "running": true,
        "channel": 0,
        "type": "noteOn",
        "noteNumber": 67,
        "velocity": 60
      },
      {
        "deltaTime": 8,
        "running": true,
        "channel": 0,
        "type": "noteOff",
        "noteNumber": 69,
        "velocity": 0,
        "byte9": true
      },
      {
        "deltaTime": 55,
        "running": true,
        "channel": 0,
        "type": "noteOn",
        "noteNumber": 65,
        "velocity": 92
      },
      {
        "deltaTime": 2,
        "running": true,
        "channel": 0,
        "type": "noteOff",
        "noteNumber": 67,
        "velocity": 0,
        "byte9": true
      },
      {
        "deltaTime": 237,
        "running": true,
        "channel": 0,
        "type": "noteOn",
        "noteNumber": 67,
        "velocity": 111
      },
      {
        "deltaTime": 10,
        "running": true,
        "channel": 0,
        "type": "noteOff",
        "noteNumber": 65,
        "velocity": 0,
        "byte9": true
      },
      {
        "deltaTime": 10,
        "running": true,
        "channel": 0,
        "type": "noteOn",
        "noteNumber": 69,
        "velocity": 68
      },
      {
        "deltaTime": 7,
        "running": true,
        "channel": 0,
        "type": "noteOff",
        "noteNumber": 67,
        "velocity": 0,
        "byte9": true
      },
      {
        "deltaTime": 21,
        "running": true,
        "channel": 0,
        "type": "noteOn",
        "noteNumber": 67,
        "velocity": 72
      },
      {
        "deltaTime": 9,
        "running": true,
        "channel": 0,
        "type": "noteOff",
        "noteNumber": 69,
        "velocity": 0,
        "byte9": true
      },
      {
        "deltaTime": 63,
        "running": true,
        "channel": 0,
        "type": "noteOff",
        "noteNumber": 67,
        "velocity": 0,
        "byte9": true
      },
      {
        "deltaTime": 0,
        "running": true,
        "channel": 0,
        "type": "noteOn",
        "noteNumber": 65,
        "velocity": 99
      },
      {
        "deltaTime": 243,
        "running": true,
        "channel": 0,
        "type": "noteOff",
        "noteNumber": 65,
        "velocity": 0,
        "byte9": true
      },
      {
        "deltaTime": 4,
        "running": true,
        "channel": 0,
        "type": "noteOn",
        "noteNumber": 64,
        "velocity": 123
      },
      {
        "deltaTime": 23,
        "running": true,
        "channel": 0,
        "type": "noteOn",
        "noteNumber": 65,
        "velocity": 79
      },
      {
        "deltaTime": 3,
        "running": true,
        "channel": 0,
        "type": "noteOff",
        "noteNumber": 64,
        "velocity": 0,
        "byte9": true
      },
      {
        "deltaTime": 19,
        "running": true,
        "channel": 0,
        "type": "noteOn",
        "noteNumber": 64,
        "velocity": 72
      },
      {
        "deltaTime": 7,
        "running": true,
        "channel": 0,
        "type": "noteOff",
        "noteNumber": 65,
        "velocity": 0,
        "byte9": true
      },
      {
        "deltaTime": 59,
        "running": true,
        "channel": 0,
        "type": "noteOff",
        "noteNumber": 64,
        "velocity": 0,
        "byte9": true
      },
      {
        "deltaTime": 5,
        "running": true,
        "channel": 0,
        "type": "noteOn",
        "noteNumber": 62,
        "velocity": 111
      },
      {
        "deltaTime": 245,
        "running": true,
        "channel": 0,
        "type": "noteOn",
        "noteNumber": 61,
        "velocity": 110
      },
      {
        "deltaTime": 1,
        "running": true,
        "channel": 0,
        "type": "noteOff",
        "noteNumber": 62,
        "velocity": 0,
        "byte9": true
      },
      {
        "deltaTime": 50,
        "running": true,
        "channel": 0,
        "type": "noteOff",
        "noteNumber": 61,
        "velocity": 0,
        "byte9": true
      },
      {
        "deltaTime": 2,
        "running": true,
        "channel": 0,
        "type": "noteOn",
        "noteNumber": 62,
        "velocity": 95
      },
      {
        "deltaTime": 63,
        "running": true,
        "channel": 0,
        "type": "noteOn",
        "noteNumber": 64,
        "velocity": 107
      },
      {
        "deltaTime": 1,
        "running": true,
        "channel": 0,
        "type": "noteOff",
        "noteNumber": 62,
        "velocity": 0,
        "byte9": true
      },
      {
        "deltaTime": 143,
        "channel": 0,
        "type": "controller",
        "controllerType": 1,
        "value": 2
      },
      {
        "deltaTime": 4,
        "running": true,
        "channel": 0,
        "type": "controller",
        "controllerType": 1,
        "value": 3
      },
      {
        "deltaTime": 4,
        "running": true,
        "channel": 0,
        "type": "controller",
        "controllerType": 1,
        "value": 4
      },
      {
        "deltaTime": 6,
        "running": true,
        "channel": 0,
        "type": "controller",
        "controllerType": 1,
        "value": 6
      },
      {
        "deltaTime": 7,
        "running": true,
        "channel": 0,
        "type": "controller",
        "controllerType": 1,
        "value": 7
      },
      {
        "deltaTime": 4,
        "running": true,
        "channel": 0,
        "type": "controller",
        "controllerType": 1,
        "value": 9
      },
      {
        "deltaTime": 6,
        "running": true,
        "channel": 0,
        "type": "controller",
        "controllerType": 1,
        "value": 10
      },
      {
        "deltaTime": 8,
        "running": true,
        "channel": 0,
        "type": "controller",
        "controllerType": 1,
        "value": 12
      },
      {
        "deltaTime": 6,
        "running": true,
        "channel": 0,
        "type": "controller",
        "controllerType": 1,
        "value": 13
      },
      {
        "deltaTime": 8,
        "running": true,
        "channel": 0,
        "type": "controller",
        "controllerType": 1,
        "value": 14
      },
      {
        "deltaTime": 6,
        "running": true,
        "channel": 0,
        "type": "controller",
        "controllerType": 1,
        "value": 15
      },
      {
        "deltaTime": 7,
        "running": true,
        "channel": 0,
        "type": "controller",
        "controllerType": 1,
        "value": 16
      },
      {
        "deltaTime": 7,
        "running": true,
        "channel": 0,
        "type": "controller",
        "controllerType": 1,
        "value": 17
      },
      {
        "deltaTime": 10,
        "running": true,
        "channel": 0,
        "type": "controller",
        "controllerType": 1,
        "value": 18
      },
      {
        "deltaTime": 14,
        "running": true,
        "channel": 0,
        "type": "controller",
        "controllerType": 1,
        "value": 20
      },
      {
        "deltaTime": 14,
        "running": true,
        "channel": 0,
        "type": "controller",
        "controllerType": 1,
        "value": 21
      },
      {
        "deltaTime": 25,
        "running": true,
        "channel": 0,
        "type": "controller",
        "controllerType": 1,
        "value": 22
      },
      {
        "deltaTime": 10,
        "running": true,
        "channel": 0,
        "type": "controller",
        "controllerType": 1,
        "value": 23
      },
      {
        "deltaTime": 34,
        "running": true,
        "channel": 0,
        "type": "controller",
        "controllerType": 1,
        "value": 22
      },
      {
        "deltaTime": 7,
        "running": true,
        "channel": 0,
        "type": "controller",
        "controllerType": 1,
        "value": 21
      },
      {
        "deltaTime": 11,
        "running": true,
        "channel": 0,
        "type": "controller",
        "controllerType": 1,
        "value": 20
      },
      {
        "deltaTime": 30,
        "running": true,
        "channel": 0,
        "type": "controller",
        "controllerType": 1,
        "value": 18
      },
      {
        "deltaTime": 2,
        "running": true,
        "channel": 0,
        "type": "controller",
        "controllerType": 1,
        "value": 17
      },
      {
        "deltaTime": 5,
        "running": true,
        "channel": 0,
        "type": "controller",
        "controllerType": 1,
        "value": 16
      },
      {
        "deltaTime": 12,
        "running": true,
        "channel": 0,
        "type": "controller",
        "controllerType": 1,
        "value": 14
      },
      {
        "deltaTime": 3,
        "running": true,
        "channel": 0,
        "type": "controller",
        "controllerType": 1,
        "value": 12
      },
      {
        "deltaTime": 3,
        "running": true,
        "channel": 0,
        "type": "controller",
        "controllerType": 1,
        "value": 9
      },
      {
        "deltaTime": 4,
        "running": true,
        "channel": 0,
        "type": "controller",
        "controllerType": 1,
        "value": 5
      },
      {
        "deltaTime": 4,
        "running": true,
        "channel": 0,
        "type": "controller",
        "controllerType": 1,
        "value": 2
      },
      {
        "deltaTime": 3,
        "running": true,
        "channel": 0,
        "type": "controller",
        "controllerType": 1,
        "value": 0
      },
      {
        "deltaTime": 170,
        "channel": 0,
        "type": "noteOff",
        "noteNumber": 64,
        "velocity": 0,
        "byte9": true
      },
      {
        "deltaTime": 157,
        "running": true,
        "channel": 0,
        "type": "noteOn",
        "noteNumber": 62,
        "velocity": 127
      },
      {
        "deltaTime": 117,
        "running": true,
        "channel": 0,
        "type": "noteOn",
        "noteNumber": 64,
        "velocity": 127
      },
      {
        "deltaTime": 6,
        "running": true,
        "channel": 0,
        "type": "noteOff",
        "noteNumber": 62,
        "velocity": 0,
        "byte9": true
      },
      {
        "deltaTime": 109,
        "running": true,
        "channel": 0,
        "type": "noteOn",
        "noteNumber": 65,
        "velocity": 127
      },
      {
        "deltaTime": 6,
        "running": true,
        "channel": 0,
        "type": "noteOff",
        "noteNumber": 64,
        "velocity": 0,
        "byte9": true
      },
      {
        "deltaTime": 105,
        "running": true,
        "channel": 0,
        "type": "noteOn",
        "noteNumber": 69,
        "velocity": 95
      },
      {
        "deltaTime": 9,
        "running": true,
        "channel": 0,
        "type": "noteOff",
        "noteNumber": 65,
        "velocity": 0,
        "byte9": true
      },
      {
        "deltaTime": 243,
        "running": true,
        "channel": 0,
        "type": "noteOn",
        "noteNumber": 70,
        "velocity": 120
      },
      {
        "deltaTime": 8,
        "running": true,
        "channel": 0,
        "type": "noteOff",
        "noteNumber": 69,
        "velocity": 0,
        "byte9": true
      },
      {
        "deltaTime": 16,
        "running": true,
        "channel": 0,
        "type": "noteOff",
        "noteNumber": 70,
        "velocity": 0,
        "byte9": true
      },
      {
        "deltaTime": 0,
        "running": true,
        "channel": 0,
        "type": "noteOn",
        "noteNumber": 72,
        "velocity": 64
      },
      {
        "deltaTime": 21,
        "running": true,
        "channel": 0,
        "type": "noteOn",
        "noteNumber": 70,
        "velocity": 70
      },
      {
        "deltaTime": 8,
        "running": true,
        "channel": 0,
        "type": "noteOff",
        "noteNumber": 72,
        "velocity": 0,
        "byte9": true
      },
      {
        "deltaTime": 55,
        "running": true,
        "channel": 0,
        "type": "noteOff",
        "noteNumber": 70,
        "velocity": 0,
        "byte9": true
      },
      {
        "deltaTime": 2,
        "running": true,
        "channel": 0,
        "type": "noteOn",
        "noteNumber": 69,
        "velocity": 82
      },
      {
        "deltaTime": 251,
        "running": true,
        "channel": 0,
        "type": "noteOn",
        "noteNumber": 70,
        "velocity": 102
      },
      {
        "deltaTime": 9,
        "running": true,
        "channel": 0,
        "type": "noteOff",
        "noteNumber": 69,
        "velocity": 0,
        "byte9": true
      },
      {
        "deltaTime": 11,
        "running": true,
        "channel": 0,
        "type": "noteOn",
        "noteNumber": 72,
        "velocity": 87
      },
      {
        "deltaTime": 2,
        "running": true,
        "channel": 0,
        "type": "noteOff",
        "noteNumber": 70,
        "velocity": 0,
        "byte9": true
      },
      {
        "deltaTime": 22,
        "running": true,
        "channel": 0,
        "type": "noteOff",
        "noteNumber": 72,
        "velocity": 0,
        "byte9": true
      },
      {
        "deltaTime": 3,
        "running": true,
        "channel": 0,
        "type": "noteOn",
        "noteNumber": 70,
        "velocity": 69
      },
      {
        "deltaTime": 61,
        "running": true,
        "channel": 0,
        "type": "noteOff",
        "noteNumber": 70,
        "velocity": 0,
        "byte9": true
      },
      {
        "deltaTime": 2,
        "running": true,
        "channel": 0,
        "type": "noteOn",
        "noteNumber": 69,
        "velocity": 80
      },
      {
        "deltaTime": 246,
        "running": true,
        "channel": 0,
        "type": "noteOn",
        "noteNumber": 70,
        "velocity": 117
      },
      {
        "deltaTime": 8,
        "running": true,
        "channel": 0,
        "type": "noteOff",
        "noteNumber": 69,
        "velocity": 0,
        "byte9": true
      },
      {
        "deltaTime": 16,
        "running": true,
        "channel": 0,
        "type": "noteOff",
        "noteNumber": 70,
        "velocity": 0,
        "byte9": true
      },
      {
        "deltaTime": 0,
        "running": true,
        "channel": 0,
        "type": "noteOn",
        "noteNumber": 72,
        "velocity": 53
      },
      {
        "deltaTime": 23,
        "running": true,
        "channel": 0,
        "type": "noteOn",
        "noteNumber": 70,
        "velocity": 68
      },
      {
        "deltaTime": 7,
        "running": true,
        "channel": 0,
        "type": "noteOff",
        "noteNumber": 72,
        "velocity": 0,
        "byte9": true
      },
      {
        "deltaTime": 58,
        "running": true,
        "channel": 0,
        "type": "noteOff",
        "noteNumber": 70,
        "velocity": 0,
        "byte9": true
      },
      {
        "deltaTime": 0,
        "running": true,
        "channel": 0,
        "type": "noteOn",
        "noteNumber": 69,
        "velocity": 86
      },
      {
        "deltaTime": 124,
        "running": true,
        "channel": 0,
        "type": "noteOn",
        "noteNumber": 70,
        "velocity": 110
      },
      {
        "deltaTime": 8,
        "running": true,
        "channel": 0,
        "type": "noteOff",
        "noteNumber": 69,
        "velocity": 0,
        "byte9": true
      },
      {
        "deltaTime": 13,
        "running": true,
        "channel": 0,
        "type": "noteOn",
        "noteNumber": 72,
        "velocity": 45
      },
      {
        "deltaTime": 2,
        "running": true,
        "channel": 0,
        "type": "noteOff",
        "noteNumber": 70,
        "velocity": 0,
        "byte9": true
      },
      {
        "deltaTime": 22,
        "running": true,
        "channel": 0,
        "type": "noteOn",
        "noteNumber": 70,
        "velocity": 67
      },
      {
        "deltaTime": 5,
        "running": true,
        "channel": 0,
        "type": "noteOff",
        "noteNumber": 72,
        "velocity": 0,
        "byte9": true
      },
      {
        "deltaTime": 60,
        "running": true,
        "channel": 0,
        "type": "noteOff",
        "noteNumber": 70,
        "velocity": 0,
        "byte9": true
      },
      {
        "deltaTime": 2,
        "running": true,
        "channel": 0,
        "type": "noteOn",
        "noteNumber": 69,
        "velocity": 93
      },
      {
        "deltaTime": 57,
        "running": true,
        "channel": 0,
        "type": "noteOn",
        "noteNumber": 74,
        "velocity": 118
      },
      {
        "deltaTime": 7,
        "running": true,
        "channel": 0,
        "type": "noteOff",
        "noteNumber": 69,
        "velocity": 0,
        "byte9": true
      },
      {
        "deltaTime": 63,
        "running": true,
        "channel": 0,
        "type": "noteOn",
        "noteNumber": 67,
        "velocity": 92
      },
      {
        "deltaTime": 1,
        "running": true,
        "channel": 0,
        "type": "noteOff",
        "noteNumber": 74,
        "velocity": 0,
        "byte9": true
      },
      {
        "deltaTime": 241,
        "running": true,
        "channel": 0,
        "type": "noteOn",
        "noteNumber": 69,
        "velocity": 75
      },
      {
        "deltaTime": 9,
        "running": true,
        "channel": 0,
        "type": "noteOff",
        "noteNumber": 67,
        "velocity": 0,
        "byte9": true
      },
      {
        "deltaTime": 13,
        "running": true,
        "channel": 0,
        "type": "noteOn",
        "noteNumber": 70,
        "velocity": 74
      },
      {
        "deltaTime": 5,
        "running": true,
        "channel": 0,
        "type": "noteOff",
        "noteNumber": 69,
        "velocity": 0,
        "byte9": true
      },
      {
        "deltaTime": 19,
        "running": true,
        "channel": 0,
        "type": "noteOff",
        "noteNumber": 70,
        "velocity": 0,
        "byte9": true
      },
      {
        "deltaTime": 0,
        "running": true,
        "channel": 0,
        "type": "noteOn",
        "noteNumber": 69,
        "velocity": 54
      },
      {
        "deltaTime": 71,
        "running": true,
        "channel": 0,
        "type": "noteOn",
        "noteNumber": 67,
        "velocity": 63
      },
      {
        "deltaTime": 4,
        "running": true,
        "channel": 0,
        "type": "noteOff",
        "noteNumber": 69,
        "velocity": 0,
        "byte9": true
      },
      {
        "deltaTime": 240,
        "running": true,
        "channel": 0,
        "type": "noteOn",
        "noteNumber": 69,
        "velocity": 80
      },
      {
        "deltaTime": 8,
        "running": true,
        "channel": 0,
        "type": "noteOff",
        "noteNumber": 67,
        "velocity": 0,
        "byte9": true
      },
      {
        "deltaTime": 13,
        "running": true,
        "channel": 0,
        "type": "noteOn",
        "noteNumber": 70,
        "velocity": 102
      },
      {
        "deltaTime": 3,
        "running": true,
        "channel": 0,
        "type": "noteOff",
        "noteNumber": 69,
        "velocity": 0,
        "byte9": true
      },
      {
        "deltaTime": 22,
        "running": true,
        "channel": 0,
        "type": "noteOff",
        "noteNumber": 70,
        "velocity": 0,
        "byte9": true
      },
      {
        "deltaTime": 1,
        "running": true,
        "channel": 0,
        "type": "noteOn",
        "noteNumber": 69,
        "velocity": 62
      },
      {
        "deltaTime": 65,
        "running": true,
        "channel": 0,
        "type": "noteOff",
        "noteNumber": 69,
        "velocity": 0,
        "byte9": true
      },
      {
        "deltaTime": 3,
        "running": true,
        "channel": 0,
        "type": "noteOn",
        "noteNumber": 67,
        "velocity": 82
      },
      {
        "deltaTime": 242,
        "running": true,
        "channel": 0,
        "type": "noteOn",
        "noteNumber": 69,
        "velocity": 67
      },
      {
        "deltaTime": 8,
        "running": true,
        "channel": 0,
        "type": "noteOff",
        "noteNumber": 67,
        "velocity": 0,
        "byte9": true
      },
      {
        "deltaTime": 14,
        "running": true,
        "channel": 0,
        "type": "noteOn",
        "noteNumber": 70,
        "velocity": 81
      },
      {
        "deltaTime": 7,
        "running": true,
        "channel": 0,
        "type": "noteOff",
        "noteNumber": 69,
        "velocity": 0,
        "byte9": true
      },
      {
        "deltaTime": 16,
        "running": true,
        "channel": 0,
        "type": "noteOn",
        "noteNumber": 69,
        "velocity": 54
      },
      {
        "deltaTime": 2,
        "running": true,
        "channel": 0,
        "type": "noteOff",
        "noteNumber": 70,
        "velocity": 0,
        "byte9": true
      },
      {
        "deltaTime": 74,
        "running": true,
        "channel": 0,
        "type": "noteOn",
        "noteNumber": 67,
        "velocity": 80
      },
      {
        "deltaTime": 3,
        "running": true,
        "channel": 0,
        "type": "noteOff",
        "noteNumber": 69,
        "velocity": 0,
        "byte9": true
      },
      {
        "deltaTime": 120,
        "running": true,
        "channel": 0,
        "type": "noteOn",
        "noteNumber": 69,
        "velocity": 72
      },
      {
        "deltaTime": 6,
        "running": true,
        "channel": 0,
        "type": "noteOff",
        "noteNumber": 67,
        "velocity": 0,
        "byte9": true
      },
      {
        "deltaTime": 8,
        "running": true,
        "channel": 0,
        "type": "noteOn",
        "noteNumber": 70,
        "velocity": 104
      },
      {
        "deltaTime": 3,
        "running": true,
        "channel": 0,
        "type": "noteOff",
        "noteNumber": 69,
        "velocity": 0,
        "byte9": true
      },
      {
        "deltaTime": 24,
        "running": true,
        "channel": 0,
        "type": "noteOff",
        "noteNumber": 70,
        "velocity": 0,
        "byte9": true
      },
      {
        "deltaTime": 5,
        "running": true,
        "channel": 0,
        "type": "noteOn",
        "noteNumber": 69,
        "velocity": 86
      },
      {
        "deltaTime": 69,
        "running": true,
        "channel": 0,
        "type": "noteOff",
        "noteNumber": 69,
        "velocity": 0,
        "byte9": true
      },
      {
        "deltaTime": 1,
        "running": true,
        "channel": 0,
        "type": "noteOn",
        "noteNumber": 67,
        "velocity": 93
      },
      {
        "deltaTime": 120,
        "running": true,
        "channel": 0,
        "type": "noteOn",
        "noteNumber": 65,
        "velocity": 98
      },
      {
        "deltaTime": 5,
        "running": true,
        "channel": 0,
        "type": "noteOff",
        "noteNumber": 67,
        "velocity": 0,
        "byte9": true
      },
      {
        "deltaTime": 248,
        "running": true,
        "channel": 0,
        "type": "noteOn",
        "noteNumber": 67,
        "velocity": 103
      },
      {
        "deltaTime": 8,
        "running": true,
        "channel": 0,
        "type": "noteOff",
        "noteNumber": 65,
        "velocity": 0,
        "byte9": true
      },
      {
        "deltaTime": 17,
        "running": true,
        "channel": 0,
        "type": "noteOn",
        "noteNumber": 69,
        "velocity": 69
      },
      {
        "deltaTime": 1,
        "running": true,
        "channel": 0,
        "type": "noteOff",
        "noteNumber": 67,
        "velocity": 0,
        "byte9": true
      },
      {
        "deltaTime": 21,
        "running": true,
        "channel": 0,
        "type": "noteOn",
        "noteNumber": 67,
        "velocity": 64
      },
      {
        "deltaTime": 8,
        "running": true,
        "channel": 0,
        "type": "noteOff",
        "noteNumber": 69,
        "velocity": 0,
        "byte9": true
      },
      {
        "deltaTime": 53,
        "running": true,
        "channel": 0,
        "type": "noteOn",
        "noteNumber": 65,
        "velocity": 90
      },
      {
        "deltaTime": 1,
        "running": true,
        "channel": 0,
        "type": "noteOff",
        "noteNumber": 67,
        "velocity": 0,
        "byte9": true
      },
      {
        "deltaTime": 228,
        "running": true,
        "channel": 0,
        "type": "noteOn",
        "noteNumber": 67,
        "velocity": 98
      },
      {
        "deltaTime": 10,
        "running": true,
        "channel": 0,
        "type": "noteOff",
        "noteNumber": 65,
        "velocity": 0,
        "byte9": true
      },
      {
        "deltaTime": 11,
        "running": true,
        "channel": 0,
        "type": "noteOn",
        "noteNumber": 69,
        "velocity": 84
      },
      {
        "deltaTime": 5,
        "running": true,
        "channel": 0,
        "type": "noteOff",
        "noteNumber": 67,
        "velocity": 0,
        "byte9": true
      },
      {
        "deltaTime": 22,
        "running": true,
        "channel": 0,
        "type": "noteOn",
        "noteNumber": 67,
        "velocity": 69
      },
      {
        "deltaTime": 7,
        "running": true,
        "channel": 0,
        "type": "noteOff",
        "noteNumber": 69,
        "velocity": 0,
        "byte9": true
      },
      {
        "deltaTime": 70,
        "running": true,
        "channel": 0,
        "type": "noteOn",
        "noteNumber": 65,
        "velocity": 89
      },
      {
        "deltaTime": 3,
        "running": true,
        "channel": 0,
        "type": "noteOff",
        "noteNumber": 67,
        "velocity": 0,
        "byte9": true
      },
      {
        "deltaTime": 251,
        "running": true,
        "channel": 0,
        "type": "noteOff",
        "noteNumber": 65,
        "velocity": 0,
        "byte9": true
      },
      {
        "deltaTime": 0,
        "running": true,
        "channel": 0,
        "type": "noteOn",
        "noteNumber": 64,
        "velocity": 103
      },
      {
        "deltaTime": 27,
        "running": true,
        "channel": 0,
        "type": "noteOn",
        "noteNumber": 65,
        "velocity": 67
      },
      {
        "deltaTime": 3,
        "running": true,
        "channel": 0,
        "type": "noteOff",
        "noteNumber": 64,
        "velocity": 0,
        "byte9": true
      },
      {
        "deltaTime": 21,
        "running": true,
        "channel": 0,
        "type": "noteOn",
        "noteNumber": 64,
        "velocity": 69
      },
      {
        "deltaTime": 9,
        "running": true,
        "channel": 0,
        "type": "noteOff",
        "noteNumber": 65,
        "velocity": 0,
        "byte9": true
      },
      {
        "deltaTime": 54,
        "running": true,
        "channel": 0,
        "type": "noteOff",
        "noteNumber": 64,
        "velocity": 0,
        "byte9": true
      },
      {
        "deltaTime": 11,
        "running": true,
        "channel": 0,
        "type": "noteOn",
        "noteNumber": 62,
        "velocity": 99
      },
      {
        "deltaTime": 229,
        "running": true,
        "channel": 0,
        "type": "noteOn",
        "noteNumber": 61,
        "velocity": 108
      },
      {
        "deltaTime": 9,
        "running": true,
        "channel": 0,
        "type": "noteOff",
        "noteNumber": 62,
        "velocity": 0,
        "byte9": true
      },
      {
        "deltaTime": 56,
        "running": true,
        "channel": 0,
        "type": "noteOn",
        "noteNumber": 64,
        "velocity": 105
      },
      {
        "deltaTime": 13,
        "running": true,
        "channel": 0,
        "type": "noteOff",
        "noteNumber": 61,
        "velocity": 0,
        "byte9": true
      },
      {
        "deltaTime": 49,
        "running": true,
        "channel": 0,
        "type": "noteOn",
        "noteNumber": 62,
        "velocity": 80
      },
      {
        "deltaTime": 8,
        "running": true,
        "channel": 0,
        "type": "noteOff",
        "noteNumber": 64,
        "velocity": 0,
        "byte9": true
      },
      {
        "deltaTime": 347,
        "channel": 0,
        "type": "controller",
        "controllerType": 0,
        "value": 80
      },
      {
        "deltaTime": 0,
        "running": true,
        "channel": 0,
        "type": "controller",
        "controllerType": 32,
        "value": 0
      },
      {
        "deltaTime": 0,
        "channel": 0,
        "type": "programChange",
        "programNumber": 65
      },
      {
        "deltaTime": 131,
        "channel": 0,
        "type": "noteOff",
        "noteNumber": 62,
        "velocity": 0,
        "byte9": true
      },
      {
        "deltaTime": 108,
        "running": true,
        "channel": 0,
        "type": "noteOn",
        "noteNumber": 74,
        "velocity": 127
      },
      {
        "deltaTime": 118,
        "running": true,
        "channel": 0,
        "type": "noteOn",
        "noteNumber": 72,
        "velocity": 127
      },
      {
        "deltaTime": 12,
        "running": true,
        "channel": 0,
        "type": "noteOff",
        "noteNumber": 74,
        "velocity": 0,
        "byte9": true
      },
      {
        "deltaTime": 101,
        "running": true,
        "channel": 0,
        "type": "noteOn",
        "noteNumber": 70,
        "velocity": 127
      },
      {
        "deltaTime": 3,
        "running": true,
        "channel": 0,
        "type": "noteOff",
        "noteNumber": 72,
        "velocity": 0,
        "byte9": true
      },
      {
        "deltaTime": 116,
        "running": true,
        "channel": 0,
        "type": "noteOff",
        "noteNumber": 70,
        "velocity": 0,
        "byte9": true
      },
      {
        "deltaTime": 3,
        "running": true,
        "channel": 0,
        "type": "noteOn",
        "noteNumber": 69,
        "velocity": 118
      },
      {
        "deltaTime": 125,
        "running": true,
        "channel": 0,
        "type": "noteOn",
        "noteNumber": 70,
        "velocity": 127
      },
      {
        "deltaTime": 6,
        "running": true,
        "channel": 0,
        "type": "noteOff",
        "noteNumber": 69,
        "velocity": 0,
        "byte9": true
      },
      {
        "deltaTime": 171,
        "running": true,
        "channel": 0,
        "type": "noteOn",
        "noteNumber": 69,
        "velocity": 123
      },
      {
        "deltaTime": 10,
        "running": true,
        "channel": 0,
        "type": "noteOff",
        "noteNumber": 70,
        "velocity": 0,
        "byte9": true
      },
      {
        "deltaTime": 37,
        "running": true,
        "channel": 0,
        "type": "noteOff",
        "noteNumber": 69,
        "velocity": 0,
        "byte9": true
      },
      {
        "deltaTime": 3,
        "running": true,
        "channel": 0,
        "type": "noteOn",
        "noteNumber": 67,
        "velocity": 111
      },
      {
        "deltaTime": 58,
        "running": true,
        "channel": 0,
        "type": "noteOn",
        "noteNumber": 69,
        "velocity": 111
      },
      {
        "deltaTime": 17,
        "running": true,
        "channel": 0,
        "type": "noteOff",
        "noteNumber": 67,
        "velocity": 0,
        "byte9": true
      },
      {
        "deltaTime": 43,
        "running": true,
        "channel": 0,
        "type": "noteOn",
        "noteNumber": 70,
        "velocity": 126
      },
      {
        "deltaTime": 4,
        "running": true,
        "channel": 0,
        "type": "noteOff",
        "noteNumber": 69,
        "velocity": 0,
        "byte9": true
      },
      {
        "deltaTime": 187,
        "running": true,
        "channel": 0,
        "type": "noteOn",
        "noteNumber": 69,
        "velocity": 111
      },
      {
        "deltaTime": 12,
        "running": true,
        "channel": 0,
        "type": "noteOff",
        "noteNumber": 70,
        "velocity": 0,
        "byte9": true
      },
      {
        "deltaTime": 38,
        "running": true,
        "channel": 0,
        "type": "noteOff",
        "noteNumber": 69,
        "velocity": 0,
        "byte9": true
      },
      {
        "deltaTime": 5,
        "running": true,
        "channel": 0,
        "type": "noteOn",
        "noteNumber": 67,
        "velocity": 100
      },
      {
        "deltaTime": 59,
        "running": true,
        "channel": 0,
        "type": "noteOn",
        "noteNumber": 69,
        "velocity": 100
      },
      {
        "deltaTime": 20,
        "running": true,
        "channel": 0,
        "type": "noteOff",
        "noteNumber": 67,
        "velocity": 0,
        "byte9": true
      },
      {
        "deltaTime": 46,
        "running": true,
        "channel": 0,
        "type": "noteOn",
        "noteNumber": 70,
        "velocity": 125
      },
      {
        "deltaTime": 11,
        "running": true,
        "channel": 0,
        "type": "noteOff",
        "noteNumber": 69,
        "velocity": 0,
        "byte9": true
      },
      {
        "deltaTime": 234,
        "running": true,
        "channel": 0,
        "type": "noteOff",
        "noteNumber": 70,
        "velocity": 0,
        "byte9": true
      },
      {
        "deltaTime": 6,
        "running": true,
        "channel": 0,
        "type": "noteOn",
        "noteNumber": 72,
        "velocity": 98
      },
      {
        "deltaTime": 113,
        "running": true,
        "channel": 0,
        "type": "noteOn",
        "noteNumber": 70,
        "velocity": 126
      },
      {
        "deltaTime": 10,
        "running": true,
        "channel": 0,
        "type": "noteOff",
        "noteNumber": 72,
        "velocity": 0,
        "byte9": true
      },
      {
        "deltaTime": 116,
        "running": true,
        "channel": 0,
        "type": "noteOn",
        "noteNumber": 69,
        "velocity": 121
      },
      {
        "deltaTime": 6,
        "running": true,
        "channel": 0,
        "type": "noteOff",
        "noteNumber": 70,
        "velocity": 0,
        "byte9": true
      },
      {
        "deltaTime": 100,
        "running": true,
        "channel": 0,
        "type": "noteOff",
        "noteNumber": 69,
        "velocity": 0,
        "byte9": true
      },
      {
        "deltaTime": 5,
        "running": true,
        "channel": 0,
        "type": "noteOn",
        "noteNumber": 67,
        "velocity": 116
      },
      {
        "deltaTime": 130,
        "running": true,
        "channel": 0,
        "type": "noteOn",
        "noteNumber": 69,
        "velocity": 125
      },
      {
        "deltaTime": 7,
        "running": true,
        "channel": 0,
        "type": "noteOff",
        "noteNumber": 67,
        "velocity": 0,
        "byte9": true
      },
      {
        "deltaTime": 182,
        "running": true,
        "channel": 0,
        "type": "noteOn",
        "noteNumber": 67,
        "velocity": 93
      },
      {
        "deltaTime": 15,
        "running": true,
        "channel": 0,
        "type": "noteOff",
        "noteNumber": 69,
        "velocity": 0,
        "byte9": true
      },
      {
        "deltaTime": 29,
        "running": true,
        "channel": 0,
        "type": "noteOff",
        "noteNumber": 67,
        "velocity": 0,
        "byte9": true
      },
      {
        "deltaTime": 6,
        "running": true,
        "channel": 0,
        "type": "noteOn",
        "noteNumber": 65,
        "velocity": 98
      },
      {
        "deltaTime": 53,
        "running": true,
        "channel": 0,
        "type": "noteOn",
        "noteNumber": 67,
        "velocity": 84
      },
      {
        "deltaTime": 19,
        "running": true,
        "channel": 0,
        "type": "noteOff",
        "noteNumber": 65,
        "velocity": 0,
        "byte9": true
      },
      {
        "deltaTime": 43,
        "running": true,
        "channel": 0,
        "type": "noteOn",
        "noteNumber": 69,
        "velocity": 100
      },
      {
        "deltaTime": 6,
        "running": true,
        "channel": 0,
        "type": "noteOff",
        "noteNumber": 67,
        "velocity": 0,
        "byte9": true
      },
      {
        "deltaTime": 191,
        "running": true,
        "channel": 0,
        "type": "noteOn",
        "noteNumber": 67,
        "velocity": 96
      },
      {
        "deltaTime": 11,
        "running": true,
        "channel": 0,
        "type": "noteOff",
        "noteNumber": 69,
        "velocity": 0,
        "byte9": true
      },
      {
        "deltaTime": 42,
        "running": true,
        "channel": 0,
        "type": "noteOn",
        "noteNumber": 65,
        "velocity": 86
      },
      {
        "deltaTime": 2,
        "running": true,
        "channel": 0,
        "type": "noteOff",
        "noteNumber": 67,
        "velocity": 0,
        "byte9": true
      },
      {
        "deltaTime": 49,
        "running": true,
        "channel": 0,
        "type": "noteOn",
        "noteNumber": 67,
        "velocity": 95
      },
      {
        "deltaTime": 18,
        "running": true,
        "channel": 0,
        "type": "noteOff",
        "noteNumber": 65,
        "velocity": 0,
        "byte9": true
      },
      {
        "deltaTime": 45,
        "running": true,
        "channel": 0,
        "type": "noteOn",
        "noteNumber": 69,
        "velocity": 105
      },
      {
        "deltaTime": 8,
        "running": true,
        "channel": 0,
        "type": "noteOff",
        "noteNumber": 67,
        "velocity": 0,
        "byte9": true
      },
      {
        "deltaTime": 230,
        "running": true,
        "channel": 0,
        "type": "noteOff",
        "noteNumber": 69,
        "velocity": 0,
        "byte9": true
      },
      {
        "deltaTime": 0,
        "running": true,
        "channel": 0,
        "type": "noteOn",
        "noteNumber": 70,
        "velocity": 125
      },
      {
        "deltaTime": 24,
        "running": true,
        "channel": 0,
        "type": "noteOn",
        "noteNumber": 72,
        "velocity": 70
      },
      {
        "deltaTime": 3,
        "running": true,
        "channel": 0,
        "type": "noteOff",
        "noteNumber": 70,
        "velocity": 0,
        "byte9": true
      },
      {
        "deltaTime": 21,
        "running": true,
        "channel": 0,
        "type": "noteOn",
        "noteNumber": 70,
        "velocity": 74
      },
      {
        "deltaTime": 10,
        "running": true,
        "channel": 0,
        "type": "noteOff",
        "noteNumber": 72,
        "velocity": 0,
        "byte9": true
      },
      {
        "deltaTime": 58,
        "running": true,
        "channel": 0,
        "type": "noteOn",
        "noteNumber": 69,
        "velocity": 105
      },
      {
        "deltaTime": 3,
        "running": true,
        "channel": 0,
        "type": "noteOff",
        "noteNumber": 70,
        "velocity": 0,
        "byte9": true
      },
      {
        "deltaTime": 103,
        "running": true,
        "channel": 0,
        "type": "noteOff",
        "noteNumber": 69,
        "velocity": 0,
        "byte9": true
      },
      {
        "deltaTime": 6,
        "running": true,
        "channel": 0,
        "type": "noteOn",
        "noteNumber": 67,
        "velocity": 111
      },
      {
        "deltaTime": 120,
        "running": true,
        "channel": 0,
        "type": "noteOn",
        "noteNumber": 65,
        "velocity": 116
      },
      {
        "deltaTime": 15,
        "running": true,
        "channel": 0,
        "type": "noteOff",
        "noteNumber": 67,
        "velocity": 0,
        "byte9": true
      },
      {
        "deltaTime": 108,
        "running": true,
        "channel": 0,
        "type": "noteOn",
        "noteNumber": 67,
        "velocity": 127
      },
      {
        "deltaTime": 9,
        "running": true,
        "channel": 0,
        "type": "noteOff",
        "noteNumber": 65,
        "velocity": 0,
        "byte9": true
      },
      {
        "deltaTime": 184,
        "running": true,
        "channel": 0,
        "type": "noteOn",
        "noteNumber": 65,
        "velocity": 109
      },
      {
        "deltaTime": 15,
        "running": true,
        "channel": 0,
        "type": "noteOff",
        "noteNumber": 67,
        "velocity": 0,
        "byte9": true
      },
      {
        "deltaTime": 30,
        "running": true,
        "channel": 0,
        "type": "noteOff",
        "noteNumber": 65,
        "velocity": 0,
        "byte9": true
      },
      {
        "deltaTime": 5,
        "running": true,
        "channel": 0,
        "type": "noteOn",
        "noteNumber": 64,
        "velocity": 105
      },
      {
        "deltaTime": 52,
        "running": true,
        "channel": 0,
        "type": "noteOn",
        "noteNumber": 65,
        "velocity": 98
      },
      {
        "deltaTime": 25,
        "running": true,
        "channel": 0,
        "type": "noteOff",
        "noteNumber": 64,
        "velocity": 0,
        "byte9": true
      },
      {
        "deltaTime": 40,
        "running": true,
        "channel": 0,
        "type": "noteOn",
        "noteNumber": 67,
        "velocity": 116
      },
      {
        "deltaTime": 8,
        "running": true,
        "channel": 0,
        "type": "noteOff",
        "noteNumber": 65,
        "velocity": 0,
        "byte9": true
      },
      {
        "deltaTime": 184,
        "running": true,
        "channel": 0,
        "type": "noteOn",
        "noteNumber": 65,
        "velocity": 111
      },
      {
        "deltaTime": 14,
        "running": true,
        "channel": 0,
        "type": "noteOff",
        "noteNumber": 67,
        "velocity": 0,
        "byte9": true
      },
      {
        "deltaTime": 34,
        "running": true,
        "channel": 0,
        "type": "noteOff",
        "noteNumber": 65,
        "velocity": 0,
        "byte9": true
      },
      {
        "deltaTime": 1,
        "running": true,
        "channel": 0,
        "type": "noteOn",
        "noteNumber": 64,
        "velocity": 98
      },
      {
        "deltaTime": 53,
        "running": true,
        "channel": 0,
        "type": "noteOn",
        "noteNumber": 65,
        "velocity": 98
      },
      {
        "deltaTime": 20,
        "running": true,
        "channel": 0,
        "type": "noteOff",
        "noteNumber": 64,
        "velocity": 0,
        "byte9": true
      },
      {
        "deltaTime": 50,
        "running": true,
        "channel": 0,
        "type": "noteOn",
        "noteNumber": 67,
        "velocity": 121
      },
      {
        "deltaTime": 9,
        "running": true,
        "channel": 0,
        "type": "noteOff",
        "noteNumber": 65,
        "velocity": 0,
        "byte9": true
      },
      {
        "deltaTime": 181,
        "running": true,
        "channel": 0,
        "type": "noteOff",
        "noteNumber": 67,
        "velocity": 0,
        "byte9": true
      },
      {
        "deltaTime": 64,
        "running": true,
        "channel": 0,
        "type": "noteOn",
        "noteNumber": 67,
        "velocity": 127
      },
      {
        "deltaTime": 114,
        "running": true,
        "channel": 0,
        "type": "noteOn",
        "noteNumber": 69,
        "velocity": 121
      },
      {
        "deltaTime": 2,
        "running": true,
        "channel": 0,
        "type": "noteOff",
        "noteNumber": 67,
        "velocity": 0,
        "byte9": true
      },
      {
        "deltaTime": 118,
        "running": true,
        "channel": 0,
        "type": "noteOn",
        "noteNumber": 72,
        "velocity": 127
      },
      {
        "deltaTime": 5,
        "running": true,
        "channel": 0,
        "type": "noteOff",
        "noteNumber": 69,
        "velocity": 0,
        "byte9": true
      },
      {
        "deltaTime": 103,
        "running": true,
        "channel": 0,
        "type": "noteOn",
        "noteNumber": 70,
        "velocity": 127
      },
      {
        "deltaTime": 12,
        "running": true,
        "channel": 0,
        "type": "noteOff",
        "noteNumber": 72,
        "velocity": 0,
        "byte9": true
      },
      {
        "deltaTime": 114,
        "running": true,
        "channel": 0,
        "type": "noteOn",
        "noteNumber": 69,
        "velocity": 127
      },
      {
        "deltaTime": 8,
        "running": true,
        "channel": 0,
        "type": "noteOff",
        "noteNumber": 70,
        "velocity": 0,
        "byte9": true
      },
      {
        "deltaTime": 363,
        "running": true,
        "channel": 0,
        "type": "noteOn",
        "noteNumber": 73,
        "velocity": 127
      },
      {
        "deltaTime": 6,
        "running": true,
        "channel": 0,
        "type": "noteOff",
        "noteNumber": 69,
        "velocity": 0,
        "byte9": true
      },
      {
        "deltaTime": 324,
        "running": true,
        "channel": 0,
        "type": "noteOff",
        "noteNumber": 73,
        "velocity": 0,
        "byte9": true
      },
      {
        "deltaTime": 26,
        "running": true,
        "channel": 0,
        "type": "noteOn",
        "noteNumber": 74,
        "velocity": 127
      },
      {
        "deltaTime": 5,
        "running": true,
        "channel": 0,
        "type": "noteOn",
        "noteNumber": 76,
        "velocity": 72
      },
      {
        "deltaTime": 8,
        "running": true,
        "channel": 0,
        "type": "noteOff",
        "noteNumber": 76,
        "velocity": 0,
        "byte9": true
      },
      {
        "deltaTime": 67,
        "running": true,
        "channel": 0,
        "type": "noteOff",
        "noteNumber": 74,
        "velocity": 0,
        "byte9": true
      },
      {
        "deltaTime": 143,
        "running": true,
        "channel": 0,
        "type": "noteOn",
        "noteNumber": 86,
        "velocity": 125
      },
      {
        "deltaTime": 16,
        "running": true,
        "channel": 0,
        "type": "noteOn",
        "noteNumber": 87,
        "velocity": 108
      },
      {
        "deltaTime": 6,
        "running": true,
        "channel": 0,
        "type": "noteOff",
        "noteNumber": 86,
        "velocity": 0,
        "byte9": true
      },
      {
        "deltaTime": 23,
        "running": true,
        "channel": 0,
        "type": "noteOff",
        "noteNumber": 87,
        "velocity": 0,
        "byte9": true
      },
      {
        "deltaTime": 1,
        "running": true,
        "channel": 0,
        "type": "noteOn",
        "noteNumber": 86,
        "velocity": 98
      },
      {
        "deltaTime": 80,
        "running": true,
        "channel": 0,
        "type": "noteOff",
        "noteNumber": 86,
        "velocity": 0,
        "byte9": true
      },
      {
        "deltaTime": 5,
        "running": true,
        "channel": 0,
        "type": "noteOn",
        "noteNumber": 84,
        "velocity": 127
      },
      {
        "deltaTime": 116,
        "running": true,
        "channel": 0,
        "type": "noteOn",
        "noteNumber": 82,
        "velocity": 126
      },
      {
        "deltaTime": 12,
        "running": true,
        "channel": 0,
        "type": "noteOff",
        "noteNumber": 84,
        "velocity": 0,
        "byte9": true
      },
      {
        "deltaTime": 108,
        "running": true,
        "channel": 0,
        "type": "noteOff",
        "noteNumber": 82,
        "velocity": 0,
        "byte9": true
      },
      {
        "deltaTime": 0,
        "running": true,
        "channel": 0,
        "type": "noteOn",
        "noteNumber": 81,
        "velocity": 127
      },
      {
        "deltaTime": 114,
        "running": true,
        "channel": 0,
        "type": "noteOff",
        "noteNumber": 81,
        "velocity": 0,
        "byte9": true
      },
      {
        "deltaTime": 2,
        "running": true,
        "channel": 0,
        "type": "noteOn",
        "noteNumber": 82,
        "velocity": 126
      },
      {
        "deltaTime": 45,
        "channel": 0,
        "type": "controller",
        "controllerType": 101,
        "value": 0
      },
      {
        "deltaTime": 0,
        "running": true,
        "channel": 0,
        "type": "controller",
        "controllerType": 100,
        "value": 0
      },
      {
        "deltaTime": 0,
        "running": true,
        "channel": 0,
        "type": "controller",
        "controllerType": 6,
        "value": 2
      },
      {
        "deltaTime": 0,
        "running": true,
        "channel": 0,
        "type": "controller",
        "controllerType": 38,
        "value": 0
      },
      {
        "deltaTime": 0,
        "running": true,
        "channel": 0,
        "type": "controller",
        "controllerType": 101,
        "value": 127
      },
      {
        "deltaTime": 0,
        "running": true,
        "channel": 0,
        "type": "controller",
        "controllerType": 100,
        "value": 127
      },
      {
        "deltaTime": 0,
        "channel": 0,
        "type": "pitchBend",
        "value": 2463
      },
      {
        "deltaTime": 3,
        "running": true,
        "channel": 0,
        "type": "pitchBend",
        "value": 4959
      },
      {
        "deltaTime": 4,
        "running": true,
        "channel": 0,
        "type": "pitchBend",
        "value": 4351
      },
      {
        "deltaTime": 3,
        "running": true,
        "channel": 0,
        "type": "pitchBend",
        "value": 0
      },
      {
        "deltaTime": 4,
        "running": true,
        "channel": 0,
        "type": "pitchBend",
        "value": 159
      },
      {
        "deltaTime": 3,
        "running": true,
        "channel": 0,
        "type": "pitchBend",
        "value": 0
      },
      {
        "deltaTime": 143,
        "channel": 0,
        "type": "noteOn",
        "noteNumber": 81,
        "velocity": 118
      },
      {
        "deltaTime": 10,
        "running": true,
        "channel": 0,
        "type": "noteOff",
        "noteNumber": 82,
        "velocity": 0,
        "byte9": true
      },
      {
        "deltaTime": 32,
        "running": true,
        "channel": 0,
        "type": "noteOff",
        "noteNumber": 81,
        "velocity": 0,
        "byte9": true
      },
      {
        "deltaTime": 7,
        "running": true,
        "channel": 0,
        "type": "noteOn",
        "noteNumber": 79,
        "velocity": 99
      },
      {
        "deltaTime": 54,
        "running": true,
        "channel": 0,
        "type": "noteOn",
        "noteNumber": 81,
        "velocity": 118
      },
      {
        "deltaTime": 10,
        "running": true,
        "channel": 0,
        "type": "noteOff",
        "noteNumber": 79,
        "velocity": 0,
        "byte9": true
      },
      {
        "deltaTime": 42,
        "running": true,
        "channel": 0,
        "type": "noteOff",
        "noteNumber": 81,
        "velocity": 0,
        "byte9": true
      },
      {
        "deltaTime": 3,
        "running": true,
        "channel": 0,
        "type": "noteOn",
        "noteNumber": 82,
        "velocity": 123
      },
      {
        "deltaTime": 194,
        "running": true,
        "channel": 0,
        "type": "noteOn",
        "noteNumber": 81,
        "velocity": 121
      },
      {
        "deltaTime": 14,
        "running": true,
        "channel": 0,
        "type": "noteOff",
        "noteNumber": 82,
        "velocity": 0,
        "byte9": true
      },
      {
        "deltaTime": 33,
        "running": true,
        "channel": 0,
        "type": "noteOff",
        "noteNumber": 81,
        "velocity": 0,
        "byte9": true
      },
      {
        "deltaTime": 5,
        "running": true,
        "channel": 0,
        "type": "noteOn",
        "noteNumber": 79,
        "velocity": 109
      },
      {
        "deltaTime": 55,
        "running": true,
        "channel": 0,
        "type": "noteOn",
        "noteNumber": 86,
        "velocity": 116
      },
      {
        "deltaTime": 5,
        "running": true,
        "channel": 0,
        "type": "noteOff",
        "noteNumber": 79,
        "velocity": 0,
        "byte9": true
      },
      {
        "deltaTime": 63,
        "running": true,
        "channel": 0,
        "type": "noteOn",
        "noteNumber": 82,
        "velocity": 123
      },
      {
        "deltaTime": 8,
        "running": true,
        "channel": 0,
        "type": "noteOff",
        "noteNumber": 86,
        "velocity": 0,
        "byte9": true
      },
      {
        "deltaTime": 222,
        "running": true,
        "channel": 0,
        "type": "noteOff",
        "noteNumber": 82,
        "velocity": 0,
        "byte9": true
      },
      {
        "deltaTime": 0,
        "running": true,
        "channel": 0,
        "type": "noteOn",
        "noteNumber": 84,
        "velocity": 113
      },
      {
        "deltaTime": 24,
        "running": true,
        "channel": 0,
        "type": "noteOn",
        "noteNumber": 86,
        "velocity": 80
      },
      {
        "deltaTime": 6,
        "running": true,
        "channel": 0,
        "type": "noteOff",
        "noteNumber": 84,
        "velocity": 0,
        "byte9": true
      },
      {
        "deltaTime": 19,
        "running": true,
        "channel": 0,
        "type": "noteOn",
        "noteNumber": 84,
        "velocity": 81
      },
      {
        "deltaTime": 11,
        "running": true,
        "channel": 0,
        "type": "noteOff",
        "noteNumber": 86,
        "velocity": 0,
        "byte9": true
      },
      {
        "deltaTime": 68,
        "running": true,
        "channel": 0,
        "type": "noteOn",
        "noteNumber": 82,
        "velocity": 117
      },
      {
        "deltaTime": 5,
        "running": true,
        "channel": 0,
        "type": "noteOff",
        "noteNumber": 84,
        "velocity": 0,
        "byte9": true
      },
      {
        "deltaTime": 119,
        "running": true,
        "channel": 0,
        "type": "noteOff",
        "noteNumber": 82,
        "velocity": 0,
        "byte9": true
      },
      {
        "deltaTime": 0,
        "running": true,
        "channel": 0,
        "type": "noteOn",
        "noteNumber": 81,
        "velocity": 113
      },
      {
        "deltaTime": 110,
        "running": true,
        "channel": 0,
        "type": "noteOn",
        "noteNumber": 79,
        "velocity": 99
      },
      {
        "deltaTime": 12,
        "running": true,
        "channel": 0,
        "type": "noteOff",
        "noteNumber": 81,
        "velocity": 0,
        "byte9": true
      },
      {
        "deltaTime": 117,
        "running": true,
        "channel": 0,
        "type": "noteOn",
        "noteNumber": 81,
        "velocity": 111
      },
      {
        "deltaTime": 11,
        "running": true,
        "channel": 0,
        "type": "noteOff",
        "noteNumber": 79,
        "velocity": 0,
        "byte9": true
      },
      {
        "deltaTime": 3,
        "running": true,
        "channel": 0,
        "type": "noteOn",
        "noteNumber": 82,
        "velocity": 96
      },
      {
        "deltaTime": 6,
        "running": true,
        "channel": 0,
        "type": "noteOff",
        "noteNumber": 81,
        "velocity": 0,
        "byte9": true
      },
      {
        "deltaTime": 25,
        "running": true,
        "channel": 0,
        "type": "noteOff",
        "noteNumber": 82,
        "velocity": 0,
        "byte9": true
      },
      {
        "deltaTime": 1,
        "running": true,
        "channel": 0,
        "type": "noteOn",
        "noteNumber": 81,
        "velocity": 98
      },
      {
        "deltaTime": 160,
        "running": true,
        "channel": 0,
        "type": "noteOn",
        "noteNumber": 79,
        "velocity": 85
      },
      {
        "deltaTime": 10,
        "running": true,
        "channel": 0,
        "type": "noteOff",
        "noteNumber": 81,
        "velocity": 0,
        "byte9": true
      },
      {
        "deltaTime": 34,
        "running": true,
        "channel": 0,
        "type": "noteOff",
        "noteNumber": 79,
        "velocity": 0,
        "byte9": true
      },
      {
        "deltaTime": 2,
        "running": true,
        "channel": 0,
        "type": "noteOn",
        "noteNumber": 77,
        "velocity": 87
      },
      {
        "deltaTime": 48,
        "running": true,
        "channel": 0,
        "type": "noteOn",
        "noteNumber": 79,
        "velocity": 79
      },
      {
        "deltaTime": 15,
        "running": true,
        "channel": 0,
        "type": "noteOff",
        "noteNumber": 77,
        "velocity": 0,
        "byte9": true
      },
      {
        "deltaTime": 45,
        "running": true,
        "channel": 0,
        "type": "noteOn",
        "noteNumber": 81,
        "velocity": 95
      },
      {
        "deltaTime": 9,
        "running": true,
        "channel": 0,
        "type": "noteOff",
        "noteNumber": 79,
        "velocity": 0,
        "byte9": true
      },
      {
        "deltaTime": 187,
        "running": true,
        "channel": 0,
        "type": "noteOn",
        "noteNumber": 79,
        "velocity": 93
      },
      {
        "deltaTime": 18,
        "running": true,
        "channel": 0,
        "type": "noteOff",
        "noteNumber": 81,
        "velocity": 0,
        "byte9": true
      },
      {
        "deltaTime": 29,
        "running": true,
        "channel": 0,
        "type": "noteOff",
        "noteNumber": 79,
        "velocity": 0,
        "byte9": true
      },
      {
        "deltaTime": 1,
        "running": true,
        "channel": 0,
        "type": "noteOn",
        "noteNumber": 77,
        "velocity": 92
      },
      {
        "deltaTime": 50,
        "running": true,
        "channel": 0,
        "type": "noteOn",
        "noteNumber": 79,
        "velocity": 87
      },
      {
        "deltaTime": 16,
        "running": true,
        "channel": 0,
        "type": "noteOff",
        "noteNumber": 77,
        "velocity": 0,
        "byte9": true
      },
      {
        "deltaTime": 32,
        "running": true,
        "channel": 0,
        "type": "noteOff",
        "noteNumber": 79,
        "velocity": 0,
        "byte9": true
      },
      {
        "deltaTime": 6,
        "running": true,
        "channel": 0,
        "type": "noteOn",
        "noteNumber": 81,
        "velocity": 113
      },
      {
        "deltaTime": 243,
        "running": true,
        "channel": 0,
        "type": "noteOn",
        "noteNumber": 82,
        "velocity": 114
      },
      {
        "deltaTime": 5,
        "running": true,
        "channel": 0,
        "type": "noteOff",
        "noteNumber": 81,
        "velocity": 0,
        "byte9": true
      },
      {
        "deltaTime": 9,
        "running": true,
        "channel": 0,
        "type": "noteOn",
        "noteNumber": 84,
        "velocity": 100
      },
      {
        "deltaTime": 5,
        "running": true,
        "channel": 0,
        "type": "noteOff",
        "noteNumber": 82,
        "velocity": 0,
        "byte9": true
      },
      {
        "deltaTime": 28,
        "running": true,
        "channel": 0,
        "type": "noteOn",
        "noteNumber": 82,
        "velocity": 100
      },
      {
        "deltaTime": 1,
        "running": true,
        "channel": 0,
        "type": "noteOff",
        "noteNumber": 84,
        "velocity": 0,
        "byte9": true
      },
      {
        "deltaTime": 75,
        "running": true,
        "channel": 0,
        "type": "noteOff",
        "noteNumber": 82,
        "velocity": 0,
        "byte9": true
      },
      {
        "deltaTime": 1,
        "running": true,
        "channel": 0,
        "type": "noteOn",
        "noteNumber": 81,
        "velocity": 103
      },
      {
        "deltaTime": 117,
        "running": true,
        "channel": 0,
        "type": "noteOn",
        "noteNumber": 79,
        "velocity": 103
      },
      {
        "deltaTime": 14,
        "running": true,
        "channel": 0,
        "type": "noteOff",
        "noteNumber": 81,
        "velocity": 0,
        "byte9": true
      },
      {
        "deltaTime": 98,
        "running": true,
        "channel": 0,
        "type": "noteOff",
        "noteNumber": 79,
        "velocity": 0,
        "byte9": true
      },
      {
        "deltaTime": 0,
        "running": true,
        "channel": 0,
        "type": "noteOn",
        "noteNumber": 77,
        "velocity": 109
      },
      {
        "deltaTime": 126,
        "running": true,
        "channel": 0,
        "type": "noteOff",
        "noteNumber": 77,
        "velocity": 0,
        "byte9": true
      },
      {
        "deltaTime": 0,
        "running": true,
        "channel": 0,
        "type": "noteOn",
        "noteNumber": 79,
        "velocity": 105
      },
      {
        "deltaTime": 28,
        "running": true,
        "channel": 0,
        "type": "noteOn",
        "noteNumber": 81,
        "velocity": 90
      },
      {
        "deltaTime": 4,
        "running": true,
        "channel": 0,
        "type": "noteOff",
        "noteNumber": 79,
        "velocity": 0,
        "byte9": true
      },
      {
        "deltaTime": 21,
        "running": true,
        "channel": 0,
        "type": "noteOn",
        "noteNumber": 79,
        "velocity": 76
      },
      {
        "deltaTime": 7,
        "running": true,
        "channel": 0,
        "type": "noteOff",
        "noteNumber": 81,
        "velocity": 0,
        "byte9": true
      },
      {
        "deltaTime": 136,
        "running": true,
        "channel": 0,
        "type": "noteOn",
        "noteNumber": 77,
        "velocity": 100
      },
      {
        "deltaTime": 14,
        "running": true,
        "channel": 0,
        "type": "noteOff",
        "noteNumber": 79,
        "velocity": 0,
        "byte9": true
      },
      {
        "deltaTime": 33,
        "running": true,
        "channel": 0,
        "type": "noteOff",
        "noteNumber": 77,
        "velocity": 0,
        "byte9": true
      },
      {
        "deltaTime": 0,
        "running": true,
        "channel": 0,
        "type": "noteOn",
        "noteNumber": 76,
        "velocity": 92
      },
      {
        "deltaTime": 48,
        "running": true,
        "channel": 0,
        "type": "noteOn",
        "noteNumber": 77,
        "velocity": 81
      },
      {
        "deltaTime": 32,
        "running": true,
        "channel": 0,
        "type": "noteOff",
        "noteNumber": 76,
        "velocity": 0,
        "byte9": true
      },
      {
        "deltaTime": 32,
        "running": true,
        "channel": 0,
        "type": "noteOn",
        "noteNumber": 79,
        "velocity": 90
      },
      {
        "deltaTime": 3,
        "running": true,
        "channel": 0,
        "type": "noteOff",
        "noteNumber": 77,
        "velocity": 0,
        "byte9": true
      },
      {
        "deltaTime": 14,
        "running": true,
        "channel": 0,
        "type": "noteOn",
        "noteNumber": 81,
        "velocity": 68
      },
      {
        "deltaTime": 9,
        "running": true,
        "channel": 0,
        "type": "noteOff",
        "noteNumber": 79,
        "velocity": 0,
        "byte9": true
      },
      {
        "deltaTime": 22,
        "running": true,
        "channel": 0,
        "type": "noteOn",
        "noteNumber": 79,
        "velocity": 71
      },
      {
        "deltaTime": 10,
        "running": true,
        "channel": 0,
        "type": "noteOff",
        "noteNumber": 81,
        "velocity": 0,
        "byte9": true
      },
      {
        "deltaTime": 139,
        "running": true,
        "channel": 0,
        "type": "noteOn",
        "noteNumber": 77,
        "velocity": 99
      },
      {
        "deltaTime": 21,
        "running": true,
        "channel": 0,
        "type": "noteOff",
        "noteNumber": 79,
        "velocity": 0,
        "byte9": true
      },
      {
        "deltaTime": 29,
        "running": true,
        "channel": 0,
        "type": "noteOff",
        "noteNumber": 77,
        "velocity": 0,
        "byte9": true
      },
      {
        "deltaTime": 2,
        "running": true,
        "channel": 0,
        "type": "noteOn",
        "noteNumber": 76,
        "velocity": 93
      },
      {
        "deltaTime": 55,
        "running": true,
        "channel": 0,
        "type": "noteOn",
        "noteNumber": 77,
        "velocity": 105
      },
      {
        "deltaTime": 18,
        "running": true,
        "channel": 0,
        "type": "noteOff",
        "noteNumber": 76,
        "velocity": 0,
        "byte9": true
      },
      {
        "deltaTime": 41,
        "running": true,
        "channel": 0,
        "type": "noteOff",
        "noteNumber": 77,
        "velocity": 0,
        "byte9": true
      },
      {
        "deltaTime": 0,
        "running": true,
        "channel": 0,
        "type": "noteOn",
        "noteNumber": 79,
        "velocity": 111
      },
      {
        "deltaTime": 176,
        "running": true,
        "channel": 0,
        "type": "noteOff",
        "noteNumber": 79,
        "velocity": 0,
        "byte9": true
      },
      {
        "deltaTime": 61,
        "running": true,
        "channel": 0,
        "type": "noteOn",
        "noteNumber": 80,
        "velocity": 127
      },
      {
        "deltaTime": 23,
        "running": true,
        "channel": 0,
        "type": "noteOn",
        "noteNumber": 81,
        "velocity": 121
      },
      {
        "deltaTime": 2,
        "running": true,
        "channel": 0,
        "type": "noteOff",
        "noteNumber": 80,
        "velocity": 0,
        "byte9": true
      },
      {
        "deltaTime": 64,
        "running": true,
        "channel": 0,
        "type": "noteOff",
        "noteNumber": 81,
        "velocity": 0,
        "byte9": true
      },
      {
        "deltaTime": 43,
        "channel": 0,
        "type": "controller",
        "controllerType": 0,
        "value": 80
      },
      {
        "deltaTime": 0,
        "running": true,
        "channel": 0,
        "type": "controller",
        "controllerType": 32,
        "value": 0
      },
      {
        "deltaTime": 0,
        "channel": 0,
        "type": "programChange",
        "programNumber": 65
      },
      {
        "deltaTime": 0,
        "channel": 0,
        "type": "noteOn",
        "noteNumber": 81,
        "velocity": 127
      },
      {
        "deltaTime": 110,
        "running": true,
        "channel": 0,
        "type": "noteOff",
        "noteNumber": 81,
        "velocity": 0,
        "byte9": true
      },
      {
        "deltaTime": 4,
        "running": true,
        "channel": 0,
        "type": "noteOn",
        "noteNumber": 77,
        "velocity": 127
      },
      {
        "deltaTime": 19,
        "running": true,
        "channel": 0,
        "type": "noteOn",
        "noteNumber": 79,
        "velocity": 72
      },
      {
        "deltaTime": 4,
        "running": true,
        "channel": 0,
        "type": "noteOff",
        "noteNumber": 77,
        "velocity": 0,
        "byte9": true
      },
      {
        "deltaTime": 22,
        "running": true,
        "channel": 0,
        "type": "noteOn",
        "noteNumber": 77,
        "velocity": 111
      },
      {
        "deltaTime": 5,
        "running": true,
        "channel": 0,
        "type": "noteOff",
        "noteNumber": 79,
        "velocity": 0,
        "byte9": true
      },
      {
        "deltaTime": 72,
        "running": true,
        "channel": 0,
        "type": "noteOff",
        "noteNumber": 77,
        "velocity": 0,
        "byte9": true
      },
      {
        "deltaTime": 1,
        "running": true,
        "channel": 0,
        "type": "noteOn",
        "noteNumber": 76,
        "velocity": 127
      },
      {
        "deltaTime": 122,
        "running": true,
        "channel": 0,
        "type": "noteOn",
        "noteNumber": 74,
        "velocity": 95
      },
      {
        "deltaTime": 6,
        "running": true,
        "channel": 0,
        "type": "noteOff",
        "noteNumber": 76,
        "velocity": 0,
        "byte9": true
      },
      {
        "deltaTime": 314,
        "running": true,
        "channel": 0,
        "type": "noteOn",
        "noteNumber": 72,
        "velocity": 57
      },
      {
        "deltaTime": 4,
        "running": true,
        "channel": 0,
        "type": "noteOff",
        "noteNumber": 74,
        "velocity": 0,
        "byte9": true
      },
      {
        "deltaTime": 13,
        "running": true,
        "channel": 0,
        "type": "noteOn",
        "noteNumber": 71,
        "velocity": 95
      },
      {
        "deltaTime": 2,
        "running": true,
        "channel": 0,
        "type": "noteOff",
        "noteNumber": 72,
        "velocity": 0,
        "byte9": true
      },
      {
        "deltaTime": 16,
        "running": true,
        "channel": 0,
        "type": "noteOn",
        "noteNumber": 69,
        "velocity": 87
      },
      {
        "deltaTime": 1,
        "running": true,
        "channel": 0,
        "type": "noteOff",
        "noteNumber": 71,
        "velocity": 0,
        "byte9": true
      },
      {
        "deltaTime": 17,
        "running": true,
        "channel": 0,
        "type": "noteOff",
        "noteNumber": 69,
        "velocity": 0,
        "byte9": true
      },
      {
        "deltaTime": 0,
        "running": true,
        "channel": 0,
        "type": "noteOn",
        "noteNumber": 67,
        "velocity": 84
      },
      {
        "deltaTime": 19,
        "running": true,
        "channel": 0,
        "type": "noteOn",
        "noteNumber": 65,
        "velocity": 61
      },
      {
        "deltaTime": 3,
        "running": true,
        "channel": 0,
        "type": "noteOff",
        "noteNumber": 67,
        "velocity": 0,
        "byte9": true
      },
      {
        "deltaTime": 20,
        "running": true,
        "channel": 0,
        "type": "noteOn",
        "noteNumber": 64,
        "velocity": 67
      },
      {
        "deltaTime": 2,
        "running": true,
        "channel": 0,
        "type": "noteOff",
        "noteNumber": 65,
        "velocity": 0,
        "byte9": true
      },
      {
        "deltaTime": 19,
        "running": true,
        "channel": 0,
        "type": "noteOn",
        "noteNumber": 62,
        "velocity": 62
      },
      {
        "deltaTime": 2,
        "running": true,
        "channel": 0,
        "type": "noteOff",
        "noteNumber": 64,
        "velocity": 0,
        "byte9": true
      },
      {
        "deltaTime": 19,
        "running": true,
        "channel": 0,
        "type": "noteOn",
        "noteNumber": 60,
        "velocity": 65
      },
      {
        "deltaTime": 1,
        "running": true,
        "channel": 0,
        "type": "noteOff",
        "noteNumber": 62,
        "velocity": 0,
        "byte9": true
      },
      {
        "deltaTime": 18,
        "running": true,
        "channel": 0,
        "type": "noteOff",
        "noteNumber": 60,
        "velocity": 0,
        "byte9": true
      },
      {
        "deltaTime": 0,
        "running": true,
        "channel": 0,
        "type": "noteOn",
        "noteNumber": 59,
        "velocity": 73
      },
      {
        "deltaTime": 17,
        "running": true,
        "channel": 0,
        "type": "noteOff",
        "noteNumber": 59,
        "velocity": 0,
        "byte9": true
      },
      {
        "deltaTime": 0,
        "running": true,
        "channel": 0,
        "type": "noteOn",
        "noteNumber": 57,
        "velocity": 76
      },
      {
        "deltaTime": 16,
        "running": true,
        "channel": 0,
        "type": "noteOff",
        "noteNumber": 57,
        "velocity": 0,
        "byte9": true
      },
      {
        "deltaTime": 0,
        "running": true,
        "channel": 0,
        "type": "noteOn",
        "noteNumber": 55,
        "velocity": 80
      },
      {
        "deltaTime": 15,
        "running": true,
        "channel": 0,
        "type": "noteOff",
        "noteNumber": 55,
        "velocity": 0,
        "byte9": true
      },
      {
        "deltaTime": 0,
        "running": true,
        "channel": 0,
        "type": "noteOn",
        "noteNumber": 53,
        "velocity": 87
      },
      {
        "deltaTime": 13,
        "running": true,
        "channel": 0,
        "type": "noteOn",
        "noteNumber": 52,
        "velocity": 96
      },
      {
        "deltaTime": 1,
        "running": true,
        "channel": 0,
        "type": "noteOff",
        "noteNumber": 53,
        "velocity": 0,
        "byte9": true
      },
      {
        "deltaTime": 13,
        "running": true,
        "channel": 0,
        "type": "noteOff",
        "noteNumber": 52,
        "velocity": 0,
        "byte9": true
      },
      {
        "deltaTime": 0,
        "running": true,
        "channel": 0,
        "type": "noteOn",
        "noteNumber": 50,
        "velocity": 87
      },
      {
        "deltaTime": 13,
        "running": true,
        "channel": 0,
        "type": "noteOn",
        "noteNumber": 48,
        "velocity": 100
      },
      {
        "deltaTime": 1,
        "running": true,
        "channel": 0,
        "type": "noteOff",
        "noteNumber": 50,
        "velocity": 0,
        "byte9": true
      },
      {
        "deltaTime": 13,
        "running": true,
        "channel": 0,
        "type": "noteOn",
        "noteNumber": 47,
        "velocity": 98
      },
      {
        "deltaTime": 2,
        "running": true,
        "channel": 0,
        "type": "noteOff",
        "noteNumber": 48,
        "velocity": 0,
        "byte9": true
      },
      {
        "deltaTime": 13,
        "running": true,
        "channel": 0,
        "type": "noteOn",
        "noteNumber": 45,
        "velocity": 87
      },
      {
        "deltaTime": 4,
        "running": true,
        "channel": 0,
        "type": "noteOff",
        "noteNumber": 47,
        "velocity": 0,
        "byte9": true
      },
      {
        "deltaTime": 14,
        "running": true,
        "channel": 0,
        "type": "noteOff",
        "noteNumber": 45,
        "velocity": 0,
        "byte9": true
      },
      {
        "deltaTime": 0,
        "meta": true,
        "type": "endOfTrack"
      }
    ],
    [
      {
        "deltaTime": 0,
        "meta": true,
        "type": "trackName",
        "text": "WinJammer Demo"
      },
      {
        "deltaTime": 0,
        "meta": true,
        "type": "portPrefix",
        "port": 0
      },
      {
        "deltaTime": 0,
        "channel": 1,
        "type": "controller",
        "controllerType": 91,
        "value": 100
      },
      {
        "deltaTime": 0,
        "running": true,
        "channel": 1,
        "type": "controller",
        "controllerType": 0,
        "value": 80
      },
      {
        "deltaTime": 0,
        "running": true,
        "channel": 1,
        "type": "controller",
        "controllerType": 32,
        "value": 0
      },
      {
        "deltaTime": 0,
        "channel": 1,
        "type": "programChange",
        "programNumber": 21
      },
      {
        "deltaTime": 0,
        "channel": 1,
        "type": "noteOn",
        "noteNumber": 62,
        "velocity": 123
      },
      {
        "deltaTime": 109,
        "running": true,
        "channel": 1,
        "type": "noteOff",
        "noteNumber": 62,
        "velocity": 0,
        "byte9": true
      },
      {
        "deltaTime": 11,
        "running": true,
        "channel": 1,
        "type": "noteOn",
        "noteNumber": 64,
        "velocity": 126
      },
      {
        "deltaTime": 120,
        "running": true,
        "channel": 1,
        "type": "noteOn",
        "noteNumber": 65,
        "velocity": 127
      },
      {
        "deltaTime": 14,
        "running": true,
        "channel": 1,
        "type": "noteOff",
        "noteNumber": 64,
        "velocity": 0,
        "byte9": true
      },
      {
        "deltaTime": 94,
        "running": true,
        "channel": 1,
        "type": "noteOff",
        "noteNumber": 65,
        "velocity": 0,
        "byte9": true
      },
      {
        "deltaTime": 12,
        "running": true,
        "channel": 1,
        "type": "noteOn",
        "noteNumber": 50,
        "velocity": 98
      },
      {
        "deltaTime": 22,
        "running": true,
        "channel": 1,
        "type": "noteOff",
        "noteNumber": 50,
        "velocity": 0,
        "byte9": true
      },
      {
        "deltaTime": 98,
        "running": true,
        "channel": 1,
        "type": "noteOn",
        "noteNumber": 65,
        "velocity": 24
      },
      {
        "deltaTime": 0,
        "running": true,
        "channel": 1,
        "type": "noteOn",
        "noteNumber": 69,
        "velocity": 28
      },
      {
        "deltaTime": 11,
        "running": true,
        "channel": 1,
        "type": "noteOff",
        "noteNumber": 69,
        "velocity": 0,
        "byte9": true
      },
      {
        "deltaTime": 7,
        "running": true,
        "channel": 1,
        "type": "noteOff",
        "noteNumber": 65,
        "velocity": 0,
        "byte9": true
      },
      {
        "deltaTime": 42,
        "running": true,
        "channel": 1,
        "type": "noteOn",
        "noteNumber": 65,
        "velocity": 70
      },
      {
        "deltaTime": 0,
        "running": true,
        "channel": 1,
        "type": "noteOn",
        "noteNumber": 62,
        "velocity": 56
      },
      {
        "deltaTime": 0,
        "running": true,
        "channel": 1,
        "type": "noteOn",
        "noteNumber": 69,
        "velocity": 66
      },
      {
        "deltaTime": 23,
        "running": true,
        "channel": 1,
        "type": "noteOff",
        "noteNumber": 69,
        "velocity": 0,
        "byte9": true
      },
      {
        "deltaTime": 1,
        "running": true,
        "channel": 1,
        "type": "noteOff",
        "noteNumber": 65,
        "velocity": 0,
        "byte9": true
      },
      {
        "deltaTime": 0,
        "running": true,
        "channel": 1,
        "type": "noteOff",
        "noteNumber": 62,
        "velocity": 0,
        "byte9": true
      },
      {
        "deltaTime": 36,
        "running": true,
        "channel": 1,
        "type": "noteOn",
        "noteNumber": 62,
        "velocity": 54
      },
      {
        "deltaTime": 0,
        "running": true,
        "channel": 1,
        "type": "noteOn",
        "noteNumber": 65,
        "velocity": 71
      },
      {
        "deltaTime": 0,
        "running": true,
        "channel": 1,
        "type": "noteOn",
        "noteNumber": 69,
        "velocity": 71
      },
      {
        "deltaTime": 23,
        "running": true,
        "channel": 1,
        "type": "noteOff",
        "noteNumber": 62,
        "velocity": 0,
        "byte9": true
      },
      {
        "deltaTime": 0,
        "running": true,
        "channel": 1,
        "type": "noteOff",
        "noteNumber": 65,
        "velocity": 0,
        "byte9": true
      },
      {
        "deltaTime": 0,
        "running": true,
        "channel": 1,
        "type": "noteOff",
        "noteNumber": 69,
        "velocity": 0,
        "byte9": true
      },
      {
        "deltaTime": 37,
        "running": true,
        "channel": 1,
        "type": "noteOn",
        "noteNumber": 62,
        "velocity": 61
      },
      {
        "deltaTime": 0,
        "running": true,
        "channel": 1,
        "type": "noteOn",
        "noteNumber": 65,
        "velocity": 75
      },
      {
        "deltaTime": 0,
        "running": true,
        "channel": 1,
        "type": "noteOn",
        "noteNumber": 69,
        "velocity": 79
      },
      {
        "deltaTime": 25,
        "running": true,
        "channel": 1,
        "type": "noteOff",
        "noteNumber": 65,
        "velocity": 0,
        "byte9": true
      },
      {
        "deltaTime": 2,
        "running": true,
        "channel": 1,
        "type": "noteOff",
        "noteNumber": 62,
        "velocity": 0,
        "byte9": true
      },
      {
        "deltaTime": 1,
        "running": true,
        "channel": 1,
        "type": "noteOff",
        "noteNumber": 69,
        "velocity": 0,
        "byte9": true
      },
      {
        "deltaTime": 32,
        "running": true,
        "channel": 1,
        "type": "noteOn",
        "noteNumber": 50,
        "velocity": 84
      },
      {
        "deltaTime": 27,
        "running": true,
        "channel": 1,
        "type": "noteOff",
        "noteNumber": 50,
        "velocity": 0,
        "byte9": true
      },
      {
        "deltaTime": 93,
        "running": true,
        "channel": 1,
        "type": "noteOn",
        "noteNumber": 62,
        "velocity": 72
      },
      {
        "deltaTime": 0,
        "running": true,
        "channel": 1,
        "type": "noteOn",
        "noteNumber": 65,
        "velocity": 82
      },
      {
        "deltaTime": 0,
        "running": true,
        "channel": 1,
        "type": "noteOn",
        "noteNumber": 69,
        "velocity": 75
      },
      {
        "deltaTime": 15,
        "running": true,
        "channel": 1,
        "type": "noteOff",
        "noteNumber": 65,
        "velocity": 0,
        "byte9": true
      },
      {
        "deltaTime": 2,
        "running": true,
        "channel": 1,
        "type": "noteOff",
        "noteNumber": 69,
        "velocity": 0,
        "byte9": true
      },
      {
        "deltaTime": 3,
        "running": true,
        "channel": 1,
        "type": "noteOff",
        "noteNumber": 62,
        "velocity": 0,
        "byte9": true
      },
      {
        "deltaTime": 100,
        "running": true,
        "channel": 1,
        "type": "noteOn",
        "noteNumber": 65,
        "velocity": 100
      },
      {
        "deltaTime": 0,
        "running": true,
        "channel": 1,
        "type": "noteOn",
        "noteNumber": 62,
        "velocity": 90
      },
      {
        "deltaTime": 0,
        "running": true,
        "channel": 1,
        "type": "noteOn",
        "noteNumber": 69,
        "velocity": 93
      },
      {
        "deltaTime": 120,
        "running": true,
        "channel": 1,
        "type": "noteOn",
        "noteNumber": 50,
        "velocity": 89
      },
      {
        "deltaTime": 14,
        "running": true,
        "channel": 1,
        "type": "noteOff",
        "noteNumber": 62,
        "velocity": 0,
        "byte9": true
      },
      {
        "deltaTime": 1,
        "running": true,
        "channel": 1,
        "type": "noteOff",
        "noteNumber": 65,
        "velocity": 0,
        "byte9": true
      },
      {
        "deltaTime": 0,
        "running": true,
        "channel": 1,
        "type": "noteOff",
        "noteNumber": 69,
        "velocity": 0,
        "byte9": true
      },
      {
        "deltaTime": 12,
        "running": true,
        "channel": 1,
        "type": "noteOff",
        "noteNumber": 50,
        "velocity": 0,
        "byte9": true
      },
      {
        "deltaTime": 93,
        "running": true,
        "channel": 1,
        "type": "noteOn",
        "noteNumber": 62,
        "velocity": 57
      },
      {
        "deltaTime": 0,
        "running": true,
        "channel": 1,
        "type": "noteOn",
        "noteNumber": 65,
        "velocity": 68
      },
      {
        "deltaTime": 0,
        "running": true,
        "channel": 1,
        "type": "noteOn",
        "noteNumber": 69,
        "velocity": 65
      },
      {
        "deltaTime": 15,
        "running": true,
        "channel": 1,
        "type": "noteOff",
        "noteNumber": 65,
        "velocity": 0,
        "byte9": true
      },
      {
        "deltaTime": 2,
        "running": true,
        "channel": 1,
        "type": "noteOff",
        "noteNumber": 69,
        "velocity": 0,
        "byte9": true
      },
      {
        "deltaTime": 2,
        "running": true,
        "channel": 1,
        "type": "noteOff",
        "noteNumber": 62,
        "velocity": 0,
        "byte9": true
      },
      {
        "deltaTime": 41,
        "running": true,
        "channel": 1,
        "type": "noteOn",
        "noteNumber": 62,
        "velocity": 58
      },
      {
        "deltaTime": 0,
        "running": true,
        "channel": 1,
        "type": "noteOn",
        "noteNumber": 65,
        "velocity": 68
      },
      {
        "deltaTime": 0,
        "running": true,
        "channel": 1,
        "type": "noteOn",
        "noteNumber": 69,
        "velocity": 68
      },
      {
        "deltaTime": 20,
        "running": true,
        "channel": 1,
        "type": "noteOff",
        "noteNumber": 65,
        "velocity": 0,
        "byte9": true
      },
      {
        "deltaTime": 0,
        "running": true,
        "channel": 1,
        "type": "noteOff",
        "noteNumber": 69,
        "velocity": 0,
        "byte9": true
      },
      {
        "deltaTime": 2,
        "running": true,
        "channel": 1,
        "type": "noteOff",
        "noteNumber": 62,
        "velocity": 0,
        "byte9": true
      },
      {
        "deltaTime": 38,
        "running": true,
        "channel": 1,
        "type": "noteOn",
        "noteNumber": 62,
        "velocity": 61
      },
      {
        "deltaTime": 0,
        "running": true,
        "channel": 1,
        "type": "noteOn",
        "noteNumber": 65,
        "velocity": 77
      },
      {
        "deltaTime": 0,
        "running": true,
        "channel": 1,
        "type": "noteOn",
        "noteNumber": 69,
        "velocity": 73
      },
      {
        "deltaTime": 18,
        "running": true,
        "channel": 1,
        "type": "noteOff",
        "noteNumber": 69,
        "velocity": 0,
        "byte9": true
      },
      {
        "deltaTime": 1,
        "running": true,
        "channel": 1,
        "type": "noteOff",
        "noteNumber": 65,
        "velocity": 0,
        "byte9": true
      },
      {
        "deltaTime": 5,
        "running": true,
        "channel": 1,
        "type": "noteOff",
        "noteNumber": 62,
        "velocity": 0,
        "byte9": true
      },
      {
        "deltaTime": 36,
        "running": true,
        "channel": 1,
        "type": "noteOn",
        "noteNumber": 62,
        "velocity": 65
      },
      {
        "deltaTime": 0,
        "running": true,
        "channel": 1,
        "type": "noteOn",
        "noteNumber": 65,
        "velocity": 80
      },
      {
        "deltaTime": 0,
        "running": true,
        "channel": 1,
        "type": "noteOn",
        "noteNumber": 69,
        "velocity": 76
      },
      {
        "deltaTime": 20,
        "running": true,
        "channel": 1,
        "type": "noteOff",
        "noteNumber": 65,
        "velocity": 0,
        "byte9": true
      },
      {
        "deltaTime": 0,
        "running": true,
        "channel": 1,
        "type": "noteOff",
        "noteNumber": 69,
        "velocity": 0,
        "byte9": true
      },
      {
        "deltaTime": 5,
        "running": true,
        "channel": 1,
        "type": "noteOff",
        "noteNumber": 62,
        "velocity": 0,
        "byte9": true
      },
      {
        "deltaTime": 35,
        "running": true,
        "channel": 1,
        "type": "noteOn",
        "noteNumber": 50,
        "velocity": 81
      },
      {
        "deltaTime": 31,
        "running": true,
        "channel": 1,
        "type": "noteOff",
        "noteNumber": 50,
        "velocity": 0,
        "byte9": true
      },
      {
        "deltaTime": 89,
        "running": true,
        "channel": 1,
        "type": "noteOn",
        "noteNumber": 62,
        "velocity": 72
      },
      {
        "deltaTime": 0,
        "running": true,
        "channel": 1,
        "type": "noteOn",
        "noteNumber": 65,
        "velocity": 82
      },
      {
        "deltaTime": 0,
        "running": true,
        "channel": 1,
        "type": "noteOn",
        "noteNumber": 69,
        "velocity": 76
      },
      {
        "deltaTime": 17,
        "running": true,
        "channel": 1,
        "type": "noteOff",
        "noteNumber": 65,
        "velocity": 0,
        "byte9": true
      },
      {
        "deltaTime": 2,
        "running": true,
        "channel": 1,
        "type": "noteOff",
        "noteNumber": 69,
        "velocity": 0,
        "byte9": true
      },
      {
        "deltaTime": 2,
        "running": true,
        "channel": 1,
        "type": "noteOff",
        "noteNumber": 62,
        "velocity": 0,
        "byte9": true
      },
      {
        "deltaTime": 99,
        "running": true,
        "channel": 1,
        "type": "noteOn",
        "noteNumber": 62,
        "velocity": 87
      },
      {
        "deltaTime": 0,
        "running": true,
        "channel": 1,
        "type": "noteOn",
        "noteNumber": 69,
        "velocity": 98
      },
      {
        "deltaTime": 0,
        "running": true,
        "channel": 1,
        "type": "noteOn",
        "noteNumber": 65,
        "velocity": 103
      },
      {
        "deltaTime": 105,
        "running": true,
        "channel": 1,
        "type": "noteOff",
        "noteNumber": 62,
        "velocity": 0,
        "byte9": true
      },
      {
        "deltaTime": 3,
        "running": true,
        "channel": 1,
        "type": "noteOff",
        "noteNumber": 65,
        "velocity": 0,
        "byte9": true
      },
      {
        "deltaTime": 4,
        "running": true,
        "channel": 1,
        "type": "noteOff",
        "noteNumber": 69,
        "velocity": 0,
        "byte9": true
      },
      {
        "deltaTime": 8,
        "running": true,
        "channel": 1,
        "type": "noteOn",
        "noteNumber": 55,
        "velocity": 84
      },
      {
        "deltaTime": 29,
        "running": true,
        "channel": 1,
        "type": "noteOff",
        "noteNumber": 55,
        "velocity": 0,
        "byte9": true
      },
      {
        "deltaTime": 91,
        "running": true,
        "channel": 1,
        "type": "noteOn",
        "noteNumber": 70,
        "velocity": 84
      },
      {
        "deltaTime": 0,
        "running": true,
        "channel": 1,
        "type": "noteOn",
        "noteNumber": 62,
        "velocity": 53
      },
      {
        "deltaTime": 23,
        "running": true,
        "channel": 1,
        "type": "noteOff",
        "noteNumber": 70,
        "velocity": 0,
        "byte9": true
      },
      {
        "deltaTime": 0,
        "running": true,
        "channel": 1,
        "type": "noteOff",
        "noteNumber": 62,
        "velocity": 0,
        "byte9": true
      },
      {
        "deltaTime": 37,
        "running": true,
        "channel": 1,
        "type": "noteOn",
        "noteNumber": 70,
        "velocity": 67
      },
      {
        "deltaTime": 0,
        "running": true,
        "channel": 1,
        "type": "noteOn",
        "noteNumber": 62,
        "velocity": 53
      },
      {
        "deltaTime": 0,
        "running": true,
        "channel": 1,
        "type": "noteOn",
        "noteNumber": 67,
        "velocity": 62
      },
      {
        "deltaTime": 13,
        "running": true,
        "channel": 1,
        "type": "noteOff",
        "noteNumber": 67,
        "velocity": 0,
        "byte9": true
      },
      {
        "deltaTime": 6,
        "running": true,
        "channel": 1,
        "type": "noteOff",
        "noteNumber": 70,
        "velocity": 0,
        "byte9": true
      },
      {
        "deltaTime": 3,
        "running": true,
        "channel": 1,
        "type": "noteOff",
        "noteNumber": 62,
        "velocity": 0,
        "byte9": true
      },
      {
        "deltaTime": 38,
        "running": true,
        "channel": 1,
        "type": "noteOn",
        "noteNumber": 70,
        "velocity": 86
      },
      {
        "deltaTime": 0,
        "running": true,
        "channel": 1,
        "type": "noteOn",
        "noteNumber": 62,
        "velocity": 62
      },
      {
        "deltaTime": 0,
        "running": true,
        "channel": 1,
        "type": "noteOn",
        "noteNumber": 67,
        "velocity": 84
      },
      {
        "deltaTime": 17,
        "running": true,
        "channel": 1,
        "type": "noteOff",
        "noteNumber": 67,
        "velocity": 0,
        "byte9": true
      },
      {
        "deltaTime": 4,
        "running": true,
        "channel": 1,
        "type": "noteOff",
        "noteNumber": 70,
        "velocity": 0,
        "byte9": true
      },
      {
        "deltaTime": 1,
        "running": true,
        "channel": 1,
        "type": "noteOff",
        "noteNumber": 62,
        "velocity": 0,
        "byte9": true
      },
      {
        "deltaTime": 38,
        "running": true,
        "channel": 1,
        "type": "noteOn",
        "noteNumber": 62,
        "velocity": 69
      },
      {
        "deltaTime": 0,
        "running": true,
        "channel": 1,
        "type": "noteOn",
        "noteNumber": 70,
        "velocity": 90
      },
      {
        "deltaTime": 0,
        "running": true,
        "channel": 1,
        "type": "noteOn",
        "noteNumber": 67,
        "velocity": 85
      },
      {
        "deltaTime": 22,
        "running": true,
        "channel": 1,
        "type": "noteOff",
        "noteNumber": 67,
        "velocity": 0,
        "byte9": true
      },
      {
        "deltaTime": 2,
        "running": true,
        "channel": 1,
        "type": "noteOff",
        "noteNumber": 70,
        "velocity": 0,
        "byte9": true
      },
      {
        "deltaTime": 4,
        "running": true,
        "channel": 1,
        "type": "noteOff",
        "noteNumber": 62,
        "velocity": 0,
        "byte9": true
      },
      {
        "deltaTime": 32,
        "running": true,
        "channel": 1,
        "type": "noteOn",
        "noteNumber": 55,
        "velocity": 105
      },
      {
        "deltaTime": 23,
        "running": true,
        "channel": 1,
        "type": "noteOff",
        "noteNumber": 55,
        "velocity": 0,
        "byte9": true
      },
      {
        "deltaTime": 97,
        "running": true,
        "channel": 1,
        "type": "noteOn",
        "noteNumber": 62,
        "velocity": 74
      },
      {
        "deltaTime": 0,
        "running": true,
        "channel": 1,
        "type": "noteOn",
        "noteNumber": 70,
        "velocity": 92
      },
      {
        "deltaTime": 0,
        "running": true,
        "channel": 1,
        "type": "noteOn",
        "noteNumber": 67,
        "velocity": 84
      },
      {
        "deltaTime": 18,
        "running": true,
        "channel": 1,
        "type": "noteOff",
        "noteNumber": 67,
        "velocity": 0,
        "byte9": true
      },
      {
        "deltaTime": 1,
        "running": true,
        "channel": 1,
        "type": "noteOff",
        "noteNumber": 70,
        "velocity": 0,
        "byte9": true
      },
      {
        "deltaTime": 4,
        "running": true,
        "channel": 1,
        "type": "noteOff",
        "noteNumber": 62,
        "velocity": 0,
        "byte9": true
      },
      {
        "deltaTime": 97,
        "running": true,
        "channel": 1,
        "type": "noteOn",
        "noteNumber": 62,
        "velocity": 86
      },
      {
        "deltaTime": 0,
        "running": true,
        "channel": 1,
        "type": "noteOn",
        "noteNumber": 70,
        "velocity": 110
      },
      {
        "deltaTime": 0,
        "running": true,
        "channel": 1,
        "type": "noteOn",
        "noteNumber": 67,
        "velocity": 100
      },
      {
        "deltaTime": 120,
        "running": true,
        "channel": 1,
        "type": "noteOn",
        "noteNumber": 55,
        "velocity": 92
      },
      {
        "deltaTime": 6,
        "running": true,
        "channel": 1,
        "type": "noteOff",
        "noteNumber": 67,
        "velocity": 0,
        "byte9": true
      },
      {
        "deltaTime": 3,
        "running": true,
        "channel": 1,
        "type": "noteOff",
        "noteNumber": 70,
        "velocity": 0,
        "byte9": true
      },
      {
        "deltaTime": 5,
        "running": true,
        "channel": 1,
        "type": "noteOff",
        "noteNumber": 62,
        "velocity": 0,
        "byte9": true
      },
      {
        "deltaTime": 15,
        "running": true,
        "channel": 1,
        "type": "noteOff",
        "noteNumber": 55,
        "velocity": 0,
        "byte9": true
      },
      {
        "deltaTime": 91,
        "running": true,
        "channel": 1,
        "type": "noteOn",
        "noteNumber": 62,
        "velocity": 61
      },
      {
        "deltaTime": 0,
        "running": true,
        "channel": 1,
        "type": "noteOn",
        "noteNumber": 67,
        "velocity": 86
      },
      {
        "deltaTime": 0,
        "running": true,
        "channel": 1,
        "type": "noteOn",
        "noteNumber": 70,
        "velocity": 66
      },
      {
        "deltaTime": 15,
        "running": true,
        "channel": 1,
        "type": "noteOff",
        "noteNumber": 70,
        "velocity": 0,
        "byte9": true
      },
      {
        "deltaTime": 3,
        "running": true,
        "channel": 1,
        "type": "noteOff",
        "noteNumber": 67,
        "velocity": 0,
        "byte9": true
      },
      {
        "deltaTime": 8,
        "running": true,
        "channel": 1,
        "type": "noteOff",
        "noteNumber": 62,
        "velocity": 0,
        "byte9": true
      },
      {
        "deltaTime": 34,
        "running": true,
        "channel": 1,
        "type": "noteOn",
        "noteNumber": 62,
        "velocity": 51
      },
      {
        "deltaTime": 0,
        "running": true,
        "channel": 1,
        "type": "noteOn",
        "noteNumber": 70,
        "velocity": 78
      },
      {
        "deltaTime": 0,
        "running": true,
        "channel": 1,
        "type": "noteOn",
        "noteNumber": 67,
        "velocity": 76
      },
      {
        "deltaTime": 18,
        "running": true,
        "channel": 1,
        "type": "noteOff",
        "noteNumber": 67,
        "velocity": 0,
        "byte9": true
      },
      {
        "deltaTime": 2,
        "running": true,
        "channel": 1,
        "type": "noteOff",
        "noteNumber": 70,
        "velocity": 0,
        "byte9": true
      },
      {
        "deltaTime": 4,
        "running": true,
        "channel": 1,
        "type": "noteOff",
        "noteNumber": 62,
        "velocity": 0,
        "byte9": true
      },
      {
        "deltaTime": 36,
        "running": true,
        "channel": 1,
        "type": "noteOn",
        "noteNumber": 70,
        "velocity": 78
      },
      {
        "deltaTime": 0,
        "running": true,
        "channel": 1,
        "type": "noteOn",
        "noteNumber": 62,
        "velocity": 54
      },
      {
        "deltaTime": 0,
        "running": true,
        "channel": 1,
        "type": "noteOn",
        "noteNumber": 67,
        "velocity": 69
      },
      {
        "deltaTime": 15,
        "running": true,
        "channel": 1,
        "type": "noteOff",
        "noteNumber": 67,
        "velocity": 0,
        "byte9": true
      },
      {
        "deltaTime": 3,
        "running": true,
        "channel": 1,
        "type": "noteOff",
        "noteNumber": 70,
        "velocity": 0,
        "byte9": true
      },
      {
        "deltaTime": 5,
        "running": true,
        "channel": 1,
        "type": "noteOff",
        "noteNumber": 62,
        "velocity": 0,
        "byte9": true
      },
      {
        "deltaTime": 37,
        "running": true,
        "channel": 1,
        "type": "noteOn",
        "noteNumber": 62,
        "velocity": 55
      },
      {
        "deltaTime": 0,
        "running": true,
        "channel": 1,
        "type": "noteOn",
        "noteNumber": 70,
        "velocity": 85
      },
      {
        "deltaTime": 0,
        "running": true,
        "channel": 1,
        "type": "noteOn",
        "noteNumber": 67,
        "velocity": 71
      },
      {
        "deltaTime": 16,
        "running": true,
        "channel": 1,
        "type": "noteOff",
        "noteNumber": 67,
        "velocity": 0,
        "byte9": true
      },
      {
        "deltaTime": 12,
        "running": true,
        "channel": 1,
        "type": "noteOff",
        "noteNumber": 62,
        "velocity": 0,
        "byte9": true
      },
      {
        "deltaTime": 0,
        "running": true,
        "channel": 1,
        "type": "noteOff",
        "noteNumber": 70,
        "velocity": 0,
        "byte9": true
      },
      {
        "deltaTime": 32,
        "running": true,
        "channel": 1,
        "type": "noteOn",
        "noteNumber": 55,
        "velocity": 92
      },
      {
        "deltaTime": 28,
        "running": true,
        "channel": 1,
        "type": "noteOff",
        "noteNumber": 55,
        "velocity": 0,
        "byte9": true
      },
      {
        "deltaTime": 92,
        "running": true,
        "channel": 1,
        "type": "noteOn",
        "noteNumber": 62,
        "velocity": 63
      },
      {
        "deltaTime": 0,
        "running": true,
        "channel": 1,
        "type": "noteOn",
        "noteNumber": 67,
        "velocity": 85
      },
      {
        "deltaTime": 0,
        "running": true,
        "channel": 1,
        "type": "noteOn",
        "noteNumber": 70,
        "velocity": 88
      },
      {
        "deltaTime": 18,
        "running": true,
        "channel": 1,
        "type": "noteOff",
        "noteNumber": 67,
        "velocity": 0,
        "byte9": true
      },
      {
        "deltaTime": 2,
        "running": true,
        "channel": 1,
        "type": "noteOff",
        "noteNumber": 70,
        "velocity": 0,
        "byte9": true
      },
      {
        "deltaTime": 4,
        "running": true,
        "channel": 1,
        "type": "noteOff",
        "noteNumber": 62,
        "velocity": 0,
        "byte9": true
      },
      {
        "deltaTime": 96,
        "running": true,
        "channel": 1,
        "type": "noteOn",
        "noteNumber": 62,
        "velocity": 77
      },
      {
        "deltaTime": 0,
        "running": true,
        "channel": 1,
        "type": "noteOn",
        "noteNumber": 70,
        "velocity": 114
      },
      {
        "deltaTime": 0,
        "running": true,
        "channel": 1,
        "type": "noteOn",
        "noteNumber": 67,
        "velocity": 98
      },
      {
        "deltaTime": 116,
        "running": true,
        "channel": 1,
        "type": "noteOff",
        "noteNumber": 67,
        "velocity": 0,
        "byte9": true
      },
      {
        "deltaTime": 2,
        "running": true,
        "channel": 1,
        "type": "noteOff",
        "noteNumber": 70,
        "velocity": 0,
        "byte9": true
      },
      {
        "deltaTime": 2,
        "running": true,
        "channel": 1,
        "type": "noteOn",
        "noteNumber": 50,
        "velocity": 89
      },
      {
        "deltaTime": 2,
        "running": true,
        "channel": 1,
        "type": "noteOff",
        "noteNumber": 62,
        "velocity": 0,
        "byte9": true
      },
      {
        "deltaTime": 21,
        "running": true,
        "channel": 1,
        "type": "noteOff",
        "noteNumber": 50,
        "velocity": 0,
        "byte9": true
      },
      {
        "deltaTime": 97,
        "running": true,
        "channel": 1,
        "type": "noteOn",
        "noteNumber": 62,
        "velocity": 46
      },
      {
        "deltaTime": 0,
        "running": true,
        "channel": 1,
        "type": "noteOn",
        "noteNumber": 69,
        "velocity": 60
      },
      {
        "deltaTime": 0,
        "running": true,
        "channel": 1,
        "type": "noteOn",
        "noteNumber": 65,
        "velocity": 48
      },
      {
        "deltaTime": 15,
        "running": true,
        "channel": 1,
        "type": "noteOff",
        "noteNumber": 65,
        "velocity": 0,
        "byte9": true
      },
      {
        "deltaTime": 4,
        "running": true,
        "channel": 1,
        "type": "noteOff",
        "noteNumber": 69,
        "velocity": 0,
        "byte9": true
      },
      {
        "deltaTime": 2,
        "running": true,
        "channel": 1,
        "type": "noteOff",
        "noteNumber": 62,
        "velocity": 0,
        "byte9": true
      },
      {
        "deltaTime": 39,
        "running": true,
        "channel": 1,
        "type": "noteOn",
        "noteNumber": 62,
        "velocity": 57
      },
      {
        "deltaTime": 0,
        "running": true,
        "channel": 1,
        "type": "noteOn",
        "noteNumber": 65,
        "velocity": 65
      },
      {
        "deltaTime": 0,
        "running": true,
        "channel": 1,
        "type": "noteOn",
        "noteNumber": 69,
        "velocity": 61
      },
      {
        "deltaTime": 19,
        "running": true,
        "channel": 1,
        "type": "noteOff",
        "noteNumber": 69,
        "velocity": 0,
        "byte9": true
      },
      {
        "deltaTime": 3,
        "running": true,
        "channel": 1,
        "type": "noteOff",
        "noteNumber": 65,
        "velocity": 0,
        "byte9": true
      },
      {
        "deltaTime": 2,
        "running": true,
        "channel": 1,
        "type": "noteOff",
        "noteNumber": 62,
        "velocity": 0,
        "byte9": true
      },
      {
        "deltaTime": 36,
        "running": true,
        "channel": 1,
        "type": "noteOn",
        "noteNumber": 69,
        "velocity": 80
      },
      {
        "deltaTime": 0,
        "running": true,
        "channel": 1,
        "type": "noteOn",
        "noteNumber": 62,
        "velocity": 55
      },
      {
        "deltaTime": 0,
        "running": true,
        "channel": 1,
        "type": "noteOn",
        "noteNumber": 65,
        "velocity": 75
      },
      {
        "deltaTime": 19,
        "running": true,
        "channel": 1,
        "type": "noteOff",
        "noteNumber": 65,
        "velocity": 0,
        "byte9": true
      },
      {
        "deltaTime": 4,
        "running": true,
        "channel": 1,
        "type": "noteOff",
        "noteNumber": 62,
        "velocity": 0,
        "byte9": true
      },
      {
        "deltaTime": 2,
        "running": true,
        "channel": 1,
        "type": "noteOff",
        "noteNumber": 69,
        "velocity": 0,
        "byte9": true
      },
      {
        "deltaTime": 35,
        "running": true,
        "channel": 1,
        "type": "noteOn",
        "noteNumber": 69,
        "velocity": 64
      },
      {
        "deltaTime": 0,
        "running": true,
        "channel": 1,
        "type": "noteOn",
        "noteNumber": 62,
        "velocity": 50
      },
      {
        "deltaTime": 0,
        "running": true,
        "channel": 1,
        "type": "noteOn",
        "noteNumber": 65,
        "velocity": 63
      },
      {
        "deltaTime": 20,
        "running": true,
        "channel": 1,
        "type": "noteOff",
        "noteNumber": 65,
        "velocity": 0,
        "byte9": true
      },
      {
        "deltaTime": 5,
        "running": true,
        "channel": 1,
        "type": "noteOff",
        "noteNumber": 69,
        "velocity": 0,
        "byte9": true
      },
      {
        "deltaTime": 0,
        "running": true,
        "channel": 1,
        "type": "noteOff",
        "noteNumber": 62,
        "velocity": 0,
        "byte9": true
      },
      {
        "deltaTime": 35,
        "running": true,
        "channel": 1,
        "type": "noteOn",
        "noteNumber": 50,
        "velocity": 71
      },
      {
        "deltaTime": 33,
        "running": true,
        "channel": 1,
        "type": "noteOff",
        "noteNumber": 50,
        "velocity": 0,
        "byte9": true
      },
      {
        "deltaTime": 87,
        "running": true,
        "channel": 1,
        "type": "noteOn",
        "noteNumber": 62,
        "velocity": 57
      },
      {
        "deltaTime": 0,
        "running": true,
        "channel": 1,
        "type": "noteOn",
        "noteNumber": 65,
        "velocity": 74
      },
      {
        "deltaTime": 0,
        "running": true,
        "channel": 1,
        "type": "noteOn",
        "noteNumber": 69,
        "velocity": 75
      },
      {
        "deltaTime": 18,
        "running": true,
        "channel": 1,
        "type": "noteOff",
        "noteNumber": 65,
        "velocity": 0,
        "byte9": true
      },
      {
        "deltaTime": 0,
        "running": true,
        "channel": 1,
        "type": "noteOff",
        "noteNumber": 69,
        "velocity": 0,
        "byte9": true
      },
      {
        "deltaTime": 4,
        "running": true,
        "channel": 1,
        "type": "noteOff",
        "noteNumber": 62,
        "velocity": 0,
        "byte9": true
      },
      {
        "deltaTime": 98,
        "running": true,
        "channel": 1,
        "type": "noteOn",
        "noteNumber": 62,
        "velocity": 74
      },
      {
        "deltaTime": 0,
        "running": true,
        "channel": 1,
        "type": "noteOn",
        "noteNumber": 65,
        "velocity": 95
      },
      {
        "deltaTime": 0,
        "running": true,
        "channel": 1,
        "type": "noteOn",
        "noteNumber": 69,
        "velocity": 92
      },
      {
        "deltaTime": 119,
        "running": true,
        "channel": 1,
        "type": "noteOff",
        "noteNumber": 65,
        "velocity": 0,
        "byte9": true
      },
      {
        "deltaTime": 1,
        "running": true,
        "channel": 1,
        "type": "noteOn",
        "noteNumber": 50,
        "velocity": 74
      },
      {
        "deltaTime": 1,
        "running": true,
        "channel": 1,
        "type": "noteOff",
        "noteNumber": 62,
        "velocity": 0,
        "byte9": true
      },
      {
        "deltaTime": 0,
        "running": true,
        "channel": 1,
        "type": "noteOff",
        "noteNumber": 69,
        "velocity": 0,
        "byte9": true
      },
      {
        "deltaTime": 29,
        "running": true,
        "channel": 1,
        "type": "noteOff",
        "noteNumber": 50,
        "velocity": 0,
        "byte9": true
      },
      {
        "deltaTime": 90,
        "running": true,
        "channel": 1,
        "type": "noteOn",
        "noteNumber": 69,
        "velocity": 68
      },
      {
        "deltaTime": 0,
        "running": true,
        "channel": 1,
        "type": "noteOn",
        "noteNumber": 65,
        "velocity": 74
      },
      {
        "deltaTime": 0,
        "running": true,
        "channel": 1,
        "type": "noteOn",
        "noteNumber": 62,
        "velocity": 60
      },
      {
        "deltaTime": 20,
        "running": true,
        "channel": 1,
        "type": "noteOff",
        "noteNumber": 69,
        "velocity": 0,
        "byte9": true
      },
      {
        "deltaTime": 0,
        "running": true,
        "channel": 1,
        "type": "noteOff",
        "noteNumber": 65,
        "velocity": 0,
        "byte9": true
      },
      {
        "deltaTime": 4,
        "running": true,
        "channel": 1,
        "type": "noteOff",
        "noteNumber": 62,
        "velocity": 0,
        "byte9": true
      },
      {
        "deltaTime": 36,
        "running": true,
        "channel": 1,
        "type": "noteOn",
        "noteNumber": 62,
        "velocity": 57
      },
      {
        "deltaTime": 0,
        "running": true,
        "channel": 1,
        "type": "noteOn",
        "noteNumber": 65,
        "velocity": 72
      },
      {
        "deltaTime": 0,
        "running": true,
        "channel": 1,
        "type": "noteOn",
        "noteNumber": 69,
        "velocity": 69
      },
      {
        "deltaTime": 20,
        "running": true,
        "channel": 1,
        "type": "noteOff",
        "noteNumber": 69,
        "velocity": 0,
        "byte9": true
      },
      {
        "deltaTime": 2,
        "running": true,
        "channel": 1,
        "type": "noteOff",
        "noteNumber": 65,
        "velocity": 0,
        "byte9": true
      },
      {
        "deltaTime": 3,
        "running": true,
        "channel": 1,
        "type": "noteOff",
        "noteNumber": 62,
        "velocity": 0,
        "byte9": true
      },
      {
        "deltaTime": 35,
        "running": true,
        "channel": 1,
        "type": "noteOn",
        "noteNumber": 62,
        "velocity": 58
      },
      {
        "deltaTime": 0,
        "running": true,
        "channel": 1,
        "type": "noteOn",
        "noteNumber": 65,
        "velocity": 70
      },
      {
        "deltaTime": 0,
        "running": true,
        "channel": 1,
        "type": "noteOn",
        "noteNumber": 69,
        "velocity": 66
      },
      {
        "deltaTime": 18,
        "running": true,
        "channel": 1,
        "type": "noteOff",
        "noteNumber": 69,
        "velocity": 0,
        "byte9": true
      },
      {
        "deltaTime": 2,
        "running": true,
        "channel": 1,
        "type": "noteOff",
        "noteNumber": 65,
        "velocity": 0,
        "byte9": true
      },
      {
        "deltaTime": 6,
        "running": true,
        "channel": 1,
        "type": "noteOff",
        "noteNumber": 62,
        "velocity": 0,
        "byte9": true
      },
      {
        "deltaTime": 34,
        "running": true,
        "channel": 1,
        "type": "noteOn",
        "noteNumber": 62,
        "velocity": 59
      },
      {
        "deltaTime": 0,
        "running": true,
        "channel": 1,
        "type": "noteOn",
        "noteNumber": 65,
        "velocity": 68
      },
      {
        "deltaTime": 0,
        "running": true,
        "channel": 1,
        "type": "noteOn",
        "noteNumber": 69,
        "velocity": 66
      },
      {
        "deltaTime": 19,
        "running": true,
        "channel": 1,
        "type": "noteOff",
        "noteNumber": 65,
        "velocity": 0,
        "byte9": true
      },
      {
        "deltaTime": 0,
        "running": true,
        "channel": 1,
        "type": "noteOff",
        "noteNumber": 69,
        "velocity": 0,
        "byte9": true
      },
      {
        "deltaTime": 11,
        "running": true,
        "channel": 1,
        "type": "noteOff",
        "noteNumber": 62,
        "velocity": 0,
        "byte9": true
      },
      {
        "deltaTime": 30,
        "running": true,
        "channel": 1,
        "type": "noteOn",
        "noteNumber": 50,
        "velocity": 73
      },
      {
        "deltaTime": 26,
        "running": true,
        "channel": 1,
        "type": "noteOff",
        "noteNumber": 50,
        "velocity": 0,
        "byte9": true
      },
      {
        "deltaTime": 94,
        "running": true,
        "channel": 1,
        "type": "noteOn",
        "noteNumber": 64,
        "velocity": 74
      },
      {
        "deltaTime": 0,
        "running": true,
        "channel": 1,
        "type": "noteOn",
        "noteNumber": 61,
        "velocity": 85
      },
      {
        "deltaTime": 20,
        "running": true,
        "channel": 1,
        "type": "noteOff",
        "noteNumber": 61,
        "velocity": 0,
        "byte9": true
      },
      {
        "deltaTime": 2,
        "running": true,
        "channel": 1,
        "type": "noteOff",
        "noteNumber": 64,
        "velocity": 0,
        "byte9": true
      },
      {
        "deltaTime": 38,
        "running": true,
        "channel": 1,
        "type": "noteOn",
        "noteNumber": 61,
        "velocity": 73
      },
      {
        "deltaTime": 0,
        "running": true,
        "channel": 1,
        "type": "noteOn",
        "noteNumber": 64,
        "velocity": 76
      },
      {
        "deltaTime": 21,
        "running": true,
        "channel": 1,
        "type": "noteOff",
        "noteNumber": 61,
        "velocity": 0,
        "byte9": true
      },
      {
        "deltaTime": 2,
        "running": true,
        "channel": 1,
        "type": "noteOff",
        "noteNumber": 64,
        "velocity": 0,
        "byte9": true
      },
      {
        "deltaTime": 37,
        "running": true,
        "channel": 1,
        "type": "noteOn",
        "noteNumber": 61,
        "velocity": 66
      },
      {
        "deltaTime": 0,
        "running": true,
        "channel": 1,
        "type": "noteOn",
        "noteNumber": 64,
        "velocity": 67
      },
      {
        "deltaTime": 19,
        "running": true,
        "channel": 1,
        "type": "noteOff",
        "noteNumber": 64,
        "velocity": 0,
        "byte9": true
      },
      {
        "deltaTime": 1,
        "running": true,
        "channel": 1,
        "type": "noteOff",
        "noteNumber": 61,
        "velocity": 0,
        "byte9": true
      },
      {
        "deltaTime": 40,
        "running": true,
        "channel": 1,
        "type": "noteOn",
        "noteNumber": 64,
        "velocity": 62
      },
      {
        "deltaTime": 0,
        "running": true,
        "channel": 1,
        "type": "noteOn",
        "noteNumber": 61,
        "velocity": 56
      },
      {
        "deltaTime": 28,
        "running": true,
        "channel": 1,
        "type": "noteOff",
        "noteNumber": 61,
        "velocity": 0,
        "byte9": true
      },
      {
        "deltaTime": 4,
        "running": true,
        "channel": 1,
        "type": "noteOff",
        "noteNumber": 64,
        "velocity": 0,
        "byte9": true
      },
      {
        "deltaTime": 28,
        "running": true,
        "channel": 1,
        "type": "noteOn",
        "noteNumber": 49,
        "velocity": 70
      },
      {
        "deltaTime": 29,
        "running": true,
        "channel": 1,
        "type": "noteOff",
        "noteNumber": 49,
        "velocity": 0,
        "byte9": true
      },
      {
        "deltaTime": 91,
        "running": true,
        "channel": 1,
        "type": "noteOn",
        "noteNumber": 64,
        "velocity": 82
      },
      {
        "deltaTime": 0,
        "running": true,
        "channel": 1,
        "type": "noteOn",
        "noteNumber": 61,
        "velocity": 85
      },
      {
        "deltaTime": 18,
        "running": true,
        "channel": 1,
        "type": "noteOff",
        "noteNumber": 64,
        "velocity": 0,
        "byte9": true
      },
      {
        "deltaTime": 0,
        "running": true,
        "channel": 1,
        "type": "noteOff",
        "noteNumber": 61,
        "velocity": 0,
        "byte9": true
      },
      {
        "deltaTime": 102,
        "running": true,
        "channel": 1,
        "type": "noteOn",
        "noteNumber": 61,
        "velocity": 94
      },
      {
        "deltaTime": 0,
        "running": true,
        "channel": 1,
        "type": "noteOn",
        "noteNumber": 64,
        "velocity": 93
      },
      {
        "deltaTime": 20,
        "running": true,
        "channel": 1,
        "type": "noteOff",
        "noteNumber": 61,
        "velocity": 0,
        "byte9": true
      },
      {
        "deltaTime": 1,
        "running": true,
        "channel": 1,
        "type": "noteOff",
        "noteNumber": 64,
        "velocity": 0,
        "byte9": true
      },
      {
        "deltaTime": 99,
        "running": true,
        "channel": 1,
        "type": "noteOn",
        "noteNumber": 64,
        "velocity": 105
      },
      {
        "deltaTime": 0,
        "running": true,
        "channel": 1,
        "type": "noteOn",
        "noteNumber": 61,
        "velocity": 108
      },
      {
        "deltaTime": 0,
        "running": true,
        "channel": 1,
        "type": "noteOn",
        "noteNumber": 49,
        "velocity": 110
      },
      {
        "deltaTime": 348,
        "running": true,
        "channel": 1,
        "type": "noteOff",
        "noteNumber": 49,
        "velocity": 0,
        "byte9": true
      },
      {
        "deltaTime": 2,
        "running": true,
        "channel": 1,
        "type": "noteOff",
        "noteNumber": 61,
        "velocity": 0,
        "byte9": true
      },
      {
        "deltaTime": 10,
        "channel": 1,
        "type": "controller",
        "controllerType": 0,
        "value": 80
      },
      {
        "deltaTime": 0,
        "running": true,
        "channel": 1,
        "type": "controller",
        "controllerType": 32,
        "value": 0
      },
      {
        "deltaTime": 0,
        "channel": 1,
        "type": "programChange",
        "programNumber": 21
      },
      {
        "deltaTime": 0,
        "channel": 1,
        "type": "noteOn",
        "noteNumber": 62,
        "velocity": 116
      },
      {
        "deltaTime": 3,
        "running": true,
        "channel": 1,
        "type": "noteOff",
        "noteNumber": 64,
        "velocity": 0,
        "byte9": true
      },
      {
        "deltaTime": 117,
        "running": true,
        "channel": 1,
        "type": "noteOn",
        "noteNumber": 64,
        "velocity": 107
      },
      {
        "deltaTime": 8,
        "running": true,
        "channel": 1,
        "type": "noteOff",
        "noteNumber": 62,
        "velocity": 0,
        "byte9": true
      },
      {
        "deltaTime": 112,
        "running": true,
        "channel": 1,
        "type": "noteOn",
        "noteNumber": 65,
        "velocity": 107
      },
      {
        "deltaTime": 8,
        "running": true,
        "channel": 1,
        "type": "noteOff",
        "noteNumber": 64,
        "velocity": 0,
        "byte9": true
      },
      {
        "deltaTime": 103,
        "running": true,
        "channel": 1,
        "type": "noteOff",
        "noteNumber": 65,
        "velocity": 0,
        "byte9": true
      },
      {
        "deltaTime": 9,
        "running": true,
        "channel": 1,
        "type": "noteOn",
        "noteNumber": 50,
        "velocity": 92
      },
      {
        "deltaTime": 28,
        "running": true,
        "channel": 1,
        "type": "noteOff",
        "noteNumber": 50,
        "velocity": 0,
        "byte9": true
      },
      {
        "deltaTime": 92,
        "running": true,
        "channel": 1,
        "type": "noteOn",
        "noteNumber": 62,
        "velocity": 54
      },
      {
        "deltaTime": 0,
        "running": true,
        "channel": 1,
        "type": "noteOn",
        "noteNumber": 69,
        "velocity": 55
      },
      {
        "deltaTime": 0,
        "running": true,
        "channel": 1,
        "type": "noteOn",
        "noteNumber": 65,
        "velocity": 59
      },
      {
        "deltaTime": 23,
        "running": true,
        "channel": 1,
        "type": "noteOff",
        "noteNumber": 69,
        "velocity": 0,
        "byte9": true
      },
      {
        "deltaTime": 0,
        "running": true,
        "channel": 1,
        "type": "noteOff",
        "noteNumber": 65,
        "velocity": 0,
        "byte9": true
      },
      {
        "deltaTime": 5,
        "running": true,
        "channel": 1,
        "type": "noteOff",
        "noteNumber": 62,
        "velocity": 0,
        "byte9": true
      },
      {
        "deltaTime": 32,
        "running": true,
        "channel": 1,
        "type": "noteOn",
        "noteNumber": 62,
        "velocity": 47
      },
      {
        "deltaTime": 0,
        "running": true,
        "channel": 1,
        "type": "noteOn",
        "noteNumber": 69,
        "velocity": 60
      },
      {
        "deltaTime": 0,
        "running": true,
        "channel": 1,
        "type": "noteOn",
        "noteNumber": 65,
        "velocity": 62
      },
      {
        "deltaTime": 22,
        "running": true,
        "channel": 1,
        "type": "noteOff",
        "noteNumber": 69,
        "velocity": 0,
        "byte9": true
      },
      {
        "deltaTime": 0,
        "running": true,
        "channel": 1,
        "type": "noteOff",
        "noteNumber": 65,
        "velocity": 0,
        "byte9": true
      },
      {
        "deltaTime": 2,
        "running": true,
        "channel": 1,
        "type": "noteOff",
        "noteNumber": 62,
        "velocity": 0,
        "byte9": true
      },
      {
        "deltaTime": 36,
        "running": true,
        "channel": 1,
        "type": "noteOn",
        "noteNumber": 65,
        "velocity": 63
      },
      {
        "deltaTime": 0,
        "running": true,
        "channel": 1,
        "type": "noteOn",
        "noteNumber": 62,
        "velocity": 47
      },
      {
        "deltaTime": 0,
        "running": true,
        "channel": 1,
        "type": "noteOn",
        "noteNumber": 69,
        "velocity": 58
      },
      {
        "deltaTime": 21,
        "running": true,
        "channel": 1,
        "type": "noteOff",
        "noteNumber": 69,
        "velocity": 0,
        "byte9": true
      },
      {
        "deltaTime": 2,
        "running": true,
        "channel": 1,
        "type": "noteOff",
        "noteNumber": 65,
        "velocity": 0,
        "byte9": true
      },
      {
        "deltaTime": 2,
        "running": true,
        "channel": 1,
        "type": "noteOff",
        "noteNumber": 62,
        "velocity": 0,
        "byte9": true
      },
      {
        "deltaTime": 35,
        "running": true,
        "channel": 1,
        "type": "noteOn",
        "noteNumber": 62,
        "velocity": 46
      },
      {
        "deltaTime": 0,
        "running": true,
        "channel": 1,
        "type": "noteOn",
        "noteNumber": 65,
        "velocity": 61
      },
      {
        "deltaTime": 0,
        "running": true,
        "channel": 1,
        "type": "noteOn",
        "noteNumber": 69,
        "velocity": 57
      },
      {
        "deltaTime": 21,
        "running": true,
        "channel": 1,
        "type": "noteOff",
        "noteNumber": 69,
        "velocity": 0,
        "byte9": true
      },
      {
        "deltaTime": 5,
        "running": true,
        "channel": 1,
        "type": "noteOff",
        "noteNumber": 65,
        "velocity": 0,
        "byte9": true
      },
      {
        "deltaTime": 2,
        "running": true,
        "channel": 1,
        "type": "noteOff",
        "noteNumber": 62,
        "velocity": 0,
        "byte9": true
      },
      {
        "deltaTime": 32,
        "running": true,
        "channel": 1,
        "type": "noteOn",
        "noteNumber": 50,
        "velocity": 70
      },
      {
        "deltaTime": 25,
        "running": true,
        "channel": 1,
        "type": "noteOff",
        "noteNumber": 50,
        "velocity": 0,
        "byte9": true
      },
      {
        "deltaTime": 95,
        "running": true,
        "channel": 1,
        "type": "noteOn",
        "noteNumber": 62,
        "velocity": 61
      },
      {
        "deltaTime": 0,
        "running": true,
        "channel": 1,
        "type": "noteOn",
        "noteNumber": 65,
        "velocity": 76
      },
      {
        "deltaTime": 0,
        "running": true,
        "channel": 1,
        "type": "noteOn",
        "noteNumber": 69,
        "velocity": 68
      },
      {
        "deltaTime": 17,
        "running": true,
        "channel": 1,
        "type": "noteOff",
        "noteNumber": 65,
        "velocity": 0,
        "byte9": true
      },
      {
        "deltaTime": 1,
        "running": true,
        "channel": 1,
        "type": "noteOff",
        "noteNumber": 69,
        "velocity": 0,
        "byte9": true
      },
      {
        "deltaTime": 4,
        "running": true,
        "channel": 1,
        "type": "noteOff",
        "noteNumber": 62,
        "velocity": 0,
        "byte9": true
      },
      {
        "deltaTime": 98,
        "running": true,
        "channel": 1,
        "type": "noteOn",
        "noteNumber": 62,
        "velocity": 76
      },
      {
        "deltaTime": 0,
        "running": true,
        "channel": 1,
        "type": "noteOn",
        "noteNumber": 65,
        "velocity": 95
      },
      {
        "deltaTime": 0,
        "running": true,
        "channel": 1,
        "type": "noteOn",
        "noteNumber": 69,
        "velocity": 77
      },
      {
        "deltaTime": 120,
        "running": true,
        "channel": 1,
        "type": "noteOn",
        "noteNumber": 50,
        "velocity": 72
      },
      {
        "deltaTime": 11,
        "running": true,
        "channel": 1,
        "type": "noteOff",
        "noteNumber": 69,
        "velocity": 0,
        "byte9": true
      },
      {
        "deltaTime": 3,
        "running": true,
        "channel": 1,
        "type": "noteOff",
        "noteNumber": 62,
        "velocity": 0,
        "byte9": true
      },
      {
        "deltaTime": 0,
        "running": true,
        "channel": 1,
        "type": "noteOff",
        "noteNumber": 65,
        "velocity": 0,
        "byte9": true
      },
      {
        "deltaTime": 9,
        "running": true,
        "channel": 1,
        "type": "noteOff",
        "noteNumber": 50,
        "velocity": 0,
        "byte9": true
      },
      {
        "deltaTime": 97,
        "running": true,
        "channel": 1,
        "type": "noteOn",
        "noteNumber": 62,
        "velocity": 62
      },
      {
        "deltaTime": 0,
        "running": true,
        "channel": 1,
        "type": "noteOn",
        "noteNumber": 65,
        "velocity": 79
      },
      {
        "deltaTime": 0,
        "running": true,
        "channel": 1,
        "type": "noteOn",
        "noteNumber": 69,
        "velocity": 74
      },
      {
        "deltaTime": 21,
        "running": true,
        "channel": 1,
        "type": "noteOff",
        "noteNumber": 69,
        "velocity": 0,
        "byte9": true
      },
      {
        "deltaTime": 1,
        "running": true,
        "channel": 1,
        "type": "noteOff",
        "noteNumber": 65,
        "velocity": 0,
        "byte9": true
      },
      {
        "deltaTime": 2,
        "running": true,
        "channel": 1,
        "type": "noteOff",
        "noteNumber": 62,
        "velocity": 0,
        "byte9": true
      },
      {
        "deltaTime": 36,
        "running": true,
        "channel": 1,
        "type": "noteOn",
        "noteNumber": 62,
        "velocity": 55
      },
      {
        "deltaTime": 0,
        "running": true,
        "channel": 1,
        "type": "noteOn",
        "noteNumber": 65,
        "velocity": 68
      },
      {
        "deltaTime": 0,
        "running": true,
        "channel": 1,
        "type": "noteOn",
        "noteNumber": 69,
        "velocity": 64
      },
      {
        "deltaTime": 19,
        "running": true,
        "channel": 1,
        "type": "noteOff",
        "noteNumber": 69,
        "velocity": 0,
        "byte9": true
      },
      {
        "deltaTime": 1,
        "running": true,
        "channel": 1,
        "type": "noteOff",
        "noteNumber": 65,
        "velocity": 0,
        "byte9": true
      },
      {
        "deltaTime": 2,
        "running": true,
        "channel": 1,
        "type": "noteOff",
        "noteNumber": 62,
        "velocity": 0,
        "byte9": true
      },
      {
        "deltaTime": 38,
        "running": true,
        "channel": 1,
        "type": "noteOn",
        "noteNumber": 62,
        "velocity": 55
      },
      {
        "deltaTime": 0,
        "running": true,
        "channel": 1,
        "type": "noteOn",
        "noteNumber": 65,
        "velocity": 65
      },
      {
        "deltaTime": 0,
        "running": true,
        "channel": 1,
        "type": "noteOn",
        "noteNumber": 69,
        "velocity": 63
      },
      {
        "deltaTime": 19,
        "running": true,
        "channel": 1,
        "type": "noteOff",
        "noteNumber": 69,
        "velocity": 0,
        "byte9": true
      },
      {
        "deltaTime": 1,
        "running": true,
        "channel": 1,
        "type": "noteOff",
        "noteNumber": 65,
        "velocity": 0,
        "byte9": true
      },
      {
        "deltaTime": 5,
        "running": true,
        "channel": 1,
        "type": "noteOff",
        "noteNumber": 62,
        "velocity": 0,
        "byte9": true
      },
      {
        "deltaTime": 35,
        "running": true,
        "channel": 1,
        "type": "noteOn",
        "noteNumber": 62,
        "velocity": 56
      },
      {
        "deltaTime": 0,
        "running": true,
        "channel": 1,
        "type": "noteOn",
        "noteNumber": 65,
        "velocity": 74
      },
      {
        "deltaTime": 0,
        "running": true,
        "channel": 1,
        "type": "noteOn",
        "noteNumber": 69,
        "velocity": 63
      },
      {
        "deltaTime": 24,
        "running": true,
        "channel": 1,
        "type": "noteOff",
        "noteNumber": 69,
        "velocity": 0,
        "byte9": true
      },
      {
        "deltaTime": 3,
        "running": true,
        "channel": 1,
        "type": "noteOff",
        "noteNumber": 65,
        "velocity": 0,
        "byte9": true
      },
      {
        "deltaTime": 4,
        "running": true,
        "channel": 1,
        "type": "noteOff",
        "noteNumber": 62,
        "velocity": 0,
        "byte9": true
      },
      {
        "deltaTime": 29,
        "running": true,
        "channel": 1,
        "type": "noteOn",
        "noteNumber": 50,
        "velocity": 77
      },
      {
        "deltaTime": 27,
        "running": true,
        "channel": 1,
        "type": "noteOff",
        "noteNumber": 50,
        "velocity": 0,
        "byte9": true
      },
      {
        "deltaTime": 93,
        "running": true,
        "channel": 1,
        "type": "noteOn",
        "noteNumber": 62,
        "velocity": 60
      },
      {
        "deltaTime": 0,
        "running": true,
        "channel": 1,
        "type": "noteOn",
        "noteNumber": 65,
        "velocity": 71
      },
      {
        "deltaTime": 0,
        "running": true,
        "channel": 1,
        "type": "noteOn",
        "noteNumber": 69,
        "velocity": 64
      },
      {
        "deltaTime": 16,
        "running": true,
        "channel": 1,
        "type": "noteOff",
        "noteNumber": 65,
        "velocity": 0,
        "byte9": true
      },
      {
        "deltaTime": 0,
        "running": true,
        "channel": 1,
        "type": "noteOff",
        "noteNumber": 69,
        "velocity": 0,
        "byte9": true
      },
      {
        "deltaTime": 3,
        "running": true,
        "channel": 1,
        "type": "noteOff",
        "noteNumber": 62,
        "velocity": 0,
        "byte9": true
      },
      {
        "deltaTime": 101,
        "running": true,
        "channel": 1,
        "type": "noteOn",
        "noteNumber": 62,
        "velocity": 72
      },
      {
        "deltaTime": 0,
        "running": true,
        "channel": 1,
        "type": "noteOn",
        "noteNumber": 65,
        "velocity": 90
      },
      {
        "deltaTime": 0,
        "running": true,
        "channel": 1,
        "type": "noteOn",
        "noteNumber": 69,
        "velocity": 84
      },
      {
        "deltaTime": 102,
        "running": true,
        "channel": 1,
        "type": "noteOff",
        "noteNumber": 62,
        "velocity": 0,
        "byte9": true
      },
      {
        "deltaTime": 1,
        "running": true,
        "channel": 1,
        "type": "noteOff",
        "noteNumber": 65,
        "velocity": 0,
        "byte9": true
      },
      {
        "deltaTime": 2,
        "running": true,
        "channel": 1,
        "type": "noteOff",
        "noteNumber": 69,
        "velocity": 0,
        "byte9": true
      },
      {
        "deltaTime": 15,
        "running": true,
        "channel": 1,
        "type": "noteOn",
        "noteNumber": 55,
        "velocity": 73
      },
      {
        "deltaTime": 28,
        "running": true,
        "channel": 1,
        "type": "noteOff",
        "noteNumber": 55,
        "velocity": 0,
        "byte9": true
      },
      {
        "deltaTime": 92,
        "running": true,
        "channel": 1,
        "type": "noteOn",
        "noteNumber": 62,
        "velocity": 45
      },
      {
        "deltaTime": 0,
        "running": true,
        "channel": 1,
        "type": "noteOn",
        "noteNumber": 70,
        "velocity": 49
      },
      {
        "deltaTime": 0,
        "running": true,
        "channel": 1,
        "type": "noteOn",
        "noteNumber": 67,
        "velocity": 46
      },
      {
        "deltaTime": 18,
        "running": true,
        "channel": 1,
        "type": "noteOff",
        "noteNumber": 67,
        "velocity": 0,
        "byte9": true
      },
      {
        "deltaTime": 3,
        "running": true,
        "channel": 1,
        "type": "noteOff",
        "noteNumber": 70,
        "velocity": 0,
        "byte9": true
      },
      {
        "deltaTime": 6,
        "running": true,
        "channel": 1,
        "type": "noteOff",
        "noteNumber": 62,
        "velocity": 0,
        "byte9": true
      },
      {
        "deltaTime": 33,
        "running": true,
        "channel": 1,
        "type": "noteOn",
        "noteNumber": 67,
        "velocity": 64
      },
      {
        "deltaTime": 0,
        "running": true,
        "channel": 1,
        "type": "noteOn",
        "noteNumber": 70,
        "velocity": 70
      },
      {
        "deltaTime": 0,
        "running": true,
        "channel": 1,
        "type": "noteOn",
        "noteNumber": 62,
        "velocity": 38
      },
      {
        "deltaTime": 20,
        "running": true,
        "channel": 1,
        "type": "noteOff",
        "noteNumber": 70,
        "velocity": 0,
        "byte9": true
      },
      {
        "deltaTime": 1,
        "running": true,
        "channel": 1,
        "type": "noteOff",
        "noteNumber": 62,
        "velocity": 0,
        "byte9": true
      },
      {
        "deltaTime": 1,
        "running": true,
        "channel": 1,
        "type": "noteOff",
        "noteNumber": 67,
        "velocity": 0,
        "byte9": true
      },
      {
        "deltaTime": 38,
        "running": true,
        "channel": 1,
        "type": "noteOn",
        "noteNumber": 70,
        "velocity": 70
      },
      {
        "deltaTime": 0,
        "running": true,
        "channel": 1,
        "type": "noteOn",
        "noteNumber": 67,
        "velocity": 62
      },
      {
        "deltaTime": 0,
        "running": true,
        "channel": 1,
        "type": "noteOn",
        "noteNumber": 62,
        "velocity": 41
      },
      {
        "deltaTime": 19,
        "running": true,
        "channel": 1,
        "type": "noteOff",
        "noteNumber": 70,
        "velocity": 0,
        "byte9": true
      },
      {
        "deltaTime": 1,
        "running": true,
        "channel": 1,
        "type": "noteOff",
        "noteNumber": 67,
        "velocity": 0,
        "byte9": true
      },
      {
        "deltaTime": 5,
        "running": true,
        "channel": 1,
        "type": "noteOff",
        "noteNumber": 62,
        "velocity": 0,
        "byte9": true
      },
      {
        "deltaTime": 35,
        "running": true,
        "channel": 1,
        "type": "noteOn",
        "noteNumber": 67,
        "velocity": 59
      },
      {
        "deltaTime": 0,
        "running": true,
        "channel": 1,
        "type": "noteOn",
        "noteNumber": 62,
        "velocity": 40
      },
      {
        "deltaTime": 0,
        "running": true,
        "channel": 1,
        "type": "noteOn",
        "noteNumber": 70,
        "velocity": 70
      },
      {
        "deltaTime": 22,
        "running": true,
        "channel": 1,
        "type": "noteOff",
        "noteNumber": 70,
        "velocity": 0,
        "byte9": true
      },
      {
        "deltaTime": 3,
        "running": true,
        "channel": 1,
        "type": "noteOff",
        "noteNumber": 67,
        "velocity": 0,
        "byte9": true
      },
      {
        "deltaTime": 0,
        "running": true,
        "channel": 1,
        "type": "noteOff",
        "noteNumber": 62,
        "velocity": 0,
        "byte9": true
      },
      {
        "deltaTime": 35,
        "running": true,
        "channel": 1,
        "type": "noteOn",
        "noteNumber": 55,
        "velocity": 67
      },
      {
        "deltaTime": 30,
        "running": true,
        "channel": 1,
        "type": "noteOff",
        "noteNumber": 55,
        "velocity": 0,
        "byte9": true
      },
      {
        "deltaTime": 90,
        "running": true,
        "channel": 1,
        "type": "noteOn",
        "noteNumber": 67,
        "velocity": 60
      },
      {
        "deltaTime": 0,
        "running": true,
        "channel": 1,
        "type": "noteOn",
        "noteNumber": 62,
        "velocity": 48
      },
      {
        "deltaTime": 0,
        "running": true,
        "channel": 1,
        "type": "noteOn",
        "noteNumber": 70,
        "velocity": 60
      },
      {
        "deltaTime": 19,
        "running": true,
        "channel": 1,
        "type": "noteOff",
        "noteNumber": 70,
        "velocity": 0,
        "byte9": true
      },
      {
        "deltaTime": 5,
        "running": true,
        "channel": 1,
        "type": "noteOff",
        "noteNumber": 67,
        "velocity": 0,
        "byte9": true
      },
      {
        "deltaTime": 4,
        "running": true,
        "channel": 1,
        "type": "noteOff",
        "noteNumber": 62,
        "velocity": 0,
        "byte9": true
      },
      {
        "deltaTime": 92,
        "running": true,
        "channel": 1,
        "type": "noteOn",
        "noteNumber": 67,
        "velocity": 77
      },
      {
        "deltaTime": 0,
        "running": true,
        "channel": 1,
        "type": "noteOn",
        "noteNumber": 62,
        "velocity": 68
      },
      {
        "deltaTime": 0,
        "running": true,
        "channel": 1,
        "type": "noteOn",
        "noteNumber": 70,
        "velocity": 88
      },
      {
        "deltaTime": 120,
        "running": true,
        "channel": 1,
        "type": "noteOn",
        "noteNumber": 55,
        "velocity": 76
      },
      {
        "deltaTime": 11,
        "running": true,
        "channel": 1,
        "type": "noteOff",
        "noteNumber": 62,
        "velocity": 0,
        "byte9": true
      },
      {
        "deltaTime": 3,
        "running": true,
        "channel": 1,
        "type": "noteOff",
        "noteNumber": 67,
        "velocity": 0,
        "byte9": true
      },
      {
        "deltaTime": 0,
        "running": true,
        "channel": 1,
        "type": "noteOff",
        "noteNumber": 70,
        "velocity": 0,
        "byte9": true
      },
      {
        "deltaTime": 15,
        "running": true,
        "channel": 1,
        "type": "noteOff",
        "noteNumber": 55,
        "velocity": 0,
        "byte9": true
      },
      {
        "deltaTime": 91,
        "running": true,
        "channel": 1,
        "type": "noteOn",
        "noteNumber": 67,
        "velocity": 65
      },
      {
        "deltaTime": 0,
        "running": true,
        "channel": 1,
        "type": "noteOn",
        "noteNumber": 70,
        "velocity": 68
      },
      {
        "deltaTime": 0,
        "running": true,
        "channel": 1,
        "type": "noteOn",
        "noteNumber": 62,
        "velocity": 52
      },
      {
        "deltaTime": 18,
        "running": true,
        "channel": 1,
        "type": "noteOff",
        "noteNumber": 70,
        "velocity": 0,
        "byte9": true
      },
      {
        "deltaTime": 6,
        "running": true,
        "channel": 1,
        "type": "noteOff",
        "noteNumber": 67,
        "velocity": 0,
        "byte9": true
      },
      {
        "deltaTime": 3,
        "running": true,
        "channel": 1,
        "type": "noteOff",
        "noteNumber": 62,
        "velocity": 0,
        "byte9": true
      },
      {
        "deltaTime": 33,
        "running": true,
        "channel": 1,
        "type": "noteOn",
        "noteNumber": 67,
        "velocity": 63
      },
      {
        "deltaTime": 0,
        "running": true,
        "channel": 1,
        "type": "noteOn",
        "noteNumber": 70,
        "velocity": 68
      },
      {
        "deltaTime": 0,
        "running": true,
        "channel": 1,
        "type": "noteOn",
        "noteNumber": 62,
        "velocity": 42
      },
      {
        "deltaTime": 20,
        "running": true,
        "channel": 1,
        "type": "noteOff",
        "noteNumber": 70,
        "velocity": 0,
        "byte9": true
      },
      {
        "deltaTime": 2,
        "running": true,
        "channel": 1,
        "type": "noteOff",
        "noteNumber": 67,
        "velocity": 0,
        "byte9": true
      },
      {
        "deltaTime": 2,
        "running": true,
        "channel": 1,
        "type": "noteOff",
        "noteNumber": 62,
        "velocity": 0,
        "byte9": true
      },
      {
        "deltaTime": 36,
        "running": true,
        "channel": 1,
        "type": "noteOn",
        "noteNumber": 70,
        "velocity": 69
      },
      {
        "deltaTime": 0,
        "running": true,
        "channel": 1,
        "type": "noteOn",
        "noteNumber": 67,
        "velocity": 63
      },
      {
        "deltaTime": 0,
        "running": true,
        "channel": 1,
        "type": "noteOn",
        "noteNumber": 62,
        "velocity": 45
      },
      {
        "deltaTime": 22,
        "running": true,
        "channel": 1,
        "type": "noteOff",
        "noteNumber": 70,
        "velocity": 0,
        "byte9": true
      },
      {
        "deltaTime": 0,
        "running": true,
        "channel": 1,
        "type": "noteOff",
        "noteNumber": 67,
        "velocity": 0,
        "byte9": true
      },
      {
        "deltaTime": 4,
        "running": true,
        "channel": 1,
        "type": "noteOff",
        "noteNumber": 62,
        "velocity": 0,
        "byte9": true
      },
      {
        "deltaTime": 34,
        "running": true,
        "channel": 1,
        "type": "noteOn",
        "noteNumber": 70,
        "velocity": 70
      },
      {
        "deltaTime": 0,
        "running": true,
        "channel": 1,
        "type": "noteOn",
        "noteNumber": 62,
        "velocity": 45
      },
      {
        "deltaTime": 0,
        "running": true,
        "channel": 1,
        "type": "noteOn",
        "noteNumber": 67,
        "velocity": 63
      },
      {
        "deltaTime": 37,
        "running": true,
        "channel": 1,
        "type": "noteOff",
        "noteNumber": 67,
        "velocity": 0,
        "byte9": true
      },
      {
        "deltaTime": 1,
        "running": true,
        "channel": 1,
        "type": "noteOff",
        "noteNumber": 62,
        "velocity": 0,
        "byte9": true
      },
      {
        "deltaTime": 2,
        "running": true,
        "channel": 1,
        "type": "noteOff",
        "noteNumber": 70,
        "velocity": 0,
        "byte9": true
      },
      {
        "deltaTime": 20,
        "running": true,
        "channel": 1,
        "type": "noteOn",
        "noteNumber": 55,
        "velocity": 68
      },
      {
        "deltaTime": 29,
        "running": true,
        "channel": 1,
        "type": "noteOff",
        "noteNumber": 55,
        "velocity": 0,
        "byte9": true
      },
      {
        "deltaTime": 91,
        "running": true,
        "channel": 1,
        "type": "noteOn",
        "noteNumber": 67,
        "velocity": 70
      },
      {
        "deltaTime": 0,
        "running": true,
        "channel": 1,
        "type": "noteOn",
        "noteNumber": 70,
        "velocity": 72
      },
      {
        "deltaTime": 0,
        "running": true,
        "channel": 1,
        "type": "noteOn",
        "noteNumber": 62,
        "velocity": 51
      },
      {
        "deltaTime": 21,
        "running": true,
        "channel": 1,
        "type": "noteOff",
        "noteNumber": 70,
        "velocity": 0,
        "byte9": true
      },
      {
        "deltaTime": 1,
        "running": true,
        "channel": 1,
        "type": "noteOff",
        "noteNumber": 67,
        "velocity": 0,
        "byte9": true
      },
      {
        "deltaTime": 3,
        "running": true,
        "channel": 1,
        "type": "noteOff",
        "noteNumber": 62,
        "velocity": 0,
        "byte9": true
      },
      {
        "deltaTime": 95,
        "running": true,
        "channel": 1,
        "type": "noteOn",
        "noteNumber": 62,
        "velocity": 59
      },
      {
        "deltaTime": 0,
        "running": true,
        "channel": 1,
        "type": "noteOn",
        "noteNumber": 70,
        "velocity": 85
      },
      {
        "deltaTime": 0,
        "running": true,
        "channel": 1,
        "type": "noteOn",
        "noteNumber": 67,
        "velocity": 76
      },
      {
        "deltaTime": 115,
        "running": true,
        "channel": 1,
        "type": "noteOff",
        "noteNumber": 67,
        "velocity": 0,
        "byte9": true
      },
      {
        "deltaTime": 1,
        "running": true,
        "channel": 1,
        "type": "noteOff",
        "noteNumber": 70,
        "velocity": 0,
        "byte9": true
      },
      {
        "deltaTime": 4,
        "running": true,
        "channel": 1,
        "type": "noteOn",
        "noteNumber": 50,
        "velocity": 70
      },
      {
        "deltaTime": 1,
        "running": true,
        "channel": 1,
        "type": "noteOff",
        "noteNumber": 62,
        "velocity": 0,
        "byte9": true
      },
      {
        "deltaTime": 36,
        "running": true,
        "channel": 1,
        "type": "noteOff",
        "noteNumber": 50,
        "velocity": 0,
        "byte9": true
      },
      {
        "deltaTime": 83,
        "running": true,
        "channel": 1,
        "type": "noteOn",
        "noteNumber": 65,
        "velocity": 71
      },
      {
        "deltaTime": 0,
        "running": true,
        "channel": 1,
        "type": "noteOn",
        "noteNumber": 62,
        "velocity": 52
      },
      {
        "deltaTime": 0,
        "running": true,
        "channel": 1,
        "type": "noteOn",
        "noteNumber": 69,
        "velocity": 50
      },
      {
        "deltaTime": 22,
        "running": true,
        "channel": 1,
        "type": "noteOff",
        "noteNumber": 69,
        "velocity": 0,
        "byte9": true
      },
      {
        "deltaTime": 5,
        "running": true,
        "channel": 1,
        "type": "noteOff",
        "noteNumber": 65,
        "velocity": 0,
        "byte9": true
      },
      {
        "deltaTime": 0,
        "running": true,
        "channel": 1,
        "type": "noteOff",
        "noteNumber": 62,
        "velocity": 0,
        "byte9": true
      },
      {
        "deltaTime": 33,
        "running": true,
        "channel": 1,
        "type": "noteOn",
        "noteNumber": 62,
        "velocity": 50
      },
      {
        "deltaTime": 0,
        "running": true,
        "channel": 1,
        "type": "noteOn",
        "noteNumber": 65,
        "velocity": 66
      },
      {
        "deltaTime": 0,
        "running": true,
        "channel": 1,
        "type": "noteOn",
        "noteNumber": 69,
        "velocity": 62
      },
      {
        "deltaTime": 22,
        "running": true,
        "channel": 1,
        "type": "noteOff",
        "noteNumber": 69,
        "velocity": 0,
        "byte9": true
      },
      {
        "deltaTime": 1,
        "running": true,
        "channel": 1,
        "type": "noteOff",
        "noteNumber": 65,
        "velocity": 0,
        "byte9": true
      },
      {
        "deltaTime": 6,
        "running": true,
        "channel": 1,
        "type": "noteOff",
        "noteNumber": 62,
        "velocity": 0,
        "byte9": true
      },
      {
        "deltaTime": 31,
        "running": true,
        "channel": 1,
        "type": "noteOn",
        "noteNumber": 62,
        "velocity": 44
      },
      {
        "deltaTime": 0,
        "running": true,
        "channel": 1,
        "type": "noteOn",
        "noteNumber": 69,
        "velocity": 61
      },
      {
        "deltaTime": 0,
        "running": true,
        "channel": 1,
        "type": "noteOn",
        "noteNumber": 65,
        "velocity": 61
      },
      {
        "deltaTime": 21,
        "running": true,
        "channel": 1,
        "type": "noteOff",
        "noteNumber": 69,
        "velocity": 0,
        "byte9": true
      },
      {
        "deltaTime": 1,
        "running": true,
        "channel": 1,
        "type": "noteOff",
        "noteNumber": 65,
        "velocity": 0,
        "byte9": true
      },
      {
        "deltaTime": 5,
        "running": true,
        "channel": 1,
        "type": "noteOff",
        "noteNumber": 62,
        "velocity": 0,
        "byte9": true
      },
      {
        "deltaTime": 33,
        "running": true,
        "channel": 1,
        "type": "noteOn",
        "noteNumber": 62,
        "velocity": 47
      },
      {
        "deltaTime": 0,
        "running": true,
        "channel": 1,
        "type": "noteOn",
        "noteNumber": 65,
        "velocity": 63
      },
      {
        "deltaTime": 0,
        "running": true,
        "channel": 1,
        "type": "noteOn",
        "noteNumber": 69,
        "velocity": 52
      },
      {
        "deltaTime": 27,
        "running": true,
        "channel": 1,
        "type": "noteOff",
        "noteNumber": 69,
        "velocity": 0,
        "byte9": true
      },
      {
        "deltaTime": 9,
        "running": true,
        "channel": 1,
        "type": "noteOff",
        "noteNumber": 65,
        "velocity": 0,
        "byte9": true
      },
      {
        "deltaTime": 3,
        "running": true,
        "channel": 1,
        "type": "noteOff",
        "noteNumber": 62,
        "velocity": 0,
        "byte9": true
      },
      {
        "deltaTime": 21,
        "channel": 1,
        "type": "controller",
        "controllerType": 0,
        "value": 80
      },
      {
        "deltaTime": 0,
        "running": true,
        "channel": 1,
        "type": "controller",
        "controllerType": 32,
        "value": 0
      },
      {
        "deltaTime": 0,
        "channel": 1,
        "type": "programChange",
        "programNumber": 21
      },
      {
        "deltaTime": 0,
        "channel": 1,
        "type": "noteOn",
        "noteNumber": 50,
        "velocity": 72
      },
      {
        "deltaTime": 28,
        "running": true,
        "channel": 1,
        "type": "noteOff",
        "noteNumber": 50,
        "velocity": 0,
        "byte9": true
      },
      {
        "deltaTime": 92,
        "running": true,
        "channel": 1,
        "type": "noteOn",
        "noteNumber": 62,
        "velocity": 56
      },
      {
        "deltaTime": 0,
        "running": true,
        "channel": 1,
        "type": "noteOn",
        "noteNumber": 65,
        "velocity": 68
      },
      {
        "deltaTime": 0,
        "running": true,
        "channel": 1,
        "type": "noteOn",
        "noteNumber": 69,
        "velocity": 61
      },
      {
        "deltaTime": 19,
        "running": true,
        "channel": 1,
        "type": "noteOff",
        "noteNumber": 65,
        "velocity": 0,
        "byte9": true
      },
      {
        "deltaTime": 0,
        "running": true,
        "channel": 1,
        "type": "noteOff",
        "noteNumber": 69,
        "velocity": 0,
        "byte9": true
      },
      {
        "deltaTime": 4,
        "running": true,
        "channel": 1,
        "type": "noteOff",
        "noteNumber": 62,
        "velocity": 0,
        "byte9": true
      },
      {
        "deltaTime": 37,
        "running": true,
        "channel": 1,
        "type": "noteOn",
        "noteNumber": 62,
        "velocity": 53
      },
      {
        "deltaTime": 0,
        "running": true,
        "channel": 1,
        "type": "noteOn",
        "noteNumber": 65,
        "velocity": 68
      },
      {
        "deltaTime": 0,
        "running": true,
        "channel": 1,
        "type": "noteOn",
        "noteNumber": 69,
        "velocity": 62
      },
      {
        "deltaTime": 18,
        "running": true,
        "channel": 1,
        "type": "noteOff",
        "noteNumber": 69,
        "velocity": 0,
        "byte9": true
      },
      {
        "deltaTime": 2,
        "running": true,
        "channel": 1,
        "type": "noteOff",
        "noteNumber": 65,
        "velocity": 0,
        "byte9": true
      },
      {
        "deltaTime": 6,
        "running": true,
        "channel": 1,
        "type": "noteOff",
        "noteNumber": 62,
        "velocity": 0,
        "byte9": true
      },
      {
        "deltaTime": 34,
        "running": true,
        "channel": 1,
        "type": "noteOn",
        "noteNumber": 62,
        "velocity": 55
      },
      {
        "deltaTime": 0,
        "running": true,
        "channel": 1,
        "type": "noteOn",
        "noteNumber": 65,
        "velocity": 66
      },
      {
        "deltaTime": 0,
        "running": true,
        "channel": 1,
        "type": "noteOn",
        "noteNumber": 69,
        "velocity": 58
      },
      {
        "deltaTime": 20,
        "running": true,
        "channel": 1,
        "type": "noteOff",
        "noteNumber": 65,
        "velocity": 0,
        "byte9": true
      },
      {
        "deltaTime": 0,
        "running": true,
        "channel": 1,
        "type": "noteOff",
        "noteNumber": 69,
        "velocity": 0,
        "byte9": true
      },
      {
        "deltaTime": 4,
        "running": true,
        "channel": 1,
        "type": "noteOff",
        "noteNumber": 62,
        "velocity": 0,
        "byte9": true
      },
      {
        "deltaTime": 36,
        "running": true,
        "channel": 1,
        "type": "noteOn",
        "noteNumber": 62,
        "velocity": 58
      },
      {
        "deltaTime": 0,
        "running": true,
        "channel": 1,
        "type": "noteOn",
        "noteNumber": 65,
        "velocity": 71
      },
      {
        "deltaTime": 0,
        "running": true,
        "channel": 1,
        "type": "noteOn",
        "noteNumber": 69,
        "velocity": 62
      },
      {
        "deltaTime": 17,
        "running": true,
        "channel": 1,
        "type": "noteOff",
        "noteNumber": 69,
        "velocity": 0,
        "byte9": true
      },
      {
        "deltaTime": 2,
        "running": true,
        "channel": 1,
        "type": "noteOff",
        "noteNumber": 65,
        "velocity": 0,
        "byte9": true
      },
      {
        "deltaTime": 5,
        "running": true,
        "channel": 1,
        "type": "noteOff",
        "noteNumber": 62,
        "velocity": 0,
        "byte9": true
      },
      {
        "deltaTime": 36,
        "channel": 1,
        "type": "controller",
        "controllerType": 0,
        "value": 80
      },
      {
        "deltaTime": 0,
        "running": true,
        "channel": 1,
        "type": "controller",
        "controllerType": 32,
        "value": 0
      },
      {
        "deltaTime": 0,
        "channel": 1,
        "type": "programChange",
        "programNumber": 21
      },
      {
        "deltaTime": 0,
        "channel": 1,
        "type": "noteOn",
        "noteNumber": 50,
        "velocity": 72
      },
      {
        "deltaTime": 27,
        "running": true,
        "channel": 1,
        "type": "noteOff",
        "noteNumber": 50,
        "velocity": 0,
        "byte9": true
      },
      {
        "deltaTime": 93,
        "running": true,
        "channel": 1,
        "type": "noteOn",
        "noteNumber": 62,
        "velocity": 60
      },
      {
        "deltaTime": 0,
        "running": true,
        "channel": 1,
        "type": "noteOn",
        "noteNumber": 65,
        "velocity": 75
      },
      {
        "deltaTime": 0,
        "running": true,
        "channel": 1,
        "type": "noteOn",
        "noteNumber": 69,
        "velocity": 68
      },
      {
        "deltaTime": 19,
        "running": true,
        "channel": 1,
        "type": "noteOff",
        "noteNumber": 65,
        "velocity": 0,
        "byte9": true
      },
      {
        "deltaTime": 1,
        "running": true,
        "channel": 1,
        "type": "noteOff",
        "noteNumber": 69,
        "velocity": 0,
        "byte9": true
      },
      {
        "deltaTime": 5,
        "running": true,
        "channel": 1,
        "type": "noteOff",
        "noteNumber": 62,
        "velocity": 0,
        "byte9": true
      },
      {
        "deltaTime": 35,
        "running": true,
        "channel": 1,
        "type": "noteOn",
        "noteNumber": 62,
        "velocity": 61
      },
      {
        "deltaTime": 0,
        "running": true,
        "channel": 1,
        "type": "noteOn",
        "noteNumber": 65,
        "velocity": 81
      },
      {
        "deltaTime": 0,
        "running": true,
        "channel": 1,
        "type": "noteOn",
        "noteNumber": 69,
        "velocity": 77
      },
      {
        "deltaTime": 19,
        "running": true,
        "channel": 1,
        "type": "noteOff",
        "noteNumber": 65,
        "velocity": 0,
        "byte9": true
      },
      {
        "deltaTime": 0,
        "running": true,
        "channel": 1,
        "type": "noteOff",
        "noteNumber": 69,
        "velocity": 0,
        "byte9": true
      },
      {
        "deltaTime": 3,
        "running": true,
        "channel": 1,
        "type": "noteOff",
        "noteNumber": 62,
        "velocity": 0,
        "byte9": true
      },
      {
        "deltaTime": 38,
        "running": true,
        "channel": 1,
        "type": "noteOn",
        "noteNumber": 62,
        "velocity": 59
      },
      {
        "deltaTime": 0,
        "running": true,
        "channel": 1,
        "type": "noteOn",
        "noteNumber": 69,
        "velocity": 79
      },
      {
        "deltaTime": 0,
        "running": true,
        "channel": 1,
        "type": "noteOn",
        "noteNumber": 65,
        "velocity": 76
      },
      {
        "deltaTime": 19,
        "running": true,
        "channel": 1,
        "type": "noteOff",
        "noteNumber": 65,
        "velocity": 0,
        "byte9": true
      },
      {
        "deltaTime": 1,
        "running": true,
        "channel": 1,
        "type": "noteOff",
        "noteNumber": 69,
        "velocity": 0,
        "byte9": true
      },
      {
        "deltaTime": 5,
        "running": true,
        "channel": 1,
        "type": "noteOff",
        "noteNumber": 62,
        "velocity": 0,
        "byte9": true
      },
      {
        "deltaTime": 95,
        "channel": 1,
        "type": "controller",
        "controllerType": 0,
        "value": 80
      },
      {
        "deltaTime": 0,
        "running": true,
        "channel": 1,
        "type": "controller",
        "controllerType": 32,
        "value": 0
      },
      {
        "deltaTime": 0,
        "channel": 1,
        "type": "programChange",
        "programNumber": 21
      },
      {
        "deltaTime": 0,
        "channel": 1,
        "type": "noteOn",
        "noteNumber": 65,
        "velocity": 125
      },
      {
        "deltaTime": 0,
        "running": true,
        "channel": 1,
        "type": "noteOn",
        "noteNumber": 62,
        "velocity": 127
      },
      {
        "deltaTime": 153,
        "running": true,
        "channel": 1,
        "type": "noteOff",
        "noteNumber": 62,
        "velocity": 0,
        "byte9": true
      },
      {
        "deltaTime": 11,
        "running": true,
        "channel": 1,
        "type": "noteOff",
        "noteNumber": 65,
        "velocity": 0,
        "byte9": true
      },
      {
        "deltaTime": 76,
        "running": true,
        "channel": 1,
        "type": "noteOn",
        "noteNumber": 64,
        "velocity": 126
      },
      {
        "deltaTime": 0,
        "running": true,
        "channel": 1,
        "type": "noteOn",
        "noteNumber": 61,
        "velocity": 126
      },
      {
        "deltaTime": 20,
        "running": true,
        "channel": 1,
        "type": "noteOff",
        "noteNumber": 61,
        "velocity": 0,
        "byte9": true
      },
      {
        "deltaTime": 3,
        "running": true,
        "channel": 1,
        "type": "noteOff",
        "noteNumber": 64,
        "velocity": 0,
        "byte9": true
      },
      {
        "deltaTime": 91,
        "channel": 1,
        "type": "channelAftertouch",
        "amount": 4
      },
      {
        "deltaTime": 6,
        "channel": 1,
        "type": "controller",
        "controllerType": 0,
        "value": 80
      },
      {
        "deltaTime": 0,
        "running": true,
        "channel": 1,
        "type": "controller",
        "controllerType": 32,
        "value": 0
      },
      {
        "deltaTime": 0,
        "channel": 1,
        "type": "programChange",
        "programNumber": 21
      },
      {
        "deltaTime": 0,
        "channel": 1,
        "type": "noteOn",
        "noteNumber": 50,
        "velocity": 77
      },
      {
        "deltaTime": 15,
        "running": true,
        "channel": 1,
        "type": "noteOff",
        "noteNumber": 50,
        "velocity": 0,
        "byte9": true
      },
      {
        "deltaTime": 105,
        "running": true,
        "channel": 1,
        "type": "noteOn",
        "noteNumber": 62,
        "velocity": 61
      },
      {
        "deltaTime": 0,
        "running": true,
        "channel": 1,
        "type": "noteOn",
        "noteNumber": 65,
        "velocity": 76
      },
      {
        "deltaTime": 0,
        "running": true,
        "channel": 1,
        "type": "noteOn",
        "noteNumber": 69,
        "velocity": 64
      },
      {
        "deltaTime": 18,
        "running": true,
        "channel": 1,
        "type": "noteOff",
        "noteNumber": 65,
        "velocity": 0,
        "byte9": true
      },
      {
        "deltaTime": 1,
        "running": true,
        "channel": 1,
        "type": "noteOff",
        "noteNumber": 69,
        "velocity": 0,
        "byte9": true
      },
      {
        "deltaTime": 3,
        "running": true,
        "channel": 1,
        "type": "noteOff",
        "noteNumber": 62,
        "velocity": 0,
        "byte9": true
      },
      {
        "deltaTime": 38,
        "running": true,
        "channel": 1,
        "type": "noteOn",
        "noteNumber": 62,
        "velocity": 56
      },
      {
        "deltaTime": 0,
        "running": true,
        "channel": 1,
        "type": "noteOn",
        "noteNumber": 65,
        "velocity": 73
      },
      {
        "deltaTime": 0,
        "running": true,
        "channel": 1,
        "type": "noteOn",
        "noteNumber": 69,
        "velocity": 62
      },
      {
        "deltaTime": 17,
        "running": true,
        "channel": 1,
        "type": "noteOff",
        "noteNumber": 69,
        "velocity": 0,
        "byte9": true
      },
      {
        "deltaTime": 2,
        "running": true,
        "channel": 1,
        "type": "noteOff",
        "noteNumber": 65,
        "velocity": 0,
        "byte9": true
      },
      {
        "deltaTime": 3,
        "running": true,
        "channel": 1,
        "type": "noteOff",
        "noteNumber": 62,
        "velocity": 0,
        "byte9": true
      },
      {
        "deltaTime": 38,
        "running": true,
        "channel": 1,
        "type": "noteOn",
        "noteNumber": 62,
        "velocity": 63
      },
      {
        "deltaTime": 0,
        "running": true,
        "channel": 1,
        "type": "noteOn",
        "noteNumber": 65,
        "velocity": 82
      },
      {
        "deltaTime": 0,
        "running": true,
        "channel": 1,
        "type": "noteOn",
        "noteNumber": 69,
        "velocity": 72
      },
      {
        "deltaTime": 18,
        "running": true,
        "channel": 1,
        "type": "noteOff",
        "noteNumber": 69,
        "velocity": 0,
        "byte9": true
      },
      {
        "deltaTime": 2,
        "running": true,
        "channel": 1,
        "type": "noteOff",
        "noteNumber": 65,
        "velocity": 0,
        "byte9": true
      },
      {
        "deltaTime": 2,
        "running": true,
        "channel": 1,
        "type": "noteOff",
        "noteNumber": 62,
        "velocity": 0,
        "byte9": true
      },
      {
        "deltaTime": 38,
        "running": true,
        "channel": 1,
        "type": "noteOn",
        "noteNumber": 62,
        "velocity": 68
      },
      {
        "deltaTime": 0,
        "running": true,
        "channel": 1,
        "type": "noteOn",
        "noteNumber": 65,
        "velocity": 87
      },
      {
        "deltaTime": 0,
        "running": true,
        "channel": 1,
        "type": "noteOn",
        "noteNumber": 69,
        "velocity": 79
      },
      {
        "deltaTime": 18,
        "running": true,
        "channel": 1,
        "type": "noteOff",
        "noteNumber": 65,
        "velocity": 0,
        "byte9": true
      },
      {
        "deltaTime": 0,
        "running": true,
        "channel": 1,
        "type": "noteOff",
        "noteNumber": 69,
        "velocity": 0,
        "byte9": true
      },
      {
        "deltaTime": 4,
        "running": true,
        "channel": 1,
        "type": "noteOff",
        "noteNumber": 62,
        "velocity": 0,
        "byte9": true
      },
      {
        "deltaTime": 38,
        "running": true,
        "channel": 1,
        "type": "noteOn",
        "noteNumber": 50,
        "velocity": 84
      },
      {
        "deltaTime": 24,
        "running": true,
        "channel": 1,
        "type": "noteOff",
        "noteNumber": 50,
        "velocity": 0,
        "byte9": true
      },
      {
        "deltaTime": 96,
        "running": true,
        "channel": 1,
        "type": "noteOn",
        "noteNumber": 65,
        "velocity": 99
      },
      {
        "deltaTime": 0,
        "running": true,
        "channel": 1,
        "type": "noteOn",
        "noteNumber": 62,
        "velocity": 82
      },
      {
        "deltaTime": 0,
        "running": true,
        "channel": 1,
        "type": "noteOn",
        "noteNumber": 69,
        "velocity": 86
      },
      {
        "deltaTime": 15,
        "running": true,
        "channel": 1,
        "type": "noteOff",
        "noteNumber": 65,
        "velocity": 0,
        "byte9": true
      },
      {
        "deltaTime": 2,
        "running": true,
        "channel": 1,
        "type": "noteOff",
        "noteNumber": 69,
        "velocity": 0,
        "byte9": true
      },
      {
        "deltaTime": 1,
        "running": true,
        "channel": 1,
        "type": "noteOff",
        "noteNumber": 62,
        "velocity": 0,
        "byte9": true
      },
      {
        "deltaTime": 102,
        "running": true,
        "channel": 1,
        "type": "noteOn",
        "noteNumber": 62,
        "velocity": 77
      },
      {
        "deltaTime": 0,
        "running": true,
        "channel": 1,
        "type": "noteOn",
        "noteNumber": 65,
        "velocity": 99
      },
      {
        "deltaTime": 0,
        "running": true,
        "channel": 1,
        "type": "noteOn",
        "noteNumber": 69,
        "velocity": 95
      },
      {
        "deltaTime": 118,
        "running": true,
        "channel": 1,
        "type": "noteOff",
        "noteNumber": 65,
        "velocity": 0,
        "byte9": true
      },
      {
        "deltaTime": 1,
        "running": true,
        "channel": 1,
        "type": "noteOff",
        "noteNumber": 62,
        "velocity": 0,
        "byte9": true
      },
      {
        "deltaTime": 2,
        "running": true,
        "channel": 1,
        "type": "noteOff",
        "noteNumber": 69,
        "velocity": 0,
        "byte9": true
      },
      {
        "deltaTime": 359,
        "running": true,
        "channel": 1,
        "type": "noteOn",
        "noteNumber": 55,
        "velocity": 103
      },
      {
        "deltaTime": 27,
        "running": true,
        "channel": 1,
        "type": "noteOff",
        "noteNumber": 55,
        "velocity": 0,
        "byte9": true
      },
      {
        "deltaTime": 93,
        "running": true,
        "channel": 1,
        "type": "noteOn",
        "noteNumber": 70,
        "velocity": 53
      },
      {
        "deltaTime": 0,
        "running": true,
        "channel": 1,
        "type": "noteOn",
        "noteNumber": 62,
        "velocity": 46
      },
      {
        "deltaTime": 0,
        "running": true,
        "channel": 1,
        "type": "noteOn",
        "noteNumber": 67,
        "velocity": 51
      },
      {
        "deltaTime": 11,
        "running": true,
        "channel": 1,
        "type": "noteOff",
        "noteNumber": 67,
        "velocity": 0,
        "byte9": true
      },
      {
        "deltaTime": 7,
        "running": true,
        "channel": 1,
        "type": "noteOff",
        "noteNumber": 70,
        "velocity": 0,
        "byte9": true
      },
      {
        "deltaTime": 1,
        "running": true,
        "channel": 1,
        "type": "noteOff",
        "noteNumber": 62,
        "velocity": 0,
        "byte9": true
      },
      {
        "deltaTime": 41,
        "running": true,
        "channel": 1,
        "type": "noteOn",
        "noteNumber": 62,
        "velocity": 50
      },
      {
        "deltaTime": 0,
        "running": true,
        "channel": 1,
        "type": "noteOn",
        "noteNumber": 70,
        "velocity": 52
      },
      {
        "deltaTime": 0,
        "running": true,
        "channel": 1,
        "type": "noteOn",
        "noteNumber": 67,
        "velocity": 60
      },
      {
        "deltaTime": 14,
        "running": true,
        "channel": 1,
        "type": "noteOff",
        "noteNumber": 70,
        "velocity": 0,
        "byte9": true
      },
      {
        "deltaTime": 0,
        "running": true,
        "channel": 1,
        "type": "noteOff",
        "noteNumber": 67,
        "velocity": 0,
        "byte9": true
      },
      {
        "deltaTime": 9,
        "running": true,
        "channel": 1,
        "type": "noteOff",
        "noteNumber": 62,
        "velocity": 0,
        "byte9": true
      },
      {
        "deltaTime": 37,
        "running": true,
        "channel": 1,
        "type": "noteOn",
        "noteNumber": 67,
        "velocity": 86
      },
      {
        "deltaTime": 0,
        "running": true,
        "channel": 1,
        "type": "noteOn",
        "noteNumber": 62,
        "velocity": 67
      },
      {
        "deltaTime": 0,
        "running": true,
        "channel": 1,
        "type": "noteOn",
        "noteNumber": 70,
        "velocity": 85
      },
      {
        "deltaTime": 16,
        "running": true,
        "channel": 1,
        "type": "noteOff",
        "noteNumber": 70,
        "velocity": 0,
        "byte9": true
      },
      {
        "deltaTime": 1,
        "running": true,
        "channel": 1,
        "type": "noteOff",
        "noteNumber": 67,
        "velocity": 0,
        "byte9": true
      },
      {
        "deltaTime": 4,
        "running": true,
        "channel": 1,
        "type": "noteOff",
        "noteNumber": 62,
        "velocity": 0,
        "byte9": true
      },
      {
        "deltaTime": 39,
        "running": true,
        "channel": 1,
        "type": "noteOn",
        "noteNumber": 62,
        "velocity": 66
      },
      {
        "deltaTime": 0,
        "running": true,
        "channel": 1,
        "type": "noteOn",
        "noteNumber": 67,
        "velocity": 90
      },
      {
        "deltaTime": 0,
        "running": true,
        "channel": 1,
        "type": "noteOn",
        "noteNumber": 70,
        "velocity": 94
      },
      {
        "deltaTime": 15,
        "running": true,
        "channel": 1,
        "type": "noteOff",
        "noteNumber": 70,
        "velocity": 0,
        "byte9": true
      },
      {
        "deltaTime": 3,
        "running": true,
        "channel": 1,
        "type": "noteOff",
        "noteNumber": 67,
        "velocity": 0,
        "byte9": true
      },
      {
        "deltaTime": 3,
        "running": true,
        "channel": 1,
        "type": "noteOff",
        "noteNumber": 62,
        "velocity": 0,
        "byte9": true
      },
      {
        "deltaTime": 39,
        "running": true,
        "channel": 1,
        "type": "noteOn",
        "noteNumber": 55,
        "velocity": 75
      },
      {
        "deltaTime": 0,
        "running": true,
        "channel": 1,
        "type": "noteOn",
        "noteNumber": 70,
        "velocity": 102
      },
      {
        "deltaTime": 0,
        "running": true,
        "channel": 1,
        "type": "noteOn",
        "noteNumber": 62,
        "velocity": 76
      },
      {
        "deltaTime": 0,
        "running": true,
        "channel": 1,
        "type": "noteOn",
        "noteNumber": 67,
        "velocity": 93
      },
      {
        "deltaTime": 11,
        "running": true,
        "channel": 1,
        "type": "noteOff",
        "noteNumber": 67,
        "velocity": 0,
        "byte9": true
      },
      {
        "deltaTime": 2,
        "running": true,
        "channel": 1,
        "type": "noteOff",
        "noteNumber": 70,
        "velocity": 0,
        "byte9": true
      },
      {
        "deltaTime": 1,
        "running": true,
        "channel": 1,
        "type": "noteOff",
        "noteNumber": 62,
        "velocity": 0,
        "byte9": true
      },
      {
        "deltaTime": 6,
        "running": true,
        "channel": 1,
        "type": "noteOff",
        "noteNumber": 55,
        "velocity": 0,
        "byte9": true
      },
      {
        "deltaTime": 100,
        "running": true,
        "channel": 1,
        "type": "noteOn",
        "noteNumber": 70,
        "velocity": 125
      },
      {
        "deltaTime": 0,
        "running": true,
        "channel": 1,
        "type": "noteOn",
        "noteNumber": 67,
        "velocity": 121
      },
      {
        "deltaTime": 0,
        "running": true,
        "channel": 1,
        "type": "noteOn",
        "noteNumber": 62,
        "velocity": 100
      },
      {
        "deltaTime": 120,
        "running": true,
        "channel": 1,
        "type": "noteOn",
        "noteNumber": 55,
        "velocity": 113
      },
      {
        "deltaTime": 10,
        "running": true,
        "channel": 1,
        "type": "noteOff",
        "noteNumber": 67,
        "velocity": 0,
        "byte9": true
      },
      {
        "deltaTime": 0,
        "running": true,
        "channel": 1,
        "type": "noteOff",
        "noteNumber": 62,
        "velocity": 0,
        "byte9": true
      },
      {
        "deltaTime": 4,
        "running": true,
        "channel": 1,
        "type": "noteOff",
        "noteNumber": 70,
        "velocity": 0,
        "byte9": true
      },
      {
        "deltaTime": 9,
        "running": true,
        "channel": 1,
        "type": "noteOff",
        "noteNumber": 55,
        "velocity": 0,
        "byte9": true
      },
      {
        "deltaTime": 97,
        "running": true,
        "channel": 1,
        "type": "noteOn",
        "noteNumber": 70,
        "velocity": 76
      },
      {
        "deltaTime": 0,
        "running": true,
        "channel": 1,
        "type": "noteOn",
        "noteNumber": 67,
        "velocity": 71
      },
      {
        "deltaTime": 0,
        "running": true,
        "channel": 1,
        "type": "noteOn",
        "noteNumber": 62,
        "velocity": 54
      },
      {
        "deltaTime": 12,
        "running": true,
        "channel": 1,
        "type": "noteOff",
        "noteNumber": 67,
        "velocity": 0,
        "byte9": true
      },
      {
        "deltaTime": 0,
        "running": true,
        "channel": 1,
        "type": "noteOff",
        "noteNumber": 62,
        "velocity": 0,
        "byte9": true
      },
      {
        "deltaTime": 5,
        "running": true,
        "channel": 1,
        "type": "noteOff",
        "noteNumber": 70,
        "velocity": 0,
        "byte9": true
      },
      {
        "deltaTime": 103,
        "running": true,
        "channel": 1,
        "type": "noteOn",
        "noteNumber": 70,
        "velocity": 40
      },
      {
        "deltaTime": 0,
        "running": true,
        "channel": 1,
        "type": "noteOn",
        "noteNumber": 67,
        "velocity": 36
      },
      {
        "deltaTime": 0,
        "running": true,
        "channel": 1,
        "type": "noteOn",
        "noteNumber": 62,
        "velocity": 18
      },
      {
        "deltaTime": 11,
        "running": true,
        "channel": 1,
        "type": "noteOff",
        "noteNumber": 62,
        "velocity": 0,
        "byte9": true
      },
      {
        "deltaTime": 3,
        "running": true,
        "channel": 1,
        "type": "noteOff",
        "noteNumber": 67,
        "velocity": 0,
        "byte9": true
      },
      {
        "deltaTime": 1,
        "running": true,
        "channel": 1,
        "type": "noteOff",
        "noteNumber": 70,
        "velocity": 0,
        "byte9": true
      },
      {
        "deltaTime": 45,
        "running": true,
        "channel": 1,
        "type": "noteOn",
        "noteNumber": 67,
        "velocity": 58
      },
      {
        "deltaTime": 0,
        "running": true,
        "channel": 1,
        "type": "noteOn",
        "noteNumber": 70,
        "velocity": 59
      },
      {
        "deltaTime": 0,
        "running": true,
        "channel": 1,
        "type": "noteOn",
        "noteNumber": 62,
        "velocity": 40
      },
      {
        "deltaTime": 16,
        "running": true,
        "channel": 1,
        "type": "noteOff",
        "noteNumber": 70,
        "velocity": 0,
        "byte9": true
      },
      {
        "deltaTime": 1,
        "running": true,
        "channel": 1,
        "type": "noteOff",
        "noteNumber": 67,
        "velocity": 0,
        "byte9": true
      },
      {
        "deltaTime": 1,
        "running": true,
        "channel": 1,
        "type": "noteOff",
        "noteNumber": 62,
        "velocity": 0,
        "byte9": true
      },
      {
        "deltaTime": 42,
        "running": true,
        "channel": 1,
        "type": "noteOn",
        "noteNumber": 62,
        "velocity": 69
      },
      {
        "deltaTime": 0,
        "running": true,
        "channel": 1,
        "type": "noteOn",
        "noteNumber": 70,
        "velocity": 82
      },
      {
        "deltaTime": 0,
        "running": true,
        "channel": 1,
        "type": "noteOn",
        "noteNumber": 67,
        "velocity": 72
      },
      {
        "deltaTime": 13,
        "running": true,
        "channel": 1,
        "type": "noteOff",
        "noteNumber": 67,
        "velocity": 0,
        "byte9": true
      },
      {
        "deltaTime": 4,
        "running": true,
        "channel": 1,
        "type": "noteOff",
        "noteNumber": 70,
        "velocity": 0,
        "byte9": true
      },
      {
        "deltaTime": 5,
        "running": true,
        "channel": 1,
        "type": "noteOff",
        "noteNumber": 62,
        "velocity": 0,
        "byte9": true
      },
      {
        "deltaTime": 38,
        "running": true,
        "channel": 1,
        "type": "noteOn",
        "noteNumber": 70,
        "velocity": 90
      },
      {
        "deltaTime": 0,
        "running": true,
        "channel": 1,
        "type": "noteOn",
        "noteNumber": 62,
        "velocity": 66
      },
      {
        "deltaTime": 0,
        "running": true,
        "channel": 1,
        "type": "noteOn",
        "noteNumber": 67,
        "velocity": 77
      },
      {
        "deltaTime": 14,
        "running": true,
        "channel": 1,
        "type": "noteOff",
        "noteNumber": 67,
        "velocity": 0,
        "byte9": true
      },
      {
        "deltaTime": 5,
        "running": true,
        "channel": 1,
        "type": "noteOff",
        "noteNumber": 70,
        "velocity": 0,
        "byte9": true
      },
      {
        "deltaTime": 3,
        "running": true,
        "channel": 1,
        "type": "noteOff",
        "noteNumber": 62,
        "velocity": 0,
        "byte9": true
      },
      {
        "deltaTime": 38,
        "running": true,
        "channel": 1,
        "type": "noteOn",
        "noteNumber": 70,
        "velocity": 102
      },
      {
        "deltaTime": 0,
        "running": true,
        "channel": 1,
        "type": "noteOn",
        "noteNumber": 62,
        "velocity": 81
      },
      {
        "deltaTime": 0,
        "running": true,
        "channel": 1,
        "type": "noteOn",
        "noteNumber": 67,
        "velocity": 93
      },
      {
        "deltaTime": 14,
        "running": true,
        "channel": 1,
        "type": "noteOff",
        "noteNumber": 67,
        "velocity": 0,
        "byte9": true
      },
      {
        "deltaTime": 2,
        "running": true,
        "channel": 1,
        "type": "noteOff",
        "noteNumber": 70,
        "velocity": 0,
        "byte9": true
      },
      {
        "deltaTime": 3,
        "running": true,
        "channel": 1,
        "type": "noteOff",
        "noteNumber": 62,
        "velocity": 0,
        "byte9": true
      },
      {
        "deltaTime": 101,
        "running": true,
        "channel": 1,
        "type": "noteOn",
        "noteNumber": 70,
        "velocity": 126
      },
      {
        "deltaTime": 0,
        "running": true,
        "channel": 1,
        "type": "noteOn",
        "noteNumber": 67,
        "velocity": 125
      },
      {
        "deltaTime": 0,
        "running": true,
        "channel": 1,
        "type": "noteOn",
        "noteNumber": 62,
        "velocity": 109
      },
      {
        "deltaTime": 120,
        "running": true,
        "channel": 1,
        "type": "noteOn",
        "noteNumber": 50,
        "velocity": 109
      },
      {
        "deltaTime": 7,
        "running": true,
        "channel": 1,
        "type": "noteOff",
        "noteNumber": 67,
        "velocity": 0,
        "byte9": true
      },
      {
        "deltaTime": 3,
        "running": true,
        "channel": 1,
        "type": "noteOff",
        "noteNumber": 70,
        "velocity": 0,
        "byte9": true
      },
      {
        "deltaTime": 2,
        "running": true,
        "channel": 1,
        "type": "noteOff",
        "noteNumber": 62,
        "velocity": 0,
        "byte9": true
      },
      {
        "deltaTime": 6,
        "running": true,
        "channel": 1,
        "type": "noteOff",
        "noteNumber": 50,
        "velocity": 0,
        "byte9": true
      },
      {
        "deltaTime": 102,
        "running": true,
        "channel": 1,
        "type": "noteOn",
        "noteNumber": 53,
        "velocity": 105
      },
      {
        "deltaTime": 19,
        "running": true,
        "channel": 1,
        "type": "noteOff",
        "noteNumber": 53,
        "velocity": 0,
        "byte9": true
      },
      {
        "deltaTime": 101,
        "running": true,
        "channel": 1,
        "type": "noteOn",
        "noteNumber": 62,
        "velocity": 51
      },
      {
        "deltaTime": 0,
        "running": true,
        "channel": 1,
        "type": "noteOn",
        "noteNumber": 65,
        "velocity": 43
      },
      {
        "deltaTime": 0,
        "running": true,
        "channel": 1,
        "type": "noteOn",
        "noteNumber": 69,
        "velocity": 46
      },
      {
        "deltaTime": 11,
        "running": true,
        "channel": 1,
        "type": "noteOff",
        "noteNumber": 65,
        "velocity": 0,
        "byte9": true
      },
      {
        "deltaTime": 0,
        "running": true,
        "channel": 1,
        "type": "noteOff",
        "noteNumber": 69,
        "velocity": 0,
        "byte9": true
      },
      {
        "deltaTime": 9,
        "running": true,
        "channel": 1,
        "type": "noteOff",
        "noteNumber": 62,
        "velocity": 0,
        "byte9": true
      },
      {
        "deltaTime": 40,
        "running": true,
        "channel": 1,
        "type": "noteOn",
        "noteNumber": 62,
        "velocity": 45
      },
      {
        "deltaTime": 0,
        "running": true,
        "channel": 1,
        "type": "noteOn",
        "noteNumber": 65,
        "velocity": 59
      },
      {
        "deltaTime": 0,
        "running": true,
        "channel": 1,
        "type": "noteOn",
        "noteNumber": 69,
        "velocity": 50
      },
      {
        "deltaTime": 13,
        "running": true,
        "channel": 1,
        "type": "noteOff",
        "noteNumber": 69,
        "velocity": 0,
        "byte9": true
      },
      {
        "deltaTime": 3,
        "running": true,
        "channel": 1,
        "type": "noteOff",
        "noteNumber": 65,
        "velocity": 0,
        "byte9": true
      },
      {
        "deltaTime": 2,
        "running": true,
        "channel": 1,
        "type": "noteOff",
        "noteNumber": 62,
        "velocity": 0,
        "byte9": true
      },
      {
        "deltaTime": 42,
        "running": true,
        "channel": 1,
        "type": "noteOn",
        "noteNumber": 65,
        "velocity": 76
      },
      {
        "deltaTime": 0,
        "running": true,
        "channel": 1,
        "type": "noteOn",
        "noteNumber": 62,
        "velocity": 56
      },
      {
        "deltaTime": 0,
        "running": true,
        "channel": 1,
        "type": "noteOn",
        "noteNumber": 69,
        "velocity": 65
      },
      {
        "deltaTime": 18,
        "running": true,
        "channel": 1,
        "type": "noteOff",
        "noteNumber": 69,
        "velocity": 0,
        "byte9": true
      },
      {
        "deltaTime": 1,
        "running": true,
        "channel": 1,
        "type": "noteOff",
        "noteNumber": 62,
        "velocity": 0,
        "byte9": true
      },
      {
        "deltaTime": 1,
        "running": true,
        "channel": 1,
        "type": "noteOff",
        "noteNumber": 65,
        "velocity": 0,
        "byte9": true
      },
      {
        "deltaTime": 40,
        "running": true,
        "channel": 1,
        "type": "noteOn",
        "noteNumber": 69,
        "velocity": 62
      },
      {
        "deltaTime": 0,
        "running": true,
        "channel": 1,
        "type": "noteOn",
        "noteNumber": 65,
        "velocity": 59
      },
      {
        "deltaTime": 10,
        "running": true,
        "channel": 1,
        "type": "noteOff",
        "noteNumber": 65,
        "velocity": 0,
        "byte9": true
      },
      {
        "deltaTime": 3,
        "running": true,
        "channel": 1,
        "type": "noteOff",
        "noteNumber": 69,
        "velocity": 0,
        "byte9": true
      },
      {
        "deltaTime": 47,
        "running": true,
        "channel": 1,
        "type": "noteOn",
        "noteNumber": 53,
        "velocity": 80
      },
      {
        "deltaTime": 21,
        "running": true,
        "channel": 1,
        "type": "noteOff",
        "noteNumber": 53,
        "velocity": 0,
        "byte9": true
      },
      {
        "deltaTime": 99,
        "running": true,
        "channel": 1,
        "type": "noteOn",
        "noteNumber": 65,
        "velocity": 86
      },
      {
        "deltaTime": 0,
        "running": true,
        "channel": 1,
        "type": "noteOn",
        "noteNumber": 62,
        "velocity": 74
      },
      {
        "deltaTime": 0,
        "running": true,
        "channel": 1,
        "type": "noteOn",
        "noteNumber": 69,
        "velocity": 81
      },
      {
        "deltaTime": 16,
        "running": true,
        "channel": 1,
        "type": "noteOff",
        "noteNumber": 65,
        "velocity": 0,
        "byte9": true
      },
      {
        "deltaTime": 0,
        "running": true,
        "channel": 1,
        "type": "noteOff",
        "noteNumber": 69,
        "velocity": 0,
        "byte9": true
      },
      {
        "deltaTime": 2,
        "running": true,
        "channel": 1,
        "type": "noteOff",
        "noteNumber": 62,
        "velocity": 0,
        "byte9": true
      },
      {
        "deltaTime": 102,
        "running": true,
        "channel": 1,
        "type": "noteOn",
        "noteNumber": 65,
        "velocity": 127
      },
      {
        "deltaTime": 0,
        "running": true,
        "channel": 1,
        "type": "noteOn",
        "noteNumber": 69,
        "velocity": 118
      },
      {
        "deltaTime": 0,
        "running": true,
        "channel": 1,
        "type": "noteOn",
        "noteNumber": 62,
        "velocity": 107
      },
      {
        "deltaTime": 120,
        "running": true,
        "channel": 1,
        "type": "noteOn",
        "noteNumber": 50,
        "velocity": 90
      },
      {
        "deltaTime": 14,
        "running": true,
        "channel": 1,
        "type": "noteOff",
        "noteNumber": 65,
        "velocity": 0,
        "byte9": true
      },
      {
        "deltaTime": 2,
        "running": true,
        "channel": 1,
        "type": "noteOff",
        "noteNumber": 69,
        "velocity": 0,
        "byte9": true
      },
      {
        "deltaTime": 1,
        "running": true,
        "channel": 1,
        "type": "noteOff",
        "noteNumber": 62,
        "velocity": 0,
        "byte9": true
      },
      {
        "deltaTime": 8,
        "running": true,
        "channel": 1,
        "type": "noteOff",
        "noteNumber": 50,
        "velocity": 0,
        "byte9": true
      },
      {
        "deltaTime": 95,
        "running": true,
        "channel": 1,
        "type": "noteOn",
        "noteNumber": 69,
        "velocity": 47
      },
      {
        "deltaTime": 15,
        "running": true,
        "channel": 1,
        "type": "noteOff",
        "noteNumber": 69,
        "velocity": 0,
        "byte9": true
      },
      {
        "deltaTime": 45,
        "running": true,
        "channel": 1,
        "type": "noteOn",
        "noteNumber": 65,
        "velocity": 63
      },
      {
        "deltaTime": 0,
        "running": true,
        "channel": 1,
        "type": "noteOn",
        "noteNumber": 62,
        "velocity": 52
      },
      {
        "deltaTime": 0,
        "running": true,
        "channel": 1,
        "type": "noteOn",
        "noteNumber": 69,
        "velocity": 57
      },
      {
        "deltaTime": 18,
        "running": true,
        "channel": 1,
        "type": "noteOff",
        "noteNumber": 69,
        "velocity": 0,
        "byte9": true
      },
      {
        "deltaTime": 4,
        "running": true,
        "channel": 1,
        "type": "noteOff",
        "noteNumber": 65,
        "velocity": 0,
        "byte9": true
      },
      {
        "deltaTime": 1,
        "running": true,
        "channel": 1,
        "type": "noteOff",
        "noteNumber": 62,
        "velocity": 0,
        "byte9": true
      },
      {
        "deltaTime": 37,
        "running": true,
        "channel": 1,
        "type": "noteOn",
        "noteNumber": 65,
        "velocity": 73
      },
      {
        "deltaTime": 0,
        "running": true,
        "channel": 1,
        "type": "noteOn",
        "noteNumber": 62,
        "velocity": 54
      },
      {
        "deltaTime": 0,
        "running": true,
        "channel": 1,
        "type": "noteOn",
        "noteNumber": 69,
        "velocity": 62
      },
      {
        "deltaTime": 17,
        "running": true,
        "channel": 1,
        "type": "noteOff",
        "noteNumber": 69,
        "velocity": 0,
        "byte9": true
      },
      {
        "deltaTime": 2,
        "running": true,
        "channel": 1,
        "type": "noteOff",
        "noteNumber": 65,
        "velocity": 0,
        "byte9": true
      },
      {
        "deltaTime": 2,
        "running": true,
        "channel": 1,
        "type": "noteOff",
        "noteNumber": 62,
        "velocity": 0,
        "byte9": true
      },
      {
        "deltaTime": 39,
        "running": true,
        "channel": 1,
        "type": "noteOn",
        "noteNumber": 65,
        "velocity": 79
      },
      {
        "deltaTime": 0,
        "running": true,
        "channel": 1,
        "type": "noteOn",
        "noteNumber": 62,
        "velocity": 55
      },
      {
        "deltaTime": 0,
        "running": true,
        "channel": 1,
        "type": "noteOn",
        "noteNumber": 69,
        "velocity": 70
      },
      {
        "deltaTime": 16,
        "running": true,
        "channel": 1,
        "type": "noteOff",
        "noteNumber": 62,
        "velocity": 0,
        "byte9": true
      },
      {
        "deltaTime": 0,
        "running": true,
        "channel": 1,
        "type": "noteOff",
        "noteNumber": 69,
        "velocity": 0,
        "byte9": true
      },
      {
        "deltaTime": 2,
        "running": true,
        "channel": 1,
        "type": "noteOff",
        "noteNumber": 65,
        "velocity": 0,
        "byte9": true
      },
      {
        "deltaTime": 42,
        "running": true,
        "channel": 1,
        "type": "noteOn",
        "noteNumber": 50,
        "velocity": 62
      },
      {
        "deltaTime": 25,
        "running": true,
        "channel": 1,
        "type": "noteOff",
        "noteNumber": 50,
        "velocity": 0,
        "byte9": true
      },
      {
        "deltaTime": 95,
        "running": true,
        "channel": 1,
        "type": "noteOn",
        "noteNumber": 62,
        "velocity": 67
      },
      {
        "deltaTime": 0,
        "running": true,
        "channel": 1,
        "type": "noteOn",
        "noteNumber": 65,
        "velocity": 81
      },
      {
        "deltaTime": 0,
        "running": true,
        "channel": 1,
        "type": "noteOn",
        "noteNumber": 69,
        "velocity": 75
      },
      {
        "deltaTime": 16,
        "running": true,
        "channel": 1,
        "type": "noteOff",
        "noteNumber": 65,
        "velocity": 0,
        "byte9": true
      },
      {
        "deltaTime": 0,
        "running": true,
        "channel": 1,
        "type": "noteOff",
        "noteNumber": 69,
        "velocity": 0,
        "byte9": true
      },
      {
        "deltaTime": 3,
        "running": true,
        "channel": 1,
        "type": "noteOff",
        "noteNumber": 62,
        "velocity": 0,
        "byte9": true
      },
      {
        "deltaTime": 101,
        "running": true,
        "channel": 1,
        "type": "noteOn",
        "noteNumber": 65,
        "velocity": 103
      },
      {
        "deltaTime": 0,
        "running": true,
        "channel": 1,
        "type": "noteOn",
        "noteNumber": 62,
        "velocity": 87
      },
      {
        "deltaTime": 0,
        "running": true,
        "channel": 1,
        "type": "noteOn",
        "noteNumber": 69,
        "velocity": 96
      },
      {
        "deltaTime": 120,
        "running": true,
        "channel": 1,
        "type": "noteOn",
        "noteNumber": 49,
        "velocity": 123
      },
      {
        "deltaTime": 3,
        "running": true,
        "channel": 1,
        "type": "noteOff",
        "noteNumber": 65,
        "velocity": 0,
        "byte9": true
      },
      {
        "deltaTime": 0,
        "running": true,
        "channel": 1,
        "type": "noteOff",
        "noteNumber": 69,
        "velocity": 0,
        "byte9": true
      },
      {
        "deltaTime": 1,
        "running": true,
        "channel": 1,
        "type": "noteOff",
        "noteNumber": 62,
        "velocity": 0,
        "byte9": true
      },
      {
        "deltaTime": 14,
        "running": true,
        "channel": 1,
        "type": "noteOff",
        "noteNumber": 49,
        "velocity": 0,
        "byte9": true
      },
      {
        "deltaTime": 102,
        "running": true,
        "channel": 1,
        "type": "noteOn",
        "noteNumber": 67,
        "velocity": 62
      },
      {
        "deltaTime": 0,
        "running": true,
        "channel": 1,
        "type": "noteOn",
        "noteNumber": 64,
        "velocity": 59
      },
      {
        "deltaTime": 18,
        "running": true,
        "channel": 1,
        "type": "noteOff",
        "noteNumber": 67,
        "velocity": 0,
        "byte9": true
      },
      {
        "deltaTime": 0,
        "running": true,
        "channel": 1,
        "type": "noteOff",
        "noteNumber": 64,
        "velocity": 0,
        "byte9": true
      },
      {
        "deltaTime": 42,
        "running": true,
        "channel": 1,
        "type": "noteOn",
        "noteNumber": 64,
        "velocity": 63
      },
      {
        "deltaTime": 0,
        "running": true,
        "channel": 1,
        "type": "noteOn",
        "noteNumber": 67,
        "velocity": 59
      },
      {
        "deltaTime": 17,
        "running": true,
        "channel": 1,
        "type": "noteOff",
        "noteNumber": 67,
        "velocity": 0,
        "byte9": true
      },
      {
        "deltaTime": 4,
        "running": true,
        "channel": 1,
        "type": "noteOff",
        "noteNumber": 64,
        "velocity": 0,
        "byte9": true
      },
      {
        "deltaTime": 39,
        "running": true,
        "channel": 1,
        "type": "noteOn",
        "noteNumber": 64,
        "velocity": 77
      },
      {
        "deltaTime": 0,
        "running": true,
        "channel": 1,
        "type": "noteOn",
        "noteNumber": 67,
        "velocity": 70
      },
      {
        "deltaTime": 17,
        "running": true,
        "channel": 1,
        "type": "noteOff",
        "noteNumber": 67,
        "velocity": 0,
        "byte9": true
      },
      {
        "deltaTime": 4,
        "running": true,
        "channel": 1,
        "type": "noteOff",
        "noteNumber": 64,
        "velocity": 0,
        "byte9": true
      },
      {
        "deltaTime": 39,
        "running": true,
        "channel": 1,
        "type": "noteOn",
        "noteNumber": 64,
        "velocity": 84
      },
      {
        "deltaTime": 0,
        "running": true,
        "channel": 1,
        "type": "noteOn",
        "noteNumber": 67,
        "velocity": 76
      },
      {
        "deltaTime": 18,
        "running": true,
        "channel": 1,
        "type": "noteOff",
        "noteNumber": 67,
        "velocity": 0,
        "byte9": true
      },
      {
        "deltaTime": 6,
        "running": true,
        "channel": 1,
        "type": "noteOff",
        "noteNumber": 64,
        "velocity": 0,
        "byte9": true
      },
      {
        "deltaTime": 36,
        "running": true,
        "channel": 1,
        "type": "noteOn",
        "noteNumber": 49,
        "velocity": 123
      },
      {
        "deltaTime": 21,
        "running": true,
        "channel": 1,
        "type": "noteOff",
        "noteNumber": 49,
        "velocity": 0,
        "byte9": true
      },
      {
        "deltaTime": 99,
        "running": true,
        "channel": 1,
        "type": "noteOn",
        "noteNumber": 64,
        "velocity": 66
      },
      {
        "deltaTime": 0,
        "running": true,
        "channel": 1,
        "type": "noteOn",
        "noteNumber": 67,
        "velocity": 62
      },
      {
        "deltaTime": 14,
        "running": true,
        "channel": 1,
        "type": "noteOff",
        "noteNumber": 64,
        "velocity": 0,
        "byte9": true
      },
      {
        "deltaTime": 0,
        "running": true,
        "channel": 1,
        "type": "noteOff",
        "noteNumber": 67,
        "velocity": 0,
        "byte9": true
      },
      {
        "deltaTime": 106,
        "running": true,
        "channel": 1,
        "type": "noteOn",
        "noteNumber": 64,
        "velocity": 111
      },
      {
        "deltaTime": 0,
        "running": true,
        "channel": 1,
        "type": "noteOn",
        "noteNumber": 67,
        "velocity": 107
      },
      {
        "deltaTime": 120,
        "running": true,
        "channel": 1,
        "type": "noteOn",
        "noteNumber": 49,
        "velocity": 117
      },
      {
        "deltaTime": 10,
        "running": true,
        "channel": 1,
        "type": "noteOff",
        "noteNumber": 64,
        "velocity": 0,
        "byte9": true
      },
      {
        "deltaTime": 1,
        "running": true,
        "channel": 1,
        "type": "noteOff",
        "noteNumber": 67,
        "velocity": 0,
        "byte9": true
      },
      {
        "deltaTime": 10,
        "running": true,
        "channel": 1,
        "type": "noteOff",
        "noteNumber": 49,
        "velocity": 0,
        "byte9": true
      },
      {
        "deltaTime": 99,
        "running": true,
        "channel": 1,
        "type": "noteOn",
        "noteNumber": 64,
        "velocity": 55
      },
      {
        "deltaTime": 0,
        "running": true,
        "channel": 1,
        "type": "noteOn",
        "noteNumber": 67,
        "velocity": 56
      },
      {
        "deltaTime": 14,
        "running": true,
        "channel": 1,
        "type": "noteOff",
        "noteNumber": 64,
        "velocity": 0,
        "byte9": true
      },
      {
        "deltaTime": 2,
        "running": true,
        "channel": 1,
        "type": "noteOff",
        "noteNumber": 67,
        "velocity": 0,
        "byte9": true
      },
      {
        "deltaTime": 44,
        "running": true,
        "channel": 1,
        "type": "noteOn",
        "noteNumber": 64,
        "velocity": 63
      },
      {
        "deltaTime": 0,
        "running": true,
        "channel": 1,
        "type": "noteOn",
        "noteNumber": 67,
        "velocity": 62
      },
      {
        "deltaTime": 18,
        "running": true,
        "channel": 1,
        "type": "noteOff",
        "noteNumber": 67,
        "velocity": 0,
        "byte9": true
      },
      {
        "deltaTime": 1,
        "running": true,
        "channel": 1,
        "type": "noteOff",
        "noteNumber": 64,
        "velocity": 0,
        "byte9": true
      },
      {
        "deltaTime": 41,
        "running": true,
        "channel": 1,
        "type": "noteOn",
        "noteNumber": 64,
        "velocity": 79
      },
      {
        "deltaTime": 0,
        "running": true,
        "channel": 1,
        "type": "noteOn",
        "noteNumber": 67,
        "velocity": 72
      },
      {
        "deltaTime": 119,
        "running": true,
        "channel": 1,
        "type": "noteOff",
        "noteNumber": 64,
        "velocity": 0,
        "byte9": true
      },
      {
        "deltaTime": 1,
        "running": true,
        "channel": 1,
        "type": "noteOn",
        "noteNumber": 65,
        "velocity": 79
      },
      {
        "deltaTime": 0,
        "running": true,
        "channel": 1,
        "type": "noteOn",
        "noteNumber": 49,
        "velocity": 40
      },
      {
        "deltaTime": 5,
        "running": true,
        "channel": 1,
        "type": "noteOff",
        "noteNumber": 67,
        "velocity": 0,
        "byte9": true
      },
      {
        "deltaTime": 5,
        "running": true,
        "channel": 1,
        "type": "noteOff",
        "noteNumber": 49,
        "velocity": 0,
        "byte9": true
      },
      {
        "deltaTime": 12,
        "running": true,
        "channel": 1,
        "type": "noteOff",
        "noteNumber": 65,
        "velocity": 0,
        "byte9": true
      },
      {
        "deltaTime": 98,
        "running": true,
        "channel": 1,
        "type": "noteOn",
        "noteNumber": 69,
        "velocity": 85
      },
      {
        "deltaTime": 116,
        "running": true,
        "channel": 1,
        "type": "noteOff",
        "noteNumber": 69,
        "velocity": 0,
        "byte9": true
      },
      {
        "deltaTime": 4,
        "running": true,
        "channel": 1,
        "type": "noteOn",
        "noteNumber": 67,
        "velocity": 105
      },
      {
        "deltaTime": 120,
        "running": true,
        "channel": 1,
        "type": "noteOn",
        "noteNumber": 69,
        "velocity": 85
      },
      {
        "deltaTime": 13,
        "running": true,
        "channel": 1,
        "type": "noteOff",
        "noteNumber": 67,
        "velocity": 0,
        "byte9": true
      },
      {
        "deltaTime": 107,
        "running": true,
        "channel": 1,
        "type": "noteOn",
        "noteNumber": 50,
        "velocity": 51
      },
      {
        "deltaTime": 0,
        "running": true,
        "channel": 1,
        "type": "noteOn",
        "noteNumber": 57,
        "velocity": 56
      },
      {
        "deltaTime": 19,
        "running": true,
        "channel": 1,
        "type": "noteOff",
        "noteNumber": 50,
        "velocity": 0,
        "byte9": true
      },
      {
        "deltaTime": 10,
        "running": true,
        "channel": 1,
        "type": "noteOff",
        "noteNumber": 57,
        "velocity": 0,
        "byte9": true
      },
      {
        "deltaTime": 91,
        "running": true,
        "channel": 1,
        "type": "noteOn",
        "noteNumber": 57,
        "velocity": 70
      },
      {
        "deltaTime": 0,
        "running": true,
        "channel": 1,
        "type": "noteOn",
        "noteNumber": 50,
        "velocity": 81
      },
      {
        "deltaTime": 19,
        "running": true,
        "channel": 1,
        "type": "noteOff",
        "noteNumber": 50,
        "velocity": 0,
        "byte9": true
      },
      {
        "deltaTime": 4,
        "running": true,
        "channel": 1,
        "type": "noteOff",
        "noteNumber": 57,
        "velocity": 0,
        "byte9": true
      },
      {
        "deltaTime": 37,
        "running": true,
        "channel": 1,
        "type": "noteOff",
        "noteNumber": 69,
        "velocity": 0,
        "byte9": true
      },
      {
        "deltaTime": 60,
        "channel": 1,
        "type": "controller",
        "controllerType": 0,
        "value": 80
      },
      {
        "deltaTime": 0,
        "running": true,
        "channel": 1,
        "type": "controller",
        "controllerType": 32,
        "value": 0
      },
      {
        "deltaTime": 0,
        "channel": 1,
        "type": "programChange",
        "programNumber": 21
      },
      {
        "deltaTime": 0,
        "channel": 1,
        "type": "noteOn",
        "noteNumber": 73,
        "velocity": 127
      },
      {
        "deltaTime": 0,
        "running": true,
        "channel": 1,
        "type": "noteOn",
        "noteNumber": 76,
        "velocity": 127
      },
      {
        "deltaTime": 20,
        "running": true,
        "channel": 1,
        "type": "noteOff",
        "noteNumber": 76,
        "velocity": 0,
        "byte9": true
      },
      {
        "deltaTime": 1,
        "running": true,
        "channel": 1,
        "type": "noteOff",
        "noteNumber": 73,
        "velocity": 0,
        "byte9": true
      },
      {
        "deltaTime": 99,
        "running": true,
        "channel": 1,
        "type": "noteOn",
        "noteNumber": 73,
        "velocity": 123
      },
      {
        "deltaTime": 0,
        "running": true,
        "channel": 1,
        "type": "noteOn",
        "noteNumber": 76,
        "velocity": 118
      },
      {
        "deltaTime": 18,
        "running": true,
        "channel": 1,
        "type": "noteOff",
        "noteNumber": 76,
        "velocity": 0,
        "byte9": true
      },
      {
        "deltaTime": 1,
        "running": true,
        "channel": 1,
        "type": "noteOff",
        "noteNumber": 73,
        "velocity": 0,
        "byte9": true
      },
      {
        "deltaTime": 41,
        "running": true,
        "channel": 1,
        "type": "noteOn",
        "noteNumber": 76,
        "velocity": 125
      },
      {
        "deltaTime": 0,
        "running": true,
        "channel": 1,
        "type": "noteOn",
        "noteNumber": 73,
        "velocity": 123
      },
      {
        "deltaTime": 18,
        "running": true,
        "channel": 1,
        "type": "noteOff",
        "noteNumber": 73,
        "velocity": 0,
        "byte9": true
      },
      {
        "deltaTime": 1,
        "running": true,
        "channel": 1,
        "type": "noteOff",
        "noteNumber": 76,
        "velocity": 0,
        "byte9": true
      },
      {
        "deltaTime": 41,
        "running": true,
        "channel": 1,
        "type": "noteOn",
        "noteNumber": 76,
        "velocity": 127
      },
      {
        "deltaTime": 0,
        "running": true,
        "channel": 1,
        "type": "noteOn",
        "noteNumber": 73,
        "velocity": 125
      },
      {
        "deltaTime": 105,
        "running": true,
        "channel": 1,
        "type": "noteOff",
        "noteNumber": 76,
        "velocity": 0,
        "byte9": true
      },
      {
        "deltaTime": 7,
        "running": true,
        "channel": 1,
        "type": "noteOff",
        "noteNumber": 73,
        "velocity": 0,
        "byte9": true
      },
      {
        "deltaTime": 8,
        "running": true,
        "channel": 1,
        "type": "noteOn",
        "noteNumber": 74,
        "velocity": 118
      },
      {
        "deltaTime": 0,
        "running": true,
        "channel": 1,
        "type": "noteOn",
        "noteNumber": 77,
        "velocity": 127
      },
      {
        "deltaTime": 35,
        "running": true,
        "channel": 1,
        "type": "noteOff",
        "noteNumber": 74,
        "velocity": 0,
        "byte9": true
      },
      {
        "deltaTime": 4,
        "running": true,
        "channel": 1,
        "type": "noteOff",
        "noteNumber": 77,
        "velocity": 0,
        "byte9": true
      },
      {
        "deltaTime": 201,
        "running": true,
        "channel": 1,
        "type": "noteOn",
        "noteNumber": 74,
        "velocity": 127
      },
      {
        "deltaTime": 120,
        "running": true,
        "channel": 1,
        "type": "noteOn",
        "noteNumber": 72,
        "velocity": 125
      },
      {
        "deltaTime": 0,
        "running": true,
        "channel": 1,
        "type": "noteOn",
        "noteNumber": 73,
        "velocity": 114
      },
      {
        "deltaTime": 3,
        "running": true,
        "channel": 1,
        "type": "noteOff",
        "noteNumber": 74,
        "velocity": 0,
        "byte9": true
      },
      {
        "deltaTime": 1,
        "running": true,
        "channel": 1,
        "type": "noteOff",
        "noteNumber": 73,
        "velocity": 0,
        "byte9": true
      },
      {
        "deltaTime": 116,
        "running": true,
        "channel": 1,
        "type": "noteOn",
        "noteNumber": 70,
        "velocity": 127
      },
      {
        "deltaTime": 11,
        "running": true,
        "channel": 1,
        "type": "noteOff",
        "noteNumber": 72,
        "velocity": 0,
        "byte9": true
      },
      {
        "deltaTime": 97,
        "running": true,
        "channel": 1,
        "type": "noteOff",
        "noteNumber": 70,
        "velocity": 0,
        "byte9": true
      },
      {
        "deltaTime": 12,
        "running": true,
        "channel": 1,
        "type": "noteOn",
        "noteNumber": 69,
        "velocity": 118
      },
      {
        "deltaTime": 120,
        "running": true,
        "channel": 1,
        "type": "noteOn",
        "noteNumber": 55,
        "velocity": 99
      },
      {
        "deltaTime": 10,
        "running": true,
        "channel": 1,
        "type": "noteOff",
        "noteNumber": 69,
        "velocity": 0,
        "byte9": true
      },
      {
        "deltaTime": 14,
        "running": true,
        "channel": 1,
        "type": "noteOff",
        "noteNumber": 55,
        "velocity": 0,
        "byte9": true
      },
      {
        "deltaTime": 96,
        "running": true,
        "channel": 1,
        "type": "noteOn",
        "noteNumber": 67,
        "velocity": 66
      },
      {
        "deltaTime": 0,
        "running": true,
        "channel": 1,
        "type": "noteOn",
        "noteNumber": 70,
        "velocity": 110
      },
      {
        "deltaTime": 14,
        "running": true,
        "channel": 1,
        "type": "noteOff",
        "noteNumber": 70,
        "velocity": 0,
        "byte9": true
      },
      {
        "deltaTime": 16,
        "running": true,
        "channel": 1,
        "type": "noteOff",
        "noteNumber": 67,
        "velocity": 0,
        "byte9": true
      },
      {
        "deltaTime": 30,
        "running": true,
        "channel": 1,
        "type": "noteOn",
        "noteNumber": 67,
        "velocity": 65
      },
      {
        "deltaTime": 0,
        "running": true,
        "channel": 1,
        "type": "noteOn",
        "noteNumber": 70,
        "velocity": 102
      },
      {
        "deltaTime": 20,
        "running": true,
        "channel": 1,
        "type": "noteOff",
        "noteNumber": 70,
        "velocity": 0,
        "byte9": true
      },
      {
        "deltaTime": 3,
        "running": true,
        "channel": 1,
        "type": "noteOff",
        "noteNumber": 67,
        "velocity": 0,
        "byte9": true
      },
      {
        "deltaTime": 37,
        "running": true,
        "channel": 1,
        "type": "noteOn",
        "noteNumber": 67,
        "velocity": 70
      },
      {
        "deltaTime": 0,
        "running": true,
        "channel": 1,
        "type": "noteOn",
        "noteNumber": 70,
        "velocity": 108
      },
      {
        "deltaTime": 17,
        "running": true,
        "channel": 1,
        "type": "noteOff",
        "noteNumber": 70,
        "velocity": 0,
        "byte9": true
      },
      {
        "deltaTime": 8,
        "running": true,
        "channel": 1,
        "type": "noteOff",
        "noteNumber": 67,
        "velocity": 0,
        "byte9": true
      },
      {
        "deltaTime": 35,
        "running": true,
        "channel": 1,
        "type": "noteOn",
        "noteNumber": 67,
        "velocity": 60
      },
      {
        "deltaTime": 0,
        "running": true,
        "channel": 1,
        "type": "noteOn",
        "noteNumber": 70,
        "velocity": 98
      },
      {
        "deltaTime": 24,
        "running": true,
        "channel": 1,
        "type": "noteOff",
        "noteNumber": 70,
        "velocity": 0,
        "byte9": true
      },
      {
        "deltaTime": 2,
        "running": true,
        "channel": 1,
        "type": "noteOff",
        "noteNumber": 67,
        "velocity": 0,
        "byte9": true
      },
      {
        "deltaTime": 34,
        "running": true,
        "channel": 1,
        "type": "noteOn",
        "noteNumber": 55,
        "velocity": 92
      },
      {
        "deltaTime": 24,
        "running": true,
        "channel": 1,
        "type": "noteOff",
        "noteNumber": 55,
        "velocity": 0,
        "byte9": true
      },
      {
        "deltaTime": 96,
        "running": true,
        "channel": 1,
        "type": "noteOn",
        "noteNumber": 70,
        "velocity": 114
      },
      {
        "deltaTime": 0,
        "running": true,
        "channel": 1,
        "type": "noteOn",
        "noteNumber": 67,
        "velocity": 87
      },
      {
        "deltaTime": 21,
        "running": true,
        "channel": 1,
        "type": "noteOff",
        "noteNumber": 70,
        "velocity": 0,
        "byte9": true
      },
      {
        "deltaTime": 3,
        "running": true,
        "channel": 1,
        "type": "noteOff",
        "noteNumber": 67,
        "velocity": 0,
        "byte9": true
      },
      {
        "deltaTime": 96,
        "running": true,
        "channel": 1,
        "type": "noteOn",
        "noteNumber": 67,
        "velocity": 96
      },
      {
        "deltaTime": 0,
        "running": true,
        "channel": 1,
        "type": "noteOn",
        "noteNumber": 70,
        "velocity": 125
      },
      {
        "deltaTime": 120,
        "running": true,
        "channel": 1,
        "type": "noteOn",
        "noteNumber": 55,
        "velocity": 107
      },
      {
        "deltaTime": 8,
        "running": true,
        "channel": 1,
        "type": "noteOff",
        "noteNumber": 70,
        "velocity": 0,
        "byte9": true
      },
      {
        "deltaTime": 10,
        "running": true,
        "channel": 1,
        "type": "noteOff",
        "noteNumber": 67,
        "velocity": 0,
        "byte9": true
      },
      {
        "deltaTime": 10,
        "running": true,
        "channel": 1,
        "type": "noteOff",
        "noteNumber": 55,
        "velocity": 0,
        "byte9": true
      },
      {
        "deltaTime": 92,
        "running": true,
        "channel": 1,
        "type": "noteOn",
        "noteNumber": 70,
        "velocity": 81
      },
      {
        "deltaTime": 0,
        "running": true,
        "channel": 1,
        "type": "noteOn",
        "noteNumber": 67,
        "velocity": 67
      },
      {
        "deltaTime": 18,
        "running": true,
        "channel": 1,
        "type": "noteOff",
        "noteNumber": 67,
        "velocity": 0,
        "byte9": true
      },
      {
        "deltaTime": 2,
        "running": true,
        "channel": 1,
        "type": "noteOff",
        "noteNumber": 70,
        "velocity": 0,
        "byte9": true
      },
      {
        "deltaTime": 40,
        "running": true,
        "channel": 1,
        "type": "noteOn",
        "noteNumber": 67,
        "velocity": 62
      },
      {
        "deltaTime": 0,
        "running": true,
        "channel": 1,
        "type": "noteOn",
        "noteNumber": 70,
        "velocity": 60
      },
      {
        "deltaTime": 15,
        "running": true,
        "channel": 1,
        "type": "noteOff",
        "noteNumber": 70,
        "velocity": 0,
        "byte9": true
      },
      {
        "deltaTime": 7,
        "running": true,
        "channel": 1,
        "type": "noteOff",
        "noteNumber": 67,
        "velocity": 0,
        "byte9": true
      },
      {
        "deltaTime": 38,
        "running": true,
        "channel": 1,
        "type": "noteOn",
        "noteNumber": 70,
        "velocity": 85
      },
      {
        "deltaTime": 0,
        "running": true,
        "channel": 1,
        "type": "noteOn",
        "noteNumber": 67,
        "velocity": 74
      },
      {
        "deltaTime": 19,
        "running": true,
        "channel": 1,
        "type": "noteOff",
        "noteNumber": 70,
        "velocity": 0,
        "byte9": true
      },
      {
        "deltaTime": 0,
        "running": true,
        "channel": 1,
        "type": "noteOff",
        "noteNumber": 67,
        "velocity": 0,
        "byte9": true
      },
      {
        "deltaTime": 41,
        "running": true,
        "channel": 1,
        "type": "noteOn",
        "noteNumber": 67,
        "velocity": 73
      },
      {
        "deltaTime": 0,
        "running": true,
        "channel": 1,
        "type": "noteOn",
        "noteNumber": 70,
        "velocity": 88
      },
      {
        "deltaTime": 20,
        "running": true,
        "channel": 1,
        "type": "noteOff",
        "noteNumber": 67,
        "velocity": 0,
        "byte9": true
      },
      {
        "deltaTime": 0,
        "running": true,
        "channel": 1,
        "type": "noteOff",
        "noteNumber": 70,
        "velocity": 0,
        "byte9": true
      },
      {
        "deltaTime": 40,
        "running": true,
        "channel": 1,
        "type": "noteOn",
        "noteNumber": 55,
        "velocity": 81
      },
      {
        "deltaTime": 23,
        "running": true,
        "channel": 1,
        "type": "noteOff",
        "noteNumber": 55,
        "velocity": 0,
        "byte9": true
      },
      {
        "deltaTime": 97,
        "running": true,
        "channel": 1,
        "type": "noteOn",
        "noteNumber": 70,
        "velocity": 104
      },
      {
        "deltaTime": 0,
        "running": true,
        "channel": 1,
        "type": "noteOn",
        "noteNumber": 67,
        "velocity": 84
      },
      {
        "deltaTime": 16,
        "running": true,
        "channel": 1,
        "type": "noteOff",
        "noteNumber": 67,
        "velocity": 0,
        "byte9": true
      },
      {
        "deltaTime": 4,
        "running": true,
        "channel": 1,
        "type": "noteOff",
        "noteNumber": 70,
        "velocity": 0,
        "byte9": true
      },
      {
        "deltaTime": 100,
        "running": true,
        "channel": 1,
        "type": "noteOn",
        "noteNumber": 70,
        "velocity": 120
      },
      {
        "deltaTime": 0,
        "running": true,
        "channel": 1,
        "type": "noteOn",
        "noteNumber": 67,
        "velocity": 100
      },
      {
        "deltaTime": 117,
        "running": true,
        "channel": 1,
        "type": "noteOff",
        "noteNumber": 67,
        "velocity": 0,
        "byte9": true
      },
      {
        "deltaTime": 2,
        "running": true,
        "channel": 1,
        "type": "noteOff",
        "noteNumber": 70,
        "velocity": 0,
        "byte9": true
      },
      {
        "deltaTime": 1,
        "running": true,
        "channel": 1,
        "type": "noteOn",
        "noteNumber": 53,
        "velocity": 90
      },
      {
        "deltaTime": 26,
        "running": true,
        "channel": 1,
        "type": "noteOff",
        "noteNumber": 53,
        "velocity": 0,
        "byte9": true
      },
      {
        "deltaTime": 94,
        "running": true,
        "channel": 1,
        "type": "noteOn",
        "noteNumber": 65,
        "velocity": 68
      },
      {
        "deltaTime": 0,
        "running": true,
        "channel": 1,
        "type": "noteOn",
        "noteNumber": 69,
        "velocity": 63
      },
      {
        "deltaTime": 19,
        "running": true,
        "channel": 1,
        "type": "noteOff",
        "noteNumber": 69,
        "velocity": 0,
        "byte9": true
      },
      {
        "deltaTime": 2,
        "running": true,
        "channel": 1,
        "type": "noteOff",
        "noteNumber": 65,
        "velocity": 0,
        "byte9": true
      },
      {
        "deltaTime": 39,
        "running": true,
        "channel": 1,
        "type": "noteOn",
        "noteNumber": 65,
        "velocity": 59
      },
      {
        "deltaTime": 0,
        "running": true,
        "channel": 1,
        "type": "noteOn",
        "noteNumber": 69,
        "velocity": 57
      },
      {
        "deltaTime": 21,
        "running": true,
        "channel": 1,
        "type": "noteOff",
        "noteNumber": 69,
        "velocity": 0,
        "byte9": true
      },
      {
        "deltaTime": 1,
        "running": true,
        "channel": 1,
        "type": "noteOff",
        "noteNumber": 65,
        "velocity": 0,
        "byte9": true
      },
      {
        "deltaTime": 38,
        "running": true,
        "channel": 1,
        "type": "noteOn",
        "noteNumber": 65,
        "velocity": 73
      },
      {
        "deltaTime": 0,
        "running": true,
        "channel": 1,
        "type": "noteOn",
        "noteNumber": 69,
        "velocity": 70
      },
      {
        "deltaTime": 19,
        "running": true,
        "channel": 1,
        "type": "noteOff",
        "noteNumber": 69,
        "velocity": 0,
        "byte9": true
      },
      {
        "deltaTime": 4,
        "running": true,
        "channel": 1,
        "type": "noteOff",
        "noteNumber": 65,
        "velocity": 0,
        "byte9": true
      },
      {
        "deltaTime": 37,
        "running": true,
        "channel": 1,
        "type": "noteOn",
        "noteNumber": 65,
        "velocity": 72
      },
      {
        "deltaTime": 0,
        "running": true,
        "channel": 1,
        "type": "noteOn",
        "noteNumber": 69,
        "velocity": 73
      },
      {
        "deltaTime": 23,
        "running": true,
        "channel": 1,
        "type": "noteOff",
        "noteNumber": 69,
        "velocity": 0,
        "byte9": true
      },
      {
        "deltaTime": 4,
        "running": true,
        "channel": 1,
        "type": "noteOff",
        "noteNumber": 65,
        "velocity": 0,
        "byte9": true
      },
      {
        "deltaTime": 33,
        "running": true,
        "channel": 1,
        "type": "noteOn",
        "noteNumber": 50,
        "velocity": 66
      },
      {
        "deltaTime": 19,
        "running": true,
        "channel": 1,
        "type": "noteOff",
        "noteNumber": 50,
        "velocity": 0,
        "byte9": true
      },
      {
        "deltaTime": 101,
        "running": true,
        "channel": 1,
        "type": "noteOn",
        "noteNumber": 65,
        "velocity": 79
      },
      {
        "deltaTime": 0,
        "running": true,
        "channel": 1,
        "type": "noteOn",
        "noteNumber": 69,
        "velocity": 79
      },
      {
        "deltaTime": 17,
        "running": true,
        "channel": 1,
        "type": "noteOff",
        "noteNumber": 65,
        "velocity": 0,
        "byte9": true
      },
      {
        "deltaTime": 1,
        "running": true,
        "channel": 1,
        "type": "noteOff",
        "noteNumber": 69,
        "velocity": 0,
        "byte9": true
      },
      {
        "deltaTime": 102,
        "running": true,
        "channel": 1,
        "type": "noteOn",
        "noteNumber": 65,
        "velocity": 92
      },
      {
        "deltaTime": 0,
        "running": true,
        "channel": 1,
        "type": "noteOn",
        "noteNumber": 69,
        "velocity": 87
      },
      {
        "deltaTime": 120,
        "running": true,
        "channel": 1,
        "type": "noteOn",
        "noteNumber": 53,
        "velocity": 96
      },
      {
        "deltaTime": 20,
        "running": true,
        "channel": 1,
        "type": "noteOff",
        "noteNumber": 69,
        "velocity": 0,
        "byte9": true
      },
      {
        "deltaTime": 4,
        "running": true,
        "channel": 1,
        "type": "noteOff",
        "noteNumber": 65,
        "velocity": 0,
        "byte9": true
      },
      {
        "deltaTime": 4,
        "running": true,
        "channel": 1,
        "type": "noteOff",
        "noteNumber": 53,
        "velocity": 0,
        "byte9": true
      },
      {
        "deltaTime": 92,
        "running": true,
        "channel": 1,
        "type": "noteOn",
        "noteNumber": 65,
        "velocity": 57
      },
      {
        "deltaTime": 0,
        "running": true,
        "channel": 1,
        "type": "noteOn",
        "noteNumber": 69,
        "velocity": 52
      },
      {
        "deltaTime": 17,
        "running": true,
        "channel": 1,
        "type": "noteOff",
        "noteNumber": 69,
        "velocity": 0,
        "byte9": true
      },
      {
        "deltaTime": 2,
        "running": true,
        "channel": 1,
        "type": "noteOff",
        "noteNumber": 65,
        "velocity": 0,
        "byte9": true
      },
      {
        "deltaTime": 41,
        "running": true,
        "channel": 1,
        "type": "noteOn",
        "noteNumber": 65,
        "velocity": 63
      },
      {
        "deltaTime": 0,
        "running": true,
        "channel": 1,
        "type": "noteOn",
        "noteNumber": 69,
        "velocity": 59
      },
      {
        "deltaTime": 20,
        "running": true,
        "channel": 1,
        "type": "noteOff",
        "noteNumber": 69,
        "velocity": 0,
        "byte9": true
      },
      {
        "deltaTime": 3,
        "running": true,
        "channel": 1,
        "type": "noteOff",
        "noteNumber": 65,
        "velocity": 0,
        "byte9": true
      },
      {
        "deltaTime": 37,
        "running": true,
        "channel": 1,
        "type": "noteOn",
        "noteNumber": 65,
        "velocity": 67
      },
      {
        "deltaTime": 0,
        "running": true,
        "channel": 1,
        "type": "noteOn",
        "noteNumber": 69,
        "velocity": 63
      },
      {
        "deltaTime": 19,
        "running": true,
        "channel": 1,
        "type": "noteOff",
        "noteNumber": 69,
        "velocity": 0,
        "byte9": true
      },
      {
        "deltaTime": 5,
        "running": true,
        "channel": 1,
        "type": "noteOff",
        "noteNumber": 65,
        "velocity": 0,
        "byte9": true
      },
      {
        "deltaTime": 36,
        "running": true,
        "channel": 1,
        "type": "noteOn",
        "noteNumber": 65,
        "velocity": 67
      },
      {
        "deltaTime": 0,
        "running": true,
        "channel": 1,
        "type": "noteOn",
        "noteNumber": 69,
        "velocity": 61
      },
      {
        "deltaTime": 35,
        "running": true,
        "channel": 1,
        "type": "noteOff",
        "noteNumber": 69,
        "velocity": 0,
        "byte9": true
      },
      {
        "deltaTime": 4,
        "running": true,
        "channel": 1,
        "type": "noteOff",
        "noteNumber": 65,
        "velocity": 0,
        "byte9": true
      },
      {
        "deltaTime": 21,
        "running": true,
        "channel": 1,
        "type": "noteOn",
        "noteNumber": 53,
        "velocity": 82
      },
      {
        "deltaTime": 24,
        "running": true,
        "channel": 1,
        "type": "noteOff",
        "noteNumber": 53,
        "velocity": 0,
        "byte9": true
      },
      {
        "deltaTime": 96,
        "running": true,
        "channel": 1,
        "type": "noteOn",
        "noteNumber": 65,
        "velocity": 84
      },
      {
        "deltaTime": 0,
        "running": true,
        "channel": 1,
        "type": "noteOn",
        "noteNumber": 69,
        "velocity": 76
      },
      {
        "deltaTime": 17,
        "running": true,
        "channel": 1,
        "type": "noteOff",
        "noteNumber": 69,
        "velocity": 0,
        "byte9": true
      },
      {
        "deltaTime": 1,
        "running": true,
        "channel": 1,
        "type": "noteOff",
        "noteNumber": 65,
        "velocity": 0,
        "byte9": true
      },
      {
        "deltaTime": 102,
        "running": true,
        "channel": 1,
        "type": "noteOn",
        "noteNumber": 65,
        "velocity": 87
      },
      {
        "deltaTime": 0,
        "running": true,
        "channel": 1,
        "type": "noteOn",
        "noteNumber": 69,
        "velocity": 85
      },
      {
        "deltaTime": 120,
        "running": true,
        "channel": 1,
        "type": "noteOff",
        "noteNumber": 69,
        "velocity": 0,
        "byte9": true
      },
      {
        "deltaTime": 0,
        "running": true,
        "channel": 1,
        "type": "noteOn",
        "noteNumber": 49,
        "velocity": 102
      },
      {
        "deltaTime": 5,
        "running": true,
        "channel": 1,
        "type": "noteOff",
        "noteNumber": 65,
        "velocity": 0,
        "byte9": true
      },
      {
        "deltaTime": 16,
        "running": true,
        "channel": 1,
        "type": "noteOff",
        "noteNumber": 49,
        "velocity": 0,
        "byte9": true
      },
      {
        "deltaTime": 99,
        "running": true,
        "channel": 1,
        "type": "noteOn",
        "noteNumber": 64,
        "velocity": 75
      },
      {
        "deltaTime": 0,
        "running": true,
        "channel": 1,
        "type": "noteOn",
        "noteNumber": 67,
        "velocity": 68
      },
      {
        "deltaTime": 21,
        "running": true,
        "channel": 1,
        "type": "noteOff",
        "noteNumber": 67,
        "velocity": 0,
        "byte9": true
      },
      {
        "deltaTime": 1,
        "running": true,
        "channel": 1,
        "type": "noteOff",
        "noteNumber": 64,
        "velocity": 0,
        "byte9": true
      },
      {
        "deltaTime": 38,
        "running": true,
        "channel": 1,
        "type": "noteOn",
        "noteNumber": 64,
        "velocity": 71
      },
      {
        "deltaTime": 0,
        "running": true,
        "channel": 1,
        "type": "noteOn",
        "noteNumber": 67,
        "velocity": 70
      },
      {
        "deltaTime": 19,
        "running": true,
        "channel": 1,
        "type": "noteOff",
        "noteNumber": 67,
        "velocity": 0,
        "byte9": true
      },
      {
        "deltaTime": 3,
        "running": true,
        "channel": 1,
        "type": "noteOff",
        "noteNumber": 64,
        "velocity": 0,
        "byte9": true
      },
      {
        "deltaTime": 38,
        "running": true,
        "channel": 1,
        "type": "noteOn",
        "noteNumber": 64,
        "velocity": 68
      },
      {
        "deltaTime": 0,
        "running": true,
        "channel": 1,
        "type": "noteOn",
        "noteNumber": 67,
        "velocity": 68
      },
      {
        "deltaTime": 22,
        "running": true,
        "channel": 1,
        "type": "noteOff",
        "noteNumber": 67,
        "velocity": 0,
        "byte9": true
      },
      {
        "deltaTime": 3,
        "running": true,
        "channel": 1,
        "type": "noteOff",
        "noteNumber": 64,
        "velocity": 0,
        "byte9": true
      },
      {
        "deltaTime": 35,
        "running": true,
        "channel": 1,
        "type": "noteOn",
        "noteNumber": 64,
        "velocity": 70
      },
      {
        "deltaTime": 0,
        "running": true,
        "channel": 1,
        "type": "noteOn",
        "noteNumber": 67,
        "velocity": 67
      },
      {
        "deltaTime": 22,
        "running": true,
        "channel": 1,
        "type": "noteOff",
        "noteNumber": 67,
        "velocity": 0,
        "byte9": true
      },
      {
        "deltaTime": 8,
        "running": true,
        "channel": 1,
        "type": "noteOff",
        "noteNumber": 64,
        "velocity": 0,
        "byte9": true
      },
      {
        "deltaTime": 30,
        "running": true,
        "channel": 1,
        "type": "noteOn",
        "noteNumber": 49,
        "velocity": 102
      },
      {
        "deltaTime": 19,
        "running": true,
        "channel": 1,
        "type": "noteOff",
        "noteNumber": 49,
        "velocity": 0,
        "byte9": true
      },
      {
        "deltaTime": 101,
        "running": true,
        "channel": 1,
        "type": "noteOn",
        "noteNumber": 64,
        "velocity": 82
      },
      {
        "deltaTime": 0,
        "running": true,
        "channel": 1,
        "type": "noteOn",
        "noteNumber": 67,
        "velocity": 81
      },
      {
        "deltaTime": 21,
        "running": true,
        "channel": 1,
        "type": "noteOff",
        "noteNumber": 64,
        "velocity": 0,
        "byte9": true
      },
      {
        "deltaTime": 1,
        "running": true,
        "channel": 1,
        "type": "noteOff",
        "noteNumber": 67,
        "velocity": 0,
        "byte9": true
      },
      {
        "deltaTime": 98,
        "running": true,
        "channel": 1,
        "type": "noteOn",
        "noteNumber": 64,
        "velocity": 96
      },
      {
        "deltaTime": 0,
        "running": true,
        "channel": 1,
        "type": "noteOn",
        "noteNumber": 67,
        "velocity": 93
      },
      {
        "deltaTime": 120,
        "channel": 1,
        "type": "controller",
        "controllerType": 0,
        "value": 80
      },
      {
        "deltaTime": 0,
        "running": true,
        "channel": 1,
        "type": "controller",
        "controllerType": 32,
        "value": 0
      },
      {
        "deltaTime": 0,
        "channel": 1,
        "type": "programChange",
        "programNumber": 21
      },
      {
        "deltaTime": 0,
        "channel": 1,
        "type": "noteOn",
        "noteNumber": 67,
        "velocity": 118
      },
      {
        "deltaTime": 11,
        "running": true,
        "channel": 1,
        "type": "noteOff",
        "noteNumber": 64,
        "velocity": 0,
        "byte9": true
      },
      {
        "deltaTime": 0,
        "running": true,
        "channel": 1,
        "type": "noteOff",
        "noteNumber": 67,
        "velocity": 0,
        "byte9": true
      },
      {
        "deltaTime": 139,
        "running": true,
        "channel": 1,
        "type": "noteOff",
        "noteNumber": 67,
        "velocity": 0,
        "byte9": true
      },
      {
        "deltaTime": 90,
        "running": true,
        "channel": 1,
        "type": "noteOn",
        "noteNumber": 69,
        "velocity": 118
      },
      {
        "deltaTime": 45,
        "running": true,
        "channel": 1,
        "type": "noteOff",
        "noteNumber": 69,
        "velocity": 0,
        "byte9": true
      },
      {
        "deltaTime": 75,
        "running": true,
        "channel": 1,
        "type": "noteOn",
        "noteNumber": 69,
        "velocity": 118
      },
      {
        "deltaTime": 116,
        "running": true,
        "channel": 1,
        "type": "noteOff",
        "noteNumber": 69,
        "velocity": 0,
        "byte9": true
      },
      {
        "deltaTime": 4,
        "running": true,
        "channel": 1,
        "type": "noteOn",
        "noteNumber": 65,
        "velocity": 125
      },
      {
        "deltaTime": 108,
        "running": true,
        "channel": 1,
        "type": "noteOff",
        "noteNumber": 65,
        "velocity": 0,
        "byte9": true
      },
      {
        "deltaTime": 12,
        "running": true,
        "channel": 1,
        "type": "noteOn",
        "noteNumber": 64,
        "velocity": 109
      },
      {
        "deltaTime": 120,
        "running": true,
        "channel": 1,
        "type": "noteOn",
        "noteNumber": 62,
        "velocity": 99
      },
      {
        "deltaTime": 12,
        "running": true,
        "channel": 1,
        "type": "noteOff",
        "noteNumber": 64,
        "velocity": 0,
        "byte9": true
      },
      {
        "deltaTime": 108,
        "running": true,
        "channel": 1,
        "type": "noteOn",
        "noteNumber": 65,
        "velocity": 121
      },
      {
        "deltaTime": 10,
        "running": true,
        "channel": 1,
        "type": "noteOff",
        "noteNumber": 62,
        "velocity": 0,
        "byte9": true
      },
      {
        "deltaTime": 110,
        "running": true,
        "channel": 1,
        "type": "noteOn",
        "noteNumber": 69,
        "velocity": 116
      },
      {
        "deltaTime": 15,
        "running": true,
        "channel": 1,
        "type": "noteOff",
        "noteNumber": 65,
        "velocity": 0,
        "byte9": true
      },
      {
        "deltaTime": 100,
        "running": true,
        "channel": 1,
        "type": "noteOff",
        "noteNumber": 69,
        "velocity": 0,
        "byte9": true
      },
      {
        "deltaTime": 5,
        "running": true,
        "channel": 1,
        "type": "noteOn",
        "noteNumber": 62,
        "velocity": 113
      },
      {
        "deltaTime": 315,
        "running": true,
        "channel": 1,
        "type": "noteOff",
        "noteNumber": 62,
        "velocity": 0,
        "byte9": true
      },
      {
        "deltaTime": 0,
        "meta": true,
        "type": "endOfTrack"
      }
    ],
    [
      {
        "deltaTime": 0,
        "meta": true,
        "type": "trackName",
        "text": "WinJammer Demo"
      },
      {
        "deltaTime": 0,
        "meta": true,
        "type": "portPrefix",
        "port": 0
      },
      {
        "deltaTime": 0,
        "channel": 2,
        "type": "controller",
        "controllerType": 0,
        "value": 80
      },
      {
        "deltaTime": 0,
        "running": true,
        "channel": 2,
        "type": "controller",
        "controllerType": 32,
        "value": 0
      },
      {
        "deltaTime": 0,
        "channel": 2,
        "type": "programChange",
        "programNumber": 35
      },
      {
        "deltaTime": 0,
        "channel": 2,
        "type": "noteOn",
        "noteNumber": 38,
        "velocity": 84
      },
      {
        "deltaTime": 120,
        "running": true,
        "channel": 2,
        "type": "noteOn",
        "noteNumber": 40,
        "velocity": 72
      },
      {
        "deltaTime": 5,
        "running": true,
        "channel": 2,
        "type": "noteOff",
        "noteNumber": 38,
        "velocity": 0,
        "byte9": true
      },
      {
        "deltaTime": 109,
        "running": true,
        "channel": 2,
        "type": "noteOff",
        "noteNumber": 40,
        "velocity": 0,
        "byte9": true
      },
      {
        "deltaTime": 6,
        "running": true,
        "channel": 2,
        "type": "noteOn",
        "noteNumber": 41,
        "velocity": 58
      },
      {
        "deltaTime": 120,
        "running": true,
        "channel": 2,
        "type": "noteOn",
        "noteNumber": 45,
        "velocity": 64
      },
      {
        "deltaTime": 31,
        "running": true,
        "channel": 2,
        "type": "noteOff",
        "noteNumber": 41,
        "velocity": 0,
        "byte9": true
      },
      {
        "deltaTime": 330,
        "running": true,
        "channel": 2,
        "type": "noteOff",
        "noteNumber": 45,
        "velocity": 0,
        "byte9": true
      },
      {
        "deltaTime": 119,
        "running": true,
        "channel": 2,
        "type": "noteOn",
        "noteNumber": 45,
        "velocity": 71
      },
      {
        "deltaTime": 19,
        "running": true,
        "channel": 2,
        "type": "noteOff",
        "noteNumber": 45,
        "velocity": 0,
        "byte9": true
      },
      {
        "deltaTime": 101,
        "running": true,
        "channel": 2,
        "type": "noteOn",
        "noteNumber": 45,
        "velocity": 74
      },
      {
        "deltaTime": 39,
        "running": true,
        "channel": 2,
        "type": "noteOff",
        "noteNumber": 45,
        "velocity": 0,
        "byte9": true
      },
      {
        "deltaTime": 81,
        "running": true,
        "channel": 2,
        "type": "noteOn",
        "noteNumber": 45,
        "velocity": 62
      },
      {
        "deltaTime": 388,
        "running": true,
        "channel": 2,
        "type": "noteOff",
        "noteNumber": 45,
        "velocity": 0,
        "byte9": true
      },
      {
        "deltaTime": 212,
        "running": true,
        "channel": 2,
        "type": "noteOn",
        "noteNumber": 45,
        "velocity": 63
      },
      {
        "deltaTime": 56,
        "running": true,
        "channel": 2,
        "type": "noteOff",
        "noteNumber": 45,
        "velocity": 0,
        "byte9": true
      },
      {
        "deltaTime": 4,
        "running": true,
        "channel": 2,
        "type": "noteOn",
        "noteNumber": 41,
        "velocity": 57
      },
      {
        "deltaTime": 60,
        "running": true,
        "channel": 2,
        "type": "noteOn",
        "noteNumber": 43,
        "velocity": 66
      },
      {
        "deltaTime": 3,
        "running": true,
        "channel": 2,
        "type": "noteOff",
        "noteNumber": 41,
        "velocity": 0,
        "byte9": true
      },
      {
        "deltaTime": 359,
        "running": true,
        "channel": 2,
        "type": "noteOff",
        "noteNumber": 43,
        "velocity": 0,
        "byte9": true
      },
      {
        "deltaTime": 118,
        "running": true,
        "channel": 2,
        "type": "noteOn",
        "noteNumber": 43,
        "velocity": 56
      },
      {
        "deltaTime": 14,
        "running": true,
        "channel": 2,
        "type": "noteOff",
        "noteNumber": 43,
        "velocity": 0,
        "byte9": true
      },
      {
        "deltaTime": 106,
        "running": true,
        "channel": 2,
        "type": "noteOn",
        "noteNumber": 43,
        "velocity": 68
      },
      {
        "deltaTime": 21,
        "running": true,
        "channel": 2,
        "type": "noteOff",
        "noteNumber": 43,
        "velocity": 0,
        "byte9": true
      },
      {
        "deltaTime": 99,
        "running": true,
        "channel": 2,
        "type": "noteOn",
        "noteNumber": 43,
        "velocity": 68
      },
      {
        "deltaTime": 483,
        "running": true,
        "channel": 2,
        "type": "noteOff",
        "noteNumber": 43,
        "velocity": 0,
        "byte9": true
      },
      {
        "deltaTime": 117,
        "running": true,
        "channel": 2,
        "type": "noteOn",
        "noteNumber": 43,
        "velocity": 62
      },
      {
        "deltaTime": 21,
        "running": true,
        "channel": 2,
        "type": "noteOff",
        "noteNumber": 43,
        "velocity": 0,
        "byte9": true
      },
      {
        "deltaTime": 99,
        "running": true,
        "channel": 2,
        "type": "noteOn",
        "noteNumber": 41,
        "velocity": 65
      },
      {
        "deltaTime": 374,
        "running": true,
        "channel": 2,
        "type": "noteOff",
        "noteNumber": 41,
        "velocity": 0,
        "byte9": true
      },
      {
        "deltaTime": 226,
        "running": true,
        "channel": 2,
        "type": "noteOn",
        "noteNumber": 41,
        "velocity": 67
      },
      {
        "deltaTime": 19,
        "running": true,
        "channel": 2,
        "type": "noteOff",
        "noteNumber": 41,
        "velocity": 0,
        "byte9": true
      },
      {
        "deltaTime": 101,
        "running": true,
        "channel": 2,
        "type": "noteOn",
        "noteNumber": 41,
        "velocity": 70
      },
      {
        "deltaTime": 240,
        "running": true,
        "channel": 2,
        "type": "noteOn",
        "noteNumber": 40,
        "velocity": 62
      },
      {
        "deltaTime": 17,
        "running": true,
        "channel": 2,
        "type": "noteOff",
        "noteNumber": 41,
        "velocity": 0,
        "byte9": true
      },
      {
        "deltaTime": 89,
        "running": true,
        "channel": 2,
        "type": "noteOff",
        "noteNumber": 40,
        "velocity": 0,
        "byte9": true
      },
      {
        "deltaTime": 14,
        "running": true,
        "channel": 2,
        "type": "noteOn",
        "noteNumber": 38,
        "velocity": 59
      },
      {
        "deltaTime": 327,
        "running": true,
        "channel": 2,
        "type": "noteOff",
        "noteNumber": 38,
        "velocity": 0,
        "byte9": true
      },
      {
        "deltaTime": 153,
        "running": true,
        "channel": 2,
        "type": "noteOn",
        "noteNumber": 40,
        "velocity": 58
      },
      {
        "deltaTime": 23,
        "running": true,
        "channel": 2,
        "type": "noteOff",
        "noteNumber": 40,
        "velocity": 0,
        "byte9": true
      },
      {
        "deltaTime": 97,
        "running": true,
        "channel": 2,
        "type": "noteOn",
        "noteNumber": 40,
        "velocity": 68
      },
      {
        "deltaTime": 20,
        "running": true,
        "channel": 2,
        "type": "noteOff",
        "noteNumber": 40,
        "velocity": 0,
        "byte9": true
      },
      {
        "deltaTime": 100,
        "running": true,
        "channel": 2,
        "type": "noteOn",
        "noteNumber": 40,
        "velocity": 56
      },
      {
        "deltaTime": 349,
        "running": true,
        "channel": 2,
        "type": "noteOff",
        "noteNumber": 40,
        "velocity": 0,
        "byte9": true
      },
      {
        "deltaTime": 11,
        "running": true,
        "channel": 2,
        "type": "noteOn",
        "noteNumber": 38,
        "velocity": 40
      },
      {
        "deltaTime": 120,
        "running": true,
        "channel": 2,
        "type": "noteOn",
        "noteNumber": 40,
        "velocity": 68
      },
      {
        "deltaTime": 15,
        "running": true,
        "channel": 2,
        "type": "noteOff",
        "noteNumber": 38,
        "velocity": 0,
        "byte9": true
      },
      {
        "deltaTime": 103,
        "running": true,
        "channel": 2,
        "type": "noteOff",
        "noteNumber": 40,
        "velocity": 0,
        "byte9": true
      },
      {
        "deltaTime": 2,
        "running": true,
        "channel": 2,
        "type": "noteOn",
        "noteNumber": 41,
        "velocity": 65
      },
      {
        "deltaTime": 120,
        "running": true,
        "channel": 2,
        "type": "noteOn",
        "noteNumber": 45,
        "velocity": 50
      },
      {
        "deltaTime": 11,
        "running": true,
        "channel": 2,
        "type": "noteOff",
        "noteNumber": 41,
        "velocity": 0,
        "byte9": true
      },
      {
        "deltaTime": 342,
        "running": true,
        "channel": 2,
        "type": "noteOff",
        "noteNumber": 45,
        "velocity": 0,
        "byte9": true
      },
      {
        "deltaTime": 127,
        "running": true,
        "channel": 2,
        "type": "noteOn",
        "noteNumber": 45,
        "velocity": 62
      },
      {
        "deltaTime": 18,
        "running": true,
        "channel": 2,
        "type": "noteOff",
        "noteNumber": 45,
        "velocity": 0,
        "byte9": true
      },
      {
        "deltaTime": 102,
        "running": true,
        "channel": 2,
        "type": "noteOn",
        "noteNumber": 45,
        "velocity": 60
      },
      {
        "deltaTime": 19,
        "running": true,
        "channel": 2,
        "type": "noteOff",
        "noteNumber": 45,
        "velocity": 0,
        "byte9": true
      },
      {
        "deltaTime": 101,
        "channel": 2,
        "type": "controller",
        "controllerType": 0,
        "value": 80
      },
      {
        "deltaTime": 0,
        "running": true,
        "channel": 2,
        "type": "controller",
        "controllerType": 32,
        "value": 0
      },
      {
        "deltaTime": 0,
        "channel": 2,
        "type": "programChange",
        "programNumber": 35
      },
      {
        "deltaTime": 0,
        "channel": 2,
        "type": "noteOn",
        "noteNumber": 45,
        "velocity": 82
      },
      {
        "deltaTime": 354,
        "running": true,
        "channel": 2,
        "type": "noteOff",
        "noteNumber": 45,
        "velocity": 0,
        "byte9": true
      },
      {
        "deltaTime": 126,
        "running": true,
        "channel": 2,
        "type": "noteOn",
        "noteNumber": 45,
        "velocity": 59
      },
      {
        "deltaTime": 26,
        "running": true,
        "channel": 2,
        "type": "noteOff",
        "noteNumber": 45,
        "velocity": 0,
        "byte9": true
      },
      {
        "deltaTime": 94,
        "running": true,
        "channel": 2,
        "type": "noteOn",
        "noteNumber": 41,
        "velocity": 73
      },
      {
        "deltaTime": 60,
        "running": true,
        "channel": 2,
        "type": "noteOn",
        "noteNumber": 45,
        "velocity": 60
      },
      {
        "deltaTime": 3,
        "running": true,
        "channel": 2,
        "type": "noteOff",
        "noteNumber": 41,
        "velocity": 0,
        "byte9": true
      },
      {
        "deltaTime": 57,
        "running": true,
        "channel": 2,
        "type": "noteOff",
        "noteNumber": 45,
        "velocity": 0,
        "byte9": true
      },
      {
        "deltaTime": 0,
        "running": true,
        "channel": 2,
        "type": "noteOn",
        "noteNumber": 43,
        "velocity": 61
      },
      {
        "deltaTime": 375,
        "running": true,
        "channel": 2,
        "type": "noteOff",
        "noteNumber": 43,
        "velocity": 0,
        "byte9": true
      },
      {
        "deltaTime": 105,
        "running": true,
        "channel": 2,
        "type": "noteOn",
        "noteNumber": 43,
        "velocity": 66
      },
      {
        "deltaTime": 20,
        "running": true,
        "channel": 2,
        "type": "noteOff",
        "noteNumber": 43,
        "velocity": 0,
        "byte9": true
      },
      {
        "deltaTime": 100,
        "running": true,
        "channel": 2,
        "type": "noteOn",
        "noteNumber": 43,
        "velocity": 57
      },
      {
        "deltaTime": 25,
        "running": true,
        "channel": 2,
        "type": "noteOff",
        "noteNumber": 43,
        "velocity": 0,
        "byte9": true
      },
      {
        "deltaTime": 95,
        "running": true,
        "channel": 2,
        "type": "noteOn",
        "noteNumber": 43,
        "velocity": 63
      },
      {
        "deltaTime": 444,
        "running": true,
        "channel": 2,
        "type": "noteOff",
        "noteNumber": 43,
        "velocity": 0,
        "byte9": true
      },
      {
        "deltaTime": 156,
        "running": true,
        "channel": 2,
        "type": "noteOn",
        "noteNumber": 43,
        "velocity": 65
      },
      {
        "deltaTime": 32,
        "running": true,
        "channel": 2,
        "type": "noteOff",
        "noteNumber": 43,
        "velocity": 0,
        "byte9": true
      },
      {
        "deltaTime": 88,
        "running": true,
        "channel": 2,
        "type": "noteOn",
        "noteNumber": 41,
        "velocity": 57
      },
      {
        "deltaTime": 369,
        "running": true,
        "channel": 2,
        "type": "noteOff",
        "noteNumber": 41,
        "velocity": 0,
        "byte9": true
      },
      {
        "deltaTime": 111,
        "running": true,
        "channel": 2,
        "type": "noteOn",
        "noteNumber": 41,
        "velocity": 63
      },
      {
        "deltaTime": 22,
        "running": true,
        "channel": 2,
        "type": "noteOff",
        "noteNumber": 41,
        "velocity": 0,
        "byte9": true
      },
      {
        "deltaTime": 98,
        "running": true,
        "channel": 2,
        "type": "noteOn",
        "noteNumber": 41,
        "velocity": 60
      },
      {
        "deltaTime": 23,
        "running": true,
        "channel": 2,
        "type": "noteOff",
        "noteNumber": 41,
        "velocity": 0,
        "byte9": true
      },
      {
        "deltaTime": 97,
        "running": true,
        "channel": 2,
        "type": "noteOn",
        "noteNumber": 41,
        "velocity": 71
      },
      {
        "deltaTime": 240,
        "running": true,
        "channel": 2,
        "type": "noteOn",
        "noteNumber": 40,
        "velocity": 63
      },
      {
        "deltaTime": 7,
        "running": true,
        "channel": 2,
        "type": "noteOff",
        "noteNumber": 41,
        "velocity": 0,
        "byte9": true
      },
      {
        "deltaTime": 98,
        "running": true,
        "channel": 2,
        "type": "noteOff",
        "noteNumber": 40,
        "velocity": 0,
        "byte9": true
      },
      {
        "deltaTime": 15,
        "channel": 2,
        "type": "controller",
        "controllerType": 0,
        "value": 80
      },
      {
        "deltaTime": 0,
        "running": true,
        "channel": 2,
        "type": "controller",
        "controllerType": 32,
        "value": 0
      },
      {
        "deltaTime": 0,
        "channel": 2,
        "type": "programChange",
        "programNumber": 35
      },
      {
        "deltaTime": 0,
        "channel": 2,
        "type": "noteOn",
        "noteNumber": 38,
        "velocity": 55
      },
      {
        "deltaTime": 212,
        "running": true,
        "channel": 2,
        "type": "noteOff",
        "noteNumber": 38,
        "velocity": 0,
        "byte9": true
      },
      {
        "deltaTime": 268,
        "running": true,
        "channel": 2,
        "type": "noteOn",
        "noteNumber": 38,
        "velocity": 67
      },
      {
        "deltaTime": 18,
        "running": true,
        "channel": 2,
        "type": "noteOff",
        "noteNumber": 38,
        "velocity": 0,
        "byte9": true
      },
      {
        "deltaTime": 222,
        "channel": 2,
        "type": "controller",
        "controllerType": 0,
        "value": 80
      },
      {
        "deltaTime": 0,
        "running": true,
        "channel": 2,
        "type": "controller",
        "controllerType": 32,
        "value": 0
      },
      {
        "deltaTime": 0,
        "channel": 2,
        "type": "programChange",
        "programNumber": 35
      },
      {
        "deltaTime": 720,
        "channel": 2,
        "type": "noteOn",
        "noteNumber": 43,
        "velocity": 70
      },
      {
        "deltaTime": 357,
        "running": true,
        "channel": 2,
        "type": "noteOff",
        "noteNumber": 43,
        "velocity": 0,
        "byte9": true
      },
      {
        "deltaTime": 123,
        "running": true,
        "channel": 2,
        "type": "noteOn",
        "noteNumber": 43,
        "velocity": 75
      },
      {
        "deltaTime": 16,
        "running": true,
        "channel": 2,
        "type": "noteOff",
        "noteNumber": 43,
        "velocity": 0,
        "byte9": true
      },
      {
        "deltaTime": 104,
        "running": true,
        "channel": 2,
        "type": "noteOn",
        "noteNumber": 43,
        "velocity": 79
      },
      {
        "deltaTime": 16,
        "running": true,
        "channel": 2,
        "type": "noteOff",
        "noteNumber": 43,
        "velocity": 0,
        "byte9": true
      },
      {
        "deltaTime": 104,
        "running": true,
        "channel": 2,
        "type": "noteOn",
        "noteNumber": 43,
        "velocity": 85
      },
      {
        "deltaTime": 713,
        "running": true,
        "channel": 2,
        "type": "noteOff",
        "noteNumber": 43,
        "velocity": 0,
        "byte9": true
      },
      {
        "deltaTime": 7,
        "running": true,
        "channel": 2,
        "type": "noteOn",
        "noteNumber": 41,
        "velocity": 65
      },
      {
        "deltaTime": 380,
        "running": true,
        "channel": 2,
        "type": "noteOff",
        "noteNumber": 41,
        "velocity": 0,
        "byte9": true
      },
      {
        "deltaTime": 100,
        "running": true,
        "channel": 2,
        "type": "noteOn",
        "noteNumber": 41,
        "velocity": 67
      },
      {
        "deltaTime": 16,
        "running": true,
        "channel": 2,
        "type": "noteOff",
        "noteNumber": 41,
        "velocity": 0,
        "byte9": true
      },
      {
        "deltaTime": 104,
        "running": true,
        "channel": 2,
        "type": "noteOn",
        "noteNumber": 41,
        "velocity": 79
      },
      {
        "deltaTime": 18,
        "running": true,
        "channel": 2,
        "type": "noteOff",
        "noteNumber": 41,
        "velocity": 0,
        "byte9": true
      },
      {
        "deltaTime": 102,
        "running": true,
        "channel": 2,
        "type": "noteOn",
        "noteNumber": 41,
        "velocity": 84
      },
      {
        "deltaTime": 716,
        "running": true,
        "channel": 2,
        "type": "noteOff",
        "noteNumber": 41,
        "velocity": 0,
        "byte9": true
      },
      {
        "deltaTime": 4,
        "running": true,
        "channel": 2,
        "type": "noteOn",
        "noteNumber": 40,
        "velocity": 74
      },
      {
        "deltaTime": 354,
        "running": true,
        "channel": 2,
        "type": "noteOff",
        "noteNumber": 40,
        "velocity": 0,
        "byte9": true
      },
      {
        "deltaTime": 126,
        "running": true,
        "channel": 2,
        "type": "noteOn",
        "noteNumber": 40,
        "velocity": 65
      },
      {
        "deltaTime": 23,
        "running": true,
        "channel": 2,
        "type": "noteOff",
        "noteNumber": 40,
        "velocity": 0,
        "byte9": true
      },
      {
        "deltaTime": 97,
        "running": true,
        "channel": 2,
        "type": "noteOn",
        "noteNumber": 40,
        "velocity": 66
      },
      {
        "deltaTime": 25,
        "running": true,
        "channel": 2,
        "type": "noteOff",
        "noteNumber": 40,
        "velocity": 0,
        "byte9": true
      },
      {
        "deltaTime": 95,
        "running": true,
        "channel": 2,
        "type": "noteOn",
        "noteNumber": 40,
        "velocity": 71
      },
      {
        "deltaTime": 699,
        "running": true,
        "channel": 2,
        "type": "noteOff",
        "noteNumber": 40,
        "velocity": 0,
        "byte9": true
      },
      {
        "deltaTime": 21,
        "channel": 2,
        "type": "controller",
        "controllerType": 0,
        "value": 80
      },
      {
        "deltaTime": 0,
        "running": true,
        "channel": 2,
        "type": "controller",
        "controllerType": 32,
        "value": 0
      },
      {
        "deltaTime": 0,
        "channel": 2,
        "type": "programChange",
        "programNumber": 35
      },
      {
        "deltaTime": 0,
        "channel": 2,
        "type": "noteOn",
        "noteNumber": 45,
        "velocity": 89
      },
      {
        "deltaTime": 355,
        "running": true,
        "channel": 2,
        "type": "noteOff",
        "noteNumber": 45,
        "velocity": 0,
        "byte9": true
      },
      {
        "deltaTime": 5,
        "running": true,
        "channel": 2,
        "type": "noteOn",
        "noteNumber": 49,
        "velocity": 63
      },
      {
        "deltaTime": 335,
        "running": true,
        "channel": 2,
        "type": "noteOff",
        "noteNumber": 49,
        "velocity": 0,
        "byte9": true
      },
      {
        "deltaTime": 25,
        "running": true,
        "channel": 2,
        "type": "noteOn",
        "noteNumber": 50,
        "velocity": 82
      },
      {
        "deltaTime": 95,
        "running": true,
        "channel": 2,
        "type": "noteOff",
        "noteNumber": 50,
        "velocity": 0,
        "byte9": true
      },
      {
        "deltaTime": 625,
        "running": true,
        "channel": 2,
        "type": "noteOn",
        "noteNumber": 43,
        "velocity": 67
      },
      {
        "deltaTime": 319,
        "running": true,
        "channel": 2,
        "type": "noteOff",
        "noteNumber": 43,
        "velocity": 0,
        "byte9": true
      },
      {
        "deltaTime": 161,
        "running": true,
        "channel": 2,
        "type": "noteOn",
        "noteNumber": 43,
        "velocity": 66
      },
      {
        "deltaTime": 20,
        "running": true,
        "channel": 2,
        "type": "noteOff",
        "noteNumber": 43,
        "velocity": 0,
        "byte9": true
      },
      {
        "deltaTime": 100,
        "running": true,
        "channel": 2,
        "type": "noteOn",
        "noteNumber": 43,
        "velocity": 67
      },
      {
        "deltaTime": 22,
        "running": true,
        "channel": 2,
        "type": "noteOff",
        "noteNumber": 43,
        "velocity": 0,
        "byte9": true
      },
      {
        "deltaTime": 98,
        "running": true,
        "channel": 2,
        "type": "noteOn",
        "noteNumber": 43,
        "velocity": 66
      },
      {
        "deltaTime": 720,
        "running": true,
        "channel": 2,
        "type": "noteOn",
        "noteNumber": 41,
        "velocity": 71
      },
      {
        "deltaTime": 1,
        "running": true,
        "channel": 2,
        "type": "noteOff",
        "noteNumber": 43,
        "velocity": 0,
        "byte9": true
      },
      {
        "deltaTime": 344,
        "running": true,
        "channel": 2,
        "type": "noteOff",
        "noteNumber": 41,
        "velocity": 0,
        "byte9": true
      },
      {
        "deltaTime": 135,
        "running": true,
        "channel": 2,
        "type": "noteOn",
        "noteNumber": 41,
        "velocity": 57
      },
      {
        "deltaTime": 24,
        "running": true,
        "channel": 2,
        "type": "noteOff",
        "noteNumber": 41,
        "velocity": 0,
        "byte9": true
      },
      {
        "deltaTime": 96,
        "running": true,
        "channel": 2,
        "type": "noteOn",
        "noteNumber": 41,
        "velocity": 68
      },
      {
        "deltaTime": 27,
        "running": true,
        "channel": 2,
        "type": "noteOff",
        "noteNumber": 41,
        "velocity": 0,
        "byte9": true
      },
      {
        "deltaTime": 93,
        "running": true,
        "channel": 2,
        "type": "noteOn",
        "noteNumber": 41,
        "velocity": 75
      },
      {
        "deltaTime": 720,
        "running": true,
        "channel": 2,
        "type": "noteOn",
        "noteNumber": 40,
        "velocity": 68
      },
      {
        "deltaTime": 3,
        "running": true,
        "channel": 2,
        "type": "noteOff",
        "noteNumber": 41,
        "velocity": 0,
        "byte9": true
      },
      {
        "deltaTime": 336,
        "running": true,
        "channel": 2,
        "type": "noteOff",
        "noteNumber": 40,
        "velocity": 0,
        "byte9": true
      },
      {
        "deltaTime": 141,
        "running": true,
        "channel": 2,
        "type": "noteOn",
        "noteNumber": 40,
        "velocity": 62
      },
      {
        "deltaTime": 30,
        "running": true,
        "channel": 2,
        "type": "noteOff",
        "noteNumber": 40,
        "velocity": 0,
        "byte9": true
      },
      {
        "deltaTime": 90,
        "running": true,
        "channel": 2,
        "type": "noteOn",
        "noteNumber": 40,
        "velocity": 54
      },
      {
        "deltaTime": 29,
        "running": true,
        "channel": 2,
        "type": "noteOff",
        "noteNumber": 40,
        "velocity": 0,
        "byte9": true
      },
      {
        "deltaTime": 91,
        "running": true,
        "channel": 2,
        "type": "noteOn",
        "noteNumber": 40,
        "velocity": 68
      },
      {
        "deltaTime": 522,
        "running": true,
        "channel": 2,
        "type": "noteOff",
        "noteNumber": 40,
        "velocity": 0,
        "byte9": true
      },
      {
        "deltaTime": 198,
        "running": true,
        "channel": 2,
        "type": "noteOn",
        "noteNumber": 38,
        "velocity": 56
      },
      {
        "deltaTime": 195,
        "running": true,
        "channel": 2,
        "type": "noteOff",
        "noteNumber": 38,
        "velocity": 0,
        "byte9": true
      },
      {
        "deltaTime": 165,
        "running": true,
        "channel": 2,
        "type": "noteOn",
        "noteNumber": 38,
        "velocity": 64
      },
      {
        "deltaTime": 362,
        "running": true,
        "channel": 2,
        "type": "noteOff",
        "noteNumber": 38,
        "velocity": 0,
        "byte9": true
      },
      {
        "deltaTime": 0,
        "meta": true,
        "type": "endOfTrack"
      }
    ],
    [
      {
        "deltaTime": 0,
        "meta": true,
        "type": "trackName",
        "text": "WinJammer Demo"
      },
      {
        "deltaTime": 0,
        "meta": true,
        "type": "portPrefix",
        "port": 0
      },
      {
        "deltaTime": 0,
        "channel": 3,
        "type": "controller",
        "controllerType": 0,
        "value": 80
      },
      {
        "deltaTime": 0,
        "running": true,
        "channel": 3,
        "type": "controller",
        "controllerType": 32,
        "value": 0
      },
      {
        "deltaTime": 0,
        "channel": 3,
        "type": "programChange",
        "programNumber": 49
      },
      {
        "deltaTime": 0,
        "channel": 3,
        "type": "noteOn",
        "noteNumber": 62,
        "velocity": 126
      },
      {
        "deltaTime": 118,
        "running": true,
        "channel": 3,
        "type": "noteOn",
        "noteNumber": 64,
        "velocity": 126
      },
      {
        "deltaTime": 10,
        "running": true,
        "channel": 3,
        "type": "noteOff",
        "noteNumber": 62,
        "velocity": 0,
        "byte9": true
      },
      {
        "deltaTime": 106,
        "running": true,
        "channel": 3,
        "type": "noteOn",
        "noteNumber": 65,
        "velocity": 105
      },
      {
        "deltaTime": 11,
        "running": true,
        "channel": 3,
        "type": "noteOff",
        "noteNumber": 64,
        "velocity": 0,
        "byte9": true
      },
      {
        "deltaTime": 98,
        "running": true,
        "channel": 3,
        "type": "noteOn",
        "noteNumber": 69,
        "velocity": 84
      },
      {
        "deltaTime": 12,
        "running": true,
        "channel": 3,
        "type": "noteOff",
        "noteNumber": 65,
        "velocity": 0,
        "byte9": true
      },
      {
        "deltaTime": 1423,
        "running": true,
        "channel": 3,
        "type": "noteOff",
        "noteNumber": 69,
        "velocity": 0,
        "byte9": true
      },
      {
        "deltaTime": 2,
        "running": true,
        "channel": 3,
        "type": "noteOn",
        "noteNumber": 67,
        "velocity": 68
      },
      {
        "deltaTime": 1458,
        "running": true,
        "channel": 3,
        "type": "noteOn",
        "noteNumber": 65,
        "velocity": 75
      },
      {
        "deltaTime": 6,
        "running": true,
        "channel": 3,
        "type": "noteOff",
        "noteNumber": 67,
        "velocity": 0,
        "byte9": true
      },
      {
        "deltaTime": 921,
        "running": true,
        "channel": 3,
        "type": "noteOn",
        "noteNumber": 64,
        "velocity": 85
      },
      {
        "deltaTime": 7,
        "running": true,
        "channel": 3,
        "type": "noteOff",
        "noteNumber": 65,
        "velocity": 0,
        "byte9": true
      },
      {
        "deltaTime": 129,
        "running": true,
        "channel": 3,
        "type": "noteOn",
        "noteNumber": 62,
        "velocity": 85
      },
      {
        "deltaTime": 1,
        "running": true,
        "channel": 3,
        "type": "noteOff",
        "noteNumber": 64,
        "velocity": 0,
        "byte9": true
      },
      {
        "deltaTime": 240,
        "running": true,
        "channel": 3,
        "type": "noteOn",
        "noteNumber": 61,
        "velocity": 80
      },
      {
        "deltaTime": 10,
        "running": true,
        "channel": 3,
        "type": "noteOff",
        "noteNumber": 62,
        "velocity": 0,
        "byte9": true
      },
      {
        "deltaTime": 50,
        "running": true,
        "channel": 3,
        "type": "noteOn",
        "noteNumber": 62,
        "velocity": 74
      },
      {
        "deltaTime": 3,
        "running": true,
        "channel": 3,
        "type": "noteOff",
        "noteNumber": 61,
        "velocity": 0,
        "byte9": true
      },
      {
        "deltaTime": 67,
        "running": true,
        "channel": 3,
        "type": "noteOn",
        "noteNumber": 64,
        "velocity": 86
      },
      {
        "deltaTime": 10,
        "running": true,
        "channel": 3,
        "type": "noteOff",
        "noteNumber": 62,
        "velocity": 0,
        "byte9": true
      },
      {
        "deltaTime": 689,
        "running": true,
        "channel": 3,
        "type": "noteOff",
        "noteNumber": 64,
        "velocity": 0,
        "byte9": true
      },
      {
        "deltaTime": 375,
        "running": true,
        "channel": 3,
        "type": "noteOn",
        "noteNumber": 81,
        "velocity": 75
      },
      {
        "deltaTime": 1436,
        "running": true,
        "channel": 3,
        "type": "noteOff",
        "noteNumber": 81,
        "velocity": 0,
        "byte9": true
      },
      {
        "deltaTime": 0,
        "running": true,
        "channel": 3,
        "type": "noteOn",
        "noteNumber": 79,
        "velocity": 65
      },
      {
        "deltaTime": 2,
        "running": true,
        "channel": 3,
        "type": "noteOn",
        "noteNumber": 67,
        "velocity": 66
      },
      {
        "deltaTime": 1444,
        "running": true,
        "channel": 3,
        "type": "noteOff",
        "noteNumber": 79,
        "velocity": 0,
        "byte9": true
      },
      {
        "deltaTime": 2,
        "running": true,
        "channel": 3,
        "type": "noteOff",
        "noteNumber": 67,
        "velocity": 0,
        "byte9": true
      },
      {
        "deltaTime": 0,
        "running": true,
        "channel": 3,
        "type": "noteOn",
        "noteNumber": 77,
        "velocity": 73
      },
      {
        "deltaTime": 3,
        "running": true,
        "channel": 3,
        "type": "noteOn",
        "noteNumber": 65,
        "velocity": 60
      },
      {
        "deltaTime": 938,
        "running": true,
        "channel": 3,
        "type": "noteOn",
        "noteNumber": 64,
        "velocity": 63
      },
      {
        "deltaTime": 6,
        "running": true,
        "channel": 3,
        "type": "noteOn",
        "noteNumber": 76,
        "velocity": 82
      },
      {
        "deltaTime": 2,
        "running": true,
        "channel": 3,
        "type": "noteOff",
        "noteNumber": 65,
        "velocity": 0,
        "byte9": true
      },
      {
        "deltaTime": 5,
        "running": true,
        "channel": 3,
        "type": "noteOff",
        "noteNumber": 77,
        "velocity": 0,
        "byte9": true
      },
      {
        "deltaTime": 115,
        "running": true,
        "channel": 3,
        "type": "noteOff",
        "noteNumber": 76,
        "velocity": 0,
        "byte9": true
      },
      {
        "deltaTime": 0,
        "running": true,
        "channel": 3,
        "type": "noteOn",
        "noteNumber": 62,
        "velocity": 63
      },
      {
        "deltaTime": 0,
        "running": true,
        "channel": 3,
        "type": "noteOn",
        "noteNumber": 74,
        "velocity": 60
      },
      {
        "deltaTime": 9,
        "running": true,
        "channel": 3,
        "type": "noteOff",
        "noteNumber": 64,
        "velocity": 0,
        "byte9": true
      },
      {
        "deltaTime": 245,
        "running": true,
        "channel": 3,
        "type": "noteOn",
        "noteNumber": 61,
        "velocity": 52
      },
      {
        "deltaTime": 10,
        "running": true,
        "channel": 3,
        "type": "noteOff",
        "noteNumber": 62,
        "velocity": 0,
        "byte9": true
      },
      {
        "deltaTime": 0,
        "running": true,
        "channel": 3,
        "type": "noteOn",
        "noteNumber": 73,
        "velocity": 73
      },
      {
        "deltaTime": 6,
        "running": true,
        "channel": 3,
        "type": "noteOff",
        "noteNumber": 74,
        "velocity": 0,
        "byte9": true
      },
      {
        "deltaTime": 43,
        "running": true,
        "channel": 3,
        "type": "noteOff",
        "noteNumber": 61,
        "velocity": 0,
        "byte9": true
      },
      {
        "deltaTime": 6,
        "running": true,
        "channel": 3,
        "type": "noteOn",
        "noteNumber": 64,
        "velocity": 54
      },
      {
        "deltaTime": 5,
        "running": true,
        "channel": 3,
        "type": "noteOn",
        "noteNumber": 76,
        "velocity": 71
      },
      {
        "deltaTime": 12,
        "running": true,
        "channel": 3,
        "type": "noteOff",
        "noteNumber": 73,
        "velocity": 0,
        "byte9": true
      },
      {
        "deltaTime": 44,
        "running": true,
        "channel": 3,
        "type": "noteOff",
        "noteNumber": 76,
        "velocity": 0,
        "byte9": true
      },
      {
        "deltaTime": 0,
        "running": true,
        "channel": 3,
        "type": "noteOn",
        "noteNumber": 74,
        "velocity": 55
      },
      {
        "deltaTime": 5,
        "running": true,
        "channel": 3,
        "type": "noteOn",
        "noteNumber": 62,
        "velocity": 71
      },
      {
        "deltaTime": 1,
        "running": true,
        "channel": 3,
        "type": "noteOff",
        "noteNumber": 64,
        "velocity": 0,
        "byte9": true
      },
      {
        "deltaTime": 414,
        "running": true,
        "channel": 3,
        "type": "noteOff",
        "noteNumber": 62,
        "velocity": 0,
        "byte9": true
      },
      {
        "deltaTime": 5,
        "running": true,
        "channel": 3,
        "type": "noteOff",
        "noteNumber": 74,
        "velocity": 0,
        "byte9": true
      },
      {
        "deltaTime": 644,
        "running": true,
        "channel": 3,
        "type": "noteOn",
        "noteNumber": 70,
        "velocity": 114
      },
      {
        "deltaTime": 0,
        "running": true,
        "channel": 3,
        "type": "noteOn",
        "noteNumber": 82,
        "velocity": 126
      },
      {
        "deltaTime": 1440,
        "running": true,
        "channel": 3,
        "type": "noteOff",
        "noteNumber": 70,
        "velocity": 0,
        "byte9": true
      },
      {
        "deltaTime": 2,
        "running": true,
        "channel": 3,
        "type": "noteOn",
        "noteNumber": 81,
        "velocity": 99
      },
      {
        "deltaTime": 0,
        "running": true,
        "channel": 3,
        "type": "noteOn",
        "noteNumber": 69,
        "velocity": 68
      },
      {
        "deltaTime": 3,
        "running": true,
        "channel": 3,
        "type": "noteOff",
        "noteNumber": 82,
        "velocity": 0,
        "byte9": true
      },
      {
        "deltaTime": 1424,
        "running": true,
        "channel": 3,
        "type": "noteOn",
        "noteNumber": 67,
        "velocity": 70
      },
      {
        "deltaTime": 1,
        "running": true,
        "channel": 3,
        "type": "noteOn",
        "noteNumber": 79,
        "velocity": 107
      },
      {
        "deltaTime": 1,
        "running": true,
        "channel": 3,
        "type": "noteOff",
        "noteNumber": 81,
        "velocity": 0,
        "byte9": true
      },
      {
        "deltaTime": 10,
        "running": true,
        "channel": 3,
        "type": "noteOff",
        "noteNumber": 69,
        "velocity": 0,
        "byte9": true
      },
      {
        "deltaTime": 1089,
        "running": true,
        "channel": 3,
        "type": "noteOff",
        "noteNumber": 79,
        "velocity": 0,
        "byte9": true
      },
      {
        "deltaTime": 9,
        "running": true,
        "channel": 3,
        "type": "noteOff",
        "noteNumber": 67,
        "velocity": 0,
        "byte9": true
      },
      {
        "deltaTime": 0,
        "running": true,
        "channel": 3,
        "type": "noteOn",
        "noteNumber": 81,
        "velocity": 118
      },
      {
        "deltaTime": 0,
        "running": true,
        "channel": 3,
        "type": "noteOn",
        "noteNumber": 69,
        "velocity": 77
      },
      {
        "deltaTime": 85,
        "running": true,
        "channel": 3,
        "type": "noteOff",
        "noteNumber": 69,
        "velocity": 0,
        "byte9": true
      },
      {
        "deltaTime": 31,
        "running": true,
        "channel": 3,
        "type": "noteOn",
        "noteNumber": 72,
        "velocity": 105
      },
      {
        "deltaTime": 7,
        "running": true,
        "channel": 3,
        "type": "noteOn",
        "noteNumber": 84,
        "velocity": 127
      },
      {
        "deltaTime": 5,
        "running": true,
        "channel": 3,
        "type": "noteOff",
        "noteNumber": 81,
        "velocity": 0,
        "byte9": true
      },
      {
        "deltaTime": 89,
        "running": true,
        "channel": 3,
        "type": "noteOn",
        "noteNumber": 70,
        "velocity": 123
      },
      {
        "deltaTime": 4,
        "running": true,
        "channel": 3,
        "type": "noteOn",
        "noteNumber": 82,
        "velocity": 126
      },
      {
        "deltaTime": 6,
        "running": true,
        "channel": 3,
        "type": "noteOff",
        "noteNumber": 72,
        "velocity": 0,
        "byte9": true
      },
      {
        "deltaTime": 4,
        "running": true,
        "channel": 3,
        "type": "noteOff",
        "noteNumber": 84,
        "velocity": 0,
        "byte9": true
      },
      {
        "deltaTime": 93,
        "running": true,
        "channel": 3,
        "type": "noteOff",
        "noteNumber": 70,
        "velocity": 0,
        "byte9": true
      },
      {
        "deltaTime": 13,
        "running": true,
        "channel": 3,
        "type": "noteOn",
        "noteNumber": 69,
        "velocity": 99
      },
      {
        "deltaTime": 5,
        "running": true,
        "channel": 3,
        "type": "noteOn",
        "noteNumber": 81,
        "velocity": 127
      },
      {
        "deltaTime": 2,
        "channel": 3,
        "type": "channelAftertouch",
        "amount": 13
      },
      {
        "deltaTime": 1,
        "channel": 3,
        "type": "noteOff",
        "noteNumber": 82,
        "velocity": 0,
        "byte9": true
      },
      {
        "deltaTime": 18,
        "channel": 3,
        "type": "channelAftertouch",
        "amount": 0
      },
      {
        "deltaTime": 338,
        "channel": 3,
        "type": "noteOn",
        "noteNumber": 73,
        "velocity": 126
      },
      {
        "deltaTime": 1,
        "running": true,
        "channel": 3,
        "type": "noteOn",
        "noteNumber": 85,
        "velocity": 127
      },
      {
        "deltaTime": 3,
        "running": true,
        "channel": 3,
        "type": "noteOff",
        "noteNumber": 81,
        "velocity": 0,
        "byte9": true
      },
      {
        "deltaTime": 6,
        "running": true,
        "channel": 3,
        "type": "noteOff",
        "noteNumber": 69,
        "velocity": 0,
        "byte9": true
      },
      {
        "deltaTime": 339,
        "running": true,
        "channel": 3,
        "type": "noteOff",
        "noteNumber": 85,
        "velocity": 0,
        "byte9": true
      },
      {
        "deltaTime": 6,
        "running": true,
        "channel": 3,
        "type": "noteOff",
        "noteNumber": 73,
        "velocity": 0,
        "byte9": true
      },
      {
        "deltaTime": 12,
        "running": true,
        "channel": 3,
        "type": "noteOn",
        "noteNumber": 86,
        "velocity": 125
      },
      {
        "deltaTime": 5,
        "running": true,
        "channel": 3,
        "type": "noteOn",
        "noteNumber": 74,
        "velocity": 118
      },
      {
        "deltaTime": 11,
        "channel": 3,
        "type": "channelAftertouch",
        "amount": 1
      },
      {
        "deltaTime": 2,
        "running": true,
        "channel": 3,
        "type": "channelAftertouch",
        "amount": 4
      },
      {
        "deltaTime": 3,
        "running": true,
        "channel": 3,
        "type": "channelAftertouch",
        "amount": 5
      },
      {
        "deltaTime": 9,
        "running": true,
        "channel": 3,
        "type": "channelAftertouch",
        "amount": 2
      },
      {
        "deltaTime": 4,
        "running": true,
        "channel": 3,
        "type": "channelAftertouch",
        "amount": 0
      },
      {
        "deltaTime": 48,
        "channel": 3,
        "type": "noteOff",
        "noteNumber": 74,
        "velocity": 0,
        "byte9": true
      },
      {
        "deltaTime": 2,
        "running": true,
        "channel": 3,
        "type": "noteOff",
        "noteNumber": 86,
        "velocity": 0,
        "byte9": true
      },
      {
        "deltaTime": 640,
        "running": true,
        "channel": 3,
        "type": "noteOn",
        "noteNumber": 82,
        "velocity": 84
      },
      {
        "deltaTime": 7,
        "running": true,
        "channel": 3,
        "type": "noteOn",
        "noteNumber": 70,
        "velocity": 80
      },
      {
        "deltaTime": 1440,
        "running": true,
        "channel": 3,
        "type": "noteOff",
        "noteNumber": 82,
        "velocity": 0,
        "byte9": true
      },
      {
        "deltaTime": 0,
        "running": true,
        "channel": 3,
        "type": "noteOff",
        "noteNumber": 70,
        "velocity": 0,
        "byte9": true
      },
      {
        "deltaTime": 0,
        "running": true,
        "channel": 3,
        "type": "noteOn",
        "noteNumber": 69,
        "velocity": 68
      },
      {
        "deltaTime": 0,
        "running": true,
        "channel": 3,
        "type": "noteOn",
        "noteNumber": 81,
        "velocity": 75
      },
      {
        "deltaTime": 1429,
        "running": true,
        "channel": 3,
        "type": "noteOn",
        "noteNumber": 79,
        "velocity": 75
      },
      {
        "deltaTime": 0,
        "running": true,
        "channel": 3,
        "type": "noteOn",
        "noteNumber": 67,
        "velocity": 73
      },
      {
        "deltaTime": 13,
        "running": true,
        "channel": 3,
        "type": "noteOff",
        "noteNumber": 69,
        "velocity": 0,
        "byte9": true
      },
      {
        "deltaTime": 0,
        "running": true,
        "channel": 3,
        "type": "noteOff",
        "noteNumber": 81,
        "velocity": 0,
        "byte9": true
      },
      {
        "deltaTime": 883,
        "running": true,
        "channel": 3,
        "type": "noteOff",
        "noteNumber": 79,
        "velocity": 0,
        "byte9": true
      },
      {
        "deltaTime": 25,
        "running": true,
        "channel": 3,
        "type": "noteOff",
        "noteNumber": 67,
        "velocity": 0,
        "byte9": true
      },
      {
        "deltaTime": 19,
        "running": true,
        "channel": 3,
        "type": "noteOn",
        "noteNumber": 81,
        "velocity": 95
      },
      {
        "deltaTime": 2,
        "running": true,
        "channel": 3,
        "type": "noteOn",
        "noteNumber": 69,
        "velocity": 80
      },
      {
        "deltaTime": 58,
        "running": true,
        "channel": 3,
        "type": "noteOff",
        "noteNumber": 69,
        "velocity": 0,
        "byte9": true
      },
      {
        "deltaTime": 22,
        "running": true,
        "channel": 3,
        "type": "noteOff",
        "noteNumber": 81,
        "velocity": 0,
        "byte9": true
      },
      {
        "deltaTime": 38,
        "running": true,
        "channel": 3,
        "type": "noteOn",
        "noteNumber": 69,
        "velocity": 80
      },
      {
        "deltaTime": 3,
        "running": true,
        "channel": 3,
        "type": "noteOn",
        "noteNumber": 81,
        "velocity": 109
      },
      {
        "deltaTime": 131,
        "running": true,
        "channel": 3,
        "type": "noteOff",
        "noteNumber": 69,
        "velocity": 0,
        "byte9": true
      },
      {
        "deltaTime": 7,
        "running": true,
        "channel": 3,
        "type": "noteOn",
        "noteNumber": 65,
        "velocity": 95
      },
      {
        "deltaTime": 4,
        "running": true,
        "channel": 3,
        "type": "noteOn",
        "noteNumber": 77,
        "velocity": 125
      },
      {
        "deltaTime": 4,
        "running": true,
        "channel": 3,
        "type": "noteOff",
        "noteNumber": 81,
        "velocity": 0,
        "byte9": true
      },
      {
        "deltaTime": 100,
        "running": true,
        "channel": 3,
        "type": "noteOff",
        "noteNumber": 65,
        "velocity": 0,
        "byte9": true
      },
      {
        "deltaTime": 0,
        "running": true,
        "channel": 3,
        "type": "noteOn",
        "noteNumber": 64,
        "velocity": 87
      },
      {
        "deltaTime": 4,
        "running": true,
        "channel": 3,
        "type": "noteOn",
        "noteNumber": 76,
        "velocity": 121
      },
      {
        "deltaTime": 3,
        "running": true,
        "channel": 3,
        "type": "noteOff",
        "noteNumber": 77,
        "velocity": 0,
        "byte9": true
      },
      {
        "deltaTime": 109,
        "running": true,
        "channel": 3,
        "type": "noteOff",
        "noteNumber": 64,
        "velocity": 0,
        "byte9": true
      },
      {
        "deltaTime": 0,
        "running": true,
        "channel": 3,
        "type": "noteOn",
        "noteNumber": 62,
        "velocity": 81
      },
      {
        "deltaTime": 9,
        "running": true,
        "channel": 3,
        "type": "noteOff",
        "noteNumber": 76,
        "velocity": 0,
        "byte9": true
      },
      {
        "deltaTime": 0,
        "running": true,
        "channel": 3,
        "type": "noteOn",
        "noteNumber": 74,
        "velocity": 98
      },
      {
        "deltaTime": 405,
        "channel": 3,
        "type": "channelAftertouch",
        "amount": 2
      },
      {
        "deltaTime": 22,
        "running": true,
        "channel": 3,
        "type": "channelAftertouch",
        "amount": 0
      },
      {
        "deltaTime": 329,
        "channel": 3,
        "type": "noteOff",
        "noteNumber": 74,
        "velocity": 0,
        "byte9": true
      },
      {
        "deltaTime": 15,
        "running": true,
        "channel": 3,
        "type": "noteOff",
        "noteNumber": 62,
        "velocity": 0,
        "byte9": true
      },
      {
        "deltaTime": 0,
        "meta": true,
        "type": "endOfTrack"
      }
    ],
    [
      {
        "deltaTime": 0,
        "meta": true,
        "type": "trackName",
        "text": "WinJammer Demo"
      },
      {
        "deltaTime": 0,
        "meta": true,
        "type": "portPrefix",
        "port": 0
      },
      {
        "deltaTime": 0,
        "channel": 4,
        "type": "controller",
        "controllerType": 0,
        "value": 80
      },
      {
        "deltaTime": 0,
        "running": true,
        "channel": 4,
        "type": "controller",
        "controllerType": 32,
        "value": 0
      },
      {
        "deltaTime": 0,
        "channel": 4,
        "type": "programChange",
        "programNumber": 48
      },
      {
        "deltaTime": 0,
        "channel": 4,
        "type": "noteOn",
        "noteNumber": 62,
        "velocity": 127
      },
      {
        "deltaTime": 95,
        "running": true,
        "channel": 4,
        "type": "noteOff",
        "noteNumber": 62,
        "velocity": 0,
        "byte9": true
      },
      {
        "deltaTime": 4,
        "running": true,
        "channel": 4,
        "type": "noteOn",
        "noteNumber": 64,
        "velocity": 126
      },
      {
        "deltaTime": 130,
        "running": true,
        "channel": 4,
        "type": "noteOn",
        "noteNumber": 65,
        "velocity": 127
      },
      {
        "deltaTime": 14,
        "running": true,
        "channel": 4,
        "type": "noteOff",
        "noteNumber": 64,
        "velocity": 0,
        "byte9": true
      },
      {
        "deltaTime": 81,
        "running": true,
        "channel": 4,
        "type": "noteOff",
        "noteNumber": 65,
        "velocity": 0,
        "byte9": true
      },
      {
        "deltaTime": 142,
        "running": true,
        "channel": 4,
        "type": "noteOn",
        "noteNumber": 69,
        "velocity": 81
      },
      {
        "deltaTime": 0,
        "running": true,
        "channel": 4,
        "type": "noteOn",
        "noteNumber": 81,
        "velocity": 92
      },
      {
        "deltaTime": 22,
        "running": true,
        "channel": 4,
        "type": "noteOff",
        "noteNumber": 81,
        "velocity": 0,
        "byte9": true
      },
      {
        "deltaTime": 1,
        "running": true,
        "channel": 4,
        "type": "noteOff",
        "noteNumber": 69,
        "velocity": 0,
        "byte9": true
      },
      {
        "deltaTime": 27,
        "running": true,
        "channel": 4,
        "type": "noteOn",
        "noteNumber": 69,
        "velocity": 77
      },
      {
        "deltaTime": 1,
        "running": true,
        "channel": 4,
        "type": "noteOn",
        "noteNumber": 81,
        "velocity": 86
      },
      {
        "deltaTime": 21,
        "running": true,
        "channel": 4,
        "type": "noteOff",
        "noteNumber": 81,
        "velocity": 0,
        "byte9": true
      },
      {
        "deltaTime": 2,
        "running": true,
        "channel": 4,
        "type": "noteOff",
        "noteNumber": 69,
        "velocity": 0,
        "byte9": true
      },
      {
        "deltaTime": 30,
        "running": true,
        "channel": 4,
        "type": "noteOn",
        "noteNumber": 69,
        "velocity": 81
      },
      {
        "deltaTime": 0,
        "running": true,
        "channel": 4,
        "type": "noteOn",
        "noteNumber": 81,
        "velocity": 93
      },
      {
        "deltaTime": 21,
        "running": true,
        "channel": 4,
        "type": "noteOff",
        "noteNumber": 81,
        "velocity": 0,
        "byte9": true
      },
      {
        "deltaTime": 1,
        "running": true,
        "channel": 4,
        "type": "noteOff",
        "noteNumber": 69,
        "velocity": 0,
        "byte9": true
      },
      {
        "deltaTime": 31,
        "running": true,
        "channel": 4,
        "type": "noteOn",
        "noteNumber": 81,
        "velocity": 93
      },
      {
        "deltaTime": 2,
        "running": true,
        "channel": 4,
        "type": "noteOn",
        "noteNumber": 69,
        "velocity": 89
      },
      {
        "deltaTime": 23,
        "running": true,
        "channel": 4,
        "type": "noteOff",
        "noteNumber": 69,
        "velocity": 0,
        "byte9": true
      },
      {
        "deltaTime": 1,
        "running": true,
        "channel": 4,
        "type": "noteOff",
        "noteNumber": 81,
        "velocity": 0,
        "byte9": true
      },
      {
        "deltaTime": 174,
        "running": true,
        "channel": 4,
        "type": "noteOn",
        "noteNumber": 69,
        "velocity": 89
      },
      {
        "deltaTime": 0,
        "running": true,
        "channel": 4,
        "type": "noteOn",
        "noteNumber": 81,
        "velocity": 93
      },
      {
        "deltaTime": 22,
        "running": true,
        "channel": 4,
        "type": "noteOff",
        "noteNumber": 69,
        "velocity": 0,
        "byte9": true
      },
      {
        "deltaTime": 1,
        "running": true,
        "channel": 4,
        "type": "noteOff",
        "noteNumber": 81,
        "velocity": 0,
        "byte9": true
      },
      {
        "deltaTime": 347,
        "running": true,
        "channel": 4,
        "type": "noteOn",
        "noteNumber": 69,
        "velocity": 85
      },
      {
        "deltaTime": 1,
        "running": true,
        "channel": 4,
        "type": "noteOn",
        "noteNumber": 81,
        "velocity": 87
      },
      {
        "deltaTime": 22,
        "running": true,
        "channel": 4,
        "type": "noteOff",
        "noteNumber": 69,
        "velocity": 0,
        "byte9": true
      },
      {
        "deltaTime": 0,
        "running": true,
        "channel": 4,
        "type": "noteOff",
        "noteNumber": 81,
        "velocity": 0,
        "byte9": true
      },
      {
        "deltaTime": 26,
        "running": true,
        "channel": 4,
        "type": "noteOn",
        "noteNumber": 69,
        "velocity": 76
      },
      {
        "deltaTime": 1,
        "running": true,
        "channel": 4,
        "type": "noteOn",
        "noteNumber": 81,
        "velocity": 86
      },
      {
        "deltaTime": 23,
        "running": true,
        "channel": 4,
        "type": "noteOff",
        "noteNumber": 69,
        "velocity": 0,
        "byte9": true
      },
      {
        "deltaTime": 0,
        "running": true,
        "channel": 4,
        "type": "noteOff",
        "noteNumber": 81,
        "velocity": 0,
        "byte9": true
      },
      {
        "deltaTime": 31,
        "running": true,
        "channel": 4,
        "type": "noteOn",
        "noteNumber": 81,
        "velocity": 82
      },
      {
        "deltaTime": 1,
        "running": true,
        "channel": 4,
        "type": "noteOn",
        "noteNumber": 69,
        "velocity": 76
      },
      {
        "deltaTime": 26,
        "running": true,
        "channel": 4,
        "type": "noteOff",
        "noteNumber": 81,
        "velocity": 0,
        "byte9": true
      },
      {
        "deltaTime": 0,
        "running": true,
        "channel": 4,
        "type": "noteOff",
        "noteNumber": 69,
        "velocity": 0,
        "byte9": true
      },
      {
        "deltaTime": 30,
        "running": true,
        "channel": 4,
        "type": "noteOn",
        "noteNumber": 69,
        "velocity": 79
      },
      {
        "deltaTime": 0,
        "running": true,
        "channel": 4,
        "type": "noteOn",
        "noteNumber": 81,
        "velocity": 93
      },
      {
        "deltaTime": 22,
        "running": true,
        "channel": 4,
        "type": "noteOff",
        "noteNumber": 69,
        "velocity": 0,
        "byte9": true
      },
      {
        "deltaTime": 0,
        "running": true,
        "channel": 4,
        "type": "noteOff",
        "noteNumber": 81,
        "velocity": 0,
        "byte9": true
      },
      {
        "deltaTime": 178,
        "running": true,
        "channel": 4,
        "type": "noteOn",
        "noteNumber": 81,
        "velocity": 89
      },
      {
        "deltaTime": 2,
        "running": true,
        "channel": 4,
        "type": "noteOn",
        "noteNumber": 69,
        "velocity": 86
      },
      {
        "deltaTime": 20,
        "running": true,
        "channel": 4,
        "type": "noteOff",
        "noteNumber": 69,
        "velocity": 0,
        "byte9": true
      },
      {
        "deltaTime": 2,
        "running": true,
        "channel": 4,
        "type": "noteOff",
        "noteNumber": 81,
        "velocity": 0,
        "byte9": true
      },
      {
        "deltaTime": 338,
        "running": true,
        "channel": 4,
        "type": "noteOn",
        "noteNumber": 67,
        "velocity": 76
      },
      {
        "deltaTime": 0,
        "running": true,
        "channel": 4,
        "type": "noteOn",
        "noteNumber": 79,
        "velocity": 79
      },
      {
        "deltaTime": 24,
        "running": true,
        "channel": 4,
        "type": "noteOff",
        "noteNumber": 67,
        "velocity": 0,
        "byte9": true
      },
      {
        "deltaTime": 0,
        "running": true,
        "channel": 4,
        "type": "noteOff",
        "noteNumber": 79,
        "velocity": 0,
        "byte9": true
      },
      {
        "deltaTime": 31,
        "running": true,
        "channel": 4,
        "type": "noteOn",
        "noteNumber": 67,
        "velocity": 71
      },
      {
        "deltaTime": 1,
        "running": true,
        "channel": 4,
        "type": "noteOn",
        "noteNumber": 79,
        "velocity": 79
      },
      {
        "deltaTime": 22,
        "running": true,
        "channel": 4,
        "type": "noteOff",
        "noteNumber": 67,
        "velocity": 0,
        "byte9": true
      },
      {
        "deltaTime": 0,
        "running": true,
        "channel": 4,
        "type": "noteOff",
        "noteNumber": 79,
        "velocity": 0,
        "byte9": true
      },
      {
        "deltaTime": 31,
        "running": true,
        "channel": 4,
        "type": "noteOn",
        "noteNumber": 79,
        "velocity": 73
      },
      {
        "deltaTime": 2,
        "running": true,
        "channel": 4,
        "type": "noteOn",
        "noteNumber": 67,
        "velocity": 77
      },
      {
        "deltaTime": 22,
        "running": true,
        "channel": 4,
        "type": "noteOff",
        "noteNumber": 79,
        "velocity": 0,
        "byte9": true
      },
      {
        "deltaTime": 0,
        "running": true,
        "channel": 4,
        "type": "noteOff",
        "noteNumber": 67,
        "velocity": 0,
        "byte9": true
      },
      {
        "deltaTime": 32,
        "running": true,
        "channel": 4,
        "type": "noteOn",
        "noteNumber": 79,
        "velocity": 79
      },
      {
        "deltaTime": 1,
        "running": true,
        "channel": 4,
        "type": "noteOn",
        "noteNumber": 67,
        "velocity": 89
      },
      {
        "deltaTime": 23,
        "running": true,
        "channel": 4,
        "type": "noteOff",
        "noteNumber": 67,
        "velocity": 0,
        "byte9": true
      },
      {
        "deltaTime": 1,
        "running": true,
        "channel": 4,
        "type": "noteOff",
        "noteNumber": 79,
        "velocity": 0,
        "byte9": true
      },
      {
        "deltaTime": 166,
        "running": true,
        "channel": 4,
        "type": "noteOn",
        "noteNumber": 67,
        "velocity": 68
      },
      {
        "deltaTime": 0,
        "running": true,
        "channel": 4,
        "type": "noteOn",
        "noteNumber": 79,
        "velocity": 65
      },
      {
        "deltaTime": 16,
        "running": true,
        "channel": 4,
        "type": "noteOff",
        "noteNumber": 79,
        "velocity": 0,
        "byte9": true
      },
      {
        "deltaTime": 1,
        "running": true,
        "channel": 4,
        "type": "noteOff",
        "noteNumber": 67,
        "velocity": 0,
        "byte9": true
      },
      {
        "deltaTime": 100,
        "running": true,
        "channel": 4,
        "type": "noteOn",
        "noteNumber": 79,
        "velocity": 84
      },
      {
        "deltaTime": 0,
        "running": true,
        "channel": 4,
        "type": "noteOn",
        "noteNumber": 67,
        "velocity": 92
      },
      {
        "deltaTime": 103,
        "running": true,
        "channel": 4,
        "type": "noteOff",
        "noteNumber": 79,
        "velocity": 0,
        "byte9": true
      },
      {
        "deltaTime": 3,
        "running": true,
        "channel": 4,
        "type": "noteOff",
        "noteNumber": 67,
        "velocity": 0,
        "byte9": true
      },
      {
        "deltaTime": 145,
        "running": true,
        "channel": 4,
        "type": "noteOn",
        "noteNumber": 67,
        "velocity": 64
      },
      {
        "deltaTime": 0,
        "running": true,
        "channel": 4,
        "type": "noteOn",
        "noteNumber": 79,
        "velocity": 68
      },
      {
        "deltaTime": 21,
        "running": true,
        "channel": 4,
        "type": "noteOff",
        "noteNumber": 79,
        "velocity": 0,
        "byte9": true
      },
      {
        "deltaTime": 1,
        "running": true,
        "channel": 4,
        "type": "noteOff",
        "noteNumber": 67,
        "velocity": 0,
        "byte9": true
      },
      {
        "deltaTime": 28,
        "running": true,
        "channel": 4,
        "type": "noteOn",
        "noteNumber": 67,
        "velocity": 57
      },
      {
        "deltaTime": 3,
        "running": true,
        "channel": 4,
        "type": "noteOn",
        "noteNumber": 79,
        "velocity": 67
      },
      {
        "deltaTime": 18,
        "running": true,
        "channel": 4,
        "type": "noteOff",
        "noteNumber": 79,
        "velocity": 0,
        "byte9": true
      },
      {
        "deltaTime": 1,
        "running": true,
        "channel": 4,
        "type": "noteOff",
        "noteNumber": 67,
        "velocity": 0,
        "byte9": true
      },
      {
        "deltaTime": 32,
        "running": true,
        "channel": 4,
        "type": "noteOn",
        "noteNumber": 79,
        "velocity": 64
      },
      {
        "deltaTime": 2,
        "running": true,
        "channel": 4,
        "type": "noteOn",
        "noteNumber": 67,
        "velocity": 73
      },
      {
        "deltaTime": 21,
        "running": true,
        "channel": 4,
        "type": "noteOff",
        "noteNumber": 79,
        "velocity": 0,
        "byte9": true
      },
      {
        "deltaTime": 0,
        "running": true,
        "channel": 4,
        "type": "noteOff",
        "noteNumber": 67,
        "velocity": 0,
        "byte9": true
      },
      {
        "deltaTime": 33,
        "running": true,
        "channel": 4,
        "type": "noteOn",
        "noteNumber": 79,
        "velocity": 80
      },
      {
        "deltaTime": 0,
        "running": true,
        "channel": 4,
        "type": "noteOn",
        "noteNumber": 67,
        "velocity": 89
      },
      {
        "deltaTime": 23,
        "running": true,
        "channel": 4,
        "type": "noteOff",
        "noteNumber": 79,
        "velocity": 0,
        "byte9": true
      },
      {
        "deltaTime": 0,
        "running": true,
        "channel": 4,
        "type": "noteOff",
        "noteNumber": 67,
        "velocity": 0,
        "byte9": true
      },
      {
        "deltaTime": 167,
        "running": true,
        "channel": 4,
        "type": "noteOn",
        "noteNumber": 79,
        "velocity": 77
      },
      {
        "deltaTime": 0,
        "running": true,
        "channel": 4,
        "type": "noteOn",
        "noteNumber": 67,
        "velocity": 77
      },
      {
        "deltaTime": 20,
        "running": true,
        "channel": 4,
        "type": "noteOff",
        "noteNumber": 79,
        "velocity": 0,
        "byte9": true
      },
      {
        "deltaTime": 0,
        "running": true,
        "channel": 4,
        "type": "noteOff",
        "noteNumber": 67,
        "velocity": 0,
        "byte9": true
      },
      {
        "deltaTime": 97,
        "running": true,
        "channel": 4,
        "type": "noteOn",
        "noteNumber": 79,
        "velocity": 90
      },
      {
        "deltaTime": 0,
        "running": true,
        "channel": 4,
        "type": "noteOn",
        "noteNumber": 67,
        "velocity": 95
      },
      {
        "deltaTime": 97,
        "running": true,
        "channel": 4,
        "type": "noteOff",
        "noteNumber": 79,
        "velocity": 0,
        "byte9": true
      },
      {
        "deltaTime": 9,
        "running": true,
        "channel": 4,
        "type": "noteOff",
        "noteNumber": 67,
        "velocity": 0,
        "byte9": true
      },
      {
        "deltaTime": 138,
        "running": true,
        "channel": 4,
        "type": "noteOn",
        "noteNumber": 65,
        "velocity": 67
      },
      {
        "deltaTime": 3,
        "running": true,
        "channel": 4,
        "type": "noteOn",
        "noteNumber": 77,
        "velocity": 64
      },
      {
        "deltaTime": 18,
        "running": true,
        "channel": 4,
        "type": "noteOff",
        "noteNumber": 77,
        "velocity": 0,
        "byte9": true
      },
      {
        "deltaTime": 4,
        "running": true,
        "channel": 4,
        "type": "noteOff",
        "noteNumber": 65,
        "velocity": 0,
        "byte9": true
      },
      {
        "deltaTime": 27,
        "running": true,
        "channel": 4,
        "type": "noteOn",
        "noteNumber": 65,
        "velocity": 54
      },
      {
        "deltaTime": 1,
        "running": true,
        "channel": 4,
        "type": "noteOn",
        "noteNumber": 77,
        "velocity": 62
      },
      {
        "deltaTime": 21,
        "running": true,
        "channel": 4,
        "type": "noteOff",
        "noteNumber": 77,
        "velocity": 0,
        "byte9": true
      },
      {
        "deltaTime": 2,
        "running": true,
        "channel": 4,
        "type": "noteOff",
        "noteNumber": 65,
        "velocity": 0,
        "byte9": true
      },
      {
        "deltaTime": 31,
        "running": true,
        "channel": 4,
        "type": "noteOn",
        "noteNumber": 77,
        "velocity": 49
      },
      {
        "deltaTime": 0,
        "running": true,
        "channel": 4,
        "type": "noteOn",
        "noteNumber": 65,
        "velocity": 60
      },
      {
        "deltaTime": 26,
        "running": true,
        "channel": 4,
        "type": "noteOff",
        "noteNumber": 77,
        "velocity": 0,
        "byte9": true
      },
      {
        "deltaTime": 0,
        "running": true,
        "channel": 4,
        "type": "noteOff",
        "noteNumber": 65,
        "velocity": 0,
        "byte9": true
      },
      {
        "deltaTime": 28,
        "running": true,
        "channel": 4,
        "type": "noteOn",
        "noteNumber": 77,
        "velocity": 73
      },
      {
        "deltaTime": 0,
        "running": true,
        "channel": 4,
        "type": "noteOn",
        "noteNumber": 65,
        "velocity": 69
      },
      {
        "deltaTime": 24,
        "running": true,
        "channel": 4,
        "type": "noteOff",
        "noteNumber": 77,
        "velocity": 0,
        "byte9": true
      },
      {
        "deltaTime": 0,
        "running": true,
        "channel": 4,
        "type": "noteOff",
        "noteNumber": 65,
        "velocity": 0,
        "byte9": true
      },
      {
        "deltaTime": 170,
        "running": true,
        "channel": 4,
        "type": "noteOn",
        "noteNumber": 65,
        "velocity": 75
      },
      {
        "deltaTime": 0,
        "running": true,
        "channel": 4,
        "type": "noteOn",
        "noteNumber": 77,
        "velocity": 81
      },
      {
        "deltaTime": 21,
        "running": true,
        "channel": 4,
        "type": "noteOff",
        "noteNumber": 65,
        "velocity": 0,
        "byte9": true
      },
      {
        "deltaTime": 0,
        "running": true,
        "channel": 4,
        "type": "noteOff",
        "noteNumber": 77,
        "velocity": 0,
        "byte9": true
      },
      {
        "deltaTime": 94,
        "running": true,
        "channel": 4,
        "type": "noteOn",
        "noteNumber": 77,
        "velocity": 96
      },
      {
        "deltaTime": 0,
        "running": true,
        "channel": 4,
        "type": "noteOn",
        "noteNumber": 65,
        "velocity": 98
      },
      {
        "deltaTime": 12,
        "channel": 4,
        "type": "channelAftertouch",
        "amount": 5
      },
      {
        "deltaTime": 14,
        "running": true,
        "channel": 4,
        "type": "channelAftertouch",
        "amount": 0
      },
      {
        "deltaTime": 100,
        "channel": 4,
        "type": "noteOff",
        "noteNumber": 77,
        "velocity": 0,
        "byte9": true
      },
      {
        "deltaTime": 7,
        "running": true,
        "channel": 4,
        "type": "noteOff",
        "noteNumber": 65,
        "velocity": 0,
        "byte9": true
      },
      {
        "deltaTime": 112,
        "running": true,
        "channel": 4,
        "type": "noteOn",
        "noteNumber": 65,
        "velocity": 59
      },
      {
        "deltaTime": 2,
        "running": true,
        "channel": 4,
        "type": "noteOn",
        "noteNumber": 77,
        "velocity": 54
      },
      {
        "deltaTime": 17,
        "running": true,
        "channel": 4,
        "type": "noteOff",
        "noteNumber": 77,
        "velocity": 0,
        "byte9": true
      },
      {
        "deltaTime": 2,
        "running": true,
        "channel": 4,
        "type": "noteOff",
        "noteNumber": 65,
        "velocity": 0,
        "byte9": true
      },
      {
        "deltaTime": 43,
        "running": true,
        "channel": 4,
        "type": "noteOn",
        "noteNumber": 65,
        "velocity": 48
      },
      {
        "deltaTime": 7,
        "running": true,
        "channel": 4,
        "type": "noteOn",
        "noteNumber": 77,
        "velocity": 33
      },
      {
        "deltaTime": 10,
        "running": true,
        "channel": 4,
        "type": "noteOff",
        "noteNumber": 77,
        "velocity": 0,
        "byte9": true
      },
      {
        "deltaTime": 3,
        "running": true,
        "channel": 4,
        "type": "noteOff",
        "noteNumber": 65,
        "velocity": 0,
        "byte9": true
      },
      {
        "deltaTime": 170,
        "channel": 4,
        "type": "controller",
        "controllerType": 0,
        "value": 80
      },
      {
        "deltaTime": 0,
        "running": true,
        "channel": 4,
        "type": "controller",
        "controllerType": 32,
        "value": 0
      },
      {
        "deltaTime": 0,
        "channel": 4,
        "type": "programChange",
        "programNumber": 48
      },
      {
        "deltaTime": 0,
        "channel": 4,
        "type": "noteOn",
        "noteNumber": 62,
        "velocity": 93
      },
      {
        "deltaTime": 9,
        "running": true,
        "channel": 4,
        "type": "noteOn",
        "noteNumber": 74,
        "velocity": 84
      },
      {
        "deltaTime": 231,
        "running": true,
        "channel": 4,
        "type": "noteOff",
        "noteNumber": 62,
        "velocity": 0,
        "byte9": true
      },
      {
        "deltaTime": 3,
        "running": true,
        "channel": 4,
        "type": "noteOff",
        "noteNumber": 74,
        "velocity": 0,
        "byte9": true
      },
      {
        "deltaTime": 114,
        "running": true,
        "channel": 4,
        "type": "noteOn",
        "noteNumber": 64,
        "velocity": 96
      },
      {
        "deltaTime": 1,
        "running": true,
        "channel": 4,
        "type": "noteOn",
        "noteNumber": 76,
        "velocity": 100
      },
      {
        "deltaTime": 390,
        "running": true,
        "channel": 4,
        "type": "noteOff",
        "noteNumber": 76,
        "velocity": 0,
        "byte9": true
      },
      {
        "deltaTime": 8,
        "running": true,
        "channel": 4,
        "type": "noteOff",
        "noteNumber": 64,
        "velocity": 0,
        "byte9": true
      },
      {
        "deltaTime": 319,
        "running": true,
        "channel": 4,
        "type": "noteOn",
        "noteNumber": 62,
        "velocity": 127
      },
      {
        "deltaTime": 129,
        "running": true,
        "channel": 4,
        "type": "noteOn",
        "noteNumber": 64,
        "velocity": 127
      },
      {
        "deltaTime": 8,
        "running": true,
        "channel": 4,
        "type": "noteOff",
        "noteNumber": 62,
        "velocity": 0,
        "byte9": true
      },
      {
        "deltaTime": 108,
        "running": true,
        "channel": 4,
        "type": "noteOn",
        "noteNumber": 65,
        "velocity": 127
      },
      {
        "deltaTime": 10,
        "running": true,
        "channel": 4,
        "type": "noteOff",
        "noteNumber": 64,
        "velocity": 0,
        "byte9": true
      },
      {
        "deltaTime": 72,
        "running": true,
        "channel": 4,
        "type": "noteOff",
        "noteNumber": 65,
        "velocity": 0,
        "byte9": true
      },
      {
        "deltaTime": 155,
        "running": true,
        "channel": 4,
        "type": "noteOn",
        "noteNumber": 81,
        "velocity": 87
      },
      {
        "deltaTime": 1,
        "running": true,
        "channel": 4,
        "type": "noteOn",
        "noteNumber": 69,
        "velocity": 81
      },
      {
        "deltaTime": 23,
        "running": true,
        "channel": 4,
        "type": "noteOff",
        "noteNumber": 69,
        "velocity": 0,
        "byte9": true
      },
      {
        "deltaTime": 2,
        "running": true,
        "channel": 4,
        "type": "noteOff",
        "noteNumber": 81,
        "velocity": 0,
        "byte9": true
      },
      {
        "deltaTime": 25,
        "running": true,
        "channel": 4,
        "type": "noteOn",
        "noteNumber": 69,
        "velocity": 70
      },
      {
        "deltaTime": 1,
        "running": true,
        "channel": 4,
        "type": "noteOn",
        "noteNumber": 81,
        "velocity": 89
      },
      {
        "deltaTime": 23,
        "running": true,
        "channel": 4,
        "type": "noteOff",
        "noteNumber": 69,
        "velocity": 0,
        "byte9": true
      },
      {
        "deltaTime": 0,
        "running": true,
        "channel": 4,
        "type": "noteOff",
        "noteNumber": 81,
        "velocity": 0,
        "byte9": true
      },
      {
        "deltaTime": 28,
        "running": true,
        "channel": 4,
        "type": "noteOn",
        "noteNumber": 81,
        "velocity": 85
      },
      {
        "deltaTime": 2,
        "running": true,
        "channel": 4,
        "type": "noteOn",
        "noteNumber": 69,
        "velocity": 74
      },
      {
        "deltaTime": 22,
        "running": true,
        "channel": 4,
        "type": "noteOff",
        "noteNumber": 81,
        "velocity": 0,
        "byte9": true
      },
      {
        "deltaTime": 0,
        "running": true,
        "channel": 4,
        "type": "noteOff",
        "noteNumber": 69,
        "velocity": 0,
        "byte9": true
      },
      {
        "deltaTime": 29,
        "running": true,
        "channel": 4,
        "type": "noteOn",
        "noteNumber": 69,
        "velocity": 82
      },
      {
        "deltaTime": 0,
        "running": true,
        "channel": 4,
        "type": "noteOn",
        "noteNumber": 81,
        "velocity": 90
      },
      {
        "deltaTime": 24,
        "running": true,
        "channel": 4,
        "type": "noteOff",
        "noteNumber": 69,
        "velocity": 0,
        "byte9": true
      },
      {
        "deltaTime": 0,
        "running": true,
        "channel": 4,
        "type": "noteOff",
        "noteNumber": 81,
        "velocity": 0,
        "byte9": true
      },
      {
        "deltaTime": 168,
        "running": true,
        "channel": 4,
        "type": "noteOn",
        "noteNumber": 81,
        "velocity": 85
      },
      {
        "deltaTime": 1,
        "running": true,
        "channel": 4,
        "type": "noteOn",
        "noteNumber": 69,
        "velocity": 74
      },
      {
        "deltaTime": 18,
        "running": true,
        "channel": 4,
        "type": "noteOff",
        "noteNumber": 81,
        "velocity": 0,
        "byte9": true
      },
      {
        "deltaTime": 0,
        "running": true,
        "channel": 4,
        "type": "noteOff",
        "noteNumber": 69,
        "velocity": 0,
        "byte9": true
      },
      {
        "deltaTime": 102,
        "running": true,
        "channel": 4,
        "type": "noteOn",
        "noteNumber": 69,
        "velocity": 92
      },
      {
        "deltaTime": 1,
        "running": true,
        "channel": 4,
        "type": "noteOn",
        "noteNumber": 81,
        "velocity": 99
      },
      {
        "deltaTime": 132,
        "running": true,
        "channel": 4,
        "type": "noteOff",
        "noteNumber": 81,
        "velocity": 0,
        "byte9": true
      },
      {
        "deltaTime": 5,
        "running": true,
        "channel": 4,
        "type": "noteOff",
        "noteNumber": 69,
        "velocity": 0,
        "byte9": true
      },
      {
        "deltaTime": 106,
        "running": true,
        "channel": 4,
        "type": "noteOn",
        "noteNumber": 69,
        "velocity": 61
      },
      {
        "deltaTime": 2,
        "running": true,
        "channel": 4,
        "type": "noteOn",
        "noteNumber": 81,
        "velocity": 66
      },
      {
        "deltaTime": 19,
        "running": true,
        "channel": 4,
        "type": "noteOff",
        "noteNumber": 81,
        "velocity": 0,
        "byte9": true
      },
      {
        "deltaTime": 2,
        "running": true,
        "channel": 4,
        "type": "noteOff",
        "noteNumber": 69,
        "velocity": 0,
        "byte9": true
      },
      {
        "deltaTime": 31,
        "running": true,
        "channel": 4,
        "type": "noteOn",
        "noteNumber": 69,
        "velocity": 59
      },
      {
        "deltaTime": 3,
        "running": true,
        "channel": 4,
        "type": "noteOn",
        "noteNumber": 81,
        "velocity": 66
      },
      {
        "deltaTime": 20,
        "running": true,
        "channel": 4,
        "type": "noteOff",
        "noteNumber": 69,
        "velocity": 0,
        "byte9": true
      },
      {
        "deltaTime": 0,
        "running": true,
        "channel": 4,
        "type": "noteOff",
        "noteNumber": 81,
        "velocity": 0,
        "byte9": true
      },
      {
        "deltaTime": 33,
        "running": true,
        "channel": 4,
        "type": "noteOn",
        "noteNumber": 81,
        "velocity": 79
      },
      {
        "deltaTime": 0,
        "running": true,
        "channel": 4,
        "type": "noteOn",
        "noteNumber": 69,
        "velocity": 69
      },
      {
        "deltaTime": 24,
        "running": true,
        "channel": 4,
        "type": "noteOff",
        "noteNumber": 81,
        "velocity": 0,
        "byte9": true
      },
      {
        "deltaTime": 0,
        "running": true,
        "channel": 4,
        "type": "noteOff",
        "noteNumber": 69,
        "velocity": 0,
        "byte9": true
      },
      {
        "deltaTime": 30,
        "running": true,
        "channel": 4,
        "type": "noteOn",
        "noteNumber": 81,
        "velocity": 76
      },
      {
        "deltaTime": 2,
        "running": true,
        "channel": 4,
        "type": "noteOn",
        "noteNumber": 69,
        "velocity": 76
      },
      {
        "deltaTime": 27,
        "running": true,
        "channel": 4,
        "type": "noteOff",
        "noteNumber": 69,
        "velocity": 0,
        "byte9": true
      },
      {
        "deltaTime": 2,
        "running": true,
        "channel": 4,
        "type": "noteOff",
        "noteNumber": 81,
        "velocity": 0,
        "byte9": true
      },
      {
        "deltaTime": 156,
        "running": true,
        "channel": 4,
        "type": "noteOn",
        "noteNumber": 81,
        "velocity": 90
      },
      {
        "deltaTime": 1,
        "running": true,
        "channel": 4,
        "type": "noteOn",
        "noteNumber": 69,
        "velocity": 86
      },
      {
        "deltaTime": 22,
        "running": true,
        "channel": 4,
        "type": "noteOff",
        "noteNumber": 81,
        "velocity": 0,
        "byte9": true
      },
      {
        "deltaTime": 0,
        "running": true,
        "channel": 4,
        "type": "noteOff",
        "noteNumber": 69,
        "velocity": 0,
        "byte9": true
      },
      {
        "deltaTime": 103,
        "running": true,
        "channel": 4,
        "type": "noteOn",
        "noteNumber": 69,
        "velocity": 105
      },
      {
        "deltaTime": 1,
        "running": true,
        "channel": 4,
        "type": "noteOn",
        "noteNumber": 81,
        "velocity": 107
      },
      {
        "deltaTime": 10,
        "channel": 4,
        "type": "channelAftertouch",
        "amount": 5
      },
      {
        "deltaTime": 15,
        "running": true,
        "channel": 4,
        "type": "channelAftertouch",
        "amount": 0
      },
      {
        "deltaTime": 91,
        "channel": 4,
        "type": "noteOff",
        "noteNumber": 81,
        "velocity": 0,
        "byte9": true
      },
      {
        "deltaTime": 7,
        "running": true,
        "channel": 4,
        "type": "noteOff",
        "noteNumber": 69,
        "velocity": 0,
        "byte9": true
      },
      {
        "deltaTime": 125,
        "running": true,
        "channel": 4,
        "type": "noteOn",
        "noteNumber": 67,
        "velocity": 73
      },
      {
        "deltaTime": 1,
        "running": true,
        "channel": 4,
        "type": "noteOn",
        "noteNumber": 79,
        "velocity": 77
      },
      {
        "deltaTime": 20,
        "running": true,
        "channel": 4,
        "type": "noteOff",
        "noteNumber": 67,
        "velocity": 0,
        "byte9": true
      },
      {
        "deltaTime": 0,
        "running": true,
        "channel": 4,
        "type": "noteOff",
        "noteNumber": 79,
        "velocity": 0,
        "byte9": true
      },
      {
        "deltaTime": 39,
        "running": true,
        "channel": 4,
        "type": "noteOn",
        "noteNumber": 67,
        "velocity": 82
      },
      {
        "deltaTime": 2,
        "running": true,
        "channel": 4,
        "type": "noteOn",
        "noteNumber": 79,
        "velocity": 82
      },
      {
        "deltaTime": 18,
        "running": true,
        "channel": 4,
        "type": "noteOff",
        "noteNumber": 67,
        "velocity": 0,
        "byte9": true
      },
      {
        "deltaTime": 0,
        "running": true,
        "channel": 4,
        "type": "noteOff",
        "noteNumber": 79,
        "velocity": 0,
        "byte9": true
      },
      {
        "deltaTime": 24,
        "running": true,
        "channel": 4,
        "type": "noteOn",
        "noteNumber": 79,
        "velocity": 84
      },
      {
        "deltaTime": 0,
        "running": true,
        "channel": 4,
        "type": "noteOn",
        "noteNumber": 67,
        "velocity": 85
      },
      {
        "deltaTime": 24,
        "running": true,
        "channel": 4,
        "type": "noteOff",
        "noteNumber": 79,
        "velocity": 0,
        "byte9": true
      },
      {
        "deltaTime": 0,
        "running": true,
        "channel": 4,
        "type": "noteOff",
        "noteNumber": 67,
        "velocity": 0,
        "byte9": true
      },
      {
        "deltaTime": 26,
        "running": true,
        "channel": 4,
        "type": "noteOn",
        "noteNumber": 79,
        "velocity": 87
      },
      {
        "deltaTime": 0,
        "running": true,
        "channel": 4,
        "type": "noteOn",
        "noteNumber": 67,
        "velocity": 86
      },
      {
        "deltaTime": 26,
        "running": true,
        "channel": 4,
        "type": "noteOff",
        "noteNumber": 67,
        "velocity": 0,
        "byte9": true
      },
      {
        "deltaTime": 4,
        "running": true,
        "channel": 4,
        "type": "noteOff",
        "noteNumber": 79,
        "velocity": 0,
        "byte9": true
      },
      {
        "deltaTime": 161,
        "running": true,
        "channel": 4,
        "type": "noteOn",
        "noteNumber": 79,
        "velocity": 70
      },
      {
        "deltaTime": 1,
        "running": true,
        "channel": 4,
        "type": "noteOn",
        "noteNumber": 67,
        "velocity": 73
      },
      {
        "deltaTime": 17,
        "running": true,
        "channel": 4,
        "type": "noteOff",
        "noteNumber": 79,
        "velocity": 0,
        "byte9": true
      },
      {
        "deltaTime": 1,
        "running": true,
        "channel": 4,
        "type": "noteOff",
        "noteNumber": 67,
        "velocity": 0,
        "byte9": true
      },
      {
        "deltaTime": 117,
        "running": true,
        "channel": 4,
        "type": "noteOn",
        "noteNumber": 79,
        "velocity": 89
      },
      {
        "deltaTime": 1,
        "running": true,
        "channel": 4,
        "type": "noteOn",
        "noteNumber": 67,
        "velocity": 100
      },
      {
        "deltaTime": 136,
        "running": true,
        "channel": 4,
        "type": "noteOff",
        "noteNumber": 79,
        "velocity": 0,
        "byte9": true
      },
      {
        "deltaTime": 3,
        "running": true,
        "channel": 4,
        "type": "noteOff",
        "noteNumber": 67,
        "velocity": 0,
        "byte9": true
      },
      {
        "deltaTime": 100,
        "running": true,
        "channel": 4,
        "type": "noteOn",
        "noteNumber": 67,
        "velocity": 66
      },
      {
        "deltaTime": 0,
        "running": true,
        "channel": 4,
        "type": "noteOn",
        "noteNumber": 79,
        "velocity": 60
      },
      {
        "deltaTime": 21,
        "running": true,
        "channel": 4,
        "type": "noteOff",
        "noteNumber": 79,
        "velocity": 0,
        "byte9": true
      },
      {
        "deltaTime": 4,
        "running": true,
        "channel": 4,
        "type": "noteOff",
        "noteNumber": 67,
        "velocity": 0,
        "byte9": true
      },
      {
        "deltaTime": 22,
        "running": true,
        "channel": 4,
        "type": "noteOn",
        "noteNumber": 79,
        "velocity": 52
      },
      {
        "deltaTime": 0,
        "running": true,
        "channel": 4,
        "type": "noteOn",
        "noteNumber": 67,
        "velocity": 63
      },
      {
        "deltaTime": 24,
        "running": true,
        "channel": 4,
        "type": "noteOff",
        "noteNumber": 79,
        "velocity": 0,
        "byte9": true
      },
      {
        "deltaTime": 0,
        "running": true,
        "channel": 4,
        "type": "noteOff",
        "noteNumber": 67,
        "velocity": 0,
        "byte9": true
      },
      {
        "deltaTime": 32,
        "running": true,
        "channel": 4,
        "type": "noteOn",
        "noteNumber": 67,
        "velocity": 71
      },
      {
        "deltaTime": 1,
        "running": true,
        "channel": 4,
        "type": "noteOn",
        "noteNumber": 79,
        "velocity": 57
      },
      {
        "deltaTime": 23,
        "running": true,
        "channel": 4,
        "type": "noteOff",
        "noteNumber": 67,
        "velocity": 0,
        "byte9": true
      },
      {
        "deltaTime": 0,
        "running": true,
        "channel": 4,
        "type": "noteOff",
        "noteNumber": 79,
        "velocity": 0,
        "byte9": true
      },
      {
        "deltaTime": 36,
        "running": true,
        "channel": 4,
        "type": "noteOn",
        "noteNumber": 67,
        "velocity": 80
      },
      {
        "deltaTime": 2,
        "running": true,
        "channel": 4,
        "type": "noteOn",
        "noteNumber": 79,
        "velocity": 80
      },
      {
        "deltaTime": 22,
        "running": true,
        "channel": 4,
        "type": "noteOff",
        "noteNumber": 67,
        "velocity": 0,
        "byte9": true
      },
      {
        "deltaTime": 0,
        "running": true,
        "channel": 4,
        "type": "noteOff",
        "noteNumber": 79,
        "velocity": 0,
        "byte9": true
      },
      {
        "deltaTime": 151,
        "running": true,
        "channel": 4,
        "type": "noteOn",
        "noteNumber": 79,
        "velocity": 68
      },
      {
        "deltaTime": 0,
        "running": true,
        "channel": 4,
        "type": "noteOn",
        "noteNumber": 67,
        "velocity": 70
      },
      {
        "deltaTime": 0,
        "running": true,
        "channel": 4,
        "type": "noteOn",
        "noteNumber": 65,
        "velocity": 72
      },
      {
        "deltaTime": 20,
        "running": true,
        "channel": 4,
        "type": "noteOff",
        "noteNumber": 79,
        "velocity": 0,
        "byte9": true
      },
      {
        "deltaTime": 0,
        "running": true,
        "channel": 4,
        "type": "noteOff",
        "noteNumber": 67,
        "velocity": 0,
        "byte9": true
      },
      {
        "deltaTime": 0,
        "running": true,
        "channel": 4,
        "type": "noteOff",
        "noteNumber": 65,
        "velocity": 0,
        "byte9": true
      },
      {
        "deltaTime": 116,
        "running": true,
        "channel": 4,
        "type": "noteOn",
        "noteNumber": 67,
        "velocity": 93
      },
      {
        "deltaTime": 2,
        "running": true,
        "channel": 4,
        "type": "noteOn",
        "noteNumber": 79,
        "velocity": 86
      },
      {
        "deltaTime": 122,
        "running": true,
        "channel": 4,
        "type": "noteOff",
        "noteNumber": 79,
        "velocity": 0,
        "byte9": true
      },
      {
        "deltaTime": 9,
        "running": true,
        "channel": 4,
        "type": "noteOff",
        "noteNumber": 67,
        "velocity": 0,
        "byte9": true
      },
      {
        "deltaTime": 108,
        "running": true,
        "channel": 4,
        "type": "noteOn",
        "noteNumber": 65,
        "velocity": 77
      },
      {
        "deltaTime": 0,
        "running": true,
        "channel": 4,
        "type": "noteOn",
        "noteNumber": 77,
        "velocity": 85
      },
      {
        "deltaTime": 23,
        "running": true,
        "channel": 4,
        "type": "noteOff",
        "noteNumber": 77,
        "velocity": 0,
        "byte9": true
      },
      {
        "deltaTime": 1,
        "running": true,
        "channel": 4,
        "type": "noteOff",
        "noteNumber": 65,
        "velocity": 0,
        "byte9": true
      },
      {
        "deltaTime": 27,
        "running": true,
        "channel": 4,
        "type": "noteOn",
        "noteNumber": 65,
        "velocity": 75
      },
      {
        "deltaTime": 2,
        "running": true,
        "channel": 4,
        "type": "noteOn",
        "noteNumber": 77,
        "velocity": 77
      },
      {
        "deltaTime": 24,
        "running": true,
        "channel": 4,
        "type": "noteOff",
        "noteNumber": 77,
        "velocity": 0,
        "byte9": true
      },
      {
        "deltaTime": 1,
        "running": true,
        "channel": 4,
        "type": "noteOff",
        "noteNumber": 65,
        "velocity": 0,
        "byte9": true
      },
      {
        "deltaTime": 26,
        "running": true,
        "channel": 4,
        "type": "noteOn",
        "noteNumber": 77,
        "velocity": 68
      },
      {
        "deltaTime": 0,
        "running": true,
        "channel": 4,
        "type": "noteOn",
        "noteNumber": 65,
        "velocity": 68
      },
      {
        "deltaTime": 28,
        "running": true,
        "channel": 4,
        "type": "noteOff",
        "noteNumber": 65,
        "velocity": 0,
        "byte9": true
      },
      {
        "deltaTime": 3,
        "running": true,
        "channel": 4,
        "type": "noteOff",
        "noteNumber": 77,
        "velocity": 0,
        "byte9": true
      },
      {
        "deltaTime": 31,
        "running": true,
        "channel": 4,
        "type": "noteOn",
        "noteNumber": 77,
        "velocity": 76
      },
      {
        "deltaTime": 3,
        "running": true,
        "channel": 4,
        "type": "noteOn",
        "noteNumber": 65,
        "velocity": 74
      },
      {
        "deltaTime": 27,
        "running": true,
        "channel": 4,
        "type": "noteOff",
        "noteNumber": 65,
        "velocity": 0,
        "byte9": true
      },
      {
        "deltaTime": 3,
        "running": true,
        "channel": 4,
        "type": "noteOff",
        "noteNumber": 77,
        "velocity": 0,
        "byte9": true
      },
      {
        "deltaTime": 159,
        "running": true,
        "channel": 4,
        "type": "noteOn",
        "noteNumber": 65,
        "velocity": 75
      },
      {
        "deltaTime": 0,
        "running": true,
        "channel": 4,
        "type": "noteOn",
        "noteNumber": 77,
        "velocity": 77
      },
      {
        "deltaTime": 19,
        "running": true,
        "channel": 4,
        "type": "noteOff",
        "noteNumber": 65,
        "velocity": 0,
        "byte9": true
      },
      {
        "deltaTime": 0,
        "running": true,
        "channel": 4,
        "type": "noteOff",
        "noteNumber": 77,
        "velocity": 0,
        "byte9": true
      },
      {
        "deltaTime": 108,
        "running": true,
        "channel": 4,
        "type": "noteOn",
        "noteNumber": 65,
        "velocity": 98
      },
      {
        "deltaTime": 0,
        "running": true,
        "channel": 4,
        "type": "noteOn",
        "noteNumber": 77,
        "velocity": 103
      },
      {
        "deltaTime": 127,
        "running": true,
        "channel": 4,
        "type": "noteOff",
        "noteNumber": 65,
        "velocity": 0,
        "byte9": true
      },
      {
        "deltaTime": 0,
        "running": true,
        "channel": 4,
        "type": "noteOff",
        "noteNumber": 77,
        "velocity": 0,
        "byte9": true
      },
      {
        "deltaTime": 109,
        "running": true,
        "channel": 4,
        "type": "noteOn",
        "noteNumber": 65,
        "velocity": 60
      },
      {
        "deltaTime": 1,
        "running": true,
        "channel": 4,
        "type": "noteOn",
        "noteNumber": 77,
        "velocity": 68
      },
      {
        "deltaTime": 19,
        "running": true,
        "channel": 4,
        "type": "noteOff",
        "noteNumber": 65,
        "velocity": 0,
        "byte9": true
      },
      {
        "deltaTime": 0,
        "running": true,
        "channel": 4,
        "type": "noteOff",
        "noteNumber": 77,
        "velocity": 0,
        "byte9": true
      },
      {
        "deltaTime": 31,
        "running": true,
        "channel": 4,
        "type": "noteOn",
        "noteNumber": 65,
        "velocity": 77
      },
      {
        "deltaTime": 2,
        "running": true,
        "channel": 4,
        "type": "noteOn",
        "noteNumber": 77,
        "velocity": 70
      },
      {
        "deltaTime": 21,
        "running": true,
        "channel": 4,
        "type": "noteOff",
        "noteNumber": 77,
        "velocity": 0,
        "byte9": true
      },
      {
        "deltaTime": 2,
        "running": true,
        "channel": 4,
        "type": "noteOff",
        "noteNumber": 65,
        "velocity": 0,
        "byte9": true
      },
      {
        "deltaTime": 171,
        "channel": 4,
        "type": "controller",
        "controllerType": 0,
        "value": 80
      },
      {
        "deltaTime": 0,
        "running": true,
        "channel": 4,
        "type": "controller",
        "controllerType": 32,
        "value": 0
      },
      {
        "deltaTime": 0,
        "channel": 4,
        "type": "programChange",
        "programNumber": 48
      },
      {
        "deltaTime": 0,
        "channel": 4,
        "type": "noteOn",
        "noteNumber": 74,
        "velocity": 103
      },
      {
        "deltaTime": 0,
        "running": true,
        "channel": 4,
        "type": "noteOn",
        "noteNumber": 62,
        "velocity": 100
      },
      {
        "deltaTime": 208,
        "running": true,
        "channel": 4,
        "type": "noteOff",
        "noteNumber": 74,
        "velocity": 0,
        "byte9": true
      },
      {
        "deltaTime": 8,
        "running": true,
        "channel": 4,
        "type": "noteOff",
        "noteNumber": 62,
        "velocity": 0,
        "byte9": true
      },
      {
        "deltaTime": 495,
        "running": true,
        "channel": 4,
        "type": "noteOn",
        "noteNumber": 62,
        "velocity": 95
      },
      {
        "deltaTime": 1,
        "running": true,
        "channel": 4,
        "type": "noteOn",
        "noteNumber": 74,
        "velocity": 92
      },
      {
        "deltaTime": 8,
        "channel": 4,
        "type": "controller",
        "controllerType": 0,
        "value": 80
      },
      {
        "deltaTime": 0,
        "running": true,
        "channel": 4,
        "type": "controller",
        "controllerType": 32,
        "value": 0
      },
      {
        "deltaTime": 0,
        "channel": 4,
        "type": "programChange",
        "programNumber": 48
      },
      {
        "deltaTime": 214,
        "channel": 4,
        "type": "noteOff",
        "noteNumber": 62,
        "velocity": 0,
        "byte9": true
      },
      {
        "deltaTime": 13,
        "running": true,
        "channel": 4,
        "type": "noteOff",
        "noteNumber": 74,
        "velocity": 0,
        "byte9": true
      },
      {
        "deltaTime": 485,
        "running": true,
        "channel": 4,
        "type": "noteOn",
        "noteNumber": 70,
        "velocity": 114
      },
      {
        "deltaTime": 3,
        "running": true,
        "channel": 4,
        "type": "noteOn",
        "noteNumber": 82,
        "velocity": 110
      },
      {
        "deltaTime": 244,
        "running": true,
        "channel": 4,
        "type": "noteOff",
        "noteNumber": 82,
        "velocity": 0,
        "byte9": true
      },
      {
        "deltaTime": 5,
        "running": true,
        "channel": 4,
        "type": "noteOff",
        "noteNumber": 70,
        "velocity": 0,
        "byte9": true
      },
      {
        "deltaTime": 459,
        "running": true,
        "channel": 4,
        "type": "noteOn",
        "noteNumber": 82,
        "velocity": 104
      },
      {
        "deltaTime": 0,
        "running": true,
        "channel": 4,
        "type": "noteOn",
        "noteNumber": 70,
        "velocity": 117
      },
      {
        "deltaTime": 298,
        "running": true,
        "channel": 4,
        "type": "noteOff",
        "noteNumber": 70,
        "velocity": 0,
        "byte9": true
      },
      {
        "deltaTime": 11,
        "running": true,
        "channel": 4,
        "type": "noteOff",
        "noteNumber": 82,
        "velocity": 0,
        "byte9": true
      },
      {
        "deltaTime": 411,
        "running": true,
        "channel": 4,
        "type": "noteOn",
        "noteNumber": 69,
        "velocity": 82
      },
      {
        "deltaTime": 0,
        "running": true,
        "channel": 4,
        "type": "noteOn",
        "noteNumber": 81,
        "velocity": 95
      },
      {
        "deltaTime": 1,
        "running": true,
        "channel": 4,
        "type": "noteOn",
        "noteNumber": 71,
        "velocity": 107
      },
      {
        "deltaTime": 27,
        "running": true,
        "channel": 4,
        "type": "noteOff",
        "noteNumber": 71,
        "velocity": 0,
        "byte9": true
      },
      {
        "deltaTime": 318,
        "running": true,
        "channel": 4,
        "type": "noteOff",
        "noteNumber": 69,
        "velocity": 0,
        "byte9": true
      },
      {
        "deltaTime": 0,
        "running": true,
        "channel": 4,
        "type": "noteOff",
        "noteNumber": 81,
        "velocity": 0,
        "byte9": true
      },
      {
        "deltaTime": 385,
        "running": true,
        "channel": 4,
        "type": "noteOn",
        "noteNumber": 81,
        "velocity": 87
      },
      {
        "deltaTime": 0,
        "running": true,
        "channel": 4,
        "type": "noteOn",
        "noteNumber": 69,
        "velocity": 84
      },
      {
        "deltaTime": 336,
        "running": true,
        "channel": 4,
        "type": "noteOff",
        "noteNumber": 81,
        "velocity": 0,
        "byte9": true
      },
      {
        "deltaTime": 2,
        "running": true,
        "channel": 4,
        "type": "noteOff",
        "noteNumber": 69,
        "velocity": 0,
        "byte9": true
      },
      {
        "deltaTime": 377,
        "running": true,
        "channel": 4,
        "type": "noteOn",
        "noteNumber": 79,
        "velocity": 86
      },
      {
        "deltaTime": 2,
        "running": true,
        "channel": 4,
        "type": "noteOn",
        "noteNumber": 67,
        "velocity": 98
      },
      {
        "deltaTime": 272,
        "running": true,
        "channel": 4,
        "type": "noteOff",
        "noteNumber": 67,
        "velocity": 0,
        "byte9": true
      },
      {
        "deltaTime": 8,
        "running": true,
        "channel": 4,
        "type": "noteOff",
        "noteNumber": 79,
        "velocity": 0,
        "byte9": true
      },
      {
        "deltaTime": 440,
        "running": true,
        "channel": 4,
        "type": "noteOn",
        "noteNumber": 79,
        "velocity": 84
      },
      {
        "deltaTime": 2,
        "running": true,
        "channel": 4,
        "type": "noteOn",
        "noteNumber": 67,
        "velocity": 90
      },
      {
        "deltaTime": 7,
        "channel": 4,
        "type": "controller",
        "controllerType": 0,
        "value": 80
      },
      {
        "deltaTime": 0,
        "running": true,
        "channel": 4,
        "type": "controller",
        "controllerType": 32,
        "value": 0
      },
      {
        "deltaTime": 0,
        "channel": 4,
        "type": "programChange",
        "programNumber": 48
      },
      {
        "deltaTime": 184,
        "channel": 4,
        "type": "noteOff",
        "noteNumber": 79,
        "velocity": 0,
        "byte9": true
      },
      {
        "deltaTime": 5,
        "running": true,
        "channel": 4,
        "type": "noteOff",
        "noteNumber": 67,
        "velocity": 0,
        "byte9": true
      },
      {
        "deltaTime": 47,
        "running": true,
        "channel": 4,
        "type": "noteOn",
        "noteNumber": 67,
        "velocity": 100
      },
      {
        "deltaTime": 1,
        "running": true,
        "channel": 4,
        "type": "noteOn",
        "noteNumber": 79,
        "velocity": 96
      },
      {
        "deltaTime": 82,
        "running": true,
        "channel": 4,
        "type": "noteOff",
        "noteNumber": 67,
        "velocity": 0,
        "byte9": true
      },
      {
        "deltaTime": 5,
        "running": true,
        "channel": 4,
        "type": "noteOff",
        "noteNumber": 79,
        "velocity": 0,
        "byte9": true
      },
      {
        "deltaTime": 34,
        "running": true,
        "channel": 4,
        "type": "noteOn",
        "noteNumber": 69,
        "velocity": 90
      },
      {
        "deltaTime": 1,
        "running": true,
        "channel": 4,
        "type": "noteOn",
        "noteNumber": 81,
        "velocity": 107
      },
      {
        "deltaTime": 13,
        "channel": 4,
        "type": "channelAftertouch",
        "amount": 3
      },
      {
        "deltaTime": 12,
        "running": true,
        "channel": 4,
        "type": "channelAftertouch",
        "amount": 0
      },
      {
        "deltaTime": 37,
        "channel": 4,
        "type": "noteOff",
        "noteNumber": 69,
        "velocity": 0,
        "byte9": true
      },
      {
        "deltaTime": 12,
        "running": true,
        "channel": 4,
        "type": "noteOff",
        "noteNumber": 81,
        "velocity": 0,
        "byte9": true
      },
      {
        "deltaTime": 33,
        "running": true,
        "channel": 4,
        "type": "noteOn",
        "noteNumber": 72,
        "velocity": 100
      },
      {
        "deltaTime": 3,
        "running": true,
        "channel": 4,
        "type": "noteOn",
        "noteNumber": 84,
        "velocity": 111
      },
      {
        "deltaTime": 72,
        "running": true,
        "channel": 4,
        "type": "noteOff",
        "noteNumber": 72,
        "velocity": 0,
        "byte9": true
      },
      {
        "deltaTime": 0,
        "running": true,
        "channel": 4,
        "type": "noteOff",
        "noteNumber": 84,
        "velocity": 0,
        "byte9": true
      },
      {
        "deltaTime": 53,
        "running": true,
        "channel": 4,
        "type": "noteOn",
        "noteNumber": 70,
        "velocity": 120
      },
      {
        "deltaTime": 2,
        "running": true,
        "channel": 4,
        "type": "noteOn",
        "noteNumber": 82,
        "velocity": 106
      },
      {
        "deltaTime": 9,
        "running": true,
        "channel": 4,
        "type": "noteOn",
        "noteNumber": 83,
        "velocity": 31
      },
      {
        "deltaTime": 39,
        "running": true,
        "channel": 4,
        "type": "noteOff",
        "noteNumber": 83,
        "velocity": 0,
        "byte9": true
      },
      {
        "deltaTime": 13,
        "running": true,
        "channel": 4,
        "type": "noteOff",
        "noteNumber": 82,
        "velocity": 0,
        "byte9": true
      },
      {
        "deltaTime": 8,
        "running": true,
        "channel": 4,
        "type": "noteOff",
        "noteNumber": 70,
        "velocity": 0,
        "byte9": true
      },
      {
        "deltaTime": 48,
        "running": true,
        "channel": 4,
        "type": "noteOn",
        "noteNumber": 69,
        "velocity": 107
      },
      {
        "deltaTime": 3,
        "running": true,
        "channel": 4,
        "type": "noteOn",
        "noteNumber": 81,
        "velocity": 118
      },
      {
        "deltaTime": 10,
        "running": true,
        "channel": 4,
        "type": "noteOn",
        "noteNumber": 80,
        "velocity": 92
      },
      {
        "deltaTime": 0,
        "running": true,
        "channel": 4,
        "type": "noteOn",
        "noteNumber": 75,
        "velocity": 41
      },
      {
        "deltaTime": 1,
        "running": true,
        "channel": 4,
        "type": "noteOff",
        "noteNumber": 80,
        "velocity": 0,
        "byte9": true
      },
      {
        "deltaTime": 0,
        "running": true,
        "channel": 4,
        "type": "noteOff",
        "noteNumber": 75,
        "velocity": 0,
        "byte9": true
      },
      {
        "deltaTime": 289,
        "running": true,
        "channel": 4,
        "type": "noteOff",
        "noteNumber": 69,
        "velocity": 0,
        "byte9": true
      },
      {
        "deltaTime": 7,
        "running": true,
        "channel": 4,
        "type": "noteOff",
        "noteNumber": 81,
        "velocity": 0,
        "byte9": true
      },
      {
        "deltaTime": 56,
        "running": true,
        "channel": 4,
        "type": "noteOn",
        "noteNumber": 73,
        "velocity": 125
      },
      {
        "deltaTime": 7,
        "running": true,
        "channel": 4,
        "type": "noteOn",
        "noteNumber": 85,
        "velocity": 108
      },
      {
        "deltaTime": 293,
        "running": true,
        "channel": 4,
        "type": "noteOff",
        "noteNumber": 73,
        "velocity": 0,
        "byte9": true
      },
      {
        "deltaTime": 6,
        "running": true,
        "channel": 4,
        "type": "noteOff",
        "noteNumber": 85,
        "velocity": 0,
        "byte9": true
      },
      {
        "deltaTime": 59,
        "running": true,
        "channel": 4,
        "type": "noteOn",
        "noteNumber": 74,
        "velocity": 111
      },
      {
        "deltaTime": 2,
        "running": true,
        "channel": 4,
        "type": "noteOn",
        "noteNumber": 86,
        "velocity": 113
      },
      {
        "deltaTime": 8,
        "running": true,
        "channel": 4,
        "type": "noteOn",
        "noteNumber": 85,
        "velocity": 72
      },
      {
        "deltaTime": 2,
        "running": true,
        "channel": 4,
        "type": "noteOff",
        "noteNumber": 85,
        "velocity": 0,
        "byte9": true
      },
      {
        "deltaTime": 83,
        "running": true,
        "channel": 4,
        "type": "noteOff",
        "noteNumber": 86,
        "velocity": 0,
        "byte9": true
      },
      {
        "deltaTime": 1,
        "running": true,
        "channel": 4,
        "type": "noteOff",
        "noteNumber": 74,
        "velocity": 0,
        "byte9": true
      },
      {
        "deltaTime": 623,
        "running": true,
        "channel": 4,
        "type": "noteOn",
        "noteNumber": 82,
        "velocity": 108
      },
      {
        "deltaTime": 0,
        "running": true,
        "channel": 4,
        "type": "noteOn",
        "noteNumber": 70,
        "velocity": 120
      },
      {
        "deltaTime": 226,
        "running": true,
        "channel": 4,
        "type": "noteOff",
        "noteNumber": 82,
        "velocity": 0,
        "byte9": true
      },
      {
        "deltaTime": 10,
        "running": true,
        "channel": 4,
        "type": "noteOff",
        "noteNumber": 70,
        "velocity": 0,
        "byte9": true
      },
      {
        "deltaTime": 235,
        "running": true,
        "channel": 4,
        "type": "noteOn",
        "noteNumber": 82,
        "velocity": 85
      },
      {
        "deltaTime": 0,
        "running": true,
        "channel": 4,
        "type": "noteOn",
        "noteNumber": 70,
        "velocity": 94
      },
      {
        "deltaTime": 19,
        "running": true,
        "channel": 4,
        "type": "noteOff",
        "noteNumber": 70,
        "velocity": 0,
        "byte9": true
      },
      {
        "deltaTime": 2,
        "running": true,
        "channel": 4,
        "type": "noteOff",
        "noteNumber": 82,
        "velocity": 0,
        "byte9": true
      },
      {
        "deltaTime": 229,
        "running": true,
        "channel": 4,
        "type": "noteOn",
        "noteNumber": 70,
        "velocity": 123
      },
      {
        "deltaTime": 1,
        "running": true,
        "channel": 4,
        "type": "noteOn",
        "noteNumber": 82,
        "velocity": 110
      },
      {
        "deltaTime": 325,
        "running": true,
        "channel": 4,
        "type": "noteOff",
        "noteNumber": 70,
        "velocity": 0,
        "byte9": true
      },
      {
        "deltaTime": 8,
        "running": true,
        "channel": 4,
        "type": "noteOff",
        "noteNumber": 82,
        "velocity": 0,
        "byte9": true
      },
      {
        "deltaTime": 382,
        "running": true,
        "channel": 4,
        "type": "noteOn",
        "noteNumber": 69,
        "velocity": 72
      },
      {
        "deltaTime": 0,
        "running": true,
        "channel": 4,
        "type": "noteOn",
        "noteNumber": 81,
        "velocity": 87
      },
      {
        "deltaTime": 370,
        "running": true,
        "channel": 4,
        "type": "noteOff",
        "noteNumber": 69,
        "velocity": 0,
        "byte9": true
      },
      {
        "deltaTime": 7,
        "running": true,
        "channel": 4,
        "type": "noteOff",
        "noteNumber": 81,
        "velocity": 0,
        "byte9": true
      },
      {
        "deltaTime": 341,
        "running": true,
        "channel": 4,
        "type": "noteOn",
        "noteNumber": 69,
        "velocity": 89
      },
      {
        "deltaTime": 1,
        "running": true,
        "channel": 4,
        "type": "noteOn",
        "noteNumber": 81,
        "velocity": 95
      },
      {
        "deltaTime": 322,
        "running": true,
        "channel": 4,
        "type": "noteOff",
        "noteNumber": 69,
        "velocity": 0,
        "byte9": true
      },
      {
        "deltaTime": 3,
        "running": true,
        "channel": 4,
        "type": "noteOff",
        "noteNumber": 81,
        "velocity": 0,
        "byte9": true
      },
      {
        "deltaTime": 385,
        "running": true,
        "channel": 4,
        "type": "noteOn",
        "noteNumber": 79,
        "velocity": 80
      },
      {
        "deltaTime": 0,
        "running": true,
        "channel": 4,
        "type": "noteOn",
        "noteNumber": 67,
        "velocity": 76
      },
      {
        "deltaTime": 359,
        "running": true,
        "channel": 4,
        "type": "noteOff",
        "noteNumber": 79,
        "velocity": 0,
        "byte9": true
      },
      {
        "deltaTime": 4,
        "running": true,
        "channel": 4,
        "type": "noteOff",
        "noteNumber": 67,
        "velocity": 0,
        "byte9": true
      },
      {
        "deltaTime": 207,
        "running": true,
        "channel": 4,
        "type": "noteOn",
        "noteNumber": 67,
        "velocity": 62
      },
      {
        "deltaTime": 3,
        "running": true,
        "channel": 4,
        "type": "noteOn",
        "noteNumber": 79,
        "velocity": 44
      },
      {
        "deltaTime": 20,
        "running": true,
        "channel": 4,
        "type": "noteOff",
        "noteNumber": 67,
        "velocity": 0,
        "byte9": true
      },
      {
        "deltaTime": 0,
        "running": true,
        "channel": 4,
        "type": "noteOff",
        "noteNumber": 79,
        "velocity": 0,
        "byte9": true
      },
      {
        "deltaTime": 124,
        "running": true,
        "channel": 4,
        "type": "noteOn",
        "noteNumber": 67,
        "velocity": 95
      },
      {
        "deltaTime": 1,
        "running": true,
        "channel": 4,
        "type": "noteOn",
        "noteNumber": 79,
        "velocity": 87
      },
      {
        "deltaTime": 228,
        "running": true,
        "channel": 4,
        "type": "noteOff",
        "noteNumber": 67,
        "velocity": 0,
        "byte9": true
      },
      {
        "deltaTime": 5,
        "running": true,
        "channel": 4,
        "type": "noteOff",
        "noteNumber": 79,
        "velocity": 0,
        "byte9": true
      },
      {
        "deltaTime": 262,
        "running": true,
        "channel": 4,
        "type": "noteOn",
        "noteNumber": 65,
        "velocity": 95
      },
      {
        "deltaTime": 0,
        "running": true,
        "channel": 4,
        "type": "noteOn",
        "noteNumber": 77,
        "velocity": 99
      },
      {
        "deltaTime": 70,
        "running": true,
        "channel": 4,
        "type": "noteOff",
        "noteNumber": 77,
        "velocity": 0,
        "byte9": true
      },
      {
        "deltaTime": 10,
        "running": true,
        "channel": 4,
        "type": "noteOff",
        "noteNumber": 65,
        "velocity": 0,
        "byte9": true
      },
      {
        "deltaTime": 32,
        "running": true,
        "channel": 4,
        "type": "noteOn",
        "noteNumber": 64,
        "velocity": 98
      },
      {
        "deltaTime": 0,
        "running": true,
        "channel": 4,
        "type": "noteOn",
        "noteNumber": 76,
        "velocity": 103
      },
      {
        "deltaTime": 74,
        "running": true,
        "channel": 4,
        "type": "noteOff",
        "noteNumber": 76,
        "velocity": 0,
        "byte9": true
      },
      {
        "deltaTime": 12,
        "running": true,
        "channel": 4,
        "type": "noteOff",
        "noteNumber": 64,
        "velocity": 0,
        "byte9": true
      },
      {
        "deltaTime": 34,
        "running": true,
        "channel": 4,
        "type": "noteOn",
        "noteNumber": 62,
        "velocity": 87
      },
      {
        "deltaTime": 0,
        "running": true,
        "channel": 4,
        "type": "noteOn",
        "noteNumber": 74,
        "velocity": 60
      },
      {
        "deltaTime": 287,
        "running": true,
        "channel": 4,
        "type": "noteOff",
        "noteNumber": 74,
        "velocity": 0,
        "byte9": true
      },
      {
        "deltaTime": 3,
        "running": true,
        "channel": 4,
        "type": "noteOff",
        "noteNumber": 62,
        "velocity": 0,
        "byte9": true
      },
      {
        "deltaTime": 88,
        "running": true,
        "channel": 4,
        "type": "noteOn",
        "noteNumber": 62,
        "velocity": 86
      },
      {
        "deltaTime": 2,
        "running": true,
        "channel": 4,
        "type": "noteOn",
        "noteNumber": 74,
        "velocity": 86
      },
      {
        "deltaTime": 384,
        "running": true,
        "channel": 4,
        "type": "noteOff",
        "noteNumber": 62,
        "velocity": 0,
        "byte9": true
      },
      {
        "deltaTime": 1,
        "running": true,
        "channel": 4,
        "type": "noteOff",
        "noteNumber": 74,
        "velocity": 0,
        "byte9": true
      },
      {
        "deltaTime": 0,
        "meta": true,
        "type": "endOfTrack"
      }
    ],
    [
      {
        "deltaTime": 0,
        "meta": true,
        "type": "trackName",
        "text": "WinJammer Demo"
      },
      {
        "deltaTime": 0,
        "meta": true,
        "type": "portPrefix",
        "port": 0
      },
      {
        "deltaTime": 0,
        "channel": 9,
        "type": "controller",
        "controllerType": 0,
        "value": 0
      },
      {
        "deltaTime": 0,
        "running": true,
        "channel": 9,
        "type": "controller",
        "controllerType": 32,
        "value": 0
      },
      {
        "deltaTime": 0,
        "channel": 9,
        "type": "programChange",
        "programNumber": 0
      },
      {
        "deltaTime": 0,
        "channel": 9,
        "type": "noteOn",
        "noteNumber": 36,
        "velocity": 126
      },
      {
        "deltaTime": 120,
        "running": true,
        "channel": 9,
        "type": "noteOn",
        "noteNumber": 48,
        "velocity": 127
      },
      {
        "deltaTime": 19,
        "running": true,
        "channel": 9,
        "type": "noteOff",
        "noteNumber": 48,
        "velocity": 0,
        "byte9": true
      },
      {
        "deltaTime": 101,
        "running": true,
        "channel": 9,
        "type": "noteOn",
        "noteNumber": 48,
        "velocity": 121
      },
      {
        "deltaTime": 23,
        "running": true,
        "channel": 9,
        "type": "noteOff",
        "noteNumber": 48,
        "velocity": 0,
        "byte9": true
      },
      {
        "deltaTime": 6,
        "running": true,
        "channel": 9,
        "type": "noteOff",
        "noteNumber": 36,
        "velocity": 0,
        "byte9": true
      },
      {
        "deltaTime": 31,
        "running": true,
        "channel": 9,
        "type": "noteOn",
        "noteNumber": 43,
        "velocity": 109
      },
      {
        "deltaTime": 16,
        "running": true,
        "channel": 9,
        "type": "noteOff",
        "noteNumber": 43,
        "velocity": 0,
        "byte9": true
      },
      {
        "deltaTime": 44,
        "running": true,
        "channel": 9,
        "type": "noteOn",
        "noteNumber": 36,
        "velocity": 118
      },
      {
        "deltaTime": 0,
        "running": true,
        "channel": 9,
        "type": "noteOn",
        "noteNumber": 49,
        "velocity": 127
      },
      {
        "deltaTime": 0,
        "running": true,
        "channel": 9,
        "type": "noteOn",
        "noteNumber": 51,
        "velocity": 110
      },
      {
        "deltaTime": 15,
        "running": true,
        "channel": 9,
        "type": "noteOff",
        "noteNumber": 49,
        "velocity": 0,
        "byte9": true
      },
      {
        "deltaTime": 2,
        "running": true,
        "channel": 9,
        "type": "noteOff",
        "noteNumber": 51,
        "velocity": 0,
        "byte9": true
      },
      {
        "deltaTime": 103,
        "running": true,
        "channel": 9,
        "type": "noteOn",
        "noteNumber": 51,
        "velocity": 53
      },
      {
        "deltaTime": 18,
        "running": true,
        "channel": 9,
        "type": "noteOff",
        "noteNumber": 51,
        "velocity": 0,
        "byte9": true
      },
      {
        "deltaTime": 102,
        "running": true,
        "channel": 9,
        "type": "noteOn",
        "noteNumber": 51,
        "velocity": 92
      },
      {
        "deltaTime": 20,
        "running": true,
        "channel": 9,
        "type": "noteOff",
        "noteNumber": 51,
        "velocity": 0,
        "byte9": true
      },
      {
        "deltaTime": 17,
        "running": true,
        "channel": 9,
        "type": "noteOff",
        "noteNumber": 36,
        "velocity": 0,
        "byte9": true
      },
      {
        "deltaTime": 83,
        "running": true,
        "channel": 9,
        "type": "noteOn",
        "noteNumber": 38,
        "velocity": 127
      },
      {
        "deltaTime": 0,
        "running": true,
        "channel": 9,
        "type": "noteOn",
        "noteNumber": 36,
        "velocity": 127
      },
      {
        "deltaTime": 0,
        "running": true,
        "channel": 9,
        "type": "noteOn",
        "noteNumber": 51,
        "velocity": 82
      },
      {
        "deltaTime": 6,
        "channel": 9,
        "type": "channelAftertouch",
        "amount": 6
      },
      {
        "deltaTime": 2,
        "running": true,
        "channel": 9,
        "type": "channelAftertouch",
        "amount": 22
      },
      {
        "deltaTime": 6,
        "running": true,
        "channel": 9,
        "type": "channelAftertouch",
        "amount": 38
      },
      {
        "deltaTime": 2,
        "running": true,
        "channel": 9,
        "type": "channelAftertouch",
        "amount": 48
      },
      {
        "deltaTime": 3,
        "channel": 9,
        "type": "noteOff",
        "noteNumber": 51,
        "velocity": 0,
        "byte9": true
      },
      {
        "deltaTime": 0,
        "channel": 9,
        "type": "channelAftertouch",
        "amount": 44
      },
      {
        "deltaTime": 4,
        "running": true,
        "channel": 9,
        "type": "channelAftertouch",
        "amount": 28
      },
      {
        "deltaTime": 4,
        "running": true,
        "channel": 9,
        "type": "channelAftertouch",
        "amount": 13
      },
      {
        "deltaTime": 3,
        "running": true,
        "channel": 9,
        "type": "channelAftertouch",
        "amount": 2
      },
      {
        "deltaTime": 3,
        "running": true,
        "channel": 9,
        "type": "channelAftertouch",
        "amount": 0
      },
      {
        "deltaTime": 87,
        "channel": 9,
        "type": "noteOn",
        "noteNumber": 51,
        "velocity": 57
      },
      {
        "deltaTime": 25,
        "running": true,
        "channel": 9,
        "type": "noteOff",
        "noteNumber": 51,
        "velocity": 0,
        "byte9": true
      },
      {
        "deltaTime": 29,
        "running": true,
        "channel": 9,
        "type": "noteOff",
        "noteNumber": 36,
        "velocity": 0,
        "byte9": true
      },
      {
        "deltaTime": 66,
        "running": true,
        "channel": 9,
        "type": "noteOn",
        "noteNumber": 51,
        "velocity": 61
      },
      {
        "deltaTime": 19,
        "running": true,
        "channel": 9,
        "type": "noteOff",
        "noteNumber": 51,
        "velocity": 0,
        "byte9": true
      },
      {
        "deltaTime": 100,
        "running": true,
        "channel": 9,
        "type": "noteOff",
        "noteNumber": 38,
        "velocity": 0,
        "byte9": true
      },
      {
        "deltaTime": 1,
        "running": true,
        "channel": 9,
        "type": "noteOn",
        "noteNumber": 36,
        "velocity": 127
      },
      {
        "deltaTime": 0,
        "running": true,
        "channel": 9,
        "type": "noteOn",
        "noteNumber": 51,
        "velocity": 86
      },
      {
        "deltaTime": 10,
        "channel": 9,
        "type": "channelAftertouch",
        "amount": 3
      },
      {
        "deltaTime": 4,
        "running": true,
        "channel": 9,
        "type": "channelAftertouch",
        "amount": 12
      },
      {
        "deltaTime": 4,
        "running": true,
        "channel": 9,
        "type": "channelAftertouch",
        "amount": 22
      },
      {
        "deltaTime": 3,
        "channel": 9,
        "type": "noteOff",
        "noteNumber": 51,
        "velocity": 0,
        "byte9": true
      },
      {
        "deltaTime": 0,
        "channel": 9,
        "type": "channelAftertouch",
        "amount": 29
      },
      {
        "deltaTime": 7,
        "running": true,
        "channel": 9,
        "type": "channelAftertouch",
        "amount": 21
      },
      {
        "deltaTime": 4,
        "running": true,
        "channel": 9,
        "type": "channelAftertouch",
        "amount": 11
      },
      {
        "deltaTime": 3,
        "running": true,
        "channel": 9,
        "type": "channelAftertouch",
        "amount": 4
      },
      {
        "deltaTime": 4,
        "running": true,
        "channel": 9,
        "type": "channelAftertouch",
        "amount": 0
      },
      {
        "deltaTime": 81,
        "channel": 9,
        "type": "noteOn",
        "noteNumber": 51,
        "velocity": 64
      },
      {
        "deltaTime": 21,
        "running": true,
        "channel": 9,
        "type": "noteOff",
        "noteNumber": 51,
        "velocity": 0,
        "byte9": true
      },
      {
        "deltaTime": 38,
        "running": true,
        "channel": 9,
        "type": "noteOff",
        "noteNumber": 36,
        "velocity": 0,
        "byte9": true
      },
      {
        "deltaTime": 61,
        "running": true,
        "channel": 9,
        "type": "noteOn",
        "noteNumber": 51,
        "velocity": 63
      },
      {
        "deltaTime": 23,
        "running": true,
        "channel": 9,
        "type": "noteOff",
        "noteNumber": 51,
        "velocity": 0,
        "byte9": true
      },
      {
        "deltaTime": 95,
        "channel": 9,
        "type": "channelAftertouch",
        "amount": 2
      },
      {
        "deltaTime": 2,
        "channel": 9,
        "type": "noteOn",
        "noteNumber": 38,
        "velocity": 127
      },
      {
        "deltaTime": 0,
        "running": true,
        "channel": 9,
        "type": "noteOn",
        "noteNumber": 36,
        "velocity": 127
      },
      {
        "deltaTime": 0,
        "running": true,
        "channel": 9,
        "type": "noteOn",
        "noteNumber": 51,
        "velocity": 70
      },
      {
        "deltaTime": 5,
        "channel": 9,
        "type": "channelAftertouch",
        "amount": 6
      },
      {
        "deltaTime": 6,
        "running": true,
        "channel": 9,
        "type": "channelAftertouch",
        "amount": 12
      },
      {
        "deltaTime": 8,
        "running": true,
        "channel": 9,
        "type": "channelAftertouch",
        "amount": 9
      },
      {
        "deltaTime": 2,
        "channel": 9,
        "type": "noteOff",
        "noteNumber": 51,
        "velocity": 0,
        "byte9": true
      },
      {
        "deltaTime": 2,
        "channel": 9,
        "type": "channelAftertouch",
        "amount": 3
      },
      {
        "deltaTime": 3,
        "running": true,
        "channel": 9,
        "type": "channelAftertouch",
        "amount": 0
      },
      {
        "deltaTime": 94,
        "channel": 9,
        "type": "noteOn",
        "noteNumber": 51,
        "velocity": 73
      },
      {
        "deltaTime": 25,
        "running": true,
        "channel": 9,
        "type": "noteOff",
        "noteNumber": 51,
        "velocity": 0,
        "byte9": true
      },
      {
        "deltaTime": 27,
        "running": true,
        "channel": 9,
        "type": "noteOff",
        "noteNumber": 36,
        "velocity": 0,
        "byte9": true
      },
      {
        "deltaTime": 68,
        "running": true,
        "channel": 9,
        "type": "noteOn",
        "noteNumber": 51,
        "velocity": 78
      },
      {
        "deltaTime": 20,
        "running": true,
        "channel": 9,
        "type": "noteOff",
        "noteNumber": 51,
        "velocity": 0,
        "byte9": true
      },
      {
        "deltaTime": 59,
        "running": true,
        "channel": 9,
        "type": "noteOff",
        "noteNumber": 38,
        "velocity": 0,
        "byte9": true
      },
      {
        "deltaTime": 41,
        "running": true,
        "channel": 9,
        "type": "noteOn",
        "noteNumber": 36,
        "velocity": 127
      },
      {
        "deltaTime": 0,
        "channel": 9,
        "type": "channelAftertouch",
        "amount": 3
      },
      {
        "deltaTime": 0,
        "channel": 9,
        "type": "noteOn",
        "noteNumber": 51,
        "velocity": 88
      },
      {
        "deltaTime": 5,
        "channel": 9,
        "type": "channelAftertouch",
        "amount": 6
      },
      {
        "deltaTime": 2,
        "running": true,
        "channel": 9,
        "type": "channelAftertouch",
        "amount": 8
      },
      {
        "deltaTime": 9,
        "running": true,
        "channel": 9,
        "type": "channelAftertouch",
        "amount": 6
      },
      {
        "deltaTime": 2,
        "running": true,
        "channel": 9,
        "type": "channelAftertouch",
        "amount": 3
      },
      {
        "deltaTime": 3,
        "channel": 9,
        "type": "noteOff",
        "noteNumber": 51,
        "velocity": 0,
        "byte9": true
      },
      {
        "deltaTime": 0,
        "channel": 9,
        "type": "channelAftertouch",
        "amount": 0
      },
      {
        "deltaTime": 37,
        "channel": 9,
        "type": "noteOff",
        "noteNumber": 36,
        "velocity": 0,
        "byte9": true
      },
      {
        "deltaTime": 62,
        "running": true,
        "channel": 9,
        "type": "noteOn",
        "noteNumber": 51,
        "velocity": 67
      },
      {
        "deltaTime": 21,
        "running": true,
        "channel": 9,
        "type": "noteOff",
        "noteNumber": 51,
        "velocity": 0,
        "byte9": true
      },
      {
        "deltaTime": 99,
        "running": true,
        "channel": 9,
        "type": "noteOn",
        "noteNumber": 51,
        "velocity": 62
      },
      {
        "deltaTime": 20,
        "running": true,
        "channel": 9,
        "type": "noteOff",
        "noteNumber": 51,
        "velocity": 0,
        "byte9": true
      },
      {
        "deltaTime": 98,
        "channel": 9,
        "type": "channelAftertouch",
        "amount": 3
      },
      {
        "deltaTime": 2,
        "channel": 9,
        "type": "noteOn",
        "noteNumber": 38,
        "velocity": 127
      },
      {
        "deltaTime": 0,
        "running": true,
        "channel": 9,
        "type": "noteOn",
        "noteNumber": 36,
        "velocity": 127
      },
      {
        "deltaTime": 0,
        "running": true,
        "channel": 9,
        "type": "noteOn",
        "noteNumber": 51,
        "velocity": 67
      },
      {
        "deltaTime": 5,
        "channel": 9,
        "type": "channelAftertouch",
        "amount": 8
      },
      {
        "deltaTime": 7,
        "running": true,
        "channel": 9,
        "type": "channelAftertouch",
        "amount": 6
      },
      {
        "deltaTime": 3,
        "running": true,
        "channel": 9,
        "type": "channelAftertouch",
        "amount": 0
      },
      {
        "deltaTime": 8,
        "channel": 9,
        "type": "noteOff",
        "noteNumber": 51,
        "velocity": 0,
        "byte9": true
      },
      {
        "deltaTime": 97,
        "running": true,
        "channel": 9,
        "type": "noteOn",
        "noteNumber": 51,
        "velocity": 58
      },
      {
        "deltaTime": 23,
        "running": true,
        "channel": 9,
        "type": "noteOff",
        "noteNumber": 51,
        "velocity": 0,
        "byte9": true
      },
      {
        "deltaTime": 40,
        "running": true,
        "channel": 9,
        "type": "noteOff",
        "noteNumber": 36,
        "velocity": 0,
        "byte9": true
      },
      {
        "deltaTime": 57,
        "running": true,
        "channel": 9,
        "type": "noteOn",
        "noteNumber": 51,
        "velocity": 67
      },
      {
        "deltaTime": 21,
        "running": true,
        "channel": 9,
        "type": "noteOff",
        "noteNumber": 51,
        "velocity": 0,
        "byte9": true
      },
      {
        "deltaTime": 66,
        "running": true,
        "channel": 9,
        "type": "noteOff",
        "noteNumber": 38,
        "velocity": 0,
        "byte9": true
      },
      {
        "deltaTime": 33,
        "running": true,
        "channel": 9,
        "type": "noteOn",
        "noteNumber": 36,
        "velocity": 127
      },
      {
        "deltaTime": 0,
        "running": true,
        "channel": 9,
        "type": "noteOn",
        "noteNumber": 51,
        "velocity": 86
      },
      {
        "deltaTime": 14,
        "channel": 9,
        "type": "channelAftertouch",
        "amount": 1
      },
      {
        "deltaTime": 3,
        "running": true,
        "channel": 9,
        "type": "channelAftertouch",
        "amount": 4
      },
      {
        "deltaTime": 6,
        "channel": 9,
        "type": "noteOff",
        "noteNumber": 51,
        "velocity": 0,
        "byte9": true
      },
      {
        "deltaTime": 8,
        "channel": 9,
        "type": "channelAftertouch",
        "amount": 0
      },
      {
        "deltaTime": 51,
        "channel": 9,
        "type": "noteOff",
        "noteNumber": 36,
        "velocity": 0,
        "byte9": true
      },
      {
        "deltaTime": 38,
        "running": true,
        "channel": 9,
        "type": "noteOn",
        "noteNumber": 51,
        "velocity": 74
      },
      {
        "deltaTime": 22,
        "running": true,
        "channel": 9,
        "type": "noteOff",
        "noteNumber": 51,
        "velocity": 0,
        "byte9": true
      },
      {
        "deltaTime": 98,
        "running": true,
        "channel": 9,
        "type": "noteOn",
        "noteNumber": 51,
        "velocity": 88
      },
      {
        "deltaTime": 26,
        "running": true,
        "channel": 9,
        "type": "noteOff",
        "noteNumber": 51,
        "velocity": 0,
        "byte9": true
      },
      {
        "deltaTime": 94,
        "running": true,
        "channel": 9,
        "type": "noteOn",
        "noteNumber": 38,
        "velocity": 127
      },
      {
        "deltaTime": 0,
        "running": true,
        "channel": 9,
        "type": "noteOn",
        "noteNumber": 36,
        "velocity": 127
      },
      {
        "deltaTime": 0,
        "running": true,
        "channel": 9,
        "type": "noteOn",
        "noteNumber": 51,
        "velocity": 82
      },
      {
        "deltaTime": 8,
        "channel": 9,
        "type": "channelAftertouch",
        "amount": 12
      },
      {
        "deltaTime": 2,
        "running": true,
        "channel": 9,
        "type": "channelAftertouch",
        "amount": 13
      },
      {
        "deltaTime": 6,
        "running": true,
        "channel": 9,
        "type": "channelAftertouch",
        "amount": 10
      },
      {
        "deltaTime": 3,
        "running": true,
        "channel": 9,
        "type": "channelAftertouch",
        "amount": 3
      },
      {
        "deltaTime": 4,
        "running": true,
        "channel": 9,
        "type": "channelAftertouch",
        "amount": 0
      },
      {
        "deltaTime": 1,
        "channel": 9,
        "type": "noteOff",
        "noteNumber": 51,
        "velocity": 0,
        "byte9": true
      },
      {
        "deltaTime": 96,
        "running": true,
        "channel": 9,
        "type": "noteOn",
        "noteNumber": 51,
        "velocity": 100
      },
      {
        "deltaTime": 25,
        "running": true,
        "channel": 9,
        "type": "noteOff",
        "noteNumber": 51,
        "velocity": 0,
        "byte9": true
      },
      {
        "deltaTime": 23,
        "running": true,
        "channel": 9,
        "type": "noteOff",
        "noteNumber": 36,
        "velocity": 0,
        "byte9": true
      },
      {
        "deltaTime": 29,
        "running": true,
        "channel": 9,
        "type": "noteOff",
        "noteNumber": 38,
        "velocity": 0,
        "byte9": true
      },
      {
        "deltaTime": 43,
        "running": true,
        "channel": 9,
        "type": "noteOn",
        "noteNumber": 51,
        "velocity": 104
      },
      {
        "deltaTime": 23,
        "running": true,
        "channel": 9,
        "type": "noteOff",
        "noteNumber": 51,
        "velocity": 0,
        "byte9": true
      },
      {
        "deltaTime": 97,
        "running": true,
        "channel": 9,
        "type": "noteOn",
        "noteNumber": 36,
        "velocity": 127
      },
      {
        "deltaTime": 0,
        "running": true,
        "channel": 9,
        "type": "noteOn",
        "noteNumber": 51,
        "velocity": 98
      },
      {
        "deltaTime": 24,
        "running": true,
        "channel": 9,
        "type": "noteOff",
        "noteNumber": 51,
        "velocity": 0,
        "byte9": true
      },
      {
        "deltaTime": 17,
        "running": true,
        "channel": 9,
        "type": "noteOff",
        "noteNumber": 36,
        "velocity": 0,
        "byte9": true
      },
      {
        "deltaTime": 79,
        "running": true,
        "channel": 9,
        "type": "noteOn",
        "noteNumber": 51,
        "velocity": 76
      },
      {
        "deltaTime": 21,
        "running": true,
        "channel": 9,
        "type": "noteOff",
        "noteNumber": 51,
        "velocity": 0,
        "byte9": true
      },
      {
        "deltaTime": 99,
        "running": true,
        "channel": 9,
        "type": "noteOn",
        "noteNumber": 51,
        "velocity": 92
      },
      {
        "deltaTime": 22,
        "running": true,
        "channel": 9,
        "type": "noteOff",
        "noteNumber": 51,
        "velocity": 0,
        "byte9": true
      },
      {
        "deltaTime": 98,
        "running": true,
        "channel": 9,
        "type": "noteOn",
        "noteNumber": 36,
        "velocity": 127
      },
      {
        "deltaTime": 0,
        "running": true,
        "channel": 9,
        "type": "noteOn",
        "noteNumber": 38,
        "velocity": 127
      },
      {
        "deltaTime": 0,
        "running": true,
        "channel": 9,
        "type": "noteOn",
        "noteNumber": 51,
        "velocity": 94
      },
      {
        "deltaTime": 22,
        "running": true,
        "channel": 9,
        "type": "noteOff",
        "noteNumber": 51,
        "velocity": 0,
        "byte9": true
      },
      {
        "deltaTime": 98,
        "running": true,
        "channel": 9,
        "type": "noteOn",
        "noteNumber": 51,
        "velocity": 90
      },
      {
        "deltaTime": 23,
        "running": true,
        "channel": 9,
        "type": "noteOff",
        "noteNumber": 51,
        "velocity": 0,
        "byte9": true
      },
      {
        "deltaTime": 12,
        "running": true,
        "channel": 9,
        "type": "noteOff",
        "noteNumber": 38,
        "velocity": 0,
        "byte9": true
      },
      {
        "deltaTime": 15,
        "running": true,
        "channel": 9,
        "type": "noteOff",
        "noteNumber": 36,
        "velocity": 0,
        "byte9": true
      },
      {
        "deltaTime": 70,
        "running": true,
        "channel": 9,
        "type": "noteOn",
        "noteNumber": 51,
        "velocity": 74
      },
      {
        "deltaTime": 24,
        "running": true,
        "channel": 9,
        "type": "noteOff",
        "noteNumber": 51,
        "velocity": 0,
        "byte9": true
      },
      {
        "deltaTime": 96,
        "running": true,
        "channel": 9,
        "type": "noteOn",
        "noteNumber": 36,
        "velocity": 127
      },
      {
        "deltaTime": 0,
        "running": true,
        "channel": 9,
        "type": "noteOn",
        "noteNumber": 51,
        "velocity": 80
      },
      {
        "deltaTime": 23,
        "running": true,
        "channel": 9,
        "type": "noteOff",
        "noteNumber": 36,
        "velocity": 0,
        "byte9": true
      },
      {
        "deltaTime": 1,
        "running": true,
        "channel": 9,
        "type": "noteOff",
        "noteNumber": 51,
        "velocity": 0,
        "byte9": true
      },
      {
        "deltaTime": 96,
        "running": true,
        "channel": 9,
        "type": "noteOn",
        "noteNumber": 51,
        "velocity": 59
      },
      {
        "deltaTime": 16,
        "running": true,
        "channel": 9,
        "type": "noteOff",
        "noteNumber": 51,
        "velocity": 0,
        "byte9": true
      },
      {
        "deltaTime": 104,
        "running": true,
        "channel": 9,
        "type": "noteOn",
        "noteNumber": 51,
        "velocity": 85
      },
      {
        "deltaTime": 20,
        "running": true,
        "channel": 9,
        "type": "noteOff",
        "noteNumber": 51,
        "velocity": 0,
        "byte9": true
      },
      {
        "deltaTime": 100,
        "running": true,
        "channel": 9,
        "type": "noteOn",
        "noteNumber": 36,
        "velocity": 127
      },
      {
        "deltaTime": 0,
        "running": true,
        "channel": 9,
        "type": "noteOn",
        "noteNumber": 38,
        "velocity": 127
      },
      {
        "deltaTime": 0,
        "running": true,
        "channel": 9,
        "type": "noteOn",
        "noteNumber": 51,
        "velocity": 76
      },
      {
        "deltaTime": 26,
        "running": true,
        "channel": 9,
        "type": "noteOff",
        "noteNumber": 51,
        "velocity": 0,
        "byte9": true
      },
      {
        "deltaTime": 94,
        "running": true,
        "channel": 9,
        "type": "noteOn",
        "noteNumber": 51,
        "velocity": 74
      },
      {
        "deltaTime": 24,
        "running": true,
        "channel": 9,
        "type": "noteOff",
        "noteNumber": 51,
        "velocity": 0,
        "byte9": true
      },
      {
        "deltaTime": 5,
        "running": true,
        "channel": 9,
        "type": "noteOff",
        "noteNumber": 38,
        "velocity": 0,
        "byte9": true
      },
      {
        "deltaTime": 21,
        "running": true,
        "channel": 9,
        "type": "noteOff",
        "noteNumber": 36,
        "velocity": 0,
        "byte9": true
      },
      {
        "deltaTime": 70,
        "running": true,
        "channel": 9,
        "type": "noteOn",
        "noteNumber": 51,
        "velocity": 68
      },
      {
        "deltaTime": 24,
        "running": true,
        "channel": 9,
        "type": "noteOff",
        "noteNumber": 51,
        "velocity": 0,
        "byte9": true
      },
      {
        "deltaTime": 96,
        "running": true,
        "channel": 9,
        "type": "noteOn",
        "noteNumber": 36,
        "velocity": 127
      },
      {
        "deltaTime": 0,
        "running": true,
        "channel": 9,
        "type": "noteOn",
        "noteNumber": 51,
        "velocity": 80
      },
      {
        "deltaTime": 24,
        "running": true,
        "channel": 9,
        "type": "noteOff",
        "noteNumber": 51,
        "velocity": 0,
        "byte9": true
      },
      {
        "deltaTime": 11,
        "running": true,
        "channel": 9,
        "type": "noteOff",
        "noteNumber": 36,
        "velocity": 0,
        "byte9": true
      },
      {
        "deltaTime": 85,
        "running": true,
        "channel": 9,
        "type": "noteOn",
        "noteNumber": 51,
        "velocity": 68
      },
      {
        "deltaTime": 22,
        "running": true,
        "channel": 9,
        "type": "noteOff",
        "noteNumber": 51,
        "velocity": 0,
        "byte9": true
      },
      {
        "deltaTime": 98,
        "running": true,
        "channel": 9,
        "type": "noteOn",
        "noteNumber": 51,
        "velocity": 67
      },
      {
        "deltaTime": 24,
        "running": true,
        "channel": 9,
        "type": "noteOff",
        "noteNumber": 51,
        "velocity": 0,
        "byte9": true
      },
      {
        "deltaTime": 96,
        "running": true,
        "channel": 9,
        "type": "noteOn",
        "noteNumber": 38,
        "velocity": 127
      },
      {
        "deltaTime": 0,
        "running": true,
        "channel": 9,
        "type": "noteOn",
        "noteNumber": 36,
        "velocity": 127
      },
      {
        "deltaTime": 0,
        "running": true,
        "channel": 9,
        "type": "noteOn",
        "noteNumber": 51,
        "velocity": 78
      },
      {
        "deltaTime": 24,
        "running": true,
        "channel": 9,
        "type": "noteOff",
        "noteNumber": 38,
        "velocity": 0,
        "byte9": true
      },
      {
        "deltaTime": 2,
        "running": true,
        "channel": 9,
        "type": "noteOff",
        "noteNumber": 51,
        "velocity": 0,
        "byte9": true
      },
      {
        "deltaTime": 1,
        "running": true,
        "channel": 9,
        "type": "noteOff",
        "noteNumber": 36,
        "velocity": 0,
        "byte9": true
      },
      {
        "deltaTime": 93,
        "running": true,
        "channel": 9,
        "type": "noteOn",
        "noteNumber": 45,
        "velocity": 107
      },
      {
        "deltaTime": 0,
        "running": true,
        "channel": 9,
        "type": "noteOn",
        "noteNumber": 51,
        "velocity": 57
      },
      {
        "deltaTime": 16,
        "running": true,
        "channel": 9,
        "type": "noteOff",
        "noteNumber": 45,
        "velocity": 0,
        "byte9": true
      },
      {
        "deltaTime": 7,
        "running": true,
        "channel": 9,
        "type": "noteOff",
        "noteNumber": 51,
        "velocity": 0,
        "byte9": true
      },
      {
        "deltaTime": 97,
        "running": true,
        "channel": 9,
        "type": "noteOn",
        "noteNumber": 43,
        "velocity": 107
      },
      {
        "deltaTime": 22,
        "running": true,
        "channel": 9,
        "type": "noteOff",
        "noteNumber": 43,
        "velocity": 0,
        "byte9": true
      },
      {
        "deltaTime": 38,
        "running": true,
        "channel": 9,
        "type": "noteOn",
        "noteNumber": 41,
        "velocity": 118
      },
      {
        "deltaTime": 0,
        "running": true,
        "channel": 9,
        "type": "noteOn",
        "noteNumber": 51,
        "velocity": 94
      },
      {
        "deltaTime": 16,
        "running": true,
        "channel": 9,
        "type": "noteOff",
        "noteNumber": 41,
        "velocity": 0,
        "byte9": true
      },
      {
        "deltaTime": 4,
        "running": true,
        "channel": 9,
        "type": "noteOff",
        "noteNumber": 51,
        "velocity": 0,
        "byte9": true
      },
      {
        "deltaTime": 40,
        "running": true,
        "channel": 9,
        "type": "noteOn",
        "noteNumber": 36,
        "velocity": 127
      },
      {
        "deltaTime": 26,
        "running": true,
        "channel": 9,
        "type": "noteOff",
        "noteNumber": 36,
        "velocity": 0,
        "byte9": true
      },
      {
        "deltaTime": 34,
        "running": true,
        "channel": 9,
        "type": "noteOn",
        "noteNumber": 43,
        "velocity": 121
      },
      {
        "deltaTime": 15,
        "running": true,
        "channel": 9,
        "type": "noteOff",
        "noteNumber": 43,
        "velocity": 0,
        "byte9": true
      },
      {
        "deltaTime": 45,
        "running": true,
        "channel": 9,
        "type": "noteOn",
        "noteNumber": 51,
        "velocity": 85
      },
      {
        "deltaTime": 19,
        "running": true,
        "channel": 9,
        "type": "noteOff",
        "noteNumber": 51,
        "velocity": 0,
        "byte9": true
      },
      {
        "deltaTime": 41,
        "running": true,
        "channel": 9,
        "type": "noteOn",
        "noteNumber": 36,
        "velocity": 127
      },
      {
        "deltaTime": 30,
        "running": true,
        "channel": 9,
        "type": "noteOff",
        "noteNumber": 36,
        "velocity": 0,
        "byte9": true
      },
      {
        "deltaTime": 30,
        "running": true,
        "channel": 9,
        "type": "noteOn",
        "noteNumber": 41,
        "velocity": 127
      },
      {
        "deltaTime": 0,
        "running": true,
        "channel": 9,
        "type": "noteOn",
        "noteNumber": 51,
        "velocity": 100
      },
      {
        "deltaTime": 16,
        "running": true,
        "channel": 9,
        "type": "noteOff",
        "noteNumber": 41,
        "velocity": 0,
        "byte9": true
      },
      {
        "deltaTime": 4,
        "running": true,
        "channel": 9,
        "type": "noteOff",
        "noteNumber": 51,
        "velocity": 0,
        "byte9": true
      },
      {
        "deltaTime": 100,
        "running": true,
        "channel": 9,
        "type": "noteOn",
        "noteNumber": 49,
        "velocity": 127
      },
      {
        "deltaTime": 0,
        "running": true,
        "channel": 9,
        "type": "noteOn",
        "noteNumber": 36,
        "velocity": 127
      },
      {
        "deltaTime": 0,
        "running": true,
        "channel": 9,
        "type": "noteOn",
        "noteNumber": 51,
        "velocity": 106
      },
      {
        "deltaTime": 11,
        "running": true,
        "channel": 9,
        "type": "noteOff",
        "noteNumber": 49,
        "velocity": 0,
        "byte9": true
      },
      {
        "deltaTime": 8,
        "running": true,
        "channel": 9,
        "type": "noteOff",
        "noteNumber": 51,
        "velocity": 0,
        "byte9": true
      },
      {
        "deltaTime": 101,
        "running": true,
        "channel": 9,
        "type": "noteOn",
        "noteNumber": 51,
        "velocity": 76
      },
      {
        "deltaTime": 19,
        "running": true,
        "channel": 9,
        "type": "noteOff",
        "noteNumber": 51,
        "velocity": 0,
        "byte9": true
      },
      {
        "deltaTime": 28,
        "running": true,
        "channel": 9,
        "type": "noteOff",
        "noteNumber": 36,
        "velocity": 0,
        "byte9": true
      },
      {
        "deltaTime": 73,
        "running": true,
        "channel": 9,
        "type": "noteOn",
        "noteNumber": 51,
        "velocity": 67
      },
      {
        "deltaTime": 22,
        "running": true,
        "channel": 9,
        "type": "noteOff",
        "noteNumber": 51,
        "velocity": 0,
        "byte9": true
      },
      {
        "deltaTime": 98,
        "running": true,
        "channel": 9,
        "type": "noteOn",
        "noteNumber": 36,
        "velocity": 127
      },
      {
        "deltaTime": 0,
        "running": true,
        "channel": 9,
        "type": "noteOn",
        "noteNumber": 38,
        "velocity": 127
      },
      {
        "deltaTime": 0,
        "running": true,
        "channel": 9,
        "type": "noteOn",
        "noteNumber": 51,
        "velocity": 81
      },
      {
        "deltaTime": 23,
        "running": true,
        "channel": 9,
        "type": "noteOff",
        "noteNumber": 51,
        "velocity": 0,
        "byte9": true
      },
      {
        "deltaTime": 10,
        "running": true,
        "channel": 9,
        "type": "noteOff",
        "noteNumber": 38,
        "velocity": 0,
        "byte9": true
      },
      {
        "deltaTime": 8,
        "running": true,
        "channel": 9,
        "type": "noteOff",
        "noteNumber": 36,
        "velocity": 0,
        "byte9": true
      },
      {
        "deltaTime": 79,
        "running": true,
        "channel": 9,
        "type": "noteOn",
        "noteNumber": 51,
        "velocity": 68
      },
      {
        "deltaTime": 23,
        "running": true,
        "channel": 9,
        "type": "noteOff",
        "noteNumber": 51,
        "velocity": 0,
        "byte9": true
      },
      {
        "deltaTime": 97,
        "running": true,
        "channel": 9,
        "type": "noteOn",
        "noteNumber": 51,
        "velocity": 67
      },
      {
        "deltaTime": 24,
        "running": true,
        "channel": 9,
        "type": "noteOff",
        "noteNumber": 51,
        "velocity": 0,
        "byte9": true
      },
      {
        "deltaTime": 96,
        "running": true,
        "channel": 9,
        "type": "noteOn",
        "noteNumber": 36,
        "velocity": 127
      },
      {
        "deltaTime": 0,
        "running": true,
        "channel": 9,
        "type": "noteOn",
        "noteNumber": 35,
        "velocity": 82
      },
      {
        "deltaTime": 0,
        "running": true,
        "channel": 9,
        "type": "noteOn",
        "noteNumber": 51,
        "velocity": 74
      },
      {
        "deltaTime": 9,
        "running": true,
        "channel": 9,
        "type": "noteOff",
        "noteNumber": 35,
        "velocity": 0,
        "byte9": true
      },
      {
        "deltaTime": 15,
        "running": true,
        "channel": 9,
        "type": "noteOff",
        "noteNumber": 51,
        "velocity": 0,
        "byte9": true
      },
      {
        "deltaTime": 6,
        "running": true,
        "channel": 9,
        "type": "noteOff",
        "noteNumber": 36,
        "velocity": 0,
        "byte9": true
      },
      {
        "deltaTime": 90,
        "running": true,
        "channel": 9,
        "type": "noteOn",
        "noteNumber": 51,
        "velocity": 62
      },
      {
        "deltaTime": 21,
        "running": true,
        "channel": 9,
        "type": "noteOff",
        "noteNumber": 51,
        "velocity": 0,
        "byte9": true
      },
      {
        "deltaTime": 99,
        "running": true,
        "channel": 9,
        "type": "noteOn",
        "noteNumber": 51,
        "velocity": 61
      },
      {
        "deltaTime": 25,
        "running": true,
        "channel": 9,
        "type": "noteOff",
        "noteNumber": 51,
        "velocity": 0,
        "byte9": true
      },
      {
        "deltaTime": 95,
        "running": true,
        "channel": 9,
        "type": "noteOn",
        "noteNumber": 38,
        "velocity": 127
      },
      {
        "deltaTime": 0,
        "running": true,
        "channel": 9,
        "type": "noteOn",
        "noteNumber": 36,
        "velocity": 127
      },
      {
        "deltaTime": 0,
        "running": true,
        "channel": 9,
        "type": "noteOn",
        "noteNumber": 51,
        "velocity": 66
      },
      {
        "deltaTime": 24,
        "running": true,
        "channel": 9,
        "type": "noteOff",
        "noteNumber": 51,
        "velocity": 0,
        "byte9": true
      },
      {
        "deltaTime": 5,
        "running": true,
        "channel": 9,
        "type": "noteOff",
        "noteNumber": 38,
        "velocity": 0,
        "byte9": true
      },
      {
        "deltaTime": 3,
        "running": true,
        "channel": 9,
        "type": "noteOff",
        "noteNumber": 36,
        "velocity": 0,
        "byte9": true
      },
      {
        "deltaTime": 88,
        "running": true,
        "channel": 9,
        "type": "noteOn",
        "noteNumber": 51,
        "velocity": 70
      },
      {
        "deltaTime": 22,
        "running": true,
        "channel": 9,
        "type": "noteOff",
        "noteNumber": 51,
        "velocity": 0,
        "byte9": true
      },
      {
        "deltaTime": 98,
        "running": true,
        "channel": 9,
        "type": "noteOn",
        "noteNumber": 51,
        "velocity": 72
      },
      {
        "deltaTime": 24,
        "running": true,
        "channel": 9,
        "type": "noteOff",
        "noteNumber": 51,
        "velocity": 0,
        "byte9": true
      },
      {
        "deltaTime": 91,
        "channel": 9,
        "type": "channelAftertouch",
        "amount": 8
      },
      {
        "deltaTime": 5,
        "channel": 9,
        "type": "noteOn",
        "noteNumber": 36,
        "velocity": 127
      },
      {
        "deltaTime": 0,
        "running": true,
        "channel": 9,
        "type": "noteOn",
        "noteNumber": 51,
        "velocity": 63
      },
      {
        "deltaTime": 9,
        "channel": 9,
        "type": "channelAftertouch",
        "amount": 0
      },
      {
        "deltaTime": 15,
        "channel": 9,
        "type": "noteOff",
        "noteNumber": 51,
        "velocity": 0,
        "byte9": true
      },
      {
        "deltaTime": 8,
        "running": true,
        "channel": 9,
        "type": "noteOff",
        "noteNumber": 36,
        "velocity": 0,
        "byte9": true
      },
      {
        "deltaTime": 88,
        "running": true,
        "channel": 9,
        "type": "noteOn",
        "noteNumber": 51,
        "velocity": 74
      },
      {
        "deltaTime": 24,
        "running": true,
        "channel": 9,
        "type": "noteOff",
        "noteNumber": 51,
        "velocity": 0,
        "byte9": true
      },
      {
        "deltaTime": 96,
        "running": true,
        "channel": 9,
        "type": "noteOn",
        "noteNumber": 51,
        "velocity": 61
      },
      {
        "deltaTime": 23,
        "running": true,
        "channel": 9,
        "type": "noteOff",
        "noteNumber": 51,
        "velocity": 0,
        "byte9": true
      },
      {
        "deltaTime": 97,
        "running": true,
        "channel": 9,
        "type": "noteOn",
        "noteNumber": 38,
        "velocity": 126
      },
      {
        "deltaTime": 0,
        "running": true,
        "channel": 9,
        "type": "noteOn",
        "noteNumber": 36,
        "velocity": 127
      },
      {
        "deltaTime": 0,
        "running": true,
        "channel": 9,
        "type": "noteOn",
        "noteNumber": 51,
        "velocity": 81
      },
      {
        "deltaTime": 20,
        "running": true,
        "channel": 9,
        "type": "noteOff",
        "noteNumber": 51,
        "velocity": 0,
        "byte9": true
      },
      {
        "deltaTime": 10,
        "running": true,
        "channel": 9,
        "type": "noteOff",
        "noteNumber": 36,
        "velocity": 0,
        "byte9": true
      },
      {
        "deltaTime": 2,
        "running": true,
        "channel": 9,
        "type": "noteOff",
        "noteNumber": 38,
        "velocity": 0,
        "byte9": true
      },
      {
        "deltaTime": 88,
        "running": true,
        "channel": 9,
        "type": "noteOn",
        "noteNumber": 51,
        "velocity": 74
      },
      {
        "deltaTime": 18,
        "running": true,
        "channel": 9,
        "type": "noteOff",
        "noteNumber": 51,
        "velocity": 0,
        "byte9": true
      },
      {
        "deltaTime": 102,
        "running": true,
        "channel": 9,
        "type": "noteOn",
        "noteNumber": 51,
        "velocity": 72
      },
      {
        "deltaTime": 21,
        "running": true,
        "channel": 9,
        "type": "noteOff",
        "noteNumber": 51,
        "velocity": 0,
        "byte9": true
      },
      {
        "deltaTime": 99,
        "running": true,
        "channel": 9,
        "type": "noteOn",
        "noteNumber": 36,
        "velocity": 127
      },
      {
        "deltaTime": 0,
        "running": true,
        "channel": 9,
        "type": "noteOn",
        "noteNumber": 51,
        "velocity": 70
      },
      {
        "deltaTime": 15,
        "running": true,
        "channel": 9,
        "type": "noteOff",
        "noteNumber": 51,
        "velocity": 0,
        "byte9": true
      },
      {
        "deltaTime": 22,
        "running": true,
        "channel": 9,
        "type": "noteOff",
        "noteNumber": 36,
        "velocity": 0,
        "byte9": true
      },
      {
        "deltaTime": 83,
        "running": true,
        "channel": 9,
        "type": "noteOn",
        "noteNumber": 51,
        "velocity": 70
      },
      {
        "deltaTime": 19,
        "running": true,
        "channel": 9,
        "type": "noteOff",
        "noteNumber": 51,
        "velocity": 0,
        "byte9": true
      },
      {
        "deltaTime": 101,
        "running": true,
        "channel": 9,
        "type": "noteOn",
        "noteNumber": 51,
        "velocity": 69
      },
      {
        "deltaTime": 20,
        "running": true,
        "channel": 9,
        "type": "noteOff",
        "noteNumber": 51,
        "velocity": 0,
        "byte9": true
      },
      {
        "deltaTime": 100,
        "running": true,
        "channel": 9,
        "type": "noteOn",
        "noteNumber": 36,
        "velocity": 127
      },
      {
        "deltaTime": 0,
        "running": true,
        "channel": 9,
        "type": "noteOn",
        "noteNumber": 38,
        "velocity": 127
      },
      {
        "deltaTime": 0,
        "running": true,
        "channel": 9,
        "type": "noteOn",
        "noteNumber": 51,
        "velocity": 76
      },
      {
        "deltaTime": 21,
        "running": true,
        "channel": 9,
        "type": "noteOff",
        "noteNumber": 51,
        "velocity": 0,
        "byte9": true
      },
      {
        "deltaTime": 15,
        "running": true,
        "channel": 9,
        "type": "noteOff",
        "noteNumber": 36,
        "velocity": 0,
        "byte9": true
      },
      {
        "deltaTime": 3,
        "running": true,
        "channel": 9,
        "type": "noteOff",
        "noteNumber": 38,
        "velocity": 0,
        "byte9": true
      },
      {
        "deltaTime": 81,
        "running": true,
        "channel": 9,
        "type": "noteOn",
        "noteNumber": 51,
        "velocity": 67
      },
      {
        "deltaTime": 19,
        "running": true,
        "channel": 9,
        "type": "noteOff",
        "noteNumber": 51,
        "velocity": 0,
        "byte9": true
      },
      {
        "deltaTime": 101,
        "running": true,
        "channel": 9,
        "type": "noteOn",
        "noteNumber": 51,
        "velocity": 82
      },
      {
        "deltaTime": 17,
        "running": true,
        "channel": 9,
        "type": "noteOff",
        "noteNumber": 51,
        "velocity": 0,
        "byte9": true
      },
      {
        "deltaTime": 103,
        "running": true,
        "channel": 9,
        "type": "noteOn",
        "noteNumber": 36,
        "velocity": 127
      },
      {
        "deltaTime": 0,
        "running": true,
        "channel": 9,
        "type": "noteOn",
        "noteNumber": 51,
        "velocity": 73
      },
      {
        "deltaTime": 22,
        "running": true,
        "channel": 9,
        "type": "noteOff",
        "noteNumber": 51,
        "velocity": 0,
        "byte9": true
      },
      {
        "deltaTime": 13,
        "running": true,
        "channel": 9,
        "type": "noteOff",
        "noteNumber": 36,
        "velocity": 0,
        "byte9": true
      },
      {
        "deltaTime": 85,
        "running": true,
        "channel": 9,
        "type": "noteOn",
        "noteNumber": 51,
        "velocity": 64
      },
      {
        "deltaTime": 22,
        "running": true,
        "channel": 9,
        "type": "noteOff",
        "noteNumber": 51,
        "velocity": 0,
        "byte9": true
      },
      {
        "deltaTime": 98,
        "running": true,
        "channel": 9,
        "type": "noteOn",
        "noteNumber": 51,
        "velocity": 72
      },
      {
        "deltaTime": 19,
        "running": true,
        "channel": 9,
        "type": "noteOff",
        "noteNumber": 51,
        "velocity": 0,
        "byte9": true
      },
      {
        "deltaTime": 101,
        "running": true,
        "channel": 9,
        "type": "noteOn",
        "noteNumber": 36,
        "velocity": 127
      },
      {
        "deltaTime": 0,
        "running": true,
        "channel": 9,
        "type": "noteOn",
        "noteNumber": 38,
        "velocity": 127
      },
      {
        "deltaTime": 0,
        "running": true,
        "channel": 9,
        "type": "noteOn",
        "noteNumber": 51,
        "velocity": 86
      },
      {
        "deltaTime": 22,
        "running": true,
        "channel": 9,
        "type": "noteOff",
        "noteNumber": 51,
        "velocity": 0,
        "byte9": true
      },
      {
        "deltaTime": 3,
        "running": true,
        "channel": 9,
        "type": "noteOff",
        "noteNumber": 38,
        "velocity": 0,
        "byte9": true
      },
      {
        "deltaTime": 4,
        "running": true,
        "channel": 9,
        "type": "noteOff",
        "noteNumber": 36,
        "velocity": 0,
        "byte9": true
      },
      {
        "deltaTime": 91,
        "running": true,
        "channel": 9,
        "type": "noteOn",
        "noteNumber": 51,
        "velocity": 65
      },
      {
        "deltaTime": 19,
        "running": true,
        "channel": 9,
        "type": "noteOff",
        "noteNumber": 51,
        "velocity": 0,
        "byte9": true
      },
      {
        "deltaTime": 101,
        "running": true,
        "channel": 9,
        "type": "noteOn",
        "noteNumber": 51,
        "velocity": 67
      },
      {
        "deltaTime": 21,
        "running": true,
        "channel": 9,
        "type": "noteOff",
        "noteNumber": 51,
        "velocity": 0,
        "byte9": true
      },
      {
        "deltaTime": 99,
        "running": true,
        "channel": 9,
        "type": "noteOn",
        "noteNumber": 36,
        "velocity": 127
      },
      {
        "deltaTime": 0,
        "running": true,
        "channel": 9,
        "type": "noteOn",
        "noteNumber": 51,
        "velocity": 67
      },
      {
        "deltaTime": 15,
        "channel": 9,
        "type": "channelAftertouch",
        "amount": 1
      },
      {
        "deltaTime": 8,
        "channel": 9,
        "type": "noteOff",
        "noteNumber": 51,
        "velocity": 0,
        "byte9": true
      },
      {
        "deltaTime": 6,
        "running": true,
        "channel": 9,
        "type": "noteOff",
        "noteNumber": 36,
        "velocity": 0,
        "byte9": true
      },
      {
        "deltaTime": 0,
        "channel": 9,
        "type": "channelAftertouch",
        "amount": 0
      },
      {
        "deltaTime": 91,
        "channel": 9,
        "type": "noteOn",
        "noteNumber": 51,
        "velocity": 77
      },
      {
        "deltaTime": 21,
        "running": true,
        "channel": 9,
        "type": "noteOff",
        "noteNumber": 51,
        "velocity": 0,
        "byte9": true
      },
      {
        "deltaTime": 99,
        "running": true,
        "channel": 9,
        "type": "noteOn",
        "noteNumber": 51,
        "velocity": 68
      },
      {
        "deltaTime": 20,
        "running": true,
        "channel": 9,
        "type": "noteOff",
        "noteNumber": 51,
        "velocity": 0,
        "byte9": true
      },
      {
        "deltaTime": 100,
        "running": true,
        "channel": 9,
        "type": "noteOn",
        "noteNumber": 38,
        "velocity": 127
      },
      {
        "deltaTime": 0,
        "running": true,
        "channel": 9,
        "type": "noteOn",
        "noteNumber": 36,
        "velocity": 127
      },
      {
        "deltaTime": 0,
        "running": true,
        "channel": 9,
        "type": "noteOn",
        "noteNumber": 51,
        "velocity": 78
      },
      {
        "deltaTime": 17,
        "running": true,
        "channel": 9,
        "type": "noteOff",
        "noteNumber": 51,
        "velocity": 0,
        "byte9": true
      },
      {
        "deltaTime": 15,
        "running": true,
        "channel": 9,
        "type": "noteOff",
        "noteNumber": 38,
        "velocity": 0,
        "byte9": true
      },
      {
        "deltaTime": 0,
        "running": true,
        "channel": 9,
        "type": "noteOff",
        "noteNumber": 36,
        "velocity": 0,
        "byte9": true
      },
      {
        "deltaTime": 88,
        "running": true,
        "channel": 9,
        "type": "noteOn",
        "noteNumber": 51,
        "velocity": 66
      },
      {
        "deltaTime": 22,
        "running": true,
        "channel": 9,
        "type": "noteOff",
        "noteNumber": 51,
        "velocity": 0,
        "byte9": true
      },
      {
        "deltaTime": 98,
        "running": true,
        "channel": 9,
        "type": "noteOn",
        "noteNumber": 51,
        "velocity": 76
      },
      {
        "deltaTime": 21,
        "running": true,
        "channel": 9,
        "type": "noteOff",
        "noteNumber": 51,
        "velocity": 0,
        "byte9": true
      },
      {
        "deltaTime": 99,
        "running": true,
        "channel": 9,
        "type": "noteOn",
        "noteNumber": 36,
        "velocity": 127
      },
      {
        "deltaTime": 0,
        "running": true,
        "channel": 9,
        "type": "noteOn",
        "noteNumber": 51,
        "velocity": 81
      },
      {
        "deltaTime": 22,
        "running": true,
        "channel": 9,
        "type": "noteOff",
        "noteNumber": 51,
        "velocity": 0,
        "byte9": true
      },
      {
        "deltaTime": 6,
        "running": true,
        "channel": 9,
        "type": "noteOff",
        "noteNumber": 36,
        "velocity": 0,
        "byte9": true
      },
      {
        "deltaTime": 92,
        "running": true,
        "channel": 9,
        "type": "noteOn",
        "noteNumber": 51,
        "velocity": 61
      },
      {
        "deltaTime": 23,
        "running": true,
        "channel": 9,
        "type": "noteOff",
        "noteNumber": 51,
        "velocity": 0,
        "byte9": true
      },
      {
        "deltaTime": 97,
        "running": true,
        "channel": 9,
        "type": "noteOn",
        "noteNumber": 51,
        "velocity": 73
      },
      {
        "deltaTime": 21,
        "running": true,
        "channel": 9,
        "type": "noteOff",
        "noteNumber": 51,
        "velocity": 0,
        "byte9": true
      },
      {
        "deltaTime": 99,
        "running": true,
        "channel": 9,
        "type": "noteOn",
        "noteNumber": 38,
        "velocity": 127
      },
      {
        "deltaTime": 0,
        "running": true,
        "channel": 9,
        "type": "noteOn",
        "noteNumber": 36,
        "velocity": 127
      },
      {
        "deltaTime": 0,
        "running": true,
        "channel": 9,
        "type": "noteOn",
        "noteNumber": 51,
        "velocity": 108
      },
      {
        "deltaTime": 25,
        "running": true,
        "channel": 9,
        "type": "noteOff",
        "noteNumber": 51,
        "velocity": 0,
        "byte9": true
      },
      {
        "deltaTime": 1,
        "running": true,
        "channel": 9,
        "type": "noteOff",
        "noteNumber": 38,
        "velocity": 0,
        "byte9": true
      },
      {
        "deltaTime": 1,
        "running": true,
        "channel": 9,
        "type": "noteOff",
        "noteNumber": 36,
        "velocity": 0,
        "byte9": true
      },
      {
        "deltaTime": 333,
        "running": true,
        "channel": 9,
        "type": "noteOn",
        "noteNumber": 36,
        "velocity": 127
      },
      {
        "deltaTime": 0,
        "running": true,
        "channel": 9,
        "type": "noteOn",
        "noteNumber": 51,
        "velocity": 84
      },
      {
        "deltaTime": 23,
        "running": true,
        "channel": 9,
        "type": "noteOff",
        "noteNumber": 51,
        "velocity": 0,
        "byte9": true
      },
      {
        "deltaTime": 1,
        "running": true,
        "channel": 9,
        "type": "noteOff",
        "noteNumber": 36,
        "velocity": 0,
        "byte9": true
      },
      {
        "deltaTime": 96,
        "running": true,
        "channel": 9,
        "type": "noteOn",
        "noteNumber": 38,
        "velocity": 126
      },
      {
        "deltaTime": 17,
        "running": true,
        "channel": 9,
        "type": "noteOff",
        "noteNumber": 38,
        "velocity": 0,
        "byte9": true
      },
      {
        "deltaTime": 103,
        "running": true,
        "channel": 9,
        "type": "noteOn",
        "noteNumber": 38,
        "velocity": 127
      },
      {
        "deltaTime": 19,
        "running": true,
        "channel": 9,
        "type": "noteOff",
        "noteNumber": 38,
        "velocity": 0,
        "byte9": true
      },
      {
        "deltaTime": 41,
        "running": true,
        "channel": 9,
        "type": "noteOn",
        "noteNumber": 38,
        "velocity": 127
      },
      {
        "deltaTime": 18,
        "running": true,
        "channel": 9,
        "type": "noteOff",
        "noteNumber": 38,
        "velocity": 0,
        "byte9": true
      },
      {
        "deltaTime": 42,
        "running": true,
        "channel": 9,
        "type": "noteOn",
        "noteNumber": 36,
        "velocity": 127
      },
      {
        "deltaTime": 0,
        "running": true,
        "channel": 9,
        "type": "noteOn",
        "noteNumber": 51,
        "velocity": 102
      },
      {
        "deltaTime": 5,
        "channel": 9,
        "type": "channelAftertouch",
        "amount": 2
      },
      {
        "deltaTime": 2,
        "running": true,
        "channel": 9,
        "type": "channelAftertouch",
        "amount": 8
      },
      {
        "deltaTime": 6,
        "running": true,
        "channel": 9,
        "type": "channelAftertouch",
        "amount": 15
      },
      {
        "deltaTime": 1,
        "running": true,
        "channel": 9,
        "type": "channelAftertouch",
        "amount": 19
      },
      {
        "deltaTime": 7,
        "running": true,
        "channel": 9,
        "type": "channelAftertouch",
        "amount": 14
      },
      {
        "deltaTime": 2,
        "channel": 9,
        "type": "noteOff",
        "noteNumber": 51,
        "velocity": 0,
        "byte9": true
      },
      {
        "deltaTime": 2,
        "channel": 9,
        "type": "channelAftertouch",
        "amount": 6
      },
      {
        "deltaTime": 3,
        "running": true,
        "channel": 9,
        "type": "channelAftertouch",
        "amount": 3
      },
      {
        "deltaTime": 3,
        "running": true,
        "channel": 9,
        "type": "channelAftertouch",
        "amount": 0
      },
      {
        "deltaTime": 149,
        "channel": 9,
        "type": "noteOn",
        "noteNumber": 51,
        "velocity": 60
      },
      {
        "deltaTime": 7,
        "running": true,
        "channel": 9,
        "type": "noteOff",
        "noteNumber": 36,
        "velocity": 0,
        "byte9": true
      },
      {
        "deltaTime": 11,
        "running": true,
        "channel": 9,
        "type": "noteOff",
        "noteNumber": 51,
        "velocity": 0,
        "byte9": true
      },
      {
        "deltaTime": 102,
        "running": true,
        "channel": 9,
        "type": "noteOn",
        "noteNumber": 51,
        "velocity": 64
      },
      {
        "deltaTime": 20,
        "running": true,
        "channel": 9,
        "type": "noteOff",
        "noteNumber": 51,
        "velocity": 0,
        "byte9": true
      },
      {
        "deltaTime": 40,
        "running": true,
        "channel": 9,
        "type": "noteOn",
        "noteNumber": 36,
        "velocity": 127
      },
      {
        "deltaTime": 0,
        "running": true,
        "channel": 9,
        "type": "noteOn",
        "noteNumber": 38,
        "velocity": 127
      },
      {
        "deltaTime": 0,
        "running": true,
        "channel": 9,
        "type": "noteOn",
        "noteNumber": 51,
        "velocity": 74
      },
      {
        "deltaTime": 23,
        "running": true,
        "channel": 9,
        "type": "noteOff",
        "noteNumber": 51,
        "velocity": 0,
        "byte9": true
      },
      {
        "deltaTime": 11,
        "running": true,
        "channel": 9,
        "type": "noteOff",
        "noteNumber": 38,
        "velocity": 0,
        "byte9": true
      },
      {
        "deltaTime": 7,
        "running": true,
        "channel": 9,
        "type": "noteOff",
        "noteNumber": 36,
        "velocity": 0,
        "byte9": true
      },
      {
        "deltaTime": 79,
        "running": true,
        "channel": 9,
        "type": "noteOn",
        "noteNumber": 51,
        "velocity": 61
      },
      {
        "deltaTime": 21,
        "running": true,
        "channel": 9,
        "type": "noteOff",
        "noteNumber": 51,
        "velocity": 0,
        "byte9": true
      },
      {
        "deltaTime": 99,
        "running": true,
        "channel": 9,
        "type": "noteOn",
        "noteNumber": 51,
        "velocity": 67
      },
      {
        "deltaTime": 22,
        "running": true,
        "channel": 9,
        "type": "noteOff",
        "noteNumber": 51,
        "velocity": 0,
        "byte9": true
      },
      {
        "deltaTime": 98,
        "running": true,
        "channel": 9,
        "type": "noteOn",
        "noteNumber": 36,
        "velocity": 127
      },
      {
        "deltaTime": 0,
        "running": true,
        "channel": 9,
        "type": "noteOn",
        "noteNumber": 51,
        "velocity": 63
      },
      {
        "deltaTime": 23,
        "running": true,
        "channel": 9,
        "type": "noteOff",
        "noteNumber": 51,
        "velocity": 0,
        "byte9": true
      },
      {
        "deltaTime": 10,
        "running": true,
        "channel": 9,
        "type": "noteOff",
        "noteNumber": 36,
        "velocity": 0,
        "byte9": true
      },
      {
        "deltaTime": 87,
        "running": true,
        "channel": 9,
        "type": "noteOn",
        "noteNumber": 51,
        "velocity": 68
      },
      {
        "deltaTime": 24,
        "running": true,
        "channel": 9,
        "type": "noteOff",
        "noteNumber": 51,
        "velocity": 0,
        "byte9": true
      },
      {
        "deltaTime": 96,
        "running": true,
        "channel": 9,
        "type": "noteOn",
        "noteNumber": 51,
        "velocity": 84
      },
      {
        "deltaTime": 23,
        "running": true,
        "channel": 9,
        "type": "noteOff",
        "noteNumber": 51,
        "velocity": 0,
        "byte9": true
      },
      {
        "deltaTime": 97,
        "running": true,
        "channel": 9,
        "type": "noteOn",
        "noteNumber": 38,
        "velocity": 127
      },
      {
        "deltaTime": 0,
        "running": true,
        "channel": 9,
        "type": "noteOn",
        "noteNumber": 36,
        "velocity": 127
      },
      {
        "deltaTime": 0,
        "channel": 9,
        "type": "channelAftertouch",
        "amount": 1
      },
      {
        "deltaTime": 0,
        "channel": 9,
        "type": "noteOn",
        "noteNumber": 51,
        "velocity": 84
      },
      {
        "deltaTime": 16,
        "channel": 9,
        "type": "channelAftertouch",
        "amount": 0
      },
      {
        "deltaTime": 7,
        "channel": 9,
        "type": "noteOff",
        "noteNumber": 51,
        "velocity": 0,
        "byte9": true
      },
      {
        "deltaTime": 5,
        "running": true,
        "channel": 9,
        "type": "noteOff",
        "noteNumber": 38,
        "velocity": 0,
        "byte9": true
      },
      {
        "deltaTime": 4,
        "running": true,
        "channel": 9,
        "type": "noteOff",
        "noteNumber": 36,
        "velocity": 0,
        "byte9": true
      },
      {
        "deltaTime": 88,
        "running": true,
        "channel": 9,
        "type": "noteOn",
        "noteNumber": 51,
        "velocity": 78
      },
      {
        "deltaTime": 22,
        "running": true,
        "channel": 9,
        "type": "noteOff",
        "noteNumber": 51,
        "velocity": 0,
        "byte9": true
      },
      {
        "deltaTime": 98,
        "running": true,
        "channel": 9,
        "type": "noteOn",
        "noteNumber": 51,
        "velocity": 82
      },
      {
        "deltaTime": 20,
        "running": true,
        "channel": 9,
        "type": "noteOff",
        "noteNumber": 51,
        "velocity": 0,
        "byte9": true
      },
      {
        "deltaTime": 100,
        "running": true,
        "channel": 9,
        "type": "noteOn",
        "noteNumber": 36,
        "velocity": 127
      },
      {
        "deltaTime": 0,
        "running": true,
        "channel": 9,
        "type": "noteOn",
        "noteNumber": 51,
        "velocity": 84
      },
      {
        "deltaTime": 22,
        "running": true,
        "channel": 9,
        "type": "noteOff",
        "noteNumber": 51,
        "velocity": 0,
        "byte9": true
      },
      {
        "deltaTime": 10,
        "running": true,
        "channel": 9,
        "type": "noteOff",
        "noteNumber": 36,
        "velocity": 0,
        "byte9": true
      },
      {
        "deltaTime": 88,
        "running": true,
        "channel": 9,
        "type": "noteOn",
        "noteNumber": 51,
        "velocity": 69
      },
      {
        "deltaTime": 22,
        "running": true,
        "channel": 9,
        "type": "noteOff",
        "noteNumber": 51,
        "velocity": 0,
        "byte9": true
      },
      {
        "deltaTime": 98,
        "running": true,
        "channel": 9,
        "type": "noteOn",
        "noteNumber": 51,
        "velocity": 72
      },
      {
        "deltaTime": 25,
        "running": true,
        "channel": 9,
        "type": "noteOff",
        "noteNumber": 51,
        "velocity": 0,
        "byte9": true
      },
      {
        "deltaTime": 95,
        "running": true,
        "channel": 9,
        "type": "noteOn",
        "noteNumber": 36,
        "velocity": 127
      },
      {
        "deltaTime": 0,
        "running": true,
        "channel": 9,
        "type": "noteOn",
        "noteNumber": 38,
        "velocity": 127
      },
      {
        "deltaTime": 0,
        "running": true,
        "channel": 9,
        "type": "noteOn",
        "noteNumber": 51,
        "velocity": 88
      },
      {
        "deltaTime": 20,
        "running": true,
        "channel": 9,
        "type": "noteOff",
        "noteNumber": 51,
        "velocity": 0,
        "byte9": true
      },
      {
        "deltaTime": 10,
        "running": true,
        "channel": 9,
        "type": "noteOff",
        "noteNumber": 38,
        "velocity": 0,
        "byte9": true
      },
      {
        "deltaTime": 2,
        "running": true,
        "channel": 9,
        "type": "noteOff",
        "noteNumber": 36,
        "velocity": 0,
        "byte9": true
      },
      {
        "deltaTime": 88,
        "running": true,
        "channel": 9,
        "type": "noteOn",
        "noteNumber": 51,
        "velocity": 88
      },
      {
        "deltaTime": 21,
        "running": true,
        "channel": 9,
        "type": "noteOff",
        "noteNumber": 51,
        "velocity": 0,
        "byte9": true
      },
      {
        "deltaTime": 99,
        "running": true,
        "channel": 9,
        "type": "noteOn",
        "noteNumber": 51,
        "velocity": 85
      },
      {
        "deltaTime": 24,
        "running": true,
        "channel": 9,
        "type": "noteOff",
        "noteNumber": 51,
        "velocity": 0,
        "byte9": true
      },
      {
        "deltaTime": 96,
        "running": true,
        "channel": 9,
        "type": "noteOn",
        "noteNumber": 36,
        "velocity": 127
      },
      {
        "deltaTime": 0,
        "channel": 9,
        "type": "channelAftertouch",
        "amount": 3
      },
      {
        "deltaTime": 0,
        "channel": 9,
        "type": "noteOn",
        "noteNumber": 51,
        "velocity": 100
      },
      {
        "deltaTime": 14,
        "channel": 9,
        "type": "channelAftertouch",
        "amount": 0
      },
      {
        "deltaTime": 3,
        "channel": 9,
        "type": "noteOff",
        "noteNumber": 51,
        "velocity": 0,
        "byte9": true
      },
      {
        "deltaTime": 13,
        "running": true,
        "channel": 9,
        "type": "noteOff",
        "noteNumber": 36,
        "velocity": 0,
        "byte9": true
      },
      {
        "deltaTime": 90,
        "running": true,
        "channel": 9,
        "type": "noteOn",
        "noteNumber": 51,
        "velocity": 90
      },
      {
        "deltaTime": 22,
        "running": true,
        "channel": 9,
        "type": "noteOff",
        "noteNumber": 51,
        "velocity": 0,
        "byte9": true
      },
      {
        "deltaTime": 98,
        "running": true,
        "channel": 9,
        "type": "noteOn",
        "noteNumber": 51,
        "velocity": 84
      },
      {
        "deltaTime": 21,
        "running": true,
        "channel": 9,
        "type": "noteOff",
        "noteNumber": 51,
        "velocity": 0,
        "byte9": true
      },
      {
        "deltaTime": 99,
        "running": true,
        "channel": 9,
        "type": "noteOn",
        "noteNumber": 38,
        "velocity": 127
      },
      {
        "deltaTime": 0,
        "running": true,
        "channel": 9,
        "type": "noteOn",
        "noteNumber": 36,
        "velocity": 127
      },
      {
        "deltaTime": 0,
        "running": true,
        "channel": 9,
        "type": "noteOn",
        "noteNumber": 51,
        "velocity": 88
      },
      {
        "deltaTime": 5,
        "channel": 9,
        "type": "channelAftertouch",
        "amount": 1
      },
      {
        "deltaTime": 10,
        "running": true,
        "channel": 9,
        "type": "channelAftertouch",
        "amount": 0
      },
      {
        "deltaTime": 2,
        "channel": 9,
        "type": "noteOff",
        "noteNumber": 51,
        "velocity": 0,
        "byte9": true
      },
      {
        "deltaTime": 23,
        "running": true,
        "channel": 9,
        "type": "noteOff",
        "noteNumber": 36,
        "velocity": 0,
        "byte9": true
      },
      {
        "deltaTime": 1,
        "running": true,
        "channel": 9,
        "type": "noteOff",
        "noteNumber": 38,
        "velocity": 0,
        "byte9": true
      },
      {
        "deltaTime": 79,
        "running": true,
        "channel": 9,
        "type": "noteOn",
        "noteNumber": 51,
        "velocity": 72
      },
      {
        "deltaTime": 22,
        "running": true,
        "channel": 9,
        "type": "noteOff",
        "noteNumber": 51,
        "velocity": 0,
        "byte9": true
      },
      {
        "deltaTime": 98,
        "running": true,
        "channel": 9,
        "type": "noteOn",
        "noteNumber": 51,
        "velocity": 80
      },
      {
        "deltaTime": 22,
        "running": true,
        "channel": 9,
        "type": "noteOff",
        "noteNumber": 51,
        "velocity": 0,
        "byte9": true
      },
      {
        "deltaTime": 98,
        "running": true,
        "channel": 9,
        "type": "noteOn",
        "noteNumber": 36,
        "velocity": 127
      },
      {
        "deltaTime": 0,
        "running": true,
        "channel": 9,
        "type": "noteOn",
        "noteNumber": 51,
        "velocity": 92
      },
      {
        "deltaTime": 24,
        "running": true,
        "channel": 9,
        "type": "noteOff",
        "noteNumber": 51,
        "velocity": 0,
        "byte9": true
      },
      {
        "deltaTime": 12,
        "running": true,
        "channel": 9,
        "type": "noteOff",
        "noteNumber": 36,
        "velocity": 0,
        "byte9": true
      },
      {
        "deltaTime": 84,
        "running": true,
        "channel": 9,
        "type": "noteOn",
        "noteNumber": 51,
        "velocity": 81
      },
      {
        "deltaTime": 24,
        "running": true,
        "channel": 9,
        "type": "noteOff",
        "noteNumber": 51,
        "velocity": 0,
        "byte9": true
      },
      {
        "deltaTime": 96,
        "running": true,
        "channel": 9,
        "type": "noteOn",
        "noteNumber": 51,
        "velocity": 84
      },
      {
        "deltaTime": 24,
        "running": true,
        "channel": 9,
        "type": "noteOff",
        "noteNumber": 51,
        "velocity": 0,
        "byte9": true
      },
      {
        "deltaTime": 96,
        "running": true,
        "channel": 9,
        "type": "noteOn",
        "noteNumber": 38,
        "velocity": 127
      },
      {
        "deltaTime": 0,
        "running": true,
        "channel": 9,
        "type": "noteOn",
        "noteNumber": 36,
        "velocity": 127
      },
      {
        "deltaTime": 0,
        "running": true,
        "channel": 9,
        "type": "noteOn",
        "noteNumber": 51,
        "velocity": 98
      },
      {
        "deltaTime": 25,
        "running": true,
        "channel": 9,
        "type": "noteOff",
        "noteNumber": 51,
        "velocity": 0,
        "byte9": true
      },
      {
        "deltaTime": 7,
        "running": true,
        "channel": 9,
        "type": "noteOff",
        "noteNumber": 38,
        "velocity": 0,
        "byte9": true
      },
      {
        "deltaTime": 0,
        "running": true,
        "channel": 9,
        "type": "noteOff",
        "noteNumber": 36,
        "velocity": 0,
        "byte9": true
      },
      {
        "deltaTime": 88,
        "running": true,
        "channel": 9,
        "type": "noteOn",
        "noteNumber": 51,
        "velocity": 78
      },
      {
        "deltaTime": 25,
        "running": true,
        "channel": 9,
        "type": "noteOff",
        "noteNumber": 51,
        "velocity": 0,
        "byte9": true
      },
      {
        "deltaTime": 95,
        "running": true,
        "channel": 9,
        "type": "noteOn",
        "noteNumber": 51,
        "velocity": 94
      },
      {
        "deltaTime": 26,
        "running": true,
        "channel": 9,
        "type": "noteOff",
        "noteNumber": 51,
        "velocity": 0,
        "byte9": true
      },
      {
        "deltaTime": 94,
        "running": true,
        "channel": 9,
        "type": "noteOn",
        "noteNumber": 36,
        "velocity": 127
      },
      {
        "deltaTime": 0,
        "running": true,
        "channel": 9,
        "type": "noteOn",
        "noteNumber": 51,
        "velocity": 96
      },
      {
        "deltaTime": 25,
        "running": true,
        "channel": 9,
        "type": "noteOff",
        "noteNumber": 51,
        "velocity": 0,
        "byte9": true
      },
      {
        "deltaTime": 7,
        "running": true,
        "channel": 9,
        "type": "noteOff",
        "noteNumber": 36,
        "velocity": 0,
        "byte9": true
      },
      {
        "deltaTime": 88,
        "running": true,
        "channel": 9,
        "type": "noteOn",
        "noteNumber": 51,
        "velocity": 96
      },
      {
        "deltaTime": 22,
        "running": true,
        "channel": 9,
        "type": "noteOff",
        "noteNumber": 51,
        "velocity": 0,
        "byte9": true
      },
      {
        "deltaTime": 98,
        "running": true,
        "channel": 9,
        "type": "noteOn",
        "noteNumber": 51,
        "velocity": 94
      },
      {
        "deltaTime": 25,
        "running": true,
        "channel": 9,
        "type": "noteOff",
        "noteNumber": 51,
        "velocity": 0,
        "byte9": true
      },
      {
        "deltaTime": 95,
        "running": true,
        "channel": 9,
        "type": "noteOn",
        "noteNumber": 38,
        "velocity": 127
      },
      {
        "deltaTime": 0,
        "running": true,
        "channel": 9,
        "type": "noteOn",
        "noteNumber": 36,
        "velocity": 127
      },
      {
        "deltaTime": 0,
        "running": true,
        "channel": 9,
        "type": "noteOn",
        "noteNumber": 51,
        "velocity": 76
      },
      {
        "deltaTime": 27,
        "running": true,
        "channel": 9,
        "type": "noteOff",
        "noteNumber": 38,
        "velocity": 0,
        "byte9": true
      },
      {
        "deltaTime": 2,
        "running": true,
        "channel": 9,
        "type": "noteOff",
        "noteNumber": 51,
        "velocity": 0,
        "byte9": true
      },
      {
        "deltaTime": 2,
        "running": true,
        "channel": 9,
        "type": "noteOff",
        "noteNumber": 36,
        "velocity": 0,
        "byte9": true
      },
      {
        "deltaTime": 89,
        "running": true,
        "channel": 9,
        "type": "noteOn",
        "noteNumber": 51,
        "velocity": 86
      },
      {
        "deltaTime": 25,
        "running": true,
        "channel": 9,
        "type": "noteOff",
        "noteNumber": 51,
        "velocity": 0,
        "byte9": true
      },
      {
        "deltaTime": 95,
        "running": true,
        "channel": 9,
        "type": "noteOn",
        "noteNumber": 51,
        "velocity": 92
      },
      {
        "deltaTime": 25,
        "running": true,
        "channel": 9,
        "type": "noteOff",
        "noteNumber": 51,
        "velocity": 0,
        "byte9": true
      },
      {
        "deltaTime": 95,
        "running": true,
        "channel": 9,
        "type": "noteOn",
        "noteNumber": 36,
        "velocity": 127
      },
      {
        "deltaTime": 0,
        "running": true,
        "channel": 9,
        "type": "noteOn",
        "noteNumber": 51,
        "velocity": 106
      },
      {
        "deltaTime": 24,
        "running": true,
        "channel": 9,
        "type": "noteOff",
        "noteNumber": 51,
        "velocity": 0,
        "byte9": true
      },
      {
        "deltaTime": 36,
        "running": true,
        "channel": 9,
        "type": "noteOn",
        "noteNumber": 38,
        "velocity": 127
      },
      {
        "deltaTime": 22,
        "running": true,
        "channel": 9,
        "type": "noteOff",
        "noteNumber": 38,
        "velocity": 0,
        "byte9": true
      },
      {
        "deltaTime": 38,
        "running": true,
        "channel": 9,
        "type": "noteOn",
        "noteNumber": 51,
        "velocity": 104
      },
      {
        "deltaTime": 23,
        "running": true,
        "channel": 9,
        "type": "noteOff",
        "noteNumber": 51,
        "velocity": 0,
        "byte9": true
      },
      {
        "deltaTime": 49,
        "running": true,
        "channel": 9,
        "type": "noteOff",
        "noteNumber": 36,
        "velocity": 0,
        "byte9": true
      },
      {
        "deltaTime": 48,
        "running": true,
        "channel": 9,
        "type": "noteOn",
        "noteNumber": 51,
        "velocity": 114
      },
      {
        "deltaTime": 27,
        "running": true,
        "channel": 9,
        "type": "noteOff",
        "noteNumber": 51,
        "velocity": 0,
        "byte9": true
      },
      {
        "deltaTime": 33,
        "running": true,
        "channel": 9,
        "type": "noteOn",
        "noteNumber": 36,
        "velocity": 127
      },
      {
        "deltaTime": 0,
        "running": true,
        "channel": 9,
        "type": "noteOn",
        "noteNumber": 38,
        "velocity": 127
      },
      {
        "deltaTime": 24,
        "running": true,
        "channel": 9,
        "type": "noteOff",
        "noteNumber": 38,
        "velocity": 0,
        "byte9": true
      },
      {
        "deltaTime": 36,
        "running": true,
        "channel": 9,
        "type": "noteOn",
        "noteNumber": 51,
        "velocity": 114
      },
      {
        "deltaTime": 25,
        "running": true,
        "channel": 9,
        "type": "noteOff",
        "noteNumber": 51,
        "velocity": 0,
        "byte9": true
      },
      {
        "deltaTime": 95,
        "running": true,
        "channel": 9,
        "type": "noteOn",
        "noteNumber": 51,
        "velocity": 120
      },
      {
        "deltaTime": 20,
        "running": true,
        "channel": 9,
        "type": "noteOff",
        "noteNumber": 51,
        "velocity": 0,
        "byte9": true
      },
      {
        "deltaTime": 40,
        "running": true,
        "channel": 9,
        "type": "noteOff",
        "noteNumber": 36,
        "velocity": 0,
        "byte9": true
      },
      {
        "deltaTime": 60,
        "running": true,
        "channel": 9,
        "type": "noteOn",
        "noteNumber": 51,
        "velocity": 117
      },
      {
        "deltaTime": 20,
        "running": true,
        "channel": 9,
        "type": "noteOff",
        "noteNumber": 51,
        "velocity": 0,
        "byte9": true
      },
      {
        "deltaTime": 100,
        "running": true,
        "channel": 9,
        "type": "noteOn",
        "noteNumber": 36,
        "velocity": 127
      },
      {
        "deltaTime": 0,
        "running": true,
        "channel": 9,
        "type": "noteOn",
        "noteNumber": 51,
        "velocity": 126
      },
      {
        "deltaTime": 27,
        "running": true,
        "channel": 9,
        "type": "noteOff",
        "noteNumber": 51,
        "velocity": 0,
        "byte9": true
      },
      {
        "deltaTime": 93,
        "running": true,
        "channel": 9,
        "type": "noteOn",
        "noteNumber": 38,
        "velocity": 127
      },
      {
        "deltaTime": 0,
        "running": true,
        "channel": 9,
        "type": "noteOn",
        "noteNumber": 51,
        "velocity": 120
      },
      {
        "deltaTime": 18,
        "running": true,
        "channel": 9,
        "type": "noteOff",
        "noteNumber": 38,
        "velocity": 0,
        "byte9": true
      },
      {
        "deltaTime": 4,
        "running": true,
        "channel": 9,
        "type": "noteOff",
        "noteNumber": 51,
        "velocity": 0,
        "byte9": true
      },
      {
        "deltaTime": 98,
        "running": true,
        "channel": 9,
        "type": "noteOn",
        "noteNumber": 38,
        "velocity": 127
      },
      {
        "deltaTime": 20,
        "running": true,
        "channel": 9,
        "type": "noteOff",
        "noteNumber": 38,
        "velocity": 0,
        "byte9": true
      },
      {
        "deltaTime": 5,
        "running": true,
        "channel": 9,
        "type": "noteOff",
        "noteNumber": 36,
        "velocity": 0,
        "byte9": true
      },
      {
        "deltaTime": 95,
        "running": true,
        "channel": 9,
        "type": "noteOn",
        "noteNumber": 38,
        "velocity": 127
      },
      {
        "deltaTime": 19,
        "running": true,
        "channel": 9,
        "type": "noteOff",
        "noteNumber": 38,
        "velocity": 0,
        "byte9": true
      },
      {
        "deltaTime": 41,
        "running": true,
        "channel": 9,
        "type": "noteOn",
        "noteNumber": 51,
        "velocity": 127
      },
      {
        "deltaTime": 19,
        "running": true,
        "channel": 9,
        "type": "noteOff",
        "noteNumber": 51,
        "velocity": 0,
        "byte9": true
      },
      {
        "deltaTime": 41,
        "running": true,
        "channel": 9,
        "type": "noteOn",
        "noteNumber": 38,
        "velocity": 126
      },
      {
        "deltaTime": 17,
        "running": true,
        "channel": 9,
        "type": "noteOff",
        "noteNumber": 38,
        "velocity": 0,
        "byte9": true
      },
      {
        "deltaTime": 103,
        "running": true,
        "channel": 9,
        "type": "noteOn",
        "noteNumber": 38,
        "velocity": 127
      },
      {
        "deltaTime": 0,
        "running": true,
        "channel": 9,
        "type": "noteOn",
        "noteNumber": 51,
        "velocity": 127
      },
      {
        "deltaTime": 18,
        "running": true,
        "channel": 9,
        "type": "noteOff",
        "noteNumber": 51,
        "velocity": 0,
        "byte9": true
      },
      {
        "deltaTime": 5,
        "running": true,
        "channel": 9,
        "type": "noteOff",
        "noteNumber": 38,
        "velocity": 0,
        "byte9": true
      },
      {
        "deltaTime": 37,
        "running": true,
        "channel": 9,
        "type": "noteOn",
        "noteNumber": 38,
        "velocity": 127
      },
      {
        "deltaTime": 20,
        "running": true,
        "channel": 9,
        "type": "noteOff",
        "noteNumber": 38,
        "velocity": 0,
        "byte9": true
      },
      {
        "deltaTime": 39,
        "channel": 9,
        "type": "channelAftertouch",
        "amount": 4
      },
      {
        "deltaTime": 1,
        "channel": 9,
        "type": "noteOn",
        "noteNumber": 36,
        "velocity": 127
      },
      {
        "deltaTime": 0,
        "running": true,
        "channel": 9,
        "type": "noteOn",
        "noteNumber": 51,
        "velocity": 125
      },
      {
        "deltaTime": 7,
        "channel": 9,
        "type": "channelAftertouch",
        "amount": 12
      },
      {
        "deltaTime": 2,
        "running": true,
        "channel": 9,
        "type": "channelAftertouch",
        "amount": 15
      },
      {
        "deltaTime": 7,
        "running": true,
        "channel": 9,
        "type": "channelAftertouch",
        "amount": 11
      },
      {
        "deltaTime": 4,
        "channel": 9,
        "type": "noteOff",
        "noteNumber": 51,
        "velocity": 0,
        "byte9": true
      },
      {
        "deltaTime": 0,
        "channel": 9,
        "type": "channelAftertouch",
        "amount": 3
      },
      {
        "deltaTime": 3,
        "running": true,
        "channel": 9,
        "type": "channelAftertouch",
        "amount": 0
      },
      {
        "deltaTime": 97,
        "channel": 9,
        "type": "noteOn",
        "noteNumber": 51,
        "velocity": 106
      },
      {
        "deltaTime": 17,
        "running": true,
        "channel": 9,
        "type": "noteOff",
        "noteNumber": 51,
        "velocity": 0,
        "byte9": true
      },
      {
        "deltaTime": 30,
        "running": true,
        "channel": 9,
        "type": "noteOff",
        "noteNumber": 36,
        "velocity": 0,
        "byte9": true
      },
      {
        "deltaTime": 73,
        "running": true,
        "channel": 9,
        "type": "noteOn",
        "noteNumber": 51,
        "velocity": 114
      },
      {
        "deltaTime": 23,
        "running": true,
        "channel": 9,
        "type": "noteOff",
        "noteNumber": 51,
        "velocity": 0,
        "byte9": true
      },
      {
        "deltaTime": 97,
        "running": true,
        "channel": 9,
        "type": "noteOn",
        "noteNumber": 38,
        "velocity": 127
      },
      {
        "deltaTime": 0,
        "running": true,
        "channel": 9,
        "type": "noteOn",
        "noteNumber": 36,
        "velocity": 127
      },
      {
        "deltaTime": 0,
        "running": true,
        "channel": 9,
        "type": "noteOn",
        "noteNumber": 51,
        "velocity": 120
      },
      {
        "deltaTime": 4,
        "channel": 9,
        "type": "channelAftertouch",
        "amount": 6
      },
      {
        "deltaTime": 4,
        "running": true,
        "channel": 9,
        "type": "channelAftertouch",
        "amount": 10
      },
      {
        "deltaTime": 7,
        "running": true,
        "channel": 9,
        "type": "channelAftertouch",
        "amount": 5
      },
      {
        "deltaTime": 4,
        "running": true,
        "channel": 9,
        "type": "channelAftertouch",
        "amount": 0
      },
      {
        "deltaTime": 3,
        "channel": 9,
        "type": "noteOff",
        "noteNumber": 51,
        "velocity": 0,
        "byte9": true
      },
      {
        "deltaTime": 18,
        "running": true,
        "channel": 9,
        "type": "noteOff",
        "noteNumber": 38,
        "velocity": 0,
        "byte9": true
      },
      {
        "deltaTime": 38,
        "running": true,
        "channel": 9,
        "type": "noteOff",
        "noteNumber": 36,
        "velocity": 0,
        "byte9": true
      },
      {
        "deltaTime": 42,
        "running": true,
        "channel": 9,
        "type": "noteOn",
        "noteNumber": 51,
        "velocity": 123
      },
      {
        "deltaTime": 25,
        "running": true,
        "channel": 9,
        "type": "noteOff",
        "noteNumber": 51,
        "velocity": 0,
        "byte9": true
      },
      {
        "deltaTime": 95,
        "running": true,
        "channel": 9,
        "type": "noteOn",
        "noteNumber": 51,
        "velocity": 123
      },
      {
        "deltaTime": 24,
        "running": true,
        "channel": 9,
        "type": "noteOff",
        "noteNumber": 51,
        "velocity": 0,
        "byte9": true
      },
      {
        "deltaTime": 96,
        "running": true,
        "channel": 9,
        "type": "noteOn",
        "noteNumber": 36,
        "velocity": 127
      },
      {
        "deltaTime": 0,
        "running": true,
        "channel": 9,
        "type": "noteOn",
        "noteNumber": 51,
        "velocity": 125
      },
      {
        "deltaTime": 8,
        "channel": 9,
        "type": "channelAftertouch",
        "amount": 7
      },
      {
        "deltaTime": 2,
        "running": true,
        "channel": 9,
        "type": "channelAftertouch",
        "amount": 19
      },
      {
        "deltaTime": 5,
        "running": true,
        "channel": 9,
        "type": "channelAftertouch",
        "amount": 31
      },
      {
        "deltaTime": 2,
        "running": true,
        "channel": 9,
        "type": "channelAftertouch",
        "amount": 40
      },
      {
        "deltaTime": 3,
        "running": true,
        "channel": 9,
        "type": "channelAftertouch",
        "amount": 33
      },
      {
        "deltaTime": 3,
        "channel": 9,
        "type": "noteOff",
        "noteNumber": 51,
        "velocity": 0,
        "byte9": true
      },
      {
        "deltaTime": 0,
        "channel": 9,
        "type": "channelAftertouch",
        "amount": 22
      },
      {
        "deltaTime": 4,
        "running": true,
        "channel": 9,
        "type": "channelAftertouch",
        "amount": 10
      },
      {
        "deltaTime": 3,
        "running": true,
        "channel": 9,
        "type": "channelAftertouch",
        "amount": 0
      },
      {
        "deltaTime": 15,
        "channel": 9,
        "type": "noteOff",
        "noteNumber": 36,
        "velocity": 0,
        "byte9": true
      },
      {
        "deltaTime": 75,
        "running": true,
        "channel": 9,
        "type": "noteOn",
        "noteNumber": 51,
        "velocity": 123
      },
      {
        "deltaTime": 24,
        "running": true,
        "channel": 9,
        "type": "noteOff",
        "noteNumber": 51,
        "velocity": 0,
        "byte9": true
      },
      {
        "deltaTime": 96,
        "running": true,
        "channel": 9,
        "type": "noteOn",
        "noteNumber": 51,
        "velocity": 126
      },
      {
        "deltaTime": 24,
        "running": true,
        "channel": 9,
        "type": "noteOff",
        "noteNumber": 51,
        "velocity": 0,
        "byte9": true
      },
      {
        "deltaTime": 96,
        "running": true,
        "channel": 9,
        "type": "noteOn",
        "noteNumber": 36,
        "velocity": 127
      },
      {
        "deltaTime": 0,
        "running": true,
        "channel": 9,
        "type": "noteOn",
        "noteNumber": 38,
        "velocity": 125
      },
      {
        "deltaTime": 0,
        "running": true,
        "channel": 9,
        "type": "noteOn",
        "noteNumber": 51,
        "velocity": 125
      },
      {
        "deltaTime": 8,
        "channel": 9,
        "type": "channelAftertouch",
        "amount": 2
      },
      {
        "deltaTime": 1,
        "running": true,
        "channel": 9,
        "type": "channelAftertouch",
        "amount": 4
      },
      {
        "deltaTime": 10,
        "channel": 9,
        "type": "noteOff",
        "noteNumber": 51,
        "velocity": 0,
        "byte9": true
      },
      {
        "deltaTime": 0,
        "channel": 9,
        "type": "channelAftertouch",
        "amount": 3
      },
      {
        "deltaTime": 3,
        "running": true,
        "channel": 9,
        "type": "channelAftertouch",
        "amount": 0
      },
      {
        "deltaTime": 5,
        "channel": 9,
        "type": "noteOff",
        "noteNumber": 38,
        "velocity": 0,
        "byte9": true
      },
      {
        "deltaTime": 3,
        "running": true,
        "channel": 9,
        "type": "noteOff",
        "noteNumber": 36,
        "velocity": 0,
        "byte9": true
      },
      {
        "deltaTime": 90,
        "running": true,
        "channel": 9,
        "type": "noteOn",
        "noteNumber": 51,
        "velocity": 125
      },
      {
        "deltaTime": 25,
        "running": true,
        "channel": 9,
        "type": "noteOff",
        "noteNumber": 51,
        "velocity": 0,
        "byte9": true
      },
      {
        "deltaTime": 95,
        "running": true,
        "channel": 9,
        "type": "noteOn",
        "noteNumber": 51,
        "velocity": 123
      },
      {
        "deltaTime": 25,
        "running": true,
        "channel": 9,
        "type": "noteOff",
        "noteNumber": 51,
        "velocity": 0,
        "byte9": true
      },
      {
        "deltaTime": 95,
        "running": true,
        "channel": 9,
        "type": "noteOn",
        "noteNumber": 36,
        "velocity": 127
      },
      {
        "deltaTime": 0,
        "running": true,
        "channel": 9,
        "type": "noteOn",
        "noteNumber": 51,
        "velocity": 120
      },
      {
        "deltaTime": 23,
        "channel": 9,
        "type": "channelAftertouch",
        "amount": 1
      },
      {
        "deltaTime": 3,
        "channel": 9,
        "type": "noteOff",
        "noteNumber": 51,
        "velocity": 0,
        "byte9": true
      },
      {
        "deltaTime": 11,
        "running": true,
        "channel": 9,
        "type": "noteOff",
        "noteNumber": 36,
        "velocity": 0,
        "byte9": true
      },
      {
        "deltaTime": 0,
        "channel": 9,
        "type": "channelAftertouch",
        "amount": 0
      },
      {
        "deltaTime": 83,
        "channel": 9,
        "type": "noteOn",
        "noteNumber": 51,
        "velocity": 106
      },
      {
        "deltaTime": 26,
        "running": true,
        "channel": 9,
        "type": "noteOff",
        "noteNumber": 51,
        "velocity": 0,
        "byte9": true
      },
      {
        "deltaTime": 94,
        "running": true,
        "channel": 9,
        "type": "noteOn",
        "noteNumber": 51,
        "velocity": 102
      },
      {
        "deltaTime": 25,
        "running": true,
        "channel": 9,
        "type": "noteOff",
        "noteNumber": 51,
        "velocity": 0,
        "byte9": true
      },
      {
        "deltaTime": 95,
        "running": true,
        "channel": 9,
        "type": "noteOn",
        "noteNumber": 36,
        "velocity": 127
      },
      {
        "deltaTime": 0,
        "running": true,
        "channel": 9,
        "type": "noteOn",
        "noteNumber": 38,
        "velocity": 127
      },
      {
        "deltaTime": 0,
        "running": true,
        "channel": 9,
        "type": "noteOn",
        "noteNumber": 51,
        "velocity": 110
      },
      {
        "deltaTime": 26,
        "running": true,
        "channel": 9,
        "type": "noteOff",
        "noteNumber": 51,
        "velocity": 0,
        "byte9": true
      },
      {
        "deltaTime": 2,
        "running": true,
        "channel": 9,
        "type": "noteOff",
        "noteNumber": 38,
        "velocity": 0,
        "byte9": true
      },
      {
        "deltaTime": 2,
        "running": true,
        "channel": 9,
        "type": "noteOff",
        "noteNumber": 36,
        "velocity": 0,
        "byte9": true
      },
      {
        "deltaTime": 90,
        "running": true,
        "channel": 9,
        "type": "noteOn",
        "noteNumber": 51,
        "velocity": 114
      },
      {
        "deltaTime": 28,
        "running": true,
        "channel": 9,
        "type": "noteOff",
        "noteNumber": 51,
        "velocity": 0,
        "byte9": true
      },
      {
        "deltaTime": 92,
        "running": true,
        "channel": 9,
        "type": "noteOn",
        "noteNumber": 51,
        "velocity": 114
      },
      {
        "deltaTime": 28,
        "running": true,
        "channel": 9,
        "type": "noteOff",
        "noteNumber": 51,
        "velocity": 0,
        "byte9": true
      },
      {
        "deltaTime": 92,
        "running": true,
        "channel": 9,
        "type": "noteOn",
        "noteNumber": 36,
        "velocity": 127
      },
      {
        "deltaTime": 0,
        "running": true,
        "channel": 9,
        "type": "noteOn",
        "noteNumber": 51,
        "velocity": 114
      },
      {
        "deltaTime": 27,
        "running": true,
        "channel": 9,
        "type": "noteOff",
        "noteNumber": 51,
        "velocity": 0,
        "byte9": true
      },
      {
        "deltaTime": 3,
        "running": true,
        "channel": 9,
        "type": "noteOff",
        "noteNumber": 36,
        "velocity": 0,
        "byte9": true
      },
      {
        "deltaTime": 90,
        "running": true,
        "channel": 9,
        "type": "noteOn",
        "noteNumber": 51,
        "velocity": 110
      },
      {
        "deltaTime": 26,
        "running": true,
        "channel": 9,
        "type": "noteOff",
        "noteNumber": 51,
        "velocity": 0,
        "byte9": true
      },
      {
        "deltaTime": 94,
        "running": true,
        "channel": 9,
        "type": "noteOn",
        "noteNumber": 51,
        "velocity": 117
      },
      {
        "deltaTime": 25,
        "running": true,
        "channel": 9,
        "type": "noteOff",
        "noteNumber": 51,
        "velocity": 0,
        "byte9": true
      },
      {
        "deltaTime": 95,
        "running": true,
        "channel": 9,
        "type": "noteOn",
        "noteNumber": 36,
        "velocity": 127
      },
      {
        "deltaTime": 0,
        "running": true,
        "channel": 9,
        "type": "noteOn",
        "noteNumber": 38,
        "velocity": 127
      },
      {
        "deltaTime": 0,
        "running": true,
        "channel": 9,
        "type": "noteOn",
        "noteNumber": 51,
        "velocity": 117
      },
      {
        "deltaTime": 27,
        "running": true,
        "channel": 9,
        "type": "noteOff",
        "noteNumber": 51,
        "velocity": 0,
        "byte9": true
      },
      {
        "deltaTime": 1,
        "running": true,
        "channel": 9,
        "type": "noteOff",
        "noteNumber": 38,
        "velocity": 0,
        "byte9": true
      },
      {
        "deltaTime": 3,
        "running": true,
        "channel": 9,
        "type": "noteOff",
        "noteNumber": 36,
        "velocity": 0,
        "byte9": true
      },
      {
        "deltaTime": 89,
        "running": true,
        "channel": 9,
        "type": "noteOn",
        "noteNumber": 51,
        "velocity": 108
      },
      {
        "deltaTime": 25,
        "running": true,
        "channel": 9,
        "type": "noteOff",
        "noteNumber": 51,
        "velocity": 0,
        "byte9": true
      },
      {
        "deltaTime": 95,
        "running": true,
        "channel": 9,
        "type": "noteOn",
        "noteNumber": 51,
        "velocity": 114
      },
      {
        "deltaTime": 22,
        "running": true,
        "channel": 9,
        "type": "noteOff",
        "noteNumber": 51,
        "velocity": 0,
        "byte9": true
      },
      {
        "deltaTime": 98,
        "running": true,
        "channel": 9,
        "type": "noteOn",
        "noteNumber": 36,
        "velocity": 127
      },
      {
        "deltaTime": 0,
        "running": true,
        "channel": 9,
        "type": "noteOn",
        "noteNumber": 51,
        "velocity": 92
      },
      {
        "deltaTime": 19,
        "running": true,
        "channel": 9,
        "type": "noteOff",
        "noteNumber": 51,
        "velocity": 0,
        "byte9": true
      },
      {
        "deltaTime": 15,
        "running": true,
        "channel": 9,
        "type": "noteOff",
        "noteNumber": 36,
        "velocity": 0,
        "byte9": true
      },
      {
        "deltaTime": 86,
        "running": true,
        "channel": 9,
        "type": "noteOn",
        "noteNumber": 51,
        "velocity": 98
      },
      {
        "deltaTime": 19,
        "running": true,
        "channel": 9,
        "type": "noteOff",
        "noteNumber": 51,
        "velocity": 0,
        "byte9": true
      },
      {
        "deltaTime": 101,
        "running": true,
        "channel": 9,
        "type": "noteOn",
        "noteNumber": 51,
        "velocity": 100
      },
      {
        "deltaTime": 24,
        "running": true,
        "channel": 9,
        "type": "noteOff",
        "noteNumber": 51,
        "velocity": 0,
        "byte9": true
      },
      {
        "deltaTime": 96,
        "running": true,
        "channel": 9,
        "type": "noteOn",
        "noteNumber": 38,
        "velocity": 127
      },
      {
        "deltaTime": 0,
        "running": true,
        "channel": 9,
        "type": "noteOn",
        "noteNumber": 36,
        "velocity": 127
      },
      {
        "deltaTime": 0,
        "running": true,
        "channel": 9,
        "type": "noteOn",
        "noteNumber": 51,
        "velocity": 80
      },
      {
        "deltaTime": 18,
        "channel": 9,
        "type": "channelAftertouch",
        "amount": 1
      },
      {
        "deltaTime": 5,
        "channel": 9,
        "type": "noteOff",
        "noteNumber": 51,
        "velocity": 0,
        "byte9": true
      },
      {
        "deltaTime": 9,
        "running": true,
        "channel": 9,
        "type": "noteOff",
        "noteNumber": 38,
        "velocity": 0,
        "byte9": true
      },
      {
        "deltaTime": 0,
        "channel": 9,
        "type": "channelAftertouch",
        "amount": 0
      },
      {
        "deltaTime": 5,
        "channel": 9,
        "type": "noteOff",
        "noteNumber": 36,
        "velocity": 0,
        "byte9": true
      },
      {
        "deltaTime": 83,
        "running": true,
        "channel": 9,
        "type": "noteOn",
        "noteNumber": 51,
        "velocity": 84
      },
      {
        "deltaTime": 21,
        "running": true,
        "channel": 9,
        "type": "noteOff",
        "noteNumber": 51,
        "velocity": 0,
        "byte9": true
      },
      {
        "deltaTime": 99,
        "running": true,
        "channel": 9,
        "type": "noteOn",
        "noteNumber": 51,
        "velocity": 94
      },
      {
        "deltaTime": 23,
        "running": true,
        "channel": 9,
        "type": "noteOff",
        "noteNumber": 51,
        "velocity": 0,
        "byte9": true
      },
      {
        "deltaTime": 97,
        "running": true,
        "channel": 9,
        "type": "noteOn",
        "noteNumber": 36,
        "velocity": 127
      },
      {
        "deltaTime": 0,
        "running": true,
        "channel": 9,
        "type": "noteOn",
        "noteNumber": 51,
        "velocity": 96
      },
      {
        "deltaTime": 24,
        "running": true,
        "channel": 9,
        "type": "noteOff",
        "noteNumber": 51,
        "velocity": 0,
        "byte9": true
      },
      {
        "deltaTime": 2,
        "running": true,
        "channel": 9,
        "type": "noteOff",
        "noteNumber": 36,
        "velocity": 0,
        "byte9": true
      },
      {
        "deltaTime": 94,
        "running": true,
        "channel": 9,
        "type": "noteOn",
        "noteNumber": 51,
        "velocity": 82
      },
      {
        "deltaTime": 22,
        "running": true,
        "channel": 9,
        "type": "noteOff",
        "noteNumber": 51,
        "velocity": 0,
        "byte9": true
      },
      {
        "deltaTime": 98,
        "running": true,
        "channel": 9,
        "type": "noteOn",
        "noteNumber": 51,
        "velocity": 76
      },
      {
        "deltaTime": 20,
        "running": true,
        "channel": 9,
        "type": "noteOff",
        "noteNumber": 51,
        "velocity": 0,
        "byte9": true
      },
      {
        "deltaTime": 100,
        "running": true,
        "channel": 9,
        "type": "noteOn",
        "noteNumber": 38,
        "velocity": 127
      },
      {
        "deltaTime": 0,
        "running": true,
        "channel": 9,
        "type": "noteOn",
        "noteNumber": 36,
        "velocity": 127
      },
      {
        "deltaTime": 0,
        "running": true,
        "channel": 9,
        "type": "noteOn",
        "noteNumber": 51,
        "velocity": 102
      },
      {
        "deltaTime": 19,
        "running": true,
        "channel": 9,
        "type": "noteOff",
        "noteNumber": 51,
        "velocity": 0,
        "byte9": true
      },
      {
        "deltaTime": 12,
        "running": true,
        "channel": 9,
        "type": "noteOff",
        "noteNumber": 36,
        "velocity": 0,
        "byte9": true
      },
      {
        "deltaTime": 1,
        "running": true,
        "channel": 9,
        "type": "noteOff",
        "noteNumber": 38,
        "velocity": 0,
        "byte9": true
      },
      {
        "deltaTime": 88,
        "running": true,
        "channel": 9,
        "type": "noteOn",
        "noteNumber": 51,
        "velocity": 84
      },
      {
        "deltaTime": 21,
        "running": true,
        "channel": 9,
        "type": "noteOff",
        "noteNumber": 51,
        "velocity": 0,
        "byte9": true
      },
      {
        "deltaTime": 99,
        "running": true,
        "channel": 9,
        "type": "noteOn",
        "noteNumber": 51,
        "velocity": 100
      },
      {
        "deltaTime": 21,
        "running": true,
        "channel": 9,
        "type": "noteOff",
        "noteNumber": 51,
        "velocity": 0,
        "byte9": true
      },
      {
        "deltaTime": 99,
        "running": true,
        "channel": 9,
        "type": "noteOn",
        "noteNumber": 36,
        "velocity": 127
      },
      {
        "deltaTime": 0,
        "running": true,
        "channel": 9,
        "type": "noteOn",
        "noteNumber": 51,
        "velocity": 104
      },
      {
        "deltaTime": 22,
        "running": true,
        "channel": 9,
        "type": "noteOff",
        "noteNumber": 51,
        "velocity": 0,
        "byte9": true
      },
      {
        "deltaTime": 4,
        "running": true,
        "channel": 9,
        "type": "noteOff",
        "noteNumber": 36,
        "velocity": 0,
        "byte9": true
      },
      {
        "deltaTime": 94,
        "running": true,
        "channel": 9,
        "type": "noteOn",
        "noteNumber": 51,
        "velocity": 94
      },
      {
        "deltaTime": 22,
        "running": true,
        "channel": 9,
        "type": "noteOff",
        "noteNumber": 51,
        "velocity": 0,
        "byte9": true
      },
      {
        "deltaTime": 98,
        "running": true,
        "channel": 9,
        "type": "noteOn",
        "noteNumber": 51,
        "velocity": 102
      },
      {
        "deltaTime": 19,
        "running": true,
        "channel": 9,
        "type": "noteOff",
        "noteNumber": 51,
        "velocity": 0,
        "byte9": true
      },
      {
        "deltaTime": 100,
        "channel": 9,
        "type": "channelAftertouch",
        "amount": 4
      },
      {
        "deltaTime": 1,
        "channel": 9,
        "type": "noteOn",
        "noteNumber": 38,
        "velocity": 127
      },
      {
        "deltaTime": 0,
        "running": true,
        "channel": 9,
        "type": "noteOn",
        "noteNumber": 36,
        "velocity": 127
      },
      {
        "deltaTime": 0,
        "running": true,
        "channel": 9,
        "type": "noteOn",
        "noteNumber": 51,
        "velocity": 126
      },
      {
        "deltaTime": 4,
        "channel": 9,
        "type": "channelAftertouch",
        "amount": 10
      },
      {
        "deltaTime": 5,
        "running": true,
        "channel": 9,
        "type": "channelAftertouch",
        "amount": 21
      },
      {
        "deltaTime": 2,
        "running": true,
        "channel": 9,
        "type": "channelAftertouch",
        "amount": 26
      },
      {
        "deltaTime": 6,
        "running": true,
        "channel": 9,
        "type": "channelAftertouch",
        "amount": 30
      },
      {
        "deltaTime": 1,
        "running": true,
        "channel": 9,
        "type": "channelAftertouch",
        "amount": 26
      },
      {
        "deltaTime": 4,
        "running": true,
        "channel": 9,
        "type": "channelAftertouch",
        "amount": 15
      },
      {
        "deltaTime": 2,
        "running": true,
        "channel": 9,
        "type": "channelAftertouch",
        "amount": 5
      },
      {
        "deltaTime": 4,
        "running": true,
        "channel": 9,
        "type": "channelAftertouch",
        "amount": 0
      },
      {
        "deltaTime": 332,
        "channel": 9,
        "type": "noteOn",
        "noteNumber": 54,
        "velocity": 106
      },
      {
        "deltaTime": 7,
        "running": true,
        "channel": 9,
        "type": "noteOff",
        "noteNumber": 51,
        "velocity": 0,
        "byte9": true
      },
      {
        "deltaTime": 88,
        "running": true,
        "channel": 9,
        "type": "noteOff",
        "noteNumber": 36,
        "velocity": 0,
        "byte9": true
      },
      {
        "deltaTime": 7,
        "running": true,
        "channel": 9,
        "type": "noteOff",
        "noteNumber": 38,
        "velocity": 0,
        "byte9": true
      },
      {
        "deltaTime": 273,
        "running": true,
        "channel": 9,
        "type": "noteOff",
        "noteNumber": 54,
        "velocity": 0,
        "byte9": true
      },
      {
        "deltaTime": 0,
        "meta": true,
        "type": "endOfTrack"
      }
    ]
  ]
}