{"header":{"format":1,"numTracks":2,"ticksPerBeat":2520},"tracks":[[{"meta":true,"type":"timeSignature","deltaTime":0,"numerator":3,"denominator":4,"metronome":24,"thirtyseconds":8},{"deltaTime":0,"meta":true,"type":"setTempo","microsecondsPerBeat":428571.4285714286},{"deltaTime":0,"meta":true,"type":"endOfTrack"}],[{"meta":true,"text":"piano","type":"trackName","deltaTime":0},{"deltaTime":15120,"channel":0,"type":"noteOn","noteNumber":69,"velocity":85},{"deltaTime":0,"channel":0,"type":"noteOn","noteNumber":52,"velocity":85},{"deltaTime":2520,"channel":0,"type":"noteOn","noteNumber":60,"velocity":50},{"deltaTime":0,"channel":0,"type":"noteOn","noteNumber":57,"velocity":50},{"deltaTime":1260,"channel":0,"type":"noteOff","noteNumber":60,"velocity":50},{"deltaTime":0,"channel":0,"type":"noteOff","noteNumber":57,"velocity":50},{"deltaTime":1260,"channel":0,"type":"noteOff","noteNumber":52,"velocity":85},{"deltaTime":0,"channel":0,"type":"noteOn","noteNumber":60,"velocity":50},{"deltaTime":0,"channel":0,"type":"noteOn","noteNumber":57,"velocity":50},{"deltaTime":2520,"channel":0,"type":"noteOff","noteNumber":69,"velocity":85},{"deltaTime":0,"channel":0,"type":"noteOff","noteNumber":60,"velocity":50},{"deltaTime":0,"channel":0,"type":"noteOff","noteNumber":57,"velocity":50},{"deltaTime":0,"channel":0,"type":"noteOn","noteNumber":52,"velocity":85},{"deltaTime":0,"channel":0,"type":"noteOn","noteNumber":72,"velocity":85},{"deltaTime":2520,"channel":0,"type":"noteOn","noteNumber":60,"velocity":50},{"deltaTime":0,"channel":0,"type":"noteOn","noteNumber":57,"velocity":50},{"deltaTime":1260,"channel":0,"type":"noteOff","noteNumber":60,"velocity":50},{"deltaTime":0,"channel":0,"type":"noteOff","noteNumber":57,"velocity":50},{"deltaTime":1260,"channel":0,"type":"noteOff","noteNumber":52,"velocity":85},{"deltaTime":0,"channel":0,"type":"noteOn","noteNumber":60,"velocity":50},{"deltaTime":0,"channel":0,"type":"noteOn","noteNumber":57,"velocity":50},{"deltaTime":2520,"channel":0,"type":"noteOff","noteNumber":72,"velocity":85},{"deltaTime":0,"channel":0,"type":"noteOff","noteNumber":60,"velocity":50},{"deltaTime":0,"channel":0,"type":"noteOff","noteNumber":57,"velocity":50},{"deltaTime":0,"channel":0,"type":"noteOn","noteNumber":52,"velocity":85},{"deltaTime":0,"channel":0,"type":"noteOn","noteNumber":76,"velocity":85},{"deltaTime":2520,"channel":0,"type":"noteOn","noteNumber":60,"velocity":50},{"deltaTime":0,"channel":0,"type":"noteOn","noteNumber":57,"velocity":50},{"deltaTime":1260,"channel":0,"type":"noteOff","noteNumber":60,"velocity":50},{"deltaTime":0,"channel":0,"type":"noteOff","noteNumber":57,"velocity":50},{"deltaTime":1260,"channel":0,"type":"noteOff","noteNumber":52,"velocity":85},{"deltaTime":0,"channel":0,"type":"noteOff","noteNumber":76,"velocity":85},{"deltaTime":0,"channel":0,"type":"noteOn","noteNumber":60,"velocity":50},{"deltaTime":0,"channel":0,"type":"noteOn","noteNumber":57,"velocity":50},{"deltaTime":2520,"channel":0,"type":"noteOff","noteNumber":60,"velocity":50},{"deltaTime":0,"channel":0,"type":"noteOff","noteNumber":57,"velocity":50},{"deltaTime":0,"channel":0,"type":"noteOn","noteNumber":52,"velocity":85},{"deltaTime":0,"channel":0,"type":"noteOn","noteNumber":72,"velocity":85},{"deltaTime":840,"channel":0,"type":"noteOff","noteNumber":72,"velocity":85},{"deltaTime":0,"channel":0,"type":"noteOn","noteNumber":74,"velocity":85},{"deltaTime":840,"channel":0,"type":"noteOff","noteNumber":74,"velocity":85},{"deltaTime":0,"channel":0,"type":"noteOn","noteNumber":72,"velocity":85},{"deltaTime":840,"channel":0,"type":"noteOff","noteNumber":72,"velocity":85},{"deltaTime":0,"channel":0,"type":"noteOn","noteNumber":71,"velocity":85},{"deltaTime":0,"channel":0,"type":"noteOn","noteNumber":60,"velocity":50},{"deltaTime":0,"channel":0,"type":"noteOn","noteNumber":57,"velocity":50},{"deltaTime":840,"channel":0,"type":"noteOff","noteNumber":71,"velocity":85},{"deltaTime":0,"channel":0,"type":"noteOn","noteNumber":74,"velocity":85},{"deltaTime":105,"channel":0,"type":"noteOff","noteNumber":60,"velocity":50},{"deltaTime":0,"channel":0,"type":"noteOff","noteNumber":57,"velocity":50},{"deltaTime":735,"channel":0,"type":"noteOff","noteNumber":74,"velocity":85},{"deltaTime":0,"channel":0,"type":"noteOn","noteNumber":71,"velocity":85},{"deltaTime":840,"channel":0,"type":"noteOff","noteNumber":52,"velocity":85},{"deltaTime":0,"channel":0,"type":"noteOff","noteNumber":71,"velocity":85},{"deltaTime":0,"channel":0,"type":"noteOn","noteNumber":69,"velocity":85},{"deltaTime":0,"channel":0,"type":"noteOn","noteNumber":60,"velocity":50},{"deltaTime":0,"channel":0,"type":"noteOn","noteNumber":57,"velocity":50},{"deltaTime":840,"channel":0,"type":"noteOff","noteNumber":69,"velocity":85},{"deltaTime":0,"channel":0,"type":"noteOn","noteNumber":71,"velocity":85},{"deltaTime":840,"channel":0,"type":"noteOff","noteNumber":71,"velocity":85},{"deltaTime":0,"channel":0,"type":"noteOn","noteNumber":69,"velocity":85},{"deltaTime":840,"channel":0,"type":"noteOff","noteNumber":69,"velocity":85},{"deltaTime":0,"channel":0,"type":"noteOff","noteNumber":60,"velocity":50},{"deltaTime":0,"channel":0,"type":"noteOff","noteNumber":57,"velocity":50},{"deltaTime":0,"channel":0,"type":"noteOn","noteNumber":52,"velocity":85},{"deltaTime":0,"channel":0,"type":"noteOn","noteNumber":67,"velocity":85},{"deltaTime":2520,"channel":0,"type":"noteOff","noteNumber":67,"velocity":85},{"deltaTime":0,"channel":0,"type":"noteOn","noteNumber":59,"velocity":50},{"deltaTime":0,"channel":0,"type":"noteOn","noteNumber":55,"velocity":50},{"deltaTime":945,"channel":0,"type":"noteOff","noteNumber":59,"velocity":50},{"deltaTime":0,"channel":0,"type":"noteOff","noteNumber":55,"velocity":50},{"deltaTime":1575,"channel":0,"type":"noteOff","noteNumber":52,"velocity":85},{"deltaTime":0,"channel":0,"type":"noteOn","noteNumber":59,"velocity":50},{"deltaTime":0,"channel":0,"type":"noteOn","noteNumber":55,"velocity":50},{"deltaTime":2520,"channel":0,"type":"noteOff","noteNumber":59,"velocity":50},{"deltaTime":0,"channel":0,"type":"noteOff","noteNumber":55,"velocity":50},{"deltaTime":0,"channel":0,"type":"noteOn","noteNumber":52,"velocity":85},{"deltaTime":0,"channel":0,"type":"noteOn","noteNumber":71,"velocity":85},{"deltaTime":2520,"channel":0,"type":"noteOff","noteNumber":71,"velocity":85},{"deltaTime":0,"channel":0,"type":"noteOn","noteNumber":59,"velocity":50},{"deltaTime":0,"channel":0,"type":"noteOn","noteNumber":55,"velocity":50},{"deltaTime":945,"channel":0,"type":"noteOff","noteNumber":59,"velocity":50},{"deltaTime":0,"channel":0,"type":"noteOff","noteNumber":55,"velocity":50},{"deltaTime":1575,"channel":0,"type":"noteOff","noteNumber":52,"velocity":85},{"deltaTime":0,"channel":0,"type":"noteOn","noteNumber":59,"velocity":50},{"deltaTime":0,"channel":0,"type":"noteOn","noteNumber":55,"velocity":50},{"deltaTime":2520,"channel":0,"type":"noteOff","noteNumber":59,"velocity":50},{"deltaTime":0,"channel":0,"type":"noteOff","noteNumber":55,"velocity":50},{"deltaTime":0,"channel":0,"type":"noteOn","noteNumber":52,"velocity":85},{"deltaTime":0,"channel":0,"type":"noteOn","noteNumber":76,"velocity":85},{"deltaTime":2520,"channel":0,"type":"noteOff","noteNumber":76,"velocity":85},{"deltaTime":0,"channel":0,"type":"noteOn","noteNumber":59,"velocity":50},{"deltaTime":0,"channel":0,"type":"noteOn","noteNumber":55,"velocity":50},{"deltaTime":945,"channel":0,"type":"noteOff","noteNumber":59,"velocity":50},{"deltaTime":0,"channel":0,"type":"noteOff","noteNumber":55,"velocity":50},{"deltaTime":1575,"channel":0,"type":"noteOff","noteNumber":52,"velocity":85},{"deltaTime":0,"channel":0,"type":"noteOn","noteNumber":59,"velocity":50},{"deltaTime":0,"channel":0,"type":"noteOn","noteNumber":55,"velocity":50},{"deltaTime":2520,"channel":0,"type":"noteOff","noteNumber":59,"velocity":50},{"deltaTime":0,"channel":0,"type":"noteOff","noteNumber":55,"velocity":50},{"deltaTime":0,"channel":0,"type":"noteOn","noteNumber":52,"velocity":85},{"deltaTime":0,"channel":0,"type":"noteOn","noteNumber":71,"velocity":85},{"deltaTime":840,"channel":0,"type":"noteOff","noteNumber":71,"velocity":85},{"deltaTime":0,"channel":0,"type":"noteOn","noteNumber":72,"velocity":85},{"deltaTime":840,"channel":0,"type":"noteOff","noteNumber":72,"velocity":85},{"deltaTime":0,"channel":0,"type":"noteOn","noteNumber":71,"velocity":85},{"deltaTime":840,"channel":0,"type":"noteOff","noteNumber":71,"velocity":85},{"deltaTime":0,"channel":0,"type":"noteOn","noteNumber":69,"velocity":85},{"deltaTime":0,"channel":0,"type":"noteOn","noteNumber":59,"velocity":50},{"deltaTime":0,"channel":0,"type":"noteOn","noteNumber":55,"velocity":50},{"deltaTime":840,"channel":0,"type":"noteOff","noteNumber":69,"velocity":85},{"deltaTime":0,"channel":0,"type":"noteOn","noteNumber":71,"velocity":85},{"deltaTime":105,"channel":0,"type":"noteOff","noteNumber":59,"velocity":50},{"deltaTime":0,"channel":0,"type":"noteOff","noteNumber":55,"velocity":50},{"deltaTime":735,"channel":0,"type":"noteOff","noteNumber":71,"velocity":85},{"deltaTime":0,"channel":0,"type":"noteOn","noteNumber":69,"velocity":85},{"deltaTime":840,"channel":0,"type":"noteOff","noteNumber":52,"velocity":85},{"deltaTime":0,"channel":0,"type":"noteOff","noteNumber":69,"velocity":85},{"deltaTime":0,"channel":0,"type":"noteOn","noteNumber":67,"velocity":85},{"deltaTime":0,"channel":0,"type":"noteOn","noteNumber":59,"velocity":50},{"deltaTime":0,"channel":0,"type":"noteOn","noteNumber":55,"velocity":50},{"deltaTime":840,"channel":0,"type":"noteOff","noteNumber":67,"velocity":85},{"deltaTime":0,"channel":0,"type":"noteOn","noteNumber":69,"velocity":85},{"deltaTime":105,"channel":0,"type":"noteOff","noteNumber":55,"velocity":50},{"deltaTime":735,"channel":0,"type":"noteOff","noteNumber":69,"velocity":85},{"deltaTime":0,"channel":0,"type":"noteOn","noteNumber":67,"velocity":85},{"deltaTime":840,"channel":0,"type":"noteOff","noteNumber":67,"velocity":85},{"deltaTime":0,"channel":0,"type":"noteOff","noteNumber":59,"velocity":50},{"deltaTime":0,"channel":0,"type":"noteOn","noteNumber":47,"velocity":85},{"deltaTime":0,"channel":0,"type":"noteOn","noteNumber":66,"velocity":85},{"deltaTime":2520,"channel":0,"type":"noteOn","noteNumber":57,"velocity":50},{"deltaTime":0,"channel":0,"type":"noteOn","noteNumber":54,"velocity":50},{"deltaTime":315,"channel":0,"type":"noteOff","noteNumber":54,"velocity":50},{"deltaTime":630,"channel":0,"type":"noteOff","noteNumber":57,"velocity":50},{"deltaTime":1575,"channel":0,"type":"noteOff","noteNumber":47,"velocity":85},{"deltaTime":0,"channel":0,"type":"noteOn","noteNumber":57,"velocity":50},{"deltaTime":0,"channel":0,"type":"noteOn","noteNumber":54,"velocity":50},{"deltaTime":2520,"channel":0,"type":"noteOff","noteNumber":66,"velocity":85},{"deltaTime":0,"channel":0,"type":"noteOff","noteNumber":57,"velocity":50},{"deltaTime":0,"channel":0,"type":"noteOff","noteNumber":54,"velocity":50},{"deltaTime":0,"channel":0,"type":"noteOn","noteNumber":47,"velocity":85},{"deltaTime":0,"channel":0,"type":"noteOn","noteNumber":69,"velocity":85},{"deltaTime":2520,"channel":0,"type":"noteOn","noteNumber":57,"velocity":50},{"deltaTime":0,"channel":0,"type":"noteOn","noteNumber":51,"velocity":50},{"deltaTime":945,"channel":0,"type":"noteOff","noteNumber":57,"velocity":50},{"deltaTime":0,"channel":0,"type":"noteOff","noteNumber":51,"velocity":50},{"deltaTime":1575,"channel":0,"type":"noteOff","noteNumber":47,"velocity":85},{"deltaTime":0,"channel":0,"type":"noteOn","noteNumber":57,"velocity":50},{"deltaTime":0,"channel":0,"type":"noteOn","noteNumber":51,"velocity":50},{"deltaTime":1260,"channel":0,"type":"noteOff","noteNumber":51,"velocity":50},{"deltaTime":1260,"channel":0,"type":"noteOff","noteNumber":69,"velocity":85},{"deltaTime":0,"channel":0,"type":"noteOff","noteNumber":57,"velocity":50},{"deltaTime":0,"channel":0,"type":"noteOn","noteNumber":40,"velocity":85},{"deltaTime":0,"channel":0,"type":"noteOn","noteNumber":71,"velocity":85},{"deltaTime":2520,"channel":0,"type":"noteOn","noteNumber":59,"velocity":50},{"deltaTime":0,"channel":0,"type":"noteOn","noteNumber":55,"velocity":50},{"deltaTime":945,"channel":0,"type":"noteOff","noteNumber":59,"velocity":50},{"deltaTime":0,"channel":0,"type":"noteOff","noteNumber":55,"velocity":50},{"deltaTime":1575,"channel":0,"type":"noteOff","noteNumber":40,"velocity":85},{"deltaTime":0,"channel":0,"type":"noteOff","noteNumber":71,"velocity":85},{"deltaTime":0,"channel":0,"type":"noteOn","noteNumber":69,"velocity":85},{"deltaTime":0,"channel":0,"type":"noteOn","noteNumber":59,"velocity":50},{"deltaTime":0,"channel":0,"type":"noteOn","noteNumber":55,"velocity":50},{"deltaTime":945,"channel":0,"type":"noteOff","noteNumber":59,"velocity":50},{"deltaTime":0,"channel":0,"type":"noteOff","noteNumber":55,"velocity":50},{"deltaTime":1575,"channel":0,"type":"noteOff","noteNumber":69,"velocity":85},{"deltaTime":0,"channel":0,"type":"noteOn","noteNumber":48,"velocity":85},{"deltaTime":0,"channel":0,"type":"noteOn","noteNumber":67,"velocity":85},{"deltaTime":2520,"channel":0,"type":"noteOn","noteNumber":52,"velocity":50},{"deltaTime":0,"channel":0,"type":"noteOn","noteNumber":55,"velocity":50},{"deltaTime":945,"channel":0,"type":"noteOff","noteNumber":52,"velocity":50},{"deltaTime":0,"channel":0,"type":"noteOff","noteNumber":55,"velocity":50},{"deltaTime":1575,"channel":0,"type":"noteOff","noteNumber":48,"velocity":85},{"deltaTime":0,"channel":0,"type":"noteOff","noteNumber":67,"velocity":85},{"deltaTime":0,"channel":0,"type":"noteOn","noteNumber":66,"velocity":50},{"deltaTime":0,"channel":0,"type":"noteOn","noteNumber":52,"velocity":50},{"deltaTime":0,"channel":0,"type":"noteOn","noteNumber":55,"velocity":50},{"deltaTime":945,"channel":0,"type":"noteOff","noteNumber":52,"velocity":50},{"deltaTime":0,"channel":0,"type":"noteOff","noteNumber":55,"velocity":50},{"deltaTime":1575,"channel":0,"type":"noteOff","noteNumber":66,"velocity":50},{"deltaTime":0,"channel":0,"type":"noteOn","noteNumber":52,"velocity":85},{"deltaTime":0,"channel":0,"type":"noteOn","noteNumber":67,"velocity":85},{"deltaTime":2520,"channel":0,"type":"noteOn","noteNumber":59,"velocity":50},{"deltaTime":0,"channel":0,"type":"noteOn","noteNumber":55,"velocity":50},{"deltaTime":945,"channel":0,"type":"noteOff","noteNumber":59,"velocity":50},{"deltaTime":0,"channel":0,"type":"noteOff","noteNumber":55,"velocity":50},{"deltaTime":1575,"channel":0,"type":"noteOff","noteNumber":52,"velocity":85},{"deltaTime":0,"channel":0,"type":"noteOn","noteNumber":59,"velocity":50},{"deltaTime":0,"channel":0,"type":"noteOn","noteNumber":55,"velocity":50},{"deltaTime":1575,"channel":0,"type":"noteOff","noteNumber":55,"velocity":50},{"deltaTime":945,"channel":0,"type":"noteOff","noteNumber":67,"velocity":85},{"deltaTime":0,"channel":0,"type":"noteOff","noteNumber":59,"velocity":50},{"deltaTime":0,"channel":0,"type":"noteOn","noteNumber":52,"velocity":85},{"deltaTime":0,"channel":0,"type":"noteOn","noteNumber":68,"velocity":85},{"deltaTime":2520,"channel":0,"type":"noteOn","noteNumber":59,"velocity":50},{"deltaTime":0,"channel":0,"type":"noteOn","noteNumber":56,"velocity":50},{"deltaTime":630,"channel":0,"type":"noteOff","noteNumber":56,"velocity":50},{"deltaTime":315,"channel":0,"type":"noteOff","noteNumber":59,"velocity":50},{"deltaTime":1575,"channel":0,"type":"noteOff","noteNumber":52,"velocity":85},{"deltaTime":0,"channel":0,"type":"noteOff","noteNumber":68,"velocity":85},{"deltaTime":0,"channel":0,"type":"noteOn","noteNumber":59,"velocity":50},{"deltaTime":0,"channel":0,"type":"noteOn","noteNumber":56,"velocity":50},{"deltaTime":945,"channel":0,"type":"noteOff","noteNumber":59,"velocity":50},{"deltaTime":0,"channel":0,"type":"noteOff","noteNumber":56,"velocity":50},{"deltaTime":315,"channel":0,"type":"noteOn","noteNumber":72,"velocity":85},{"deltaTime":630,"channel":0,"type":"noteOff","noteNumber":72,"velocity":85},{"deltaTime":0,"channel":0,"type":"noteOn","noteNumber":71,"velocity":85},{"deltaTime":630,"channel":0,"type":"noteOff","noteNumber":71,"velocity":85},{"deltaTime":0,"channel":0,"type":"noteOn","noteNumber":45,"velocity":85},{"deltaTime":0,"channel":0,"type":"noteOn","noteNumber":69,"velocity":85},{"deltaTime":2520,"channel":0,"type":"noteOn","noteNumber":52,"velocity":50},{"deltaTime":0,"channel":0,"type":"noteOn","noteNumber":57,"velocity":50},{"deltaTime":945,"channel":0,"type":"noteOff","noteNumber":52,"velocity":50},{"deltaTime":0,"channel":0,"type":"noteOff","noteNumber":57,"velocity":50},{"deltaTime":1575,"channel":0,"type":"noteOff","noteNumber":45,"velocity":85},{"deltaTime":0,"channel":0,"type":"noteOn","noteNumber":52,"velocity":50},{"deltaTime":0,"channel":0,"type":"noteOn","noteNumber":57,"velocity":50},{"deltaTime":2520,"channel":0,"type":"noteOff","noteNumber":69,"velocity":85},{"deltaTime":0,"channel":0,"type":"noteOff","noteNumber":52,"velocity":50},{"deltaTime":0,"channel":0,"type":"noteOff","noteNumber":57,"velocity":50},{"deltaTime":0,"channel":0,"type":"noteOn","noteNumber":45,"velocity":85},{"deltaTime":0,"channel":0,"type":"noteOn","noteNumber":72,"velocity":85},{"deltaTime":2520,"channel":0,"type":"noteOn","noteNumber":52,"velocity":50},{"deltaTime":0,"channel":0,"type":"noteOn","noteNumber":57,"velocity":50},{"deltaTime":945,"channel":0,"type":"noteOff","noteNumber":52,"velocity":50},{"deltaTime":0,"channel":0,"type":"noteOff","noteNumber":57,"velocity":50},{"deltaTime":1575,"channel":0,"type":"noteOff","noteNumber":45,"velocity":85},{"deltaTime":0,"channel":0,"type":"noteOff","noteNumber":72,"velocity":85},{"deltaTime":0,"channel":0,"type":"noteOn","noteNumber":52,"velocity":50},{"deltaTime":0,"channel":0,"type":"noteOn","noteNumber":57,"velocity":50},{"deltaTime":1260,"channel":0,"type":"noteOn","noteNumber":79,"velocity":85},{"deltaTime":630,"channel":0,"type":"noteOff","noteNumber":79,"velocity":85},{"deltaTime":0,"channel":0,"type":"noteOn","noteNumber":78,"velocity":85},{"deltaTime":630,"channel":0,"type":"noteOff","noteNumber":52,"velocity":50},{"deltaTime":0,"channel":0,"type":"noteOff","noteNumber":57,"velocity":50},{"deltaTime":0,"channel":0,"type":"noteOff","noteNumber":78,"velocity":85},{"deltaTime":0,"channel":0,"type":"noteOn","noteNumber":45,"velocity":85},{"deltaTime":0,"channel":0,"type":"noteOn","noteNumber":76,"velocity":85},{"deltaTime":2520,"channel":0,"type":"noteOff","noteNumber":76,"velocity":85},{"deltaTime":0,"channel":0,"type":"noteOn","noteNumber":78,"velocity":85},{"deltaTime":0,"channel":0,"type":"noteOn","noteNumber":52,"velocity":50},{"deltaTime":0,"channel":0,"type":"noteOn","noteNumber":57,"velocity":50},{"deltaTime":630,"channel":0,"type":"noteOff","noteNumber":78,"velocity":85},{"deltaTime":0,"channel":0,"type":"noteOn","noteNumber":79,"velocity":85},{"deltaTime":315,"channel":0,"type":"noteOff","noteNumber":52,"velocity":50},{"deltaTime":0,"channel":0,"type":"noteOff","noteNumber":57,"velocity":50},{"deltaTime":315,"channel":0,"type":"noteOff","noteNumber":79,"velocity":85},{"deltaTime":0,"channel":0,"type":"noteOn","noteNumber":78,"velocity":85},{"deltaTime":630,"channel":0,"type":"noteOff","noteNumber":78,"velocity":85},{"deltaTime":0,"channel":0,"type":"noteOn","noteNumber":79,"velocity":85},{"deltaTime":630,"channel":0,"type":"noteOff","noteNumber":45,"velocity":85},{"deltaTime":0,"channel":0,"type":"noteOff","noteNumber":79,"velocity":85},{"deltaTime":0,"channel":0,"type":"noteOn","noteNumber":76,"velocity":85},{"deltaTime":0,"channel":0,"type":"noteOn","noteNumber":52,"velocity":50},{"deltaTime":0,"channel":0,"type":"noteOn","noteNumber":57,"velocity":50},{"deltaTime":2520,"channel":0,"type":"noteOff","noteNumber":76,"velocity":85},{"deltaTime":0,"channel":0,"type":"noteOff","noteNumber":52,"velocity":50},{"deltaTime":0,"channel":0,"type":"noteOff","noteNumber":57,"velocity":50},{"deltaTime":0,"channel":0,"type":"noteOn","noteNumber":45,"velocity":85},{"deltaTime":0,"channel":0,"type":"noteOn","noteNumber":72,"velocity":85},{"deltaTime":840,"channel":0,"type":"noteOff","noteNumber":72,"velocity":85},{"deltaTime":0,"channel":0,"type":"noteOn","noteNumber":74,"velocity":85},{"deltaTime":840,"channel":0,"type":"noteOff","noteNumber":74,"velocity":85},{"deltaTime":0,"channel":0,"type":"noteOn","noteNumber":72,"velocity":85},{"deltaTime":840,"channel":0,"type":"noteOff","noteNumber":72,"velocity":85},{"deltaTime":0,"channel":0,"type":"noteOn","noteNumber":71,"velocity":85},{"deltaTime":0,"channel":0,"type":"noteOn","noteNumber":52,"velocity":50},{"deltaTime":0,"channel":0,"type":"noteOn","noteNumber":57,"velocity":50},{"deltaTime":840,"channel":0,"type":"noteOff","noteNumber":71,"velocity":85},{"deltaTime":0,"channel":0,"type":"noteOn","noteNumber":72,"velocity":85},{"deltaTime":105,"channel":0,"type":"noteOff","noteNumber":52,"velocity":50},{"deltaTime":0,"channel":0,"type":"noteOff","noteNumber":57,"velocity":50},{"deltaTime":735,"channel":0,"type":"noteOff","noteNumber":72,"velocity":85},{"deltaTime":0,"channel":0,"type":"noteOn","noteNumber":71,"velocity":85},{"deltaTime":840,"channel":0,"type":"noteOff","noteNumber":45,"velocity":85},{"deltaTime":0,"channel":0,"type":"noteOff","noteNumber":71,"velocity":85},{"deltaTime":0,"channel":0,"type":"noteOn","noteNumber":69,"velocity":85},{"deltaTime":0,"channel":0,"type":"noteOn","noteNumber":52,"velocity":50},{"deltaTime":0,"channel":0,"type":"noteOn","noteNumber":57,"velocity":50},{"deltaTime":840,"channel":0,"type":"noteOff","noteNumber":69,"velocity":85},{"deltaTime":0,"channel":0,"type":"noteOn","noteNumber":71,"velocity":85},{"deltaTime":105,"channel":0,"type":"noteOff","noteNumber":52,"velocity":50},{"deltaTime":0,"channel":0,"type":"noteOff","noteNumber":57,"velocity":50},{"deltaTime":735,"channel":0,"type":"noteOff","noteNumber":71,"velocity":85},{"deltaTime":0,"channel":0,"type":"noteOn","noteNumber":69,"velocity":85},{"deltaTime":840,"channel":0,"type":"noteOff","noteNumber":69,"velocity":85},{"deltaTime":0,"channel":0,"type":"noteOn","noteNumber":52,"velocity":85},{"deltaTime":0,"channel":0,"type":"noteOn","noteNumber":67,"velocity":85},{"deltaTime":2520,"channel":0,"type":"noteOn","noteNumber":59,"velocity":50},{"deltaTime":0,"channel":0,"type":"noteOn","noteNumber":64,"velocity":50},{"deltaTime":945,"channel":0,"type":"noteOff","noteNumber":59,"velocity":50},{"deltaTime":0,"channel":0,"type":"noteOff","noteNumber":64,"velocity":50},{"deltaTime":1575,"channel":0,"type":"noteOff","noteNumber":52,"velocity":85},{"deltaTime":0,"channel":0,"type":"noteOn","noteNumber":59,"velocity":50},{"deltaTime":0,"channel":0,"type":"noteOn","noteNumber":64,"velocity":50},{"deltaTime":945,"channel":0,"type":"noteOff","noteNumber":59,"velocity":50},{"deltaTime":0,"channel":0,"type":"noteOff","noteNumber":64,"velocity":50},{"deltaTime":1575,"channel":0,"type":"noteOff","noteNumber":67,"velocity":85},{"deltaTime":0,"channel":0,"type":"noteOn","noteNumber":52,"velocity":85},{"deltaTime":0,"channel":0,"type":"noteOn","noteNumber":71,"velocity":85},{"deltaTime":2520,"channel":0,"type":"noteOn","noteNumber":59,"velocity":50},{"deltaTime":0,"channel":0,"type":"noteOn","noteNumber":64,"velocity":50},{"deltaTime":945,"channel":0,"type":"noteOff","noteNumber":59,"velocity":50},{"deltaTime":0,"channel":0,"type":"noteOff","noteNumber":64,"velocity":50},{"deltaTime":1575,"channel":0,"type":"noteOff","noteNumber":52,"velocity":85},{"deltaTime":0,"channel":0,"type":"noteOn","noteNumber":59,"velocity":50},{"deltaTime":0,"channel":0,"type":"noteOn","noteNumber":64,"velocity":50},{"deltaTime":1260,"channel":0,"type":"noteOn","noteNumber":79,"velocity":85},{"deltaTime":630,"channel":0,"type":"noteOff","noteNumber":79,"velocity":85},{"deltaTime":0,"channel":0,"type":"noteOn","noteNumber":78,"velocity":85},{"deltaTime":630,"channel":0,"type":"noteOff","noteNumber":71,"velocity":85},{"deltaTime":0,"channel":0,"type":"noteOff","noteNumber":59,"velocity":50},{"deltaTime":0,"channel":0,"type":"noteOff","noteNumber":64,"velocity":50},{"deltaTime":0,"channel":0,"type":"noteOff","noteNumber":78,"velocity":85},{"deltaTime":0,"channel":0,"type":"noteOn","noteNumber":52,"velocity":85},{"deltaTime":0,"channel":0,"type":"noteOn","noteNumber":76,"velocity":85},{"deltaTime":2520,"channel":0,"type":"noteOff","noteNumber":76,"velocity":85},{"deltaTime":0,"channel":0,"type":"noteOn","noteNumber":59,"velocity":50},{"deltaTime":0,"channel":0,"type":"noteOn","noteNumber":64,"velocity":50},{"deltaTime":0,"channel":0,"type":"noteOn","noteNumber":78,"velocity":85},{"deltaTime":630,"channel":0,"type":"noteOff","noteNumber":78,"velocity":85},{"deltaTime":0,"channel":0,"type":"noteOn","noteNumber":79,"velocity":85},{"deltaTime":315,"channel":0,"type":"noteOff","noteNumber":59,"velocity":50},{"deltaTime":0,"channel":0,"type":"noteOff","noteNumber":64,"velocity":50},{"deltaTime":315,"channel":0,"type":"noteOff","noteNumber":79,"velocity":85},{"deltaTime":0,"channel":0,"type":"noteOn","noteNumber":78,"velocity":85},{"deltaTime":630,"channel":0,"type":"noteOff","noteNumber":78,"velocity":85},{"deltaTime":0,"channel":0,"type":"noteOn","noteNumber":79,"velocity":85},{"deltaTime":630,"channel":0,"type":"noteOff","noteNumber":52,"velocity":85},{"deltaTime":0,"channel":0,"type":"noteOff","noteNumber":79,"velocity":85},{"deltaTime":0,"channel":0,"type":"noteOn","noteNumber":59,"velocity":50},{"deltaTime":0,"channel":0,"type":"noteOn","noteNumber":64,"velocity":50},{"deltaTime":0,"channel":0,"type":"noteOn","noteNumber":76,"velocity":85},{"deltaTime":2520,"channel":0,"type":"noteOff","noteNumber":59,"velocity":50},{"deltaTime":0,"channel":0,"type":"noteOff","noteNumber":64,"velocity":50},{"deltaTime":0,"channel":0,"type":"noteOff","noteNumber":76,"velocity":85},{"deltaTime":0,"channel":0,"type":"noteOn","noteNumber":52,"velocity":85},{"deltaTime":0,"channel":0,"type":"noteOn","noteNumber":71,"velocity":85},{"deltaTime":840,"channel":0,"type":"noteOff","noteNumber":71,"velocity":85},{"deltaTime":0,"channel":0,"type":"noteOn","noteNumber":72,"velocity":85},{"deltaTime":840,"channel":0,"type":"noteOff","noteNumber":72,"velocity":85},{"deltaTime":0,"channel":0,"type":"noteOn","noteNumber":71,"velocity":85},{"deltaTime":840,"channel":0,"type":"noteOff","noteNumber":71,"velocity":85},{"deltaTime":0,"channel":0,"type":"noteOn","noteNumber":69,"velocity":85},{"deltaTime":0,"channel":0,"type":"noteOn","noteNumber":59,"velocity":50},{"deltaTime":0,"channel":0,"type":"noteOn","noteNumber":64,"velocity":50},{"deltaTime":840,"channel":0,"type":"noteOff","noteNumber":69,"velocity":85},{"deltaTime":0,"channel":0,"type":"noteOn","noteNumber":71,"velocity":85},{"deltaTime":105,"channel":0,"type":"noteOff","noteNumber":59,"velocity":50},{"deltaTime":0,"channel":0,"type":"noteOff","noteNumber":64,"velocity":50},{"deltaTime":735,"channel":0,"type":"noteOff","noteNumber":71,"velocity":85},{"deltaTime":0,"channel":0,"type":"noteOn","noteNumber":69,"velocity":85},{"deltaTime":840,"channel":0,"type":"noteOff","noteNumber":52,"velocity":85},{"deltaTime":0,"channel":0,"type":"noteOff","noteNumber":69,"velocity":85},{"deltaTime":0,"channel":0,"type":"noteOn","noteNumber":67,"velocity":85},{"deltaTime":0,"channel":0,"type":"noteOn","noteNumber":59,"velocity":50},{"deltaTime":0,"channel":0,"type":"noteOn","noteNumber":64,"velocity":50},{"deltaTime":840,"channel":0,"type":"noteOff","noteNumber":67,"velocity":85},{"deltaTime":0,"channel":0,"type":"noteOn","noteNumber":69,"velocity":85},{"deltaTime":105,"channel":0,"type":"noteOff","noteNumber":59,"velocity":50},{"deltaTime":0,"channel":0,"type":"noteOff","noteNumber":64,"velocity":50},{"deltaTime":735,"channel":0,"type":"noteOff","noteNumber":69,"velocity":85},{"deltaTime":0,"channel":0,"type":"noteOn","noteNumber":67,"velocity":85},{"deltaTime":840,"channel":0,"type":"noteOff","noteNumber":67,"velocity":85},{"deltaTime":0,"channel":0,"type":"noteOn","noteNumber":47,"velocity":85},{"deltaTime":0,"channel":0,"type":"noteOn","noteNumber":66,"velocity":85},{"deltaTime":2520,"channel":0,"type":"noteOn","noteNumber":54,"velocity":50},{"deltaTime":0,"channel":0,"type":"noteOn","noteNumber":57,"velocity":50},{"deltaTime":315,"channel":0,"type":"noteOff","noteNumber":54,"velocity":50},{"deltaTime":630,"channel":0,"type":"noteOff","noteNumber":57,"velocity":50},{"deltaTime":1575,"channel":0,"type":"noteOff","noteNumber":47,"velocity":85},{"deltaTime":0,"channel":0,"type":"noteOn","noteNumber":54,"velocity":50},{"deltaTime":0,"channel":0,"type":"noteOn","noteNumber":57,"velocity":50},{"deltaTime":2520,"channel":0,"type":"noteOff","noteNumber":66,"velocity":85},{"deltaTime":0,"channel":0,"type":"noteOff","noteNumber":54,"velocity":50},{"deltaTime":0,"channel":0,"type":"noteOff","noteNumber":57,"velocity":50},{"deltaTime":0,"channel":0,"type":"noteOn","noteNumber":47,"velocity":85},{"deltaTime":0,"channel":0,"type":"noteOn","noteNumber":69,"velocity":85},{"deltaTime":2520,"channel":0,"type":"noteOn","noteNumber":51,"velocity":50},{"deltaTime":0,"channel":0,"type":"noteOn","noteNumber":57,"velocity":50},{"deltaTime":315,"channel":0,"type":"noteOff","noteNumber":51,"velocity":50},{"deltaTime":630,"channel":0,"type":"noteOff","noteNumber":57,"velocity":50},{"deltaTime":1575,"channel":0,"type":"noteOff","noteNumber":47,"velocity":85},{"deltaTime":0,"channel":0,"type":"noteOff","noteNumber":69,"velocity":85},{"deltaTime":0,"channel":0,"type":"noteOn","noteNumber":51,"velocity":50},{"deltaTime":0,"channel":0,"type":"noteOn","noteNumber":57,"velocity":50},{"deltaTime":315,"channel":0,"type":"noteOff","noteNumber":51,"velocity":50},{"deltaTime":945,"channel":0,"type":"noteOn","noteNumber":69,"velocity":85},{"deltaTime":630,"channel":0,"type":"noteOff","noteNumber":69,"velocity":85},{"deltaTime":210,"channel":0,"type":"noteOn","noteNumber":70,"velocity":85},{"deltaTime":420,"channel":0,"type":"noteOff","noteNumber":57,"velocity":50},{"deltaTime":0,"channel":0,"type":"noteOff","noteNumber":70,"velocity":85},{"deltaTime":0,"channel":0,"type":"noteOn","noteNumber":52,"velocity":85},{"deltaTime":0,"channel":0,"type":"noteOn","noteNumber":71,"velocity":85},{"deltaTime":2520,"channel":0,"type":"noteOn","noteNumber":55,"velocity":50},{"deltaTime":0,"channel":0,"type":"noteOn","noteNumber":59,"velocity":50},{"deltaTime":945,"channel":0,"type":"noteOff","noteNumber":55,"velocity":50},{"deltaTime":0,"channel":0,"type":"noteOff","noteNumber":59,"velocity":50},{"deltaTime":1575,"channel":0,"type":"noteOff","noteNumber":52,"velocity":85},{"deltaTime":0,"channel":0,"type":"noteOff","noteNumber":71,"velocity":85},{"deltaTime":0,"channel":0,"type":"noteOn","noteNumber":55,"velocity":50},{"deltaTime":0,"channel":0,"type":"noteOn","noteNumber":59,"velocity":50},{"deltaTime":0,"channel":0,"type":"noteOn","noteNumber":69,"velocity":85},{"deltaTime":945,"channel":0,"type":"noteOff","noteNumber":55,"velocity":50},{"deltaTime":0,"channel":0,"type":"noteOff","noteNumber":59,"velocity":50},{"deltaTime":1575,"channel":0,"type":"noteOff","noteNumber":69,"velocity":85},{"deltaTime":0,"channel":0,"type":"noteOn","noteNumber":48,"velocity":85},{"deltaTime":0,"channel":0,"type":"noteOn","noteNumber":67,"velocity":85},{"deltaTime":2520,"channel":0,"type":"noteOn","noteNumber":52,"velocity":50},{"deltaTime":0,"channel":0,"type":"noteOn","noteNumber":55,"velocity":50},{"deltaTime":945,"channel":0,"type":"noteOff","noteNumber":52,"velocity":50},{"deltaTime":0,"channel":0,"type":"noteOff","noteNumber":55,"velocity":50},{"deltaTime":1575,"channel":0,"type":"noteOff","noteNumber":48,"velocity":85},{"deltaTime":0,"channel":0,"type":"noteOff","noteNumber":67,"velocity":85},{"deltaTime":0,"channel":0,"type":"noteOn","noteNumber":52,"velocity":50},{"deltaTime":0,"channel":0,"type":"noteOn","noteNumber":55,"velocity":50},{"deltaTime":0,"channel":0,"type":"noteOn","noteNumber":66,"velocity":85},{"deltaTime":945,"channel":0,"type":"noteOff","noteNumber":52,"velocity":50},{"deltaTime":0,"channel":0,"type":"noteOff","noteNumber":55,"velocity":50},{"deltaTime":1575,"channel":0,"type":"noteOff","noteNumber":66,"velocity":85},{"deltaTime":0,"channel":0,"type":"noteOn","noteNumber":52,"velocity":85},{"deltaTime":0,"channel":0,"type":"noteOn","noteNumber":55,"velocity":85},{"deltaTime":0,"channel":0,"type":"noteOn","noteNumber":59,"velocity":85},{"deltaTime":0,"channel":0,"type":"noteOn","noteNumber":64,"velocity":85},{"deltaTime":7560,"channel":0,"type":"noteOff","noteNumber":52,"velocity":85},{"deltaTime":0,"channel":0,"type":"noteOff","noteNumber":55,"velocity":85},{"deltaTime":0,"channel":0,"type":"noteOff","noteNumber":59,"velocity":85},{"deltaTime":0,"channel":0,"type":"noteOff","noteNumber":64,"velocity":85},{"deltaTime":0,"channel":0,"type":"noteOn","noteNumber":47,"velocity":85},{"deltaTime":0,"channel":0,"type":"noteOn","noteNumber":59,"velocity":85},{"deltaTime":0,"channel":0,"type":"noteOn","noteNumber":83,"velocity":85},{"deltaTime":2520,"channel":0,"type":"noteOff","noteNumber":47,"velocity":85},{"deltaTime":0,"channel":0,"type":"noteOff","noteNumber":59,"velocity":85},{"deltaTime":0,"channel":0,"type":"noteOff","noteNumber":83,"velocity":85},{"deltaTime":0,"channel":0,"type":"noteOn","noteNumber":49,"velocity":85},{"deltaTime":0,"channel":0,"type":"noteOn","noteNumber":61,"velocity":85},{"deltaTime":0,"channel":0,"type":"noteOn","noteNumber":79,"velocity":85},{"deltaTime":2520,"channel":0,"type":"noteOff","noteNumber":49,"velocity":85},{"deltaTime":0,"channel":0,"type":"noteOff","noteNumber":61,"velocity":85},{"deltaTime":0,"channel":0,"type":"noteOff","noteNumber":79,"velocity":85},{"deltaTime":0,"channel":0,"type":"noteOn","noteNumber":51,"velocity":85},{"deltaTime":0,"channel":0,"type":"noteOn","noteNumber":63,"velocity":85},{"deltaTime":0,"channel":0,"type":"noteOn","noteNumber":78,"velocity":85},{"deltaTime":2520,"channel":0,"type":"noteOff","noteNumber":51,"velocity":85},{"deltaTime":0,"channel":0,"type":"noteOff","noteNumber":63,"velocity":85},{"deltaTime":0,"channel":0,"type":"noteOff","noteNumber":78,"velocity":85},{"deltaTime":0,"channel":0,"type":"noteOn","noteNumber":52,"velocity":85},{"deltaTime":0,"channel":0,"type":"noteOn","noteNumber":64,"velocity":85},{"deltaTime":0,"channel":0,"type":"noteOn","noteNumber":76,"velocity":85},{"deltaTime":7560,"channel":0,"type":"noteOff","noteNumber":52,"velocity":85},{"deltaTime":0,"channel":0,"type":"noteOff","noteNumber":64,"velocity":85},{"deltaTime":0,"channel":0,"type":"noteOff","noteNumber":76,"velocity":85},{"deltaTime":0,"channel":0,"type":"noteOn","noteNumber":67,"velocity":85},{"deltaTime":630,"channel":0,"type":"noteOff","noteNumber":67,"velocity":85},{"deltaTime":0,"channel":0,"type":"noteOn","noteNumber":66,"velocity":85},{"deltaTime":315,"channel":0,"type":"noteOff","noteNumber":66,"velocity":85},{"deltaTime":0,"channel":0,"type":"noteOn","noteNumber":64,"velocity":85},{"deltaTime":1260,"channel":0,"type":"noteOff","noteNumber":64,"velocity":85},{"deltaTime":315,"channel":0,"type":"noteOn","noteNumber":66,"velocity":85},{"deltaTime":2520,"channel":0,"type":"noteOff","noteNumber":66,"velocity":85},{"deltaTime":0,"channel":0,"type":"noteOn","noteNumber":67,"velocity":85},{"deltaTime":2520,"channel":0,"type":"noteOff","noteNumber":67,"velocity":85},{"deltaTime":0,"channel":0,"type":"noteOn","noteNumber":52,"velocity":85},{"deltaTime":0,"channel":0,"type":"noteOn","noteNumber":71,"velocity":85},{"deltaTime":2520,"channel":0,"type":"noteOff","noteNumber":52,"velocity":85},{"deltaTime":0,"channel":0,"type":"noteOff","noteNumber":71,"velocity":85},{"deltaTime":0,"channel":0,"type":"noteOn","noteNumber":55,"velocity":85},{"deltaTime":2520,"channel":0,"type":"noteOff","noteNumber":55,"velocity":85},{"deltaTime":0,"channel":0,"type":"noteOn","noteNumber":59,"velocity":85},{"deltaTime":0,"channel":0,"type":"noteOn","noteNumber":72,"velocity":85},{"deltaTime":2520,"channel":0,"type":"noteOff","noteNumber":59,"velocity":85},{"deltaTime":0,"channel":0,"type":"noteOff","noteNumber":72,"velocity":85},{"deltaTime":0,"channel":0,"type":"noteOn","noteNumber":51,"velocity":85},{"deltaTime":0,"channel":0,"type":"noteOn","noteNumber":71,"velocity":85},{"deltaTime":2520,"channel":0,"type":"noteOff","noteNumber":51,"velocity":85},{"deltaTime":0,"channel":0,"type":"noteOff","noteNumber":71,"velocity":85},{"deltaTime":0,"channel":0,"type":"noteOn","noteNumber":55,"velocity":85},{"deltaTime":2520,"channel":0,"type":"noteOff","noteNumber":55,"velocity":85},{"deltaTime":0,"channel":0,"type":"noteOn","noteNumber":59,"velocity":85},{"deltaTime":0,"channel":0,"type":"noteOn","noteNumber":72,"velocity":85},{"deltaTime":2520,"channel":0,"type":"noteOff","noteNumber":59,"velocity":85},{"deltaTime":0,"channel":0,"type":"noteOff","noteNumber":72,"velocity":85},{"deltaTime":0,"channel":0,"type":"noteOn","noteNumber":52,"velocity":85},{"deltaTime":0,"channel":0,"type":"noteOn","noteNumber":71,"velocity":85},{"deltaTime":2520,"channel":0,"type":"noteOff","noteNumber":52,"velocity":85},{"deltaTime":0,"channel":0,"type":"noteOff","noteNumber":71,"velocity":85},{"deltaTime":0,"channel":0,"type":"noteOn","noteNumber":55,"velocity":85},{"deltaTime":2520,"channel":0,"type":"noteOff","noteNumber":55,"velocity":85},{"deltaTime":0,"channel":0,"type":"noteOn","noteNumber":59,"velocity":85},{"deltaTime":0,"channel":0,"type":"noteOn","noteNumber":72,"velocity":85},{"deltaTime":945,"channel":0,"type":"noteOff","noteNumber":59,"velocity":85},{"deltaTime":1575,"channel":0,"type":"noteOff","noteNumber":72,"velocity":85},{"deltaTime":0,"channel":0,"type":"noteOn","noteNumber":52,"velocity":85},{"deltaTime":0,"channel":0,"type":"noteOn","noteNumber":56,"velocity":85},{"deltaTime":0,"channel":0,"type":"noteOn","noteNumber":59,"velocity":85},{"deltaTime":0,"channel":0,"type":"noteOn","noteNumber":62,"velocity":85},{"deltaTime":0,"channel":0,"type":"noteOn","noteNumber":71,"velocity":85},{"deltaTime":2520,"channel":0,"type":"noteOff","noteNumber":71,"velocity":85},{"deltaTime":0,"channel":0,"type":"noteOn","noteNumber":74,"velocity":85},{"deltaTime":2520,"channel":0,"type":"noteOff","noteNumber":52,"velocity":85},{"deltaTime":0,"channel":0,"type":"noteOff","noteNumber":56,"velocity":85},{"deltaTime":0,"channel":0,"type":"noteOff","noteNumber":59,"velocity":85},{"deltaTime":0,"channel":0,"type":"noteOff","noteNumber":62,"velocity":85},{"deltaTime":0,"channel":0,"type":"noteOff","noteNumber":74,"velocity":85},{"deltaTime":0,"channel":0,"type":"noteOn","noteNumber":71,"velocity":85},{"deltaTime":840,"channel":0,"type":"noteOff","noteNumber":71,"velocity":85},{"deltaTime":0,"channel":0,"type":"noteOn","noteNumber":72,"velocity":85},{"deltaTime":840,"channel":0,"type":"noteOff","noteNumber":72,"velocity":85},{"deltaTime":0,"channel":0,"type":"noteOn","noteNumber":71,"velocity":85},{"deltaTime":840,"channel":0,"type":"noteOff","noteNumber":71,"velocity":85},{"deltaTime":0,"channel":0,"type":"noteOn","noteNumber":52,"velocity":85},{"deltaTime":0,"channel":0,"type":"noteOn","noteNumber":69,"velocity":85},{"deltaTime":2520,"channel":0,"type":"noteOn","noteNumber":57,"velocity":85},{"deltaTime":2520,"channel":0,"type":"noteOff","noteNumber":52,"velocity":85},{"deltaTime":0,"channel":0,"type":"noteOff","noteNumber":69,"velocity":85},{"deltaTime":0,"channel":0,"type":"noteOff","noteNumber":57,"velocity":85},{"deltaTime":0,"channel":0,"type":"noteOn","noteNumber":60,"velocity":85},{"deltaTime":0,"channel":0,"type":"noteOn","noteNumber":71,"velocity":85},{"deltaTime":945,"channel":0,"type":"noteOff","noteNumber":60,"velocity":85},{"deltaTime":1575,"channel":0,"type":"noteOff","noteNumber":71,"velocity":85},{"deltaTime":0,"channel":0,"type":"noteOn","noteNumber":45,"velocity":85},{"deltaTime":0,"channel":0,"type":"noteOn","noteNumber":69,"velocity":85},{"deltaTime":2520,"channel":0,"type":"noteOn","noteNumber":52,"velocity":85},{"deltaTime":2520,"channel":0,"type":"noteOff","noteNumber":45,"velocity":85},{"deltaTime":0,"channel":0,"type":"noteOff","noteNumber":69,"velocity":85},{"deltaTime":0,"channel":0,"type":"noteOff","noteNumber":52,"velocity":85},{"deltaTime":0,"channel":0,"type":"noteOn","noteNumber":57,"velocity":85},{"deltaTime":0,"channel":0,"type":"noteOn","noteNumber":71,"velocity":85},{"deltaTime":2520,"channel":0,"type":"noteOff","noteNumber":57,"velocity":85},{"deltaTime":0,"channel":0,"type":"noteOff","noteNumber":71,"velocity":85},{"deltaTime":0,"channel":0,"type":"noteOn","noteNumber":52,"velocity":85},{"deltaTime":0,"channel":0,"type":"noteOn","noteNumber":69,"velocity":85},{"deltaTime":2520,"channel":0,"type":"noteOn","noteNumber":57,"velocity":85},{"deltaTime":2520,"channel":0,"type":"noteOff","noteNumber":52,"velocity":85},{"deltaTime":0,"channel":0,"type":"noteOff","noteNumber":69,"velocity":85},{"deltaTime":0,"channel":0,"type":"noteOff","noteNumber":57,"velocity":85},{"deltaTime":0,"channel":0,"type":"noteOn","noteNumber":60,"velocity":85},{"deltaTime":0,"channel":0,"type":"noteOn","noteNumber":71,"velocity":85},{"deltaTime":2520,"channel":0,"type":"noteOff","noteNumber":60,"velocity":85},{"deltaTime":0,"channel":0,"type":"noteOff","noteNumber":71,"velocity":85},{"deltaTime":0,"channel":0,"type":"noteOn","noteNumber":47,"velocity":85},{"deltaTime":0,"channel":0,"type":"noteOn","noteNumber":69,"velocity":85},{"deltaTime":2520,"channel":0,"type":"noteOn","noteNumber":57,"velocity":85},{"deltaTime":0,"channel":0,"type":"noteOn","noteNumber":51,"velocity":85},{"deltaTime":0,"channel":0,"type":"noteOn","noteNumber":54,"velocity":85},{"deltaTime":0,"channel":0,"type":"noteOn","noteNumber":71,"velocity":85},{"deltaTime":315,"channel":0,"type":"noteOff","noteNumber":51,"velocity":85},{"deltaTime":0,"channel":0,"type":"noteOff","noteNumber":54,"velocity":85},{"deltaTime":630,"channel":0,"type":"noteOff","noteNumber":57,"velocity":85},{"deltaTime":1575,"channel":0,"type":"noteOff","noteNumber":47,"velocity":85},{"deltaTime":0,"channel":0,"type":"noteOff","noteNumber":69,"velocity":85},{"deltaTime":0,"channel":0,"type":"noteOff","noteNumber":71,"velocity":85},{"deltaTime":0,"channel":0,"type":"noteOn","noteNumber":57,"velocity":85},{"deltaTime":0,"channel":0,"type":"noteOn","noteNumber":54,"velocity":85},{"deltaTime":0,"channel":0,"type":"noteOn","noteNumber":69,"velocity":85},{"deltaTime":315,"channel":0,"type":"noteOff","noteNumber":54,"velocity":85},{"deltaTime":315,"channel":0,"type":"noteOff","noteNumber":69,"velocity":85},{"deltaTime":0,"channel":0,"type":"noteOn","noteNumber":71,"velocity":85},{"deltaTime":630,"channel":0,"type":"noteOff","noteNumber":71,"velocity":85},{"deltaTime":0,"channel":0,"type":"noteOn","noteNumber":69,"velocity":85},{"deltaTime":315,"channel":0,"type":"noteOff","noteNumber":57,"velocity":85},{"deltaTime":315,"channel":0,"type":"noteOff","noteNumber":69,"velocity":85},{"deltaTime":0,"channel":0,"type":"noteOn","noteNumber":71,"velocity":85},{"deltaTime":630,"channel":0,"type":"noteOff","noteNumber":71,"velocity":85},{"deltaTime":0,"channel":0,"type":"noteOn","noteNumber":52,"velocity":85},{"deltaTime":0,"channel":0,"type":"noteOn","noteNumber":67,"velocity":85},{"deltaTime":2520,"channel":0,"type":"noteOff","noteNumber":52,"velocity":85},{"deltaTime":0,"channel":0,"type":"noteOff","noteNumber":67,"velocity":85},{"deltaTime":0,"channel":0,"type":"noteOn","noteNumber":55,"velocity":85},{"deltaTime":2520,"channel":0,"type":"noteOff","noteNumber":55,"velocity":85},{"deltaTime":0,"channel":0,"type":"noteOn","noteNumber":59,"velocity":85},{"deltaTime":0,"channel":0,"type":"noteOn","noteNumber":69,"velocity":85},{"deltaTime":945,"channel":0,"type":"noteOff","noteNumber":59,"velocity":85},{"deltaTime":1575,"channel":0,"type":"noteOff","noteNumber":69,"velocity":85},{"deltaTime":0,"channel":0,"type":"noteOn","noteNumber":48,"velocity":85},{"deltaTime":0,"channel":0,"type":"noteOn","noteNumber":67,"velocity":85},{"deltaTime":2520,"channel":0,"type":"noteOff","noteNumber":48,"velocity":85},{"deltaTime":0,"channel":0,"type":"noteOff","noteNumber":67,"velocity":85},{"deltaTime":0,"channel":0,"type":"noteOn","noteNumber":52,"velocity":85},{"deltaTime":2520,"channel":0,"type":"noteOff","noteNumber":52,"velocity":85},{"deltaTime":0,"channel":0,"type":"noteOn","noteNumber":55,"velocity":85},{"deltaTime":0,"channel":0,"type":"noteOn","noteNumber":69,"velocity":85},{"deltaTime":945,"channel":0,"type":"noteOff","noteNumber":55,"velocity":85},{"deltaTime":1575,"channel":0,"type":"noteOff","noteNumber":69,"velocity":85},{"deltaTime":0,"channel":0,"type":"noteOn","noteNumber":49,"velocity":85},{"deltaTime":0,"channel":0,"type":"noteOn","noteNumber":67,"velocity":85},{"deltaTime":2520,"channel":0,"type":"noteOn","noteNumber":55,"velocity":85},{"deltaTime":2520,"channel":0,"type":"noteOff","noteNumber":49,"velocity":85},{"deltaTime":0,"channel":0,"type":"noteOff","noteNumber":67,"velocity":85},{"deltaTime":0,"channel":0,"type":"noteOff","noteNumber":55,"velocity":85},{"deltaTime":0,"channel":0,"type":"noteOn","noteNumber":66,"velocity":85},{"deltaTime":0,"channel":0,"type":"noteOn","noteNumber":59,"velocity":85},{"deltaTime":0,"channel":0,"type":"noteOn","noteNumber":63,"velocity":50},{"deltaTime":315,"channel":0,"type":"noteOff","noteNumber":66,"velocity":85},{"deltaTime":945,"channel":0,"type":"noteOff","noteNumber":63,"velocity":50},{"deltaTime":0,"channel":0,"type":"noteOn","noteNumber":64,"velocity":50},{"deltaTime":1260,"channel":0,"type":"noteOff","noteNumber":59,"velocity":85},{"deltaTime":0,"channel":0,"type":"noteOff","noteNumber":64,"velocity":50},{"deltaTime":0,"channel":0,"type":"noteOn","noteNumber":52,"velocity":85},{"deltaTime":0,"channel":0,"type":"noteOn","noteNumber":64,"velocity":85},{"deltaTime":2520,"channel":0,"type":"noteOn","noteNumber":52,"velocity":85},{"deltaTime":2520,"channel":0,"type":"noteOff","noteNumber":52,"velocity":85},{"deltaTime":0,"channel":0,"type":"noteOff","noteNumber":64,"velocity":85},{"deltaTime":0,"channel":0,"type":"noteOff","noteNumber":52,"velocity":85},{"deltaTime":0,"channel":0,"type":"noteOn","noteNumber":55,"velocity":85},{"deltaTime":0,"channel":0,"type":"noteOn","noteNumber":66,"velocity":50},{"deltaTime":945,"channel":0,"type":"noteOff","noteNumber":55,"velocity":85},{"deltaTime":315,"channel":0,"type":"noteOff","noteNumber":66,"velocity":50},{"deltaTime":0,"channel":0,"type":"noteOn","noteNumber":67,"velocity":50},{"deltaTime":1260,"channel":0,"type":"noteOff","noteNumber":67,"velocity":50},{"deltaTime":0,"channel":0,"type":"noteOn","noteNumber":47,"velocity":85},{"deltaTime":0,"channel":0,"type":"noteOn","noteNumber":66,"velocity":85},{"deltaTime":2520,"channel":0,"type":"noteOn","noteNumber":51,"velocity":85},{"deltaTime":2520,"channel":0,"type":"noteOff","noteNumber":66,"velocity":85},{"deltaTime":0,"channel":0,"type":"noteOn","noteNumber":54,"velocity":85},{"deltaTime":2520,"channel":0,"type":"noteOff","noteNumber":47,"velocity":85},{"deltaTime":0,"channel":0,"type":"noteOff","noteNumber":51,"velocity":85},{"deltaTime":0,"channel":0,"type":"noteOff","noteNumber":54,"velocity":85},{"deltaTime":0,"channel":0,"type":"noteOn","noteNumber":60,"velocity":85},{"deltaTime":0,"channel":0,"type":"noteOn","noteNumber":72,"velocity":85},{"deltaTime":2520,"channel":0,"type":"noteOn","noteNumber":57,"velocity":85},{"deltaTime":2520,"channel":0,"type":"noteOff","noteNumber":60,"velocity":85},{"deltaTime":0,"channel":0,"type":"noteOn","noteNumber":54,"velocity":85},{"deltaTime":1260,"channel":0,"type":"noteOff","noteNumber":54,"velocity":85},{"deltaTime":1260,"channel":0,"type":"noteOff","noteNumber":72,"velocity":85},{"deltaTime":0,"channel":0,"type":"noteOff","noteNumber":57,"velocity":85},{"deltaTime":0,"channel":0,"type":"noteOn","noteNumber":52,"velocity":85},{"deltaTime":0,"channel":0,"type":"noteOn","noteNumber":55,"velocity":85},{"deltaTime":0,"channel":0,"type":"noteOn","noteNumber":59,"velocity":85},{"deltaTime":0,"channel":0,"type":"noteOn","noteNumber":71,"velocity":85},{"deltaTime":5040,"channel":0,"type":"noteOff","noteNumber":52,"velocity":85},{"deltaTime":0,"channel":0,"type":"noteOff","noteNumber":55,"velocity":85},{"deltaTime":0,"channel":0,"type":"noteOff","noteNumber":59,"velocity":85},{"deltaTime":0,"channel":0,"type":"noteOff","noteNumber":71,"velocity":85},{"deltaTime":840,"channel":0,"type":"noteOn","noteNumber":67,"velocity":85},{"deltaTime":840,"channel":0,"type":"noteOff","noteNumber":67,"velocity":85},{"deltaTime":0,"channel":0,"type":"noteOn","noteNumber":66,"velocity":85},{"deltaTime":840,"channel":0,"type":"noteOff","noteNumber":66,"velocity":85},{"deltaTime":0,"channel":0,"type":"noteOn","noteNumber":64,"velocity":85},{"deltaTime":2520,"channel":0,"type":"noteOff","noteNumber":64,"velocity":85},{"deltaTime":0,"channel":0,"type":"noteOn","noteNumber":66,"velocity":85},{"deltaTime":2520,"channel":0,"type":"noteOff","noteNumber":66,"velocity":85},{"deltaTime":0,"channel":0,"type":"noteOn","noteNumber":67,"velocity":85},{"deltaTime":945,"channel":0,"type":"noteOff","noteNumber":67,"velocity":85},{"deltaTime":1575,"channel":0,"type":"noteOn","noteNumber":52,"velocity":85},{"deltaTime":0,"channel":0,"type":"noteOn","noteNumber":71,"velocity":85},{"deltaTime":2520,"channel":0,"type":"noteOn","noteNumber":55,"velocity":85},{"deltaTime":2520,"channel":0,"type":"noteOff","noteNumber":52,"velocity":85},{"deltaTime":0,"channel":0,"type":"noteOff","noteNumber":71,"velocity":85},{"deltaTime":0,"channel":0,"type":"noteOff","noteNumber":55,"velocity":85},{"deltaTime":0,"channel":0,"type":"noteOn","noteNumber":59,"velocity":85},{"deltaTime":0,"channel":0,"type":"noteOn","noteNumber":72,"velocity":85},{"deltaTime":2520,"channel":0,"type":"noteOff","noteNumber":59,"velocity":85},{"deltaTime":0,"channel":0,"type":"noteOff","noteNumber":72,"velocity":85},{"deltaTime":0,"channel":0,"type":"noteOn","noteNumber":51,"velocity":85},{"deltaTime":0,"channel":0,"type":"noteOn","noteNumber":71,"velocity":85},{"deltaTime":2520,"channel":0,"type":"noteOn","noteNumber":55,"velocity":85},{"deltaTime":2520,"channel":0,"type":"noteOff","noteNumber":51,"velocity":85},{"deltaTime":0,"channel":0,"type":"noteOff","noteNumber":71,"velocity":85},{"deltaTime":0,"channel":0,"type":"noteOff","noteNumber":55,"velocity":85},{"deltaTime":0,"channel":0,"type":"noteOn","noteNumber":59,"velocity":85},{"deltaTime":0,"channel":0,"type":"noteOn","noteNumber":72,"velocity":85},{"deltaTime":2520,"channel":0,"type":"noteOff","noteNumber":59,"velocity":85},{"deltaTime":0,"channel":0,"type":"noteOff","noteNumber":72,"velocity":85},{"deltaTime":0,"channel":0,"type":"noteOn","noteNumber":52,"velocity":85},{"deltaTime":0,"channel":0,"type":"noteOn","noteNumber":71,"velocity":85},{"deltaTime":2520,"channel":0,"type":"noteOn","noteNumber":55,"velocity":85},{"deltaTime":2520,"channel":0,"type":"noteOff","noteNumber":52,"velocity":85},{"deltaTime":0,"channel":0,"type":"noteOff","noteNumber":71,"velocity":85},{"deltaTime":0,"channel":0,"type":"noteOff","noteNumber":55,"velocity":85},{"deltaTime":0,"channel":0,"type":"noteOn","noteNumber":72,"velocity":85},{"deltaTime":0,"channel":0,"type":"noteOn","noteNumber":59,"velocity":85},{"deltaTime":945,"channel":0,"type":"noteOff","noteNumber":59,"velocity":85},{"deltaTime":1575,"channel":0,"type":"noteOff","noteNumber":72,"velocity":85},{"deltaTime":0,"channel":0,"type":"noteOn","noteNumber":52,"velocity":85},{"deltaTime":0,"channel":0,"type":"noteOn","noteNumber":56,"velocity":85},{"deltaTime":0,"channel":0,"type":"noteOn","noteNumber":59,"velocity":85},{"deltaTime":0,"channel":0,"type":"noteOn","noteNumber":62,"velocity":85},{"deltaTime":0,"channel":0,"type":"noteOn","noteNumber":71,"velocity":85},{"deltaTime":2520,"channel":0,"type":"noteOff","noteNumber":71,"velocity":85},{"deltaTime":0,"channel":0,"type":"noteOn","noteNumber":72,"velocity":85},{"deltaTime":2520,"channel":0,"type":"noteOff","noteNumber":52,"velocity":85},{"deltaTime":0,"channel":0,"type":"noteOff","noteNumber":56,"velocity":85},{"deltaTime":0,"channel":0,"type":"noteOff","noteNumber":59,"velocity":85},{"deltaTime":0,"channel":0,"type":"noteOff","noteNumber":62,"velocity":85},{"deltaTime":0,"channel":0,"type":"noteOff","noteNumber":72,"velocity":85},{"deltaTime":0,"channel":0,"type":"noteOn","noteNumber":71,"velocity":85},{"deltaTime":840,"channel":0,"type":"noteOff","noteNumber":71,"velocity":85},{"deltaTime":0,"channel":0,"type":"noteOn","noteNumber":72,"velocity":85},{"deltaTime":840,"channel":0,"type":"noteOff","noteNumber":72,"velocity":85},{"deltaTime":0,"channel":0,"type":"noteOn","noteNumber":71,"velocity":85},{"deltaTime":840,"channel":0,"type":"noteOff","noteNumber":71,"velocity":85},{"deltaTime":0,"channel":0,"type":"noteOn","noteNumber":52,"velocity":85},{"deltaTime":0,"channel":0,"type":"noteOn","noteNumber":69,"velocity":85},{"deltaTime":2520,"channel":0,"type":"noteOn","noteNumber":57,"velocity":85},{"deltaTime":2520,"channel":0,"type":"noteOff","noteNumber":52,"velocity":85},{"deltaTime":0,"channel":0,"type":"noteOff","noteNumber":69,"velocity":85},{"deltaTime":0,"channel":0,"type":"noteOff","noteNumber":57,"velocity":85},{"deltaTime":0,"channel":0,"type":"noteOn","noteNumber":71,"velocity":85},{"deltaTime":0,"channel":0,"type":"noteOn","noteNumber":60,"velocity":85},{"deltaTime":1260,"channel":0,"type":"noteOff","noteNumber":60,"velocity":85},{"deltaTime":1260,"channel":0,"type":"noteOff","noteNumber":71,"velocity":85},{"deltaTime":0,"channel":0,"type":"noteOn","noteNumber":45,"velocity":85},{"deltaTime":0,"channel":0,"type":"noteOn","noteNumber":69,"velocity":85},{"deltaTime":2520,"channel":0,"type":"noteOn","noteNumber":52,"velocity":85},{"deltaTime":2520,"channel":0,"type":"noteOff","noteNumber":45,"velocity":85},{"deltaTime":0,"channel":0,"type":"noteOff","noteNumber":69,"velocity":85},{"deltaTime":0,"channel":0,"type":"noteOff","noteNumber":52,"velocity":85},{"deltaTime":0,"channel":0,"type":"noteOn","noteNumber":57,"velocity":85},{"deltaTime":0,"channel":0,"type":"noteOn","noteNumber":71,"velocity":85},{"deltaTime":2520,"channel":0,"type":"noteOff","noteNumber":57,"velocity":85},{"deltaTime":0,"channel":0,"type":"noteOff","noteNumber":71,"velocity":85},{"deltaTime":0,"channel":0,"type":"noteOn","noteNumber":52,"velocity":85},{"deltaTime":0,"channel":0,"type":"noteOn","noteNumber":69,"velocity":85},{"deltaTime":2520,"channel":0,"type":"noteOn","noteNumber":57,"velocity":85},{"deltaTime":2520,"channel":0,"type":"noteOff","noteNumber":52,"velocity":85},{"deltaTime":0,"channel":0,"type":"noteOff","noteNumber":69,"velocity":85},{"deltaTime":0,"channel":0,"type":"noteOff","noteNumber":57,"velocity":85},{"deltaTime":0,"channel":0,"type":"noteOn","noteNumber":71,"velocity":85},{"deltaTime":0,"channel":0,"type":"noteOn","noteNumber":60,"velocity":85},{"deltaTime":1260,"channel":0,"type":"noteOff","noteNumber":60,"velocity":85},{"deltaTime":1260,"channel":0,"type":"noteOff","noteNumber":71,"velocity":85},{"deltaTime":0,"channel":0,"type":"noteOn","noteNumber":47,"velocity":85},{"deltaTime":0,"channel":0,"type":"noteOn","noteNumber":69,"velocity":85},{"deltaTime":2520,"channel":0,"type":"noteOff","noteNumber":69,"velocity":85},{"deltaTime":0,"channel":0,"type":"noteOn","noteNumber":51,"velocity":85},{"deltaTime":0,"channel":0,"type":"noteOn","noteNumber":54,"velocity":85},{"deltaTime":0,"channel":0,"type":"noteOn","noteNumber":57,"velocity":85},{"deltaTime":0,"channel":0,"type":"noteOn","noteNumber":71,"velocity":85},{"deltaTime":945,"channel":0,"type":"noteOff","noteNumber":51,"velocity":85},{"deltaTime":0,"channel":0,"type":"noteOff","noteNumber":54,"velocity":85},{"deltaTime":0,"channel":0,"type":"noteOff","noteNumber":57,"velocity":85},{"deltaTime":1575,"channel":0,"type":"noteOff","noteNumber":47,"velocity":85},{"deltaTime":0,"channel":0,"type":"noteOff","noteNumber":71,"velocity":85},{"deltaTime":0,"channel":0,"type":"noteOn","noteNumber":54,"velocity":85},{"deltaTime":0,"channel":0,"type":"noteOn","noteNumber":57,"velocity":85},{"deltaTime":0,"channel":0,"type":"noteOn","noteNumber":69,"velocity":85},{"deltaTime":315,"channel":0,"type":"noteOff","noteNumber":54,"velocity":85},{"deltaTime":525,"channel":0,"type":"noteOff","noteNumber":69,"velocity":85},{"deltaTime":0,"channel":0,"type":"noteOn","noteNumber":71,"velocity":85},{"deltaTime":105,"channel":0,"type":"noteOff","noteNumber":57,"velocity":85},{"deltaTime":735,"channel":0,"type":"noteOff","noteNumber":71,"velocity":85},{"deltaTime":0,"channel":0,"type":"noteOn","noteNumber":69,"velocity":85},{"deltaTime":840,"channel":0,"type":"noteOff","noteNumber":69,"velocity":85},{"deltaTime":0,"channel":0,"type":"noteOn","noteNumber":52,"velocity":85},{"deltaTime":0,"channel":0,"type":"noteOn","noteNumber":67,"velocity":85},{"deltaTime":2520,"channel":0,"type":"noteOn","noteNumber":55,"velocity":85},{"deltaTime":2520,"channel":0,"type":"noteOff","noteNumber":52,"velocity":85},{"deltaTime":0,"channel":0,"type":"noteOff","noteNumber":67,"velocity":85},{"deltaTime":0,"channel":0,"type":"noteOff","noteNumber":55,"velocity":85},{"deltaTime":0,"channel":0,"type":"noteOn","noteNumber":59,"velocity":85},{"deltaTime":0,"channel":0,"type":"noteOn","noteNumber":69,"velocity":85},{"deltaTime":2520,"channel":0,"type":"noteOn","noteNumber":48,"velocity":85},{"deltaTime":0,"channel":0,"type":"noteOn","noteNumber":67,"velocity":85},{"deltaTime":2520,"channel":0,"type":"noteOff","noteNumber":59,"velocity":85},{"deltaTime":0,"channel":0,"type":"noteOff","noteNumber":69,"velocity":85},{"deltaTime":0,"channel":0,"type":"noteOn","noteNumber":52,"velocity":85},{"deltaTime":2520,"channel":0,"type":"noteOff","noteNumber":48,"velocity":85},{"deltaTime":0,"channel":0,"type":"noteOff","noteNumber":67,"velocity":85},{"deltaTime":0,"channel":0,"type":"noteOff","noteNumber":52,"velocity":85},{"deltaTime":0,"channel":0,"type":"noteOn","noteNumber":55,"velocity":85},{"deltaTime":0,"channel":0,"type":"noteOn","noteNumber":69,"velocity":85},{"deltaTime":2520,"channel":0,"type":"noteOff","noteNumber":55,"velocity":85},{"deltaTime":0,"channel":0,"type":"noteOff","noteNumber":69,"velocity":85},{"deltaTime":0,"channel":0,"type":"noteOn","noteNumber":49,"velocity":85},{"deltaTime":0,"channel":0,"type":"noteOn","noteNumber":67,"velocity":85},{"deltaTime":2520,"channel":0,"type":"noteOn","noteNumber":52,"velocity":85},{"deltaTime":2520,"channel":0,"type":"noteOff","noteNumber":49,"velocity":85},{"deltaTime":0,"channel":0,"type":"noteOff","noteNumber":67,"velocity":85},{"deltaTime":0,"channel":0,"type":"noteOff","noteNumber":52,"velocity":85},{"deltaTime":0,"channel":0,"type":"noteOn","noteNumber":55,"velocity":85},{"deltaTime":0,"channel":0,"type":"noteOn","noteNumber":66,"velocity":85},{"deltaTime":1890,"channel":0,"type":"noteOn","noteNumber":67,"velocity":85},{"deltaTime":630,"channel":0,"type":"noteOff","noteNumber":55,"velocity":85},{"deltaTime":0,"channel":0,"type":"noteOff","noteNumber":66,"velocity":85},{"deltaTime":0,"channel":0,"type":"noteOff","noteNumber":67,"velocity":85},{"deltaTime":0,"channel":0,"type":"noteOn","noteNumber":47,"velocity":85},{"deltaTime":0,"channel":0,"type":"noteOn","noteNumber":64,"velocity":85},{"deltaTime":2520,"channel":0,"type":"noteOn","noteNumber":51,"velocity":85},{"deltaTime":2520,"channel":0,"type":"noteOff","noteNumber":47,"velocity":85},{"deltaTime":0,"channel":0,"type":"noteOff","noteNumber":64,"velocity":85},{"deltaTime":0,"channel":0,"type":"noteOff","noteNumber":51,"velocity":85},{"deltaTime":0,"channel":0,"type":"noteOn","noteNumber":54,"velocity":85},{"deltaTime":0,"channel":0,"type":"noteOn","noteNumber":63,"velocity":85},{"deltaTime":1260,"channel":0,"type":"noteOff","noteNumber":54,"velocity":85},{"deltaTime":0,"channel":0,"type":"noteOff","noteNumber":63,"velocity":85},{"deltaTime":0,"channel":0,"type":"noteOn","noteNumber":66,"velocity":85},{"deltaTime":1260,"channel":0,"type":"noteOff","noteNumber":66,"velocity":85},{"deltaTime":0,"channel":0,"type":"noteOn","noteNumber":52,"velocity":85},{"deltaTime":0,"channel":0,"type":"noteOn","noteNumber":64,"velocity":85},{"deltaTime":0,"channel":0,"type":"noteOn","noteNumber":67,"velocity":85},{"deltaTime":1260,"channel":0,"type":"noteOff","noteNumber":67,"velocity":85},{"deltaTime":1260,"channel":0,"type":"noteOn","noteNumber":55,"velocity":85},{"deltaTime":2520,"channel":0,"type":"noteOff","noteNumber":52,"velocity":85},{"deltaTime":0,"channel":0,"type":"noteOff","noteNumber":55,"velocity":85},{"deltaTime":0,"channel":0,"type":"noteOn","noteNumber":59,"velocity":85},{"deltaTime":1890,"channel":0,"type":"noteOn","noteNumber":66,"velocity":85},{"deltaTime":630,"channel":0,"type":"noteOff","noteNumber":64,"velocity":85},{"deltaTime":0,"channel":0,"type":"noteOff","noteNumber":59,"velocity":85},{"deltaTime":0,"channel":0,"type":"noteOff","noteNumber":66,"velocity":85},{"deltaTime":0,"channel":0,"type":"noteOn","noteNumber":47,"velocity":85},{"deltaTime":0,"channel":0,"type":"noteOn","noteNumber":63,"velocity":85},{"deltaTime":2520,"channel":0,"type":"noteOn","noteNumber":51,"velocity":85},{"deltaTime":2520,"channel":0,"type":"noteOff","noteNumber":47,"velocity":85},{"deltaTime":0,"channel":0,"type":"noteOff","noteNumber":51,"velocity":85},{"deltaTime":0,"channel":0,"type":"noteOn","noteNumber":66,"velocity":85},{"deltaTime":630,"channel":0,"type":"noteOff","noteNumber":66,"velocity":85},{"deltaTime":1890,"channel":0,"type":"noteOff","noteNumber":63,"velocity":85},{"deltaTime":0,"channel":0,"type":"noteOn","noteNumber":52,"velocity":85},{"deltaTime":0,"channel":0,"type":"noteOn","noteNumber":55,"velocity":85},{"deltaTime":0,"channel":0,"type":"noteOn","noteNumber":59,"velocity":85},{"deltaTime":0,"channel":0,"type":"noteOn","noteNumber":64,"velocity":85},{"deltaTime":3780,"channel":0,"type":"noteOn","noteNumber":74,"velocity":85},{"deltaTime":630,"channel":0,"type":"noteOff","noteNumber":74,"velocity":85},{"deltaTime":315,"channel":0,"type":"noteOn","noteNumber":75,"velocity":85},{"deltaTime":315,"channel":0,"type":"noteOff","noteNumber":75,"velocity":85},{"deltaTime":0,"channel":0,"type":"noteOn","noteNumber":76,"velocity":85},{"deltaTime":2520,"channel":0,"type":"noteOff","noteNumber":52,"velocity":85},{"deltaTime":0,"channel":0,"type":"noteOff","noteNumber":55,"velocity":85},{"deltaTime":0,"channel":0,"type":"noteOff","noteNumber":59,"velocity":85},{"deltaTime":0,"channel":0,"type":"noteOff","noteNumber":64,"velocity":85},{"deltaTime":0,"channel":0,"type":"noteOff","noteNumber":76,"velocity":85},{"deltaTime":0,"channel":0,"type":"noteOn","noteNumber":52,"velocity":85},{"deltaTime":0,"channel":0,"type":"noteOn","noteNumber":56,"velocity":85},{"deltaTime":0,"channel":0,"type":"noteOn","noteNumber":59,"velocity":85},{"deltaTime":0,"channel":0,"type":"noteOn","noteNumber":62,"velocity":85},{"deltaTime":0,"channel":0,"type":"noteOn","noteNumber":74,"velocity":85},{"deltaTime":5040,"channel":0,"type":"noteOff","noteNumber":52,"velocity":85},{"deltaTime":0,"channel":0,"type":"noteOff","noteNumber":56,"velocity":85},{"deltaTime":0,"channel":0,"type":"noteOff","noteNumber":59,"velocity":85},{"deltaTime":0,"channel":0,"type":"noteOff","noteNumber":62,"velocity":85},{"deltaTime":0,"channel":0,"type":"noteOff","noteNumber":74,"velocity":85},{"deltaTime":0,"channel":0,"type":"noteOn","noteNumber":72,"velocity":85},{"deltaTime":945,"channel":0,"type":"noteOff","noteNumber":72,"velocity":85},{"deltaTime":0,"channel":0,"type":"noteOn","noteNumber":71,"velocity":85},{"deltaTime":1575,"channel":0,"type":"noteOff","noteNumber":71,"velocity":85},{"deltaTime":0,"channel":0,"type":"noteOn","noteNumber":52,"velocity":85},{"deltaTime":0,"channel":0,"type":"noteOn","noteNumber":72,"velocity":85},{"deltaTime":2520,"channel":0,"type":"noteOn","noteNumber":57,"velocity":85},{"deltaTime":2520,"channel":0,"type":"noteOff","noteNumber":72,"velocity":85},{"deltaTime":0,"channel":0,"type":"noteOn","noteNumber":60,"velocity":85},{"deltaTime":0,"channel":0,"type":"noteOn","noteNumber":71,"velocity":85},{"deltaTime":840,"channel":0,"type":"noteOff","noteNumber":71,"velocity":85},{"deltaTime":0,"channel":0,"type":"noteOn","noteNumber":69,"velocity":85},{"deltaTime":840,"channel":0,"type":"noteOff","noteNumber":69,"velocity":85},{"deltaTime":0,"channel":0,"type":"noteOn","noteNumber":71,"velocity":85},{"deltaTime":840,"channel":0,"type":"noteOff","noteNumber":60,"velocity":85},{"deltaTime":0,"channel":0,"type":"noteOff","noteNumber":71,"velocity":85},{"deltaTime":0,"channel":0,"type":"noteOn","noteNumber":64,"velocity":85},{"deltaTime":0,"channel":0,"type":"noteOn","noteNumber":72,"velocity":85},{"deltaTime":2520,"channel":0,"type":"noteOff","noteNumber":52,"velocity":85},{"deltaTime":0,"channel":0,"type":"noteOff","noteNumber":57,"velocity":85},{"deltaTime":0,"channel":0,"type":"noteOff","noteNumber":72,"velocity":85},{"deltaTime":0,"channel":0,"type":"noteOn","noteNumber":60,"velocity":85},{"deltaTime":0,"channel":0,"type":"noteOn","noteNumber":71,"velocity":85},{"deltaTime":630,"channel":0,"type":"noteOff","noteNumber":71,"velocity":85},{"deltaTime":0,"channel":0,"type":"noteOn","noteNumber":72,"velocity":85},{"deltaTime":630,"channel":0,"type":"noteOff","noteNumber":72,"velocity":85},{"deltaTime":0,"channel":0,"type":"noteOn","noteNumber":71,"velocity":85},{"deltaTime":630,"channel":0,"type":"noteOff","noteNumber":71,"velocity":85},{"deltaTime":0,"channel":0,"type":"noteOn","noteNumber":72,"velocity":85},{"deltaTime":630,"channel":0,"type":"noteOff","noteNumber":64,"velocity":85},{"deltaTime":0,"channel":0,"type":"noteOff","noteNumber":60,"velocity":85},{"deltaTime":0,"channel":0,"type":"noteOff","noteNumber":72,"velocity":85},{"deltaTime":0,"channel":0,"type":"noteOn","noteNumber":57,"velocity":85},{"deltaTime":0,"channel":0,"type":"noteOn","noteNumber":69,"velocity":85},{"deltaTime":1260,"channel":0,"type":"noteOff","noteNumber":57,"velocity":85},{"deltaTime":0,"channel":0,"type":"noteOff","noteNumber":69,"velocity":85},{"deltaTime":0,"channel":0,"type":"noteOn","noteNumber":71,"velocity":85},{"deltaTime":1260,"channel":0,"type":"noteOff","noteNumber":71,"velocity":85},{"deltaTime":0,"channel":0,"type":"noteOn","noteNumber":50,"velocity":85},{"deltaTime":0,"channel":0,"type":"noteOn","noteNumber":72,"velocity":85},{"deltaTime":2520,"channel":0,"type":"noteOn","noteNumber":54,"velocity":85},{"deltaTime":2520,"channel":0,"type":"noteOff","noteNumber":72,"velocity":85},{"deltaTime":0,"channel":0,"type":"noteOn","noteNumber":57,"velocity":85},{"deltaTime":0,"channel":0,"type":"noteOn","noteNumber":62,"velocity":85},{"deltaTime":2520,"channel":0,"type":"noteOff","noteNumber":57,"velocity":85},{"deltaTime":0,"channel":0,"type":"noteOff","noteNumber":62,"velocity":85},{"deltaTime":0,"channel":0,"type":"noteOn","noteNumber":60,"velocity":85},{"deltaTime":0,"channel":0,"type":"noteOn","noteNumber":72,"velocity":85},{"deltaTime":2520,"channel":0,"type":"noteOff","noteNumber":50,"velocity":85},{"deltaTime":0,"channel":0,"type":"noteOff","noteNumber":54,"velocity":85},{"deltaTime":0,"channel":0,"type":"noteOn","noteNumber":57,"velocity":85},{"deltaTime":0,"channel":0,"type":"noteOn","noteNumber":71,"velocity":85},{"deltaTime":2520,"channel":0,"type":"noteOff","noteNumber":72,"velocity":85},{"deltaTime":0,"channel":0,"type":"noteOff","noteNumber":71,"velocity":85},{"deltaTime":0,"channel":0,"type":"noteOn","noteNumber":69,"velocity":85},{"deltaTime":0,"channel":0,"type":"noteOn","noteNumber":54,"velocity":85},{"deltaTime":2520,"channel":0,"type":"noteOff","noteNumber":60,"velocity":85},{"deltaTime":0,"channel":0,"type":"noteOff","noteNumber":57,"velocity":85},{"deltaTime":0,"channel":0,"type":"noteOff","noteNumber":69,"velocity":85},{"deltaTime":0,"channel":0,"type":"noteOff","noteNumber":54,"velocity":85},{"deltaTime":0,"channel":0,"type":"noteOn","noteNumber":50,"velocity":85},{"deltaTime":0,"channel":0,"type":"noteOn","noteNumber":71,"velocity":85},{"deltaTime":2520,"channel":0,"type":"noteOn","noteNumber":55,"velocity":85},{"deltaTime":2520,"channel":0,"type":"noteOff","noteNumber":71,"velocity":85},{"deltaTime":0,"channel":0,"type":"noteOn","noteNumber":59,"velocity":85},{"deltaTime":0,"channel":0,"type":"noteOn","noteNumber":69,"velocity":85},{"deltaTime":840,"channel":0,"type":"noteOff","noteNumber":69,"velocity":85},{"deltaTime":0,"channel":0,"type":"noteOn","noteNumber":67,"velocity":85},{"deltaTime":840,"channel":0,"type":"noteOff","noteNumber":67,"velocity":85},{"deltaTime":0,"channel":0,"type":"noteOn","noteNumber":69,"velocity":85},{"deltaTime":840,"channel":0,"type":"noteOff","noteNumber":59,"velocity":85},{"deltaTime":0,"channel":0,"type":"noteOff","noteNumber":69,"velocity":85},{"deltaTime":0,"channel":0,"type":"noteOn","noteNumber":62,"velocity":85},{"deltaTime":0,"channel":0,"type":"noteOn","noteNumber":71,"velocity":85},{"deltaTime":2520,"channel":0,"type":"noteOff","noteNumber":50,"velocity":85},{"deltaTime":0,"channel":0,"type":"noteOff","noteNumber":55,"velocity":85},{"deltaTime":0,"channel":0,"type":"noteOn","noteNumber":59,"velocity":85},{"deltaTime":0,"channel":0,"type":"noteOn","noteNumber":69,"velocity":85},{"deltaTime":630,"channel":0,"type":"noteOff","noteNumber":69,"velocity":85},{"deltaTime":0,"channel":0,"type":"noteOn","noteNumber":71,"velocity":85},{"deltaTime":630,"channel":0,"type":"noteOff","noteNumber":71,"velocity":85},{"deltaTime":0,"channel":0,"type":"noteOn","noteNumber":69,"velocity":85},{"deltaTime":630,"channel":0,"type":"noteOff","noteNumber":69,"velocity":85},{"deltaTime":0,"channel":0,"type":"noteOn","noteNumber":71,"velocity":85},{"deltaTime":630,"channel":0,"type":"noteOff","noteNumber":71,"velocity":85},{"deltaTime":0,"channel":0,"type":"noteOff","noteNumber":59,"velocity":85},{"deltaTime":0,"channel":0,"type":"noteOff","noteNumber":71,"velocity":85},{"deltaTime":0,"channel":0,"type":"noteOn","noteNumber":55,"velocity":85},{"deltaTime":0,"channel":0,"type":"noteOn","noteNumber":67,"velocity":85},{"deltaTime":1260,"channel":0,"type":"noteOff","noteNumber":55,"velocity":85},{"deltaTime":0,"channel":0,"type":"noteOff","noteNumber":67,"velocity":85},{"deltaTime":0,"channel":0,"type":"noteOn","noteNumber":69,"velocity":85},{"deltaTime":1260,"channel":0,"type":"noteOff","noteNumber":69,"velocity":85},{"deltaTime":0,"channel":0,"type":"noteOn","noteNumber":48,"velocity":85},{"deltaTime":0,"channel":0,"type":"noteOn","noteNumber":71,"velocity":85},{"deltaTime":2520,"channel":0,"type":"noteOff","noteNumber":62,"velocity":85},{"deltaTime":0,"channel":0,"type":"noteOn","noteNumber":52,"velocity":85},{"deltaTime":2520,"channel":0,"type":"noteOff","noteNumber":71,"velocity":85},{"deltaTime":0,"channel":0,"type":"noteOn","noteNumber":55,"velocity":85},{"deltaTime":0,"channel":0,"type":"noteOn","noteNumber":72,"velocity":85},{"deltaTime":2520,"channel":0,"type":"noteOff","noteNumber":55,"velocity":85},{"deltaTime":0,"channel":0,"type":"noteOff","noteNumber":72,"velocity":85},{"deltaTime":0,"channel":0,"type":"noteOn","noteNumber":60,"velocity":85},{"deltaTime":0,"channel":0,"type":"noteOn","noteNumber":71,"velocity":85},{"deltaTime":2520,"channel":0,"type":"noteOff","noteNumber":48,"velocity":85},{"deltaTime":0,"channel":0,"type":"noteOff","noteNumber":52,"velocity":85},{"deltaTime":0,"channel":0,"type":"noteOff","noteNumber":71,"velocity":85},{"deltaTime":0,"channel":0,"type":"noteOn","noteNumber":55,"velocity":85},{"deltaTime":0,"channel":0,"type":"noteOn","noteNumber":69,"velocity":85},{"deltaTime":2520,"channel":0,"type":"noteOff","noteNumber":60,"velocity":85},{"deltaTime":0,"channel":0,"type":"noteOff","noteNumber":55,"velocity":85},{"deltaTime":0,"channel":0,"type":"noteOff","noteNumber":69,"velocity":85},{"deltaTime":0,"channel":0,"type":"noteOn","noteNumber":52,"velocity":85},{"deltaTime":0,"channel":0,"type":"noteOn","noteNumber":67,"velocity":85},{"deltaTime":2520,"channel":0,"type":"noteOff","noteNumber":52,"velocity":85},{"deltaTime":0,"channel":0,"type":"noteOff","noteNumber":67,"velocity":85},{"deltaTime":0,"channel":0,"type":"noteOn","noteNumber":47,"velocity":85},{"deltaTime":0,"channel":0,"type":"noteOn","noteNumber":69,"velocity":85},{"deltaTime":2520,"channel":0,"type":"noteOn","noteNumber":51,"velocity":85},{"deltaTime":2520,"channel":0,"type":"noteOff","noteNumber":69,"velocity":85},{"deltaTime":0,"channel":0,"type":"noteOn","noteNumber":67,"velocity":85},{"deltaTime":630,"channel":0,"type":"noteOn","noteNumber":54,"velocity":85},{"deltaTime":210,"channel":0,"type":"noteOff","noteNumber":67,"velocity":85},{"deltaTime":0,"channel":0,"type":"noteOn","noteNumber":66,"velocity":85},{"deltaTime":840,"channel":0,"type":"noteOff","noteNumber":66,"velocity":85},{"deltaTime":0,"channel":0,"type":"noteOn","noteNumber":67,"velocity":85},{"deltaTime":840,"channel":0,"type":"noteOff","noteNumber":67,"velocity":85},{"deltaTime":0,"channel":0,"type":"noteOff","noteNumber":54,"velocity":85},{"deltaTime":0,"channel":0,"type":"noteOn","noteNumber":57,"velocity":85},{"deltaTime":0,"channel":0,"type":"noteOn","noteNumber":69,"velocity":85},{"deltaTime":2520,"channel":0,"type":"noteOff","noteNumber":47,"velocity":85},{"deltaTime":0,"channel":0,"type":"noteOff","noteNumber":51,"velocity":85},{"deltaTime":0,"channel":0,"type":"noteOff","noteNumber":69,"velocity":85},{"deltaTime":0,"channel":0,"type":"noteOn","noteNumber":54,"velocity":85},{"deltaTime":0,"channel":0,"type":"noteOn","noteNumber":67,"velocity":85},{"deltaTime":630,"channel":0,"type":"noteOff","noteNumber":67,"velocity":85},{"deltaTime":0,"channel":0,"type":"noteOn","noteNumber":69,"velocity":85},{"deltaTime":630,"channel":0,"type":"noteOff","noteNumber":69,"velocity":85},{"deltaTime":0,"channel":0,"type":"noteOn","noteNumber":67,"velocity":85},{"deltaTime":630,"channel":0,"type":"noteOff","noteNumber":67,"velocity":85},{"deltaTime":0,"channel":0,"type":"noteOn","noteNumber":69,"velocity":85},{"deltaTime":630,"channel":0,"type":"noteOff","noteNumber":69,"velocity":85},{"deltaTime":0,"channel":0,"type":"noteOn","noteNumber":51,"velocity":85},{"deltaTime":0,"channel":0,"type":"noteOn","noteNumber":66,"velocity":85},{"deltaTime":1260,"channel":0,"type":"noteOff","noteNumber":66,"velocity":85},{"deltaTime":0,"channel":0,"type":"noteOn","noteNumber":67,"velocity":85},{"deltaTime":1260,"channel":0,"type":"noteOff","noteNumber":57,"velocity":85},{"deltaTime":0,"channel":0,"type":"noteOff","noteNumber":54,"velocity":85},{"deltaTime":0,"channel":0,"type":"noteOff","noteNumber":51,"velocity":85},{"deltaTime":0,"channel":0,"type":"noteOff","noteNumber":67,"velocity":85},{"deltaTime":0,"channel":0,"type":"noteOn","noteNumber":47,"velocity":85},{"deltaTime":0,"channel":0,"type":"noteOn","noteNumber":69,"velocity":85},{"deltaTime":2520,"channel":0,"type":"noteOn","noteNumber":51,"velocity":85},{"deltaTime":2520,"channel":0,"type":"noteOff","noteNumber":69,"velocity":85},{"deltaTime":0,"channel":0,"type":"noteOn","noteNumber":54,"velocity":85},{"deltaTime":0,"channel":0,"type":"noteOn","noteNumber":69,"velocity":85},{"deltaTime":2520,"channel":0,"type":"noteOff","noteNumber":54,"velocity":85},{"deltaTime":0,"channel":0,"type":"noteOff","noteNumber":69,"velocity":85},{"deltaTime":0,"channel":0,"type":"noteOn","noteNumber":57,"velocity":85},{"deltaTime":0,"channel":0,"type":"noteOn","noteNumber":71,"velocity":85},{"deltaTime":2520,"channel":0,"type":"noteOff","noteNumber":47,"velocity":85},{"deltaTime":0,"channel":0,"type":"noteOff","noteNumber":51,"velocity":85},{"deltaTime":0,"channel":0,"type":"noteOff","noteNumber":71,"velocity":85},{"deltaTime":0,"channel":0,"type":"noteOn","noteNumber":54,"velocity":85},{"deltaTime":0,"channel":0,"type":"noteOn","noteNumber":62,"velocity":85},{"deltaTime":2520,"channel":0,"type":"noteOff","noteNumber":54,"velocity":85},{"deltaTime":0,"channel":0,"type":"noteOff","noteNumber":62,"velocity":85},{"deltaTime":0,"channel":0,"type":"noteOn","noteNumber":51,"velocity":85},{"deltaTime":0,"channel":0,"type":"noteOn","noteNumber":72,"velocity":85},{"deltaTime":630,"channel":0,"type":"noteOff","noteNumber":51,"velocity":85},{"deltaTime":945,"channel":0,"type":"noteOn","noteNumber":74,"velocity":85},{"deltaTime":945,"channel":0,"type":"noteOff","noteNumber":57,"velocity":85},{"deltaTime":0,"channel":0,"type":"noteOff","noteNumber":72,"velocity":85},{"deltaTime":0,"channel":0,"type":"noteOff","noteNumber":74,"velocity":85},{"deltaTime":0,"channel":0,"type":"noteOn","noteNumber":52,"velocity":85},{"deltaTime":0,"channel":0,"type":"noteOn","noteNumber":71,"velocity":85},{"deltaTime":2520,"channel":0,"type":"noteOn","noteNumber":55,"velocity":85},{"deltaTime":2520,"channel":0,"type":"noteOff","noteNumber":52,"velocity":85},{"deltaTime":0,"channel":0,"type":"noteOff","noteNumber":55,"velocity":85},{"deltaTime":0,"channel":0,"type":"noteOn","noteNumber":59,"velocity":85},{"deltaTime":2520,"channel":0,"type":"noteOff","noteNumber":59,"velocity":85},{"deltaTime":0,"channel":0,"type":"noteOn","noteNumber":47,"velocity":85},{"deltaTime":2520,"channel":0,"type":"noteOff","noteNumber":71,"velocity":85},{"deltaTime":0,"channel":0,"type":"noteOn","noteNumber":51,"velocity":85},{"deltaTime":0,"channel":0,"type":"noteOn","noteNumber":54,"velocity":85},{"deltaTime":0,"channel":0,"type":"noteOn","noteNumber":57,"velocity":85},{"deltaTime":0,"channel":0,"type":"noteOn","noteNumber":79,"velocity":85},{"deltaTime":2520,"channel":0,"type":"noteOff","noteNumber":47,"velocity":85},{"deltaTime":0,"channel":0,"type":"noteOff","noteNumber":51,"velocity":85},{"deltaTime":0,"channel":0,"type":"noteOff","noteNumber":54,"velocity":85},{"deltaTime":0,"channel":0,"type":"noteOff","noteNumber":57,"velocity":85},{"deltaTime":0,"channel":0,"type":"noteOff","noteNumber":79,"velocity":85},{"deltaTime":0,"channel":0,"type":"noteOn","noteNumber":75,"velocity":85},{"deltaTime":1890,"channel":0,"type":"noteOff","noteNumber":75,"velocity":85},{"deltaTime":0,"channel":0,"type":"noteOn","noteNumber":78,"velocity":85},{"deltaTime":630,"channel":0,"type":"noteOff","noteNumber":78,"velocity":85},{"deltaTime":0,"channel":0,"type":"noteOn","noteNumber":52,"velocity":85},{"deltaTime":0,"channel":0,"type":"noteOn","noteNumber":55,"velocity":85},{"deltaTime":0,"channel":0,"type":"noteOn","noteNumber":59,"velocity":85},{"deltaTime":0,"channel":0,"type":"noteOn","noteNumber":76,"velocity":85},{"deltaTime":0,"channel":0,"type":"noteOn","noteNumber":79,"velocity":85},{"deltaTime":630,"channel":0,"type":"noteOff","noteNumber":79,"velocity":85},{"deltaTime":3150,"channel":0,"type":"noteOn","noteNumber":86,"velocity":85},{"deltaTime":945,"channel":0,"type":"noteOff","noteNumber":86,"velocity":85},{"deltaTime":0,"channel":0,"type":"noteOn","noteNumber":87,"velocity":85},{"deltaTime":315,"channel":0,"type":"noteOff","noteNumber":87,"velocity":85},{"deltaTime":0,"channel":0,"type":"noteOn","noteNumber":88,"velocity":85},{"deltaTime":2520,"channel":0,"type":"noteOff","noteNumber":52,"velocity":85},{"deltaTime":0,"channel":0,"type":"noteOff","noteNumber":55,"velocity":85},{"deltaTime":0,"channel":0,"type":"noteOff","noteNumber":59,"velocity":85},{"deltaTime":0,"channel":0,"type":"noteOff","noteNumber":76,"velocity":85},{"deltaTime":0,"channel":0,"type":"noteOff","noteNumber":88,"velocity":85},{"deltaTime":0,"channel":0,"type":"noteOn","noteNumber":52,"velocity":85},{"deltaTime":0,"channel":0,"type":"noteOn","noteNumber":56,"velocity":85},{"deltaTime":0,"channel":0,"type":"noteOn","noteNumber":59,"velocity":85},{"deltaTime":0,"channel":0,"type":"noteOn","noteNumber":62,"velocity":85},{"deltaTime":0,"channel":0,"type":"noteOn","noteNumber":86,"velocity":85},{"deltaTime":5040,"channel":0,"type":"noteOff","noteNumber":52,"velocity":85},{"deltaTime":0,"channel":0,"type":"noteOff","noteNumber":56,"velocity":85},{"deltaTime":0,"channel":0,"type":"noteOff","noteNumber":59,"velocity":85},{"deltaTime":0,"channel":0,"type":"noteOff","noteNumber":62,"velocity":85},{"deltaTime":0,"channel":0,"type":"noteOff","noteNumber":86,"velocity":85},{"deltaTime":0,"channel":0,"type":"noteOn","noteNumber":84,"velocity":85},{"deltaTime":1260,"channel":0,"type":"noteOff","noteNumber":84,"velocity":85},{"deltaTime":0,"channel":0,"type":"noteOn","noteNumber":83,"velocity":85},{"deltaTime":1260,"channel":0,"type":"noteOff","noteNumber":83,"velocity":85},{"deltaTime":0,"channel":0,"type":"noteOn","noteNumber":45,"velocity":85},{"deltaTime":0,"channel":0,"type":"noteOn","noteNumber":84,"velocity":85},{"deltaTime":2520,"channel":0,"type":"noteOn","noteNumber":48,"velocity":85},{"deltaTime":2520,"channel":0,"type":"noteOff","noteNumber":84,"velocity":85},{"deltaTime":0,"channel":0,"type":"noteOn","noteNumber":83,"velocity":85},{"deltaTime":0,"channel":0,"type":"noteOn","noteNumber":52,"velocity":85},{"deltaTime":840,"channel":0,"type":"noteOff","noteNumber":83,"velocity":85},{"deltaTime":0,"channel":0,"type":"noteOn","noteNumber":81,"velocity":85},{"deltaTime":840,"channel":0,"type":"noteOff","noteNumber":81,"velocity":85},{"deltaTime":0,"channel":0,"type":"noteOn","noteNumber":83,"velocity":85},{"deltaTime":840,"channel":0,"type":"noteOff","noteNumber":83,"velocity":85},{"deltaTime":0,"channel":0,"type":"noteOff","noteNumber":52,"velocity":85},{"deltaTime":0,"channel":0,"type":"noteOn","noteNumber":57,"velocity":85},{"deltaTime":0,"channel":0,"type":"noteOn","noteNumber":84,"velocity":85},{"deltaTime":2520,"channel":0,"type":"noteOff","noteNumber":45,"velocity":85},{"deltaTime":0,"channel":0,"type":"noteOff","noteNumber":48,"velocity":85},{"deltaTime":0,"channel":0,"type":"noteOff","noteNumber":84,"velocity":85},{"deltaTime":0,"channel":0,"type":"noteOn","noteNumber":52,"velocity":85},{"deltaTime":0,"channel":0,"type":"noteOn","noteNumber":83,"velocity":85},{"deltaTime":630,"channel":0,"type":"noteOff","noteNumber":83,"velocity":85},{"deltaTime":0,"channel":0,"type":"noteOn","noteNumber":84,"velocity":85},{"deltaTime":630,"channel":0,"type":"noteOff","noteNumber":84,"velocity":85},{"deltaTime":0,"channel":0,"type":"noteOn","noteNumber":83,"velocity":85},{"deltaTime":630,"channel":0,"type":"noteOff","noteNumber":83,"velocity":85},{"deltaTime":0,"channel":0,"type":"noteOn","noteNumber":84,"velocity":85},{"deltaTime":630,"channel":0,"type":"noteOff","noteNumber":84,"velocity":85},{"deltaTime":0,"channel":0,"type":"noteOn","noteNumber":48,"velocity":85},{"deltaTime":0,"channel":0,"type":"noteOn","noteNumber":81,"velocity":85},{"deltaTime":1260,"channel":0,"type":"noteOff","noteNumber":81,"velocity":85},{"deltaTime":0,"channel":0,"type":"noteOn","noteNumber":83,"velocity":85},{"deltaTime":1260,"channel":0,"type":"noteOff","noteNumber":52,"velocity":85},{"deltaTime":0,"channel":0,"type":"noteOff","noteNumber":48,"velocity":85},{"deltaTime":0,"channel":0,"type":"noteOff","noteNumber":83,"velocity":85},{"deltaTime":0,"channel":0,"type":"noteOn","noteNumber":50,"velocity":85},{"deltaTime":0,"channel":0,"type":"noteOn","noteNumber":84,"velocity":85},{"deltaTime":2520,"channel":0,"type":"noteOff","noteNumber":57,"velocity":85},{"deltaTime":0,"channel":0,"type":"noteOff","noteNumber":84,"velocity":85},{"deltaTime":0,"channel":0,"type":"noteOn","noteNumber":54,"velocity":85},{"deltaTime":2520,"channel":0,"type":"noteOn","noteNumber":57,"velocity":85},{"deltaTime":0,"channel":0,"type":"noteOn","noteNumber":86,"velocity":85},{"deltaTime":2520,"channel":0,"type":"noteOff","noteNumber":57,"velocity":85},{"deltaTime":0,"channel":0,"type":"noteOff","noteNumber":86,"velocity":85},{"deltaTime":0,"channel":0,"type":"noteOn","noteNumber":60,"velocity":85},{"deltaTime":0,"channel":0,"type":"noteOn","noteNumber":84,"velocity":85},{"deltaTime":2520,"channel":0,"type":"noteOff","noteNumber":50,"velocity":85},{"deltaTime":0,"channel":0,"type":"noteOff","noteNumber":54,"velocity":85},{"deltaTime":0,"channel":0,"type":"noteOff","noteNumber":84,"velocity":85},{"deltaTime":0,"channel":0,"type":"noteOn","noteNumber":57,"velocity":85},{"deltaTime":0,"channel":0,"type":"noteOn","noteNumber":83,"velocity":85},{"deltaTime":2520,"channel":0,"type":"noteOff","noteNumber":60,"velocity":85},{"deltaTime":0,"channel":0,"type":"noteOff","noteNumber":57,"velocity":85},{"deltaTime":0,"channel":0,"type":"noteOff","noteNumber":83,"velocity":85},{"deltaTime":0,"channel":0,"type":"noteOn","noteNumber":81,"velocity":85},{"deltaTime":0,"channel":0,"type":"noteOn","noteNumber":54,"velocity":85},{"deltaTime":630,"channel":0,"type":"noteOff","noteNumber":54,"velocity":85},{"deltaTime":1890,"channel":0,"type":"noteOff","noteNumber":81,"velocity":85},{"deltaTime":0,"channel":0,"type":"noteOn","noteNumber":43,"velocity":85},{"deltaTime":0,"channel":0,"type":"noteOn","noteNumber":83,"velocity":85},{"deltaTime":2520,"channel":0,"type":"noteOff","noteNumber":83,"velocity":85},{"deltaTime":0,"channel":0,"type":"noteOn","noteNumber":47,"velocity":85},{"deltaTime":0,"channel":0,"type":"noteOn","noteNumber":81,"velocity":85},{"deltaTime":1680,"channel":0,"type":"noteOff","noteNumber":81,"velocity":85},{"deltaTime":0,"channel":0,"type":"noteOn","noteNumber":79,"velocity":85},{"deltaTime":840,"channel":0,"type":"noteOn","noteNumber":50,"velocity":85},{"deltaTime":840,"channel":0,"type":"noteOff","noteNumber":79,"velocity":85},{"deltaTime":0,"channel":0,"type":"noteOn","noteNumber":81,"velocity":85},{"deltaTime":1680,"channel":0,"type":"noteOff","noteNumber":81,"velocity":85},{"deltaTime":0,"channel":0,"type":"noteOff","noteNumber":50,"velocity":85},{"deltaTime":0,"channel":0,"type":"noteOn","noteNumber":55,"velocity":85},{"deltaTime":0,"channel":0,"type":"noteOn","noteNumber":83,"velocity":85},{"deltaTime":2520,"channel":0,"type":"noteOff","noteNumber":43,"velocity":85},{"deltaTime":0,"channel":0,"type":"noteOff","noteNumber":47,"velocity":85},{"deltaTime":0,"channel":0,"type":"noteOff","noteNumber":83,"velocity":85},{"deltaTime":0,"channel":0,"type":"noteOn","noteNumber":50,"velocity":85},{"deltaTime":0,"channel":0,"type":"noteOn","noteNumber":81,"velocity":85},{"deltaTime":840,"channel":0,"type":"noteOff","noteNumber":81,"velocity":85},{"deltaTime":0,"channel":0,"type":"noteOn","noteNumber":83,"velocity":85},{"deltaTime":840,"channel":0,"type":"noteOff","noteNumber":83,"velocity":85},{"deltaTime":0,"channel":0,"type":"noteOn","noteNumber":81,"velocity":85},{"deltaTime":840,"channel":0,"type":"noteOff","noteNumber":81,"velocity":85},{"deltaTime":0,"channel":0,"type":"noteOn","noteNumber":47,"velocity":85},{"deltaTime":0,"channel":0,"type":"noteOn","noteNumber":79,"velocity":85},{"deltaTime":1260,"channel":0,"type":"noteOff","noteNumber":47,"velocity":85},{"deltaTime":0,"channel":0,"type":"noteOff","noteNumber":79,"velocity":85},{"deltaTime":0,"channel":0,"type":"noteOn","noteNumber":81,"velocity":85},{"deltaTime":1260,"channel":0,"type":"noteOff","noteNumber":55,"velocity":85},{"deltaTime":0,"channel":0,"type":"noteOff","noteNumber":50,"velocity":85},{"deltaTime":0,"channel":0,"type":"noteOff","noteNumber":81,"velocity":85},{"deltaTime":0,"channel":0,"type":"noteOn","noteNumber":48,"velocity":85},{"deltaTime":0,"channel":0,"type":"noteOn","noteNumber":83,"velocity":85},{"deltaTime":2520,"channel":0,"type":"noteOn","noteNumber":52,"velocity":85},{"deltaTime":2520,"channel":0,"type":"noteOff","noteNumber":83,"velocity":85},{"deltaTime":0,"channel":0,"type":"noteOn","noteNumber":55,"velocity":85},{"deltaTime":0,"channel":0,"type":"noteOn","noteNumber":84,"velocity":85},{"deltaTime":2520,"channel":0,"type":"noteOn","noteNumber":60,"velocity":85},{"deltaTime":0,"channel":0,"type":"noteOn","noteNumber":83,"velocity":85},{"deltaTime":2520,"channel":0,"type":"noteOff","noteNumber":48,"velocity":85},{"deltaTime":0,"channel":0,"type":"noteOff","noteNumber":52,"velocity":85},{"deltaTime":0,"channel":0,"type":"noteOff","noteNumber":55,"velocity":85},{"deltaTime":0,"channel":0,"type":"noteOff","noteNumber":84,"velocity":85},{"deltaTime":0,"channel":0,"type":"noteOff","noteNumber":83,"velocity":85},{"deltaTime":0,"channel":0,"type":"noteOn","noteNumber":55,"velocity":85},{"deltaTime":0,"channel":0,"type":"noteOn","noteNumber":81,"velocity":85},{"deltaTime":2520,"channel":0,"type":"noteOff","noteNumber":60,"velocity":85},{"deltaTime":0,"channel":0,"type":"noteOff","noteNumber":81,"velocity":85},{"deltaTime":0,"channel":0,"type":"noteOn","noteNumber":52,"velocity":85},{"deltaTime":0,"channel":0,"type":"noteOn","noteNumber":79,"velocity":85},{"deltaTime":2520,"channel":0,"type":"noteOff","noteNumber":55,"velocity":85},{"deltaTime":0,"channel":0,"type":"noteOff","noteNumber":52,"velocity":85},{"deltaTime":0,"channel":0,"type":"noteOff","noteNumber":79,"velocity":85},{"deltaTime":0,"channel":0,"type":"noteOn","noteNumber":47,"velocity":85},{"deltaTime":0,"channel":0,"type":"noteOn","noteNumber":81,"velocity":85},{"deltaTime":2520,"channel":0,"type":"noteOn","noteNumber":51,"velocity":85},{"deltaTime":1260,"channel":0,"type":"noteOff","noteNumber":81,"velocity":85},{"deltaTime":0,"channel":0,"type":"noteOn","noteNumber":79,"velocity":85},{"deltaTime":1260,"channel":0,"type":"noteOff","noteNumber":79,"velocity":85},{"deltaTime":0,"channel":0,"type":"noteOn","noteNumber":78,"velocity":85},{"deltaTime":0,"channel":0,"type":"noteOn","noteNumber":54,"velocity":85},{"deltaTime":1260,"channel":0,"type":"noteOff","noteNumber":78,"velocity":85},{"deltaTime":0,"channel":0,"type":"noteOn","noteNumber":79,"velocity":85},{"deltaTime":1260,"channel":0,"type":"noteOff","noteNumber":79,"velocity":85},{"deltaTime":0,"channel":0,"type":"noteOff","noteNumber":54,"velocity":85},{"deltaTime":0,"channel":0,"type":"noteOn","noteNumber":57,"velocity":85},{"deltaTime":0,"channel":0,"type":"noteOn","noteNumber":81,"velocity":85},{"deltaTime":2520,"channel":0,"type":"noteOff","noteNumber":47,"velocity":85},{"deltaTime":0,"channel":0,"type":"noteOff","noteNumber":51,"velocity":85},{"deltaTime":0,"channel":0,"type":"noteOff","noteNumber":81,"velocity":85},{"deltaTime":0,"channel":0,"type":"noteOn","noteNumber":54,"velocity":85},{"deltaTime":0,"channel":0,"type":"noteOn","noteNumber":79,"velocity":85},{"deltaTime":630,"channel":0,"type":"noteOff","noteNumber":79,"velocity":85},{"deltaTime":0,"channel":0,"type":"noteOn","noteNumber":81,"velocity":85},{"deltaTime":630,"channel":0,"type":"noteOff","noteNumber":81,"velocity":85},{"deltaTime":0,"channel":0,"type":"noteOn","noteNumber":79,"velocity":85},{"deltaTime":630,"channel":0,"type":"noteOff","noteNumber":79,"velocity":85},{"deltaTime":0,"channel":0,"type":"noteOn","noteNumber":81,"velocity":85},{"deltaTime":630,"channel":0,"type":"noteOff","noteNumber":81,"velocity":85},{"deltaTime":0,"channel":0,"type":"noteOn","noteNumber":51,"velocity":85},{"deltaTime":0,"channel":0,"type":"noteOn","noteNumber":78,"velocity":85},{"deltaTime":1260,"channel":0,"type":"noteOff","noteNumber":78,"velocity":85},{"deltaTime":0,"channel":0,"type":"noteOn","noteNumber":79,"velocity":85},{"deltaTime":1260,"channel":0,"type":"noteOff","noteNumber":57,"velocity":85},{"deltaTime":0,"channel":0,"type":"noteOff","noteNumber":54,"velocity":85},{"deltaTime":0,"channel":0,"type":"noteOff","noteNumber":51,"velocity":85},{"deltaTime":0,"channel":0,"type":"noteOff","noteNumber":79,"velocity":85},{"deltaTime":0,"channel":0,"type":"noteOn","noteNumber":47,"velocity":85},{"deltaTime":0,"channel":0,"type":"noteOn","noteNumber":81,"velocity":85},{"deltaTime":2520,"channel":0,"type":"noteOn","noteNumber":51,"velocity":85},{"deltaTime":2520,"channel":0,"type":"noteOff","noteNumber":47,"velocity":85},{"deltaTime":0,"channel":0,"type":"noteOff","noteNumber":81,"velocity":85},{"deltaTime":0,"channel":0,"type":"noteOff","noteNumber":51,"velocity":85},{"deltaTime":0,"channel":0,"type":"noteOn","noteNumber":54,"velocity":85},{"deltaTime":0,"channel":0,"type":"noteOn","noteNumber":83,"velocity":85},{"deltaTime":2520,"channel":0,"type":"noteOff","noteNumber":54,"velocity":85},{"deltaTime":0,"channel":0,"type":"noteOff","noteNumber":83,"velocity":85},{"deltaTime":0,"channel":0,"type":"noteOn","noteNumber":47,"velocity":85},{"deltaTime":0,"channel":0,"type":"noteOn","noteNumber":83,"velocity":85},{"deltaTime":2520,"channel":0,"type":"noteOff","noteNumber":83,"velocity":85},{"deltaTime":0,"channel":0,"type":"noteOn","noteNumber":49,"velocity":85},{"deltaTime":0,"channel":0,"type":"noteOn","noteNumber":79,"velocity":85},{"deltaTime":2520,"channel":0,"type":"noteOff","noteNumber":47,"velocity":85},{"deltaTime":0,"channel":0,"type":"noteOff","noteNumber":49,"velocity":85},{"deltaTime":0,"channel":0,"type":"noteOff","noteNumber":79,"velocity":85},{"deltaTime":0,"channel":0,"type":"noteOn","noteNumber":51,"velocity":85},{"deltaTime":0,"channel":0,"type":"noteOn","noteNumber":78,"velocity":85},{"deltaTime":1260,"channel":0,"type":"noteOff","noteNumber":78,"velocity":85},{"deltaTime":0,"channel":0,"type":"noteOn","noteNumber":79,"velocity":85},{"deltaTime":1260,"channel":0,"type":"noteOff","noteNumber":51,"velocity":85},{"deltaTime":0,"channel":0,"type":"noteOff","noteNumber":79,"velocity":85},{"deltaTime":0,"channel":0,"type":"noteOn","noteNumber":52,"velocity":85},{"deltaTime":0,"channel":0,"type":"noteOn","noteNumber":76,"velocity":85},{"deltaTime":2520,"channel":0,"type":"noteOn","noteNumber":55,"velocity":85},{"deltaTime":2520,"channel":0,"type":"noteOff","noteNumber":52,"velocity":85},{"deltaTime":0,"channel":0,"type":"noteOff","noteNumber":55,"velocity":85},{"deltaTime":0,"channel":0,"type":"noteOn","noteNumber":59,"velocity":85},{"deltaTime":2520,"channel":0,"type":"noteOff","noteNumber":76,"velocity":85},{"deltaTime":0,"channel":0,"type":"noteOff","noteNumber":59,"velocity":85},{"deltaTime":0,"channel":0,"type":"noteOn","noteNumber":47,"velocity":85},{"deltaTime":0,"channel":0,"type":"noteOn","noteNumber":82,"velocity":85},{"deltaTime":2520,"channel":0,"type":"noteOff","noteNumber":82,"velocity":85},{"deltaTime":0,"channel":0,"type":"noteOn","noteNumber":51,"velocity":85},{"deltaTime":2520,"channel":0,"type":"noteOff","noteNumber":47,"velocity":85},{"deltaTime":0,"channel":0,"type":"noteOn","noteNumber":54,"velocity":85},{"deltaTime":2520,"channel":0,"type":"noteOff","noteNumber":51,"velocity":85},{"deltaTime":0,"channel":0,"type":"noteOff","noteNumber":54,"velocity":85},{"deltaTime":0,"channel":0,"type":"noteOn","noteNumber":40,"velocity":85},{"deltaTime":2520,"channel":0,"type":"noteOn","noteNumber":43,"velocity":85},{"deltaTime":2520,"channel":0,"type":"noteOn","noteNumber":47,"velocity":85},{"deltaTime":1260,"channel":0,"type":"noteOn","noteNumber":52,"velocity":85},{"deltaTime":1260,"channel":0,"type":"noteOff","noteNumber":40,"velocity":85},{"deltaTime":0,"channel":0,"type":"noteOff","noteNumber":43,"velocity":85},{"deltaTime":0,"channel":0,"type":"noteOff","noteNumber":47,"velocity":85},{"deltaTime":0,"channel":0,"type":"noteOff","noteNumber":52,"velocity":85},{"deltaTime":0,"channel":0,"type":"noteOn","noteNumber":55,"velocity":85},{"deltaTime":1260,"channel":0,"type":"noteOff","noteNumber":55,"velocity":85},{"deltaTime":0,"channel":0,"type":"noteOn","noteNumber":59,"velocity":85},{"deltaTime":1260,"channel":0,"type":"noteOff","noteNumber":59,"velocity":85},{"deltaTime":0,"channel":0,"type":"noteOn","noteNumber":64,"velocity":85},{"deltaTime":2520,"channel":0,"type":"noteOn","noteNumber":67,"velocity":85},{"deltaTime":2520,"channel":0,"type":"noteOn","noteNumber":71,"velocity":85},{"deltaTime":2520,"channel":0,"type":"noteOn","noteNumber":76,"velocity":85},{"deltaTime":2520,"channel":0,"type":"noteOn","noteNumber":79,"velocity":85},{"deltaTime":2520,"channel":0,"type":"noteOn","noteNumber":83,"velocity":85},{"deltaTime":1890,"channel":0,"type":"noteOn","noteNumber":88,"velocity":85},{"deltaTime":630,"channel":0,"type":"noteOff","noteNumber":76,"velocity":85},{"deltaTime":0,"channel":0,"type":"noteOff","noteNumber":79,"velocity":85},{"deltaTime":0,"channel":0,"type":"noteOff","noteNumber":83,"velocity":85},{"deltaTime":0,"channel":0,"type":"noteOff","noteNumber":88,"velocity":85},{"deltaTime":2520,"channel":0,"type":"noteOn","noteNumber":76,"velocity":85},{"deltaTime":630,"channel":0,"type":"noteOn","noteNumber":79,"velocity":85},{"deltaTime":630,"channel":0,"type":"noteOn","noteNumber":83,"velocity":85},{"deltaTime":11340,"channel":0,"type":"noteOff","noteNumber":64,"velocity":85},{"deltaTime":0,"channel":0,"type":"noteOff","noteNumber":67,"velocity":85},{"deltaTime":0,"channel":0,"type":"noteOff","noteNumber":71,"velocity":85},{"deltaTime":0,"channel":0,"type":"noteOff","noteNumber":76,"velocity":85},{"deltaTime":630,"channel":0,"type":"noteOff","noteNumber":79,"velocity":85},{"deltaTime":630,"channel":0,"type":"noteOff","noteNumber":83,"velocity":85},{"deltaTime":0,"type":"endOfTrack","meta":true}]]}